M48
;DRILL file {KiCad (5.0.2)-1} date 13/02/2019 12:40:47
;FORMAT={-:-/ absolute / metric / decimal}
FMAT,2
METRIC,TZ
T1C0.400
T2C1.000
%
G90
G05
T1
X7.022Y8.843
X8.755Y13.434
X9.571Y15.837
X9.776Y4.329
X9.905Y10.122
X11.476Y7.455
X11.476Y5.804
X14.941Y12.344
X15.024Y6.51
X15.286Y7.645
X17.699Y7.582
X18.597Y4.924
X18.874Y13.297
T2
X3.328Y16.472
X3.328Y13.932
X3.328Y11.392
X3.328Y8.852
X3.328Y6.312
X21.128Y16.472
X21.128Y13.932
X21.128Y11.392
X21.128Y8.852
X21.128Y6.312
X21.128Y3.772
T0
M30
