G04 #@! TF.GenerationSoftware,KiCad,Pcbnew,(5.0.2)-1*
G04 #@! TF.CreationDate,2019-02-13T12:40:33+01:00*
G04 #@! TF.ProjectId,DICE-ADC-SMD,44494345-2d41-4444-932d-534d442e6b69,rev?*
G04 #@! TF.SameCoordinates,PX8e25b78PY3dbbafc*
G04 #@! TF.FileFunction,Soldermask,Top*
G04 #@! TF.FilePolarity,Negative*
%FSLAX46Y46*%
G04 Gerber Fmt 4.6, Leading zero omitted, Abs format (unit mm)*
G04 Created by KiCad (PCBNEW (5.0.2)-1) date 13/02/2019 12:40:33*
%MOMM*%
%LPD*%
G01*
G04 APERTURE LIST*
%ADD10C,0.100000*%
G04 APERTURE END LIST*
D10*
G36*
X21294350Y4609601D02*
X21454575Y4560997D01*
X21602240Y4482069D01*
X21731669Y4375849D01*
X21837889Y4246420D01*
X21916817Y4098755D01*
X21965421Y3938530D01*
X21981832Y3771900D01*
X21965421Y3605270D01*
X21916817Y3445045D01*
X21837889Y3297380D01*
X21731669Y3167951D01*
X21602240Y3061731D01*
X21454575Y2982803D01*
X21294350Y2934199D01*
X21169472Y2921900D01*
X21085968Y2921900D01*
X20961090Y2934199D01*
X20800865Y2982803D01*
X20653200Y3061731D01*
X20523771Y3167951D01*
X20417551Y3297380D01*
X20338623Y3445045D01*
X20290019Y3605270D01*
X20273608Y3771900D01*
X20290019Y3938530D01*
X20338623Y4098755D01*
X20417551Y4246420D01*
X20523771Y4375849D01*
X20653200Y4482069D01*
X20800865Y4560997D01*
X20961090Y4609601D01*
X21085968Y4621900D01*
X21169472Y4621900D01*
X21294350Y4609601D01*
X21294350Y4609601D01*
G37*
G36*
X17630242Y4467861D02*
X17663773Y4457689D01*
X17694680Y4441169D01*
X17721763Y4418943D01*
X17743989Y4391860D01*
X17760509Y4360953D01*
X17770681Y4327422D01*
X17774720Y4286413D01*
X17774720Y3257387D01*
X17770681Y3216378D01*
X17760509Y3182847D01*
X17743989Y3151940D01*
X17721763Y3124857D01*
X17694680Y3102631D01*
X17663773Y3086111D01*
X17630242Y3075939D01*
X17589233Y3071900D01*
X16810207Y3071900D01*
X16769198Y3075939D01*
X16735667Y3086111D01*
X16704760Y3102631D01*
X16677677Y3124857D01*
X16655451Y3151940D01*
X16638931Y3182847D01*
X16628759Y3216378D01*
X16624720Y3257387D01*
X16624720Y4286413D01*
X16628759Y4327422D01*
X16638931Y4360953D01*
X16655451Y4391860D01*
X16677677Y4418943D01*
X16704760Y4441169D01*
X16735667Y4457689D01*
X16769198Y4467861D01*
X16810207Y4471900D01*
X17589233Y4471900D01*
X17630242Y4467861D01*
X17630242Y4467861D01*
G37*
G36*
X15580242Y4467861D02*
X15613773Y4457689D01*
X15644680Y4441169D01*
X15671763Y4418943D01*
X15693989Y4391860D01*
X15710509Y4360953D01*
X15720681Y4327422D01*
X15724720Y4286413D01*
X15724720Y3257387D01*
X15720681Y3216378D01*
X15710509Y3182847D01*
X15693989Y3151940D01*
X15671763Y3124857D01*
X15644680Y3102631D01*
X15613773Y3086111D01*
X15580242Y3075939D01*
X15539233Y3071900D01*
X14760207Y3071900D01*
X14719198Y3075939D01*
X14685667Y3086111D01*
X14654760Y3102631D01*
X14627677Y3124857D01*
X14605451Y3151940D01*
X14588931Y3182847D01*
X14578759Y3216378D01*
X14574720Y3257387D01*
X14574720Y4286413D01*
X14578759Y4327422D01*
X14588931Y4360953D01*
X14605451Y4391860D01*
X14627677Y4418943D01*
X14654760Y4441169D01*
X14685667Y4457689D01*
X14719198Y4467861D01*
X14760207Y4471900D01*
X15539233Y4471900D01*
X15580242Y4467861D01*
X15580242Y4467861D01*
G37*
G36*
X14045720Y4939900D02*
X12305720Y4939900D01*
X12305720Y7429900D01*
X14045720Y7429900D01*
X14045720Y4939900D01*
X14045720Y4939900D01*
G37*
G36*
X10645720Y4939900D02*
X8905720Y4939900D01*
X8905720Y7429900D01*
X10645720Y7429900D01*
X10645720Y4939900D01*
X10645720Y4939900D01*
G37*
G36*
X3494350Y7149601D02*
X3654575Y7100997D01*
X3802240Y7022069D01*
X3931669Y6915849D01*
X4037889Y6786420D01*
X4116817Y6638755D01*
X4165421Y6478530D01*
X4181832Y6311900D01*
X4165421Y6145270D01*
X4116817Y5985045D01*
X4037889Y5837380D01*
X3931669Y5707951D01*
X3802240Y5601731D01*
X3654575Y5522803D01*
X3494350Y5474199D01*
X3369472Y5461900D01*
X3285968Y5461900D01*
X3161090Y5474199D01*
X3000865Y5522803D01*
X2853200Y5601731D01*
X2723771Y5707951D01*
X2617551Y5837380D01*
X2538623Y5985045D01*
X2490019Y6145270D01*
X2473608Y6311900D01*
X2490019Y6478530D01*
X2538623Y6638755D01*
X2617551Y6786420D01*
X2723771Y6915849D01*
X2853200Y7022069D01*
X3000865Y7100997D01*
X3161090Y7149601D01*
X3285968Y7161900D01*
X3369472Y7161900D01*
X3494350Y7149601D01*
X3494350Y7149601D01*
G37*
G36*
X21294350Y7149601D02*
X21454575Y7100997D01*
X21602240Y7022069D01*
X21731669Y6915849D01*
X21837889Y6786420D01*
X21916817Y6638755D01*
X21965421Y6478530D01*
X21981832Y6311900D01*
X21965421Y6145270D01*
X21916817Y5985045D01*
X21837889Y5837380D01*
X21731669Y5707951D01*
X21602240Y5601731D01*
X21454575Y5522803D01*
X21294350Y5474199D01*
X21169472Y5461900D01*
X21085968Y5461900D01*
X20961090Y5474199D01*
X20800865Y5522803D01*
X20653200Y5601731D01*
X20523771Y5707951D01*
X20417551Y5837380D01*
X20338623Y5985045D01*
X20290019Y6145270D01*
X20273608Y6311900D01*
X20290019Y6478530D01*
X20338623Y6638755D01*
X20417551Y6786420D01*
X20523771Y6915849D01*
X20653200Y7022069D01*
X20800865Y7100997D01*
X20961090Y7149601D01*
X21085968Y7161900D01*
X21169472Y7161900D01*
X21294350Y7149601D01*
X21294350Y7149601D01*
G37*
G36*
X16977242Y7007861D02*
X17010773Y6997689D01*
X17041680Y6981169D01*
X17068763Y6958943D01*
X17090989Y6931860D01*
X17107509Y6900953D01*
X17117681Y6867422D01*
X17121720Y6826413D01*
X17121720Y5797387D01*
X17117681Y5756378D01*
X17107509Y5722847D01*
X17090989Y5691940D01*
X17068763Y5664857D01*
X17041680Y5642631D01*
X17010773Y5626111D01*
X16977242Y5615939D01*
X16936233Y5611900D01*
X16157207Y5611900D01*
X16116198Y5615939D01*
X16082667Y5626111D01*
X16051760Y5642631D01*
X16024677Y5664857D01*
X16002451Y5691940D01*
X15985931Y5722847D01*
X15975759Y5756378D01*
X15971720Y5797387D01*
X15971720Y6826413D01*
X15975759Y6867422D01*
X15985931Y6900953D01*
X16002451Y6931860D01*
X16024677Y6958943D01*
X16051760Y6981169D01*
X16082667Y6997689D01*
X16116198Y7007861D01*
X16157207Y7011900D01*
X16936233Y7011900D01*
X16977242Y7007861D01*
X16977242Y7007861D01*
G37*
G36*
X19027242Y7007861D02*
X19060773Y6997689D01*
X19091680Y6981169D01*
X19118763Y6958943D01*
X19140989Y6931860D01*
X19157509Y6900953D01*
X19167681Y6867422D01*
X19171720Y6826413D01*
X19171720Y5797387D01*
X19167681Y5756378D01*
X19157509Y5722847D01*
X19140989Y5691940D01*
X19118763Y5664857D01*
X19091680Y5642631D01*
X19060773Y5626111D01*
X19027242Y5615939D01*
X18986233Y5611900D01*
X18207207Y5611900D01*
X18166198Y5615939D01*
X18132667Y5626111D01*
X18101760Y5642631D01*
X18074677Y5664857D01*
X18052451Y5691940D01*
X18035931Y5722847D01*
X18025759Y5756378D01*
X18021720Y5797387D01*
X18021720Y6826413D01*
X18025759Y6867422D01*
X18035931Y6900953D01*
X18052451Y6931860D01*
X18074677Y6958943D01*
X18101760Y6981169D01*
X18132667Y6997689D01*
X18166198Y7007861D01*
X18207207Y7011900D01*
X18986233Y7011900D01*
X19027242Y7007861D01*
X19027242Y7007861D01*
G37*
G36*
X21294350Y9689601D02*
X21454575Y9640997D01*
X21602240Y9562069D01*
X21731669Y9455849D01*
X21837889Y9326420D01*
X21916817Y9178755D01*
X21965421Y9018530D01*
X21981832Y8851900D01*
X21965421Y8685270D01*
X21916817Y8525045D01*
X21837889Y8377380D01*
X21731669Y8247951D01*
X21602240Y8141731D01*
X21454575Y8062803D01*
X21294350Y8014199D01*
X21169472Y8001900D01*
X21085968Y8001900D01*
X20961090Y8014199D01*
X20800865Y8062803D01*
X20653200Y8141731D01*
X20523771Y8247951D01*
X20417551Y8377380D01*
X20338623Y8525045D01*
X20290019Y8685270D01*
X20273608Y8851900D01*
X20290019Y9018530D01*
X20338623Y9178755D01*
X20417551Y9326420D01*
X20523771Y9455849D01*
X20653200Y9562069D01*
X20800865Y9640997D01*
X20961090Y9689601D01*
X21085968Y9701900D01*
X21169472Y9701900D01*
X21294350Y9689601D01*
X21294350Y9689601D01*
G37*
G36*
X3494350Y9689601D02*
X3654575Y9640997D01*
X3802240Y9562069D01*
X3931669Y9455849D01*
X4037889Y9326420D01*
X4116817Y9178755D01*
X4165421Y9018530D01*
X4181832Y8851900D01*
X4165421Y8685270D01*
X4116817Y8525045D01*
X4037889Y8377380D01*
X3931669Y8247951D01*
X3802240Y8141731D01*
X3654575Y8062803D01*
X3494350Y8014199D01*
X3369472Y8001900D01*
X3285968Y8001900D01*
X3161090Y8014199D01*
X3000865Y8062803D01*
X2853200Y8141731D01*
X2723771Y8247951D01*
X2617551Y8377380D01*
X2538623Y8525045D01*
X2490019Y8685270D01*
X2473608Y8851900D01*
X2490019Y9018530D01*
X2538623Y9178755D01*
X2617551Y9326420D01*
X2723771Y9455849D01*
X2853200Y9562069D01*
X3000865Y9640997D01*
X3161090Y9689601D01*
X3285968Y9701900D01*
X3369472Y9701900D01*
X3494350Y9689601D01*
X3494350Y9689601D01*
G37*
G36*
X19018242Y9547861D02*
X19051773Y9537689D01*
X19082680Y9521169D01*
X19109763Y9498943D01*
X19131989Y9471860D01*
X19148509Y9440953D01*
X19158681Y9407422D01*
X19162720Y9366413D01*
X19162720Y8337387D01*
X19158681Y8296378D01*
X19148509Y8262847D01*
X19131989Y8231940D01*
X19109763Y8204857D01*
X19082680Y8182631D01*
X19051773Y8166111D01*
X19018242Y8155939D01*
X18977233Y8151900D01*
X18198207Y8151900D01*
X18157198Y8155939D01*
X18123667Y8166111D01*
X18092760Y8182631D01*
X18065677Y8204857D01*
X18043451Y8231940D01*
X18026931Y8262847D01*
X18016759Y8296378D01*
X18012720Y8337387D01*
X18012720Y9366413D01*
X18016759Y9407422D01*
X18026931Y9440953D01*
X18043451Y9471860D01*
X18065677Y9498943D01*
X18092760Y9521169D01*
X18123667Y9537689D01*
X18157198Y9547861D01*
X18198207Y9551900D01*
X18977233Y9551900D01*
X19018242Y9547861D01*
X19018242Y9547861D01*
G37*
G36*
X16968242Y9547861D02*
X17001773Y9537689D01*
X17032680Y9521169D01*
X17059763Y9498943D01*
X17081989Y9471860D01*
X17098509Y9440953D01*
X17108681Y9407422D01*
X17112720Y9366413D01*
X17112720Y8337387D01*
X17108681Y8296378D01*
X17098509Y8262847D01*
X17081989Y8231940D01*
X17059763Y8204857D01*
X17032680Y8182631D01*
X17001773Y8166111D01*
X16968242Y8155939D01*
X16927233Y8151900D01*
X16148207Y8151900D01*
X16107198Y8155939D01*
X16073667Y8166111D01*
X16042760Y8182631D01*
X16015677Y8204857D01*
X15993451Y8231940D01*
X15976931Y8262847D01*
X15966759Y8296378D01*
X15962720Y8337387D01*
X15962720Y9366413D01*
X15966759Y9407422D01*
X15976931Y9440953D01*
X15993451Y9471860D01*
X16015677Y9498943D01*
X16042760Y9521169D01*
X16073667Y9537689D01*
X16107198Y9547861D01*
X16148207Y9551900D01*
X16927233Y9551900D01*
X16968242Y9547861D01*
X16968242Y9547861D01*
G37*
G36*
X8983242Y9413861D02*
X9016773Y9403689D01*
X9047680Y9387169D01*
X9074763Y9364943D01*
X9096989Y9337860D01*
X9113509Y9306953D01*
X9123681Y9273422D01*
X9127720Y9232413D01*
X9127720Y8453387D01*
X9123681Y8412378D01*
X9113509Y8378847D01*
X9096989Y8347940D01*
X9074763Y8320857D01*
X9047680Y8298631D01*
X9016773Y8282111D01*
X8983242Y8271939D01*
X8942233Y8267900D01*
X7913207Y8267900D01*
X7872198Y8271939D01*
X7838667Y8282111D01*
X7807760Y8298631D01*
X7780677Y8320857D01*
X7758451Y8347940D01*
X7741931Y8378847D01*
X7731759Y8412378D01*
X7727720Y8453387D01*
X7727720Y9232413D01*
X7731759Y9273422D01*
X7741931Y9306953D01*
X7758451Y9337860D01*
X7780677Y9364943D01*
X7807760Y9387169D01*
X7838667Y9403689D01*
X7872198Y9413861D01*
X7913207Y9417900D01*
X8942233Y9417900D01*
X8983242Y9413861D01*
X8983242Y9413861D01*
G37*
G36*
X12031242Y9413861D02*
X12064773Y9403689D01*
X12095680Y9387169D01*
X12122763Y9364943D01*
X12144989Y9337860D01*
X12161509Y9306953D01*
X12171681Y9273422D01*
X12175720Y9232413D01*
X12175720Y8453387D01*
X12171681Y8412378D01*
X12161509Y8378847D01*
X12144989Y8347940D01*
X12122763Y8320857D01*
X12095680Y8298631D01*
X12064773Y8282111D01*
X12031242Y8271939D01*
X11990233Y8267900D01*
X10961207Y8267900D01*
X10920198Y8271939D01*
X10886667Y8282111D01*
X10855760Y8298631D01*
X10828677Y8320857D01*
X10806451Y8347940D01*
X10789931Y8378847D01*
X10779759Y8412378D01*
X10775720Y8453387D01*
X10775720Y9232413D01*
X10779759Y9273422D01*
X10789931Y9306953D01*
X10806451Y9337860D01*
X10828677Y9364943D01*
X10855760Y9387169D01*
X10886667Y9403689D01*
X10920198Y9413861D01*
X10961207Y9417900D01*
X11990233Y9417900D01*
X12031242Y9413861D01*
X12031242Y9413861D01*
G37*
G36*
X14730242Y9423861D02*
X14763773Y9413689D01*
X14794680Y9397169D01*
X14821763Y9374943D01*
X14843989Y9347860D01*
X14860509Y9316953D01*
X14870681Y9283422D01*
X14874720Y9242413D01*
X14874720Y8463387D01*
X14870681Y8422378D01*
X14860509Y8388847D01*
X14843989Y8357940D01*
X14821763Y8330857D01*
X14794680Y8308631D01*
X14763773Y8292111D01*
X14730242Y8281939D01*
X14689233Y8277900D01*
X13660207Y8277900D01*
X13619198Y8281939D01*
X13585667Y8292111D01*
X13554760Y8308631D01*
X13527677Y8330857D01*
X13505451Y8357940D01*
X13488931Y8388847D01*
X13478759Y8422378D01*
X13474720Y8463387D01*
X13474720Y9242413D01*
X13478759Y9283422D01*
X13488931Y9316953D01*
X13505451Y9347860D01*
X13527677Y9374943D01*
X13554760Y9397169D01*
X13585667Y9413689D01*
X13619198Y9423861D01*
X13660207Y9427900D01*
X14689233Y9427900D01*
X14730242Y9423861D01*
X14730242Y9423861D01*
G37*
G36*
X8983242Y11463861D02*
X9016773Y11453689D01*
X9047680Y11437169D01*
X9074763Y11414943D01*
X9096989Y11387860D01*
X9113509Y11356953D01*
X9123681Y11323422D01*
X9127720Y11282413D01*
X9127720Y10503387D01*
X9123681Y10462378D01*
X9113509Y10428847D01*
X9096989Y10397940D01*
X9074763Y10370857D01*
X9047680Y10348631D01*
X9016773Y10332111D01*
X8983242Y10321939D01*
X8942233Y10317900D01*
X7913207Y10317900D01*
X7872198Y10321939D01*
X7838667Y10332111D01*
X7807760Y10348631D01*
X7780677Y10370857D01*
X7758451Y10397940D01*
X7741931Y10428847D01*
X7731759Y10462378D01*
X7727720Y10503387D01*
X7727720Y11282413D01*
X7731759Y11323422D01*
X7741931Y11356953D01*
X7758451Y11387860D01*
X7780677Y11414943D01*
X7807760Y11437169D01*
X7838667Y11453689D01*
X7872198Y11463861D01*
X7913207Y11467900D01*
X8942233Y11467900D01*
X8983242Y11463861D01*
X8983242Y11463861D01*
G37*
G36*
X12031242Y11463861D02*
X12064773Y11453689D01*
X12095680Y11437169D01*
X12122763Y11414943D01*
X12144989Y11387860D01*
X12161509Y11356953D01*
X12171681Y11323422D01*
X12175720Y11282413D01*
X12175720Y10503387D01*
X12171681Y10462378D01*
X12161509Y10428847D01*
X12144989Y10397940D01*
X12122763Y10370857D01*
X12095680Y10348631D01*
X12064773Y10332111D01*
X12031242Y10321939D01*
X11990233Y10317900D01*
X10961207Y10317900D01*
X10920198Y10321939D01*
X10886667Y10332111D01*
X10855760Y10348631D01*
X10828677Y10370857D01*
X10806451Y10397940D01*
X10789931Y10428847D01*
X10779759Y10462378D01*
X10775720Y10503387D01*
X10775720Y11282413D01*
X10779759Y11323422D01*
X10789931Y11356953D01*
X10806451Y11387860D01*
X10828677Y11414943D01*
X10855760Y11437169D01*
X10886667Y11453689D01*
X10920198Y11463861D01*
X10961207Y11467900D01*
X11990233Y11467900D01*
X12031242Y11463861D01*
X12031242Y11463861D01*
G37*
G36*
X14730242Y11473861D02*
X14763773Y11463689D01*
X14794680Y11447169D01*
X14821763Y11424943D01*
X14843989Y11397860D01*
X14860509Y11366953D01*
X14870681Y11333422D01*
X14874720Y11292413D01*
X14874720Y10513387D01*
X14870681Y10472378D01*
X14860509Y10438847D01*
X14843989Y10407940D01*
X14821763Y10380857D01*
X14794680Y10358631D01*
X14763773Y10342111D01*
X14730242Y10331939D01*
X14689233Y10327900D01*
X13660207Y10327900D01*
X13619198Y10331939D01*
X13585667Y10342111D01*
X13554760Y10358631D01*
X13527677Y10380857D01*
X13505451Y10407940D01*
X13488931Y10438847D01*
X13478759Y10472378D01*
X13474720Y10513387D01*
X13474720Y11292413D01*
X13478759Y11333422D01*
X13488931Y11366953D01*
X13505451Y11397860D01*
X13527677Y11424943D01*
X13554760Y11447169D01*
X13585667Y11463689D01*
X13619198Y11473861D01*
X13660207Y11477900D01*
X14689233Y11477900D01*
X14730242Y11473861D01*
X14730242Y11473861D01*
G37*
G36*
X17961684Y11893063D02*
X17993248Y11883488D01*
X18022337Y11867940D01*
X18047834Y11847014D01*
X18068760Y11821517D01*
X18084308Y11792428D01*
X18093883Y11760864D01*
X18097720Y11721902D01*
X18097720Y10646898D01*
X18093883Y10607936D01*
X18084308Y10576372D01*
X18068760Y10547283D01*
X18047834Y10521786D01*
X18022337Y10500860D01*
X17993248Y10485312D01*
X17961684Y10475737D01*
X17922722Y10471900D01*
X16522718Y10471900D01*
X16483756Y10475737D01*
X16452192Y10485312D01*
X16423103Y10500860D01*
X16397606Y10521786D01*
X16376680Y10547283D01*
X16361132Y10576372D01*
X16351557Y10607936D01*
X16347720Y10646898D01*
X16347720Y11721902D01*
X16351557Y11760864D01*
X16361132Y11792428D01*
X16376680Y11821517D01*
X16397606Y11847014D01*
X16423103Y11867940D01*
X16452192Y11883488D01*
X16483756Y11893063D01*
X16522718Y11896900D01*
X17922722Y11896900D01*
X17961684Y11893063D01*
X17961684Y11893063D01*
G37*
G36*
X3494350Y12229601D02*
X3654575Y12180997D01*
X3802240Y12102069D01*
X3931669Y11995849D01*
X4037889Y11866420D01*
X4116817Y11718755D01*
X4165421Y11558530D01*
X4181832Y11391900D01*
X4165421Y11225270D01*
X4116817Y11065045D01*
X4037889Y10917380D01*
X3931669Y10787951D01*
X3802240Y10681731D01*
X3654575Y10602803D01*
X3494350Y10554199D01*
X3369472Y10541900D01*
X3285968Y10541900D01*
X3161090Y10554199D01*
X3000865Y10602803D01*
X2853200Y10681731D01*
X2723771Y10787951D01*
X2617551Y10917380D01*
X2538623Y11065045D01*
X2490019Y11225270D01*
X2473608Y11391900D01*
X2490019Y11558530D01*
X2538623Y11718755D01*
X2617551Y11866420D01*
X2723771Y11995849D01*
X2853200Y12102069D01*
X3000865Y12180997D01*
X3161090Y12229601D01*
X3285968Y12241900D01*
X3369472Y12241900D01*
X3494350Y12229601D01*
X3494350Y12229601D01*
G37*
G36*
X21294350Y12229601D02*
X21454575Y12180997D01*
X21602240Y12102069D01*
X21731669Y11995849D01*
X21837889Y11866420D01*
X21916817Y11718755D01*
X21965421Y11558530D01*
X21981832Y11391900D01*
X21965421Y11225270D01*
X21916817Y11065045D01*
X21837889Y10917380D01*
X21731669Y10787951D01*
X21602240Y10681731D01*
X21454575Y10602803D01*
X21294350Y10554199D01*
X21169472Y10541900D01*
X21085968Y10541900D01*
X20961090Y10554199D01*
X20800865Y10602803D01*
X20653200Y10681731D01*
X20523771Y10787951D01*
X20417551Y10917380D01*
X20338623Y11065045D01*
X20290019Y11225270D01*
X20273608Y11391900D01*
X20290019Y11558530D01*
X20338623Y11718755D01*
X20417551Y11866420D01*
X20523771Y11995849D01*
X20653200Y12102069D01*
X20800865Y12180997D01*
X20961090Y12229601D01*
X21085968Y12241900D01*
X21169472Y12241900D01*
X21294350Y12229601D01*
X21294350Y12229601D01*
G37*
G36*
X14013220Y12088900D02*
X12273220Y12088900D01*
X12273220Y14778900D01*
X14013220Y14778900D01*
X14013220Y12088900D01*
X14013220Y12088900D01*
G37*
G36*
X11313220Y12088900D02*
X9573220Y12088900D01*
X9573220Y14778900D01*
X11313220Y14778900D01*
X11313220Y12088900D01*
X11313220Y12088900D01*
G37*
G36*
X21294350Y14769601D02*
X21454575Y14720997D01*
X21602240Y14642069D01*
X21731669Y14535849D01*
X21837889Y14406420D01*
X21916817Y14258755D01*
X21965421Y14098530D01*
X21981832Y13931900D01*
X21965421Y13765270D01*
X21916817Y13605045D01*
X21837889Y13457380D01*
X21731669Y13327951D01*
X21602240Y13221731D01*
X21454575Y13142803D01*
X21294350Y13094199D01*
X21169472Y13081900D01*
X21085968Y13081900D01*
X20961090Y13094199D01*
X20800865Y13142803D01*
X20653200Y13221731D01*
X20523771Y13327951D01*
X20417551Y13457380D01*
X20338623Y13605045D01*
X20290019Y13765270D01*
X20273608Y13931900D01*
X20290019Y14098530D01*
X20338623Y14258755D01*
X20417551Y14406420D01*
X20523771Y14535849D01*
X20653200Y14642069D01*
X20800865Y14720997D01*
X20961090Y14769601D01*
X21085968Y14781900D01*
X21169472Y14781900D01*
X21294350Y14769601D01*
X21294350Y14769601D01*
G37*
G36*
X3494350Y14769601D02*
X3654575Y14720997D01*
X3802240Y14642069D01*
X3931669Y14535849D01*
X4037889Y14406420D01*
X4116817Y14258755D01*
X4165421Y14098530D01*
X4181832Y13931900D01*
X4165421Y13765270D01*
X4116817Y13605045D01*
X4037889Y13457380D01*
X3931669Y13327951D01*
X3802240Y13221731D01*
X3654575Y13142803D01*
X3494350Y13094199D01*
X3369472Y13081900D01*
X3285968Y13081900D01*
X3161090Y13094199D01*
X3000865Y13142803D01*
X2853200Y13221731D01*
X2723771Y13327951D01*
X2617551Y13457380D01*
X2538623Y13605045D01*
X2490019Y13765270D01*
X2473608Y13931900D01*
X2490019Y14098530D01*
X2538623Y14258755D01*
X2617551Y14406420D01*
X2723771Y14535849D01*
X2853200Y14642069D01*
X3000865Y14720997D01*
X3161090Y14769601D01*
X3285968Y14781900D01*
X3369472Y14781900D01*
X3494350Y14769601D01*
X3494350Y14769601D01*
G37*
G36*
X17961684Y14868063D02*
X17993248Y14858488D01*
X18022337Y14842940D01*
X18047834Y14822014D01*
X18068760Y14796517D01*
X18084308Y14767428D01*
X18093883Y14735864D01*
X18097720Y14696902D01*
X18097720Y13621898D01*
X18093883Y13582936D01*
X18084308Y13551372D01*
X18068760Y13522283D01*
X18047834Y13496786D01*
X18022337Y13475860D01*
X17993248Y13460312D01*
X17961684Y13450737D01*
X17922722Y13446900D01*
X16522718Y13446900D01*
X16483756Y13450737D01*
X16452192Y13460312D01*
X16423103Y13475860D01*
X16397606Y13496786D01*
X16376680Y13522283D01*
X16361132Y13551372D01*
X16351557Y13582936D01*
X16347720Y13621898D01*
X16347720Y14696902D01*
X16351557Y14735864D01*
X16361132Y14767428D01*
X16376680Y14796517D01*
X16397606Y14822014D01*
X16423103Y14842940D01*
X16452192Y14858488D01*
X16483756Y14868063D01*
X16522718Y14871900D01*
X17922722Y14871900D01*
X17961684Y14868063D01*
X17961684Y14868063D01*
G37*
G36*
X21977720Y15621900D02*
X20277720Y15621900D01*
X20277720Y17321900D01*
X21977720Y17321900D01*
X21977720Y15621900D01*
X21977720Y15621900D01*
G37*
G36*
X4177720Y15621900D02*
X2477720Y15621900D01*
X2477720Y17321900D01*
X4177720Y17321900D01*
X4177720Y15621900D01*
X4177720Y15621900D01*
G37*
G36*
X14201242Y17177861D02*
X14234773Y17167689D01*
X14265680Y17151169D01*
X14292763Y17128943D01*
X14314989Y17101860D01*
X14331509Y17070953D01*
X14341681Y17037422D01*
X14345720Y16996413D01*
X14345720Y15967387D01*
X14341681Y15926378D01*
X14331509Y15892847D01*
X14314989Y15861940D01*
X14292763Y15834857D01*
X14265680Y15812631D01*
X14234773Y15796111D01*
X14201242Y15785939D01*
X14160233Y15781900D01*
X13381207Y15781900D01*
X13340198Y15785939D01*
X13306667Y15796111D01*
X13275760Y15812631D01*
X13248677Y15834857D01*
X13226451Y15861940D01*
X13209931Y15892847D01*
X13199759Y15926378D01*
X13195720Y15967387D01*
X13195720Y16996413D01*
X13199759Y17037422D01*
X13209931Y17070953D01*
X13226451Y17101860D01*
X13248677Y17128943D01*
X13275760Y17151169D01*
X13306667Y17167689D01*
X13340198Y17177861D01*
X13381207Y17181900D01*
X14160233Y17181900D01*
X14201242Y17177861D01*
X14201242Y17177861D01*
G37*
G36*
X12151242Y17177861D02*
X12184773Y17167689D01*
X12215680Y17151169D01*
X12242763Y17128943D01*
X12264989Y17101860D01*
X12281509Y17070953D01*
X12291681Y17037422D01*
X12295720Y16996413D01*
X12295720Y15967387D01*
X12291681Y15926378D01*
X12281509Y15892847D01*
X12264989Y15861940D01*
X12242763Y15834857D01*
X12215680Y15812631D01*
X12184773Y15796111D01*
X12151242Y15785939D01*
X12110233Y15781900D01*
X11331207Y15781900D01*
X11290198Y15785939D01*
X11256667Y15796111D01*
X11225760Y15812631D01*
X11198677Y15834857D01*
X11176451Y15861940D01*
X11159931Y15892847D01*
X11149759Y15926378D01*
X11145720Y15967387D01*
X11145720Y16996413D01*
X11149759Y17037422D01*
X11159931Y17070953D01*
X11176451Y17101860D01*
X11198677Y17128943D01*
X11225760Y17151169D01*
X11256667Y17167689D01*
X11290198Y17177861D01*
X11331207Y17181900D01*
X12110233Y17181900D01*
X12151242Y17177861D01*
X12151242Y17177861D01*
G37*
M02*
