G04 #@! TF.GenerationSoftware,KiCad,Pcbnew,(5.0.2)-1*
G04 #@! TF.CreationDate,2019-02-13T12:40:33+01:00*
G04 #@! TF.ProjectId,DICE-ADC-SMD,44494345-2d41-4444-932d-534d442e6b69,rev?*
G04 #@! TF.SameCoordinates,PX8e25b78PY3dbbafc*
G04 #@! TF.FileFunction,Paste,Top*
G04 #@! TF.FilePolarity,Positive*
%FSLAX46Y46*%
G04 Gerber Fmt 4.6, Leading zero omitted, Abs format (unit mm)*
G04 Created by KiCad (PCBNEW (5.0.2)-1) date 13/02/2019 12:40:33*
%MOMM*%
%LPD*%
G01*
G04 APERTURE LIST*
%ADD10R,1.600000X0.650000*%
%ADD11R,1.600000X0.400000*%
%ADD12C,0.100000*%
%ADD13C,1.150000*%
%ADD14C,1.425000*%
G04 APERTURE END LIST*
D10*
G04 #@! TO.C,ADC1*
X10443220Y14383900D03*
X10443220Y13433900D03*
X10443220Y12483900D03*
X13143220Y12483900D03*
X13143220Y14383900D03*
X13143220Y13433900D03*
G04 #@! TD*
D11*
G04 #@! TO.C,T1*
X9775720Y5209900D03*
X9775720Y5859900D03*
X9775720Y6509900D03*
X9775720Y7159900D03*
X13175720Y7159900D03*
X13175720Y6509900D03*
X13175720Y5859900D03*
X13175720Y5209900D03*
G04 #@! TD*
D12*
G04 #@! TO.C,C2*
G36*
X14120225Y17180696D02*
X14144493Y17177096D01*
X14168292Y17171135D01*
X14191391Y17162870D01*
X14213570Y17152380D01*
X14234613Y17139768D01*
X14254319Y17125153D01*
X14272497Y17108677D01*
X14288973Y17090499D01*
X14303588Y17070793D01*
X14316200Y17049750D01*
X14326690Y17027571D01*
X14334955Y17004472D01*
X14340916Y16980673D01*
X14344516Y16956405D01*
X14345720Y16931901D01*
X14345720Y16031899D01*
X14344516Y16007395D01*
X14340916Y15983127D01*
X14334955Y15959328D01*
X14326690Y15936229D01*
X14316200Y15914050D01*
X14303588Y15893007D01*
X14288973Y15873301D01*
X14272497Y15855123D01*
X14254319Y15838647D01*
X14234613Y15824032D01*
X14213570Y15811420D01*
X14191391Y15800930D01*
X14168292Y15792665D01*
X14144493Y15786704D01*
X14120225Y15783104D01*
X14095721Y15781900D01*
X13445719Y15781900D01*
X13421215Y15783104D01*
X13396947Y15786704D01*
X13373148Y15792665D01*
X13350049Y15800930D01*
X13327870Y15811420D01*
X13306827Y15824032D01*
X13287121Y15838647D01*
X13268943Y15855123D01*
X13252467Y15873301D01*
X13237852Y15893007D01*
X13225240Y15914050D01*
X13214750Y15936229D01*
X13206485Y15959328D01*
X13200524Y15983127D01*
X13196924Y16007395D01*
X13195720Y16031899D01*
X13195720Y16931901D01*
X13196924Y16956405D01*
X13200524Y16980673D01*
X13206485Y17004472D01*
X13214750Y17027571D01*
X13225240Y17049750D01*
X13237852Y17070793D01*
X13252467Y17090499D01*
X13268943Y17108677D01*
X13287121Y17125153D01*
X13306827Y17139768D01*
X13327870Y17152380D01*
X13350049Y17162870D01*
X13373148Y17171135D01*
X13396947Y17177096D01*
X13421215Y17180696D01*
X13445719Y17181900D01*
X14095721Y17181900D01*
X14120225Y17180696D01*
X14120225Y17180696D01*
G37*
D13*
X13770720Y16481900D03*
D12*
G36*
X12070225Y17180696D02*
X12094493Y17177096D01*
X12118292Y17171135D01*
X12141391Y17162870D01*
X12163570Y17152380D01*
X12184613Y17139768D01*
X12204319Y17125153D01*
X12222497Y17108677D01*
X12238973Y17090499D01*
X12253588Y17070793D01*
X12266200Y17049750D01*
X12276690Y17027571D01*
X12284955Y17004472D01*
X12290916Y16980673D01*
X12294516Y16956405D01*
X12295720Y16931901D01*
X12295720Y16031899D01*
X12294516Y16007395D01*
X12290916Y15983127D01*
X12284955Y15959328D01*
X12276690Y15936229D01*
X12266200Y15914050D01*
X12253588Y15893007D01*
X12238973Y15873301D01*
X12222497Y15855123D01*
X12204319Y15838647D01*
X12184613Y15824032D01*
X12163570Y15811420D01*
X12141391Y15800930D01*
X12118292Y15792665D01*
X12094493Y15786704D01*
X12070225Y15783104D01*
X12045721Y15781900D01*
X11395719Y15781900D01*
X11371215Y15783104D01*
X11346947Y15786704D01*
X11323148Y15792665D01*
X11300049Y15800930D01*
X11277870Y15811420D01*
X11256827Y15824032D01*
X11237121Y15838647D01*
X11218943Y15855123D01*
X11202467Y15873301D01*
X11187852Y15893007D01*
X11175240Y15914050D01*
X11164750Y15936229D01*
X11156485Y15959328D01*
X11150524Y15983127D01*
X11146924Y16007395D01*
X11145720Y16031899D01*
X11145720Y16931901D01*
X11146924Y16956405D01*
X11150524Y16980673D01*
X11156485Y17004472D01*
X11164750Y17027571D01*
X11175240Y17049750D01*
X11187852Y17070793D01*
X11202467Y17090499D01*
X11218943Y17108677D01*
X11237121Y17125153D01*
X11256827Y17139768D01*
X11277870Y17152380D01*
X11300049Y17162870D01*
X11323148Y17171135D01*
X11346947Y17177096D01*
X11371215Y17180696D01*
X11395719Y17181900D01*
X12045721Y17181900D01*
X12070225Y17180696D01*
X12070225Y17180696D01*
G37*
D13*
X11720720Y16481900D03*
G04 #@! TD*
D12*
G04 #@! TO.C,R5*
G36*
X8902225Y9416696D02*
X8926493Y9413096D01*
X8950292Y9407135D01*
X8973391Y9398870D01*
X8995570Y9388380D01*
X9016613Y9375768D01*
X9036319Y9361153D01*
X9054497Y9344677D01*
X9070973Y9326499D01*
X9085588Y9306793D01*
X9098200Y9285750D01*
X9108690Y9263571D01*
X9116955Y9240472D01*
X9122916Y9216673D01*
X9126516Y9192405D01*
X9127720Y9167901D01*
X9127720Y8517899D01*
X9126516Y8493395D01*
X9122916Y8469127D01*
X9116955Y8445328D01*
X9108690Y8422229D01*
X9098200Y8400050D01*
X9085588Y8379007D01*
X9070973Y8359301D01*
X9054497Y8341123D01*
X9036319Y8324647D01*
X9016613Y8310032D01*
X8995570Y8297420D01*
X8973391Y8286930D01*
X8950292Y8278665D01*
X8926493Y8272704D01*
X8902225Y8269104D01*
X8877721Y8267900D01*
X7977719Y8267900D01*
X7953215Y8269104D01*
X7928947Y8272704D01*
X7905148Y8278665D01*
X7882049Y8286930D01*
X7859870Y8297420D01*
X7838827Y8310032D01*
X7819121Y8324647D01*
X7800943Y8341123D01*
X7784467Y8359301D01*
X7769852Y8379007D01*
X7757240Y8400050D01*
X7746750Y8422229D01*
X7738485Y8445328D01*
X7732524Y8469127D01*
X7728924Y8493395D01*
X7727720Y8517899D01*
X7727720Y9167901D01*
X7728924Y9192405D01*
X7732524Y9216673D01*
X7738485Y9240472D01*
X7746750Y9263571D01*
X7757240Y9285750D01*
X7769852Y9306793D01*
X7784467Y9326499D01*
X7800943Y9344677D01*
X7819121Y9361153D01*
X7838827Y9375768D01*
X7859870Y9388380D01*
X7882049Y9398870D01*
X7905148Y9407135D01*
X7928947Y9413096D01*
X7953215Y9416696D01*
X7977719Y9417900D01*
X8877721Y9417900D01*
X8902225Y9416696D01*
X8902225Y9416696D01*
G37*
D13*
X8427720Y8842900D03*
D12*
G36*
X8902225Y11466696D02*
X8926493Y11463096D01*
X8950292Y11457135D01*
X8973391Y11448870D01*
X8995570Y11438380D01*
X9016613Y11425768D01*
X9036319Y11411153D01*
X9054497Y11394677D01*
X9070973Y11376499D01*
X9085588Y11356793D01*
X9098200Y11335750D01*
X9108690Y11313571D01*
X9116955Y11290472D01*
X9122916Y11266673D01*
X9126516Y11242405D01*
X9127720Y11217901D01*
X9127720Y10567899D01*
X9126516Y10543395D01*
X9122916Y10519127D01*
X9116955Y10495328D01*
X9108690Y10472229D01*
X9098200Y10450050D01*
X9085588Y10429007D01*
X9070973Y10409301D01*
X9054497Y10391123D01*
X9036319Y10374647D01*
X9016613Y10360032D01*
X8995570Y10347420D01*
X8973391Y10336930D01*
X8950292Y10328665D01*
X8926493Y10322704D01*
X8902225Y10319104D01*
X8877721Y10317900D01*
X7977719Y10317900D01*
X7953215Y10319104D01*
X7928947Y10322704D01*
X7905148Y10328665D01*
X7882049Y10336930D01*
X7859870Y10347420D01*
X7838827Y10360032D01*
X7819121Y10374647D01*
X7800943Y10391123D01*
X7784467Y10409301D01*
X7769852Y10429007D01*
X7757240Y10450050D01*
X7746750Y10472229D01*
X7738485Y10495328D01*
X7732524Y10519127D01*
X7728924Y10543395D01*
X7727720Y10567899D01*
X7727720Y11217901D01*
X7728924Y11242405D01*
X7732524Y11266673D01*
X7738485Y11290472D01*
X7746750Y11313571D01*
X7757240Y11335750D01*
X7769852Y11356793D01*
X7784467Y11376499D01*
X7800943Y11394677D01*
X7819121Y11411153D01*
X7838827Y11425768D01*
X7859870Y11438380D01*
X7882049Y11448870D01*
X7905148Y11457135D01*
X7928947Y11463096D01*
X7953215Y11466696D01*
X7977719Y11467900D01*
X8877721Y11467900D01*
X8902225Y11466696D01*
X8902225Y11466696D01*
G37*
D13*
X8427720Y10892900D03*
G04 #@! TD*
D12*
G04 #@! TO.C,R4*
G36*
X11950225Y11466696D02*
X11974493Y11463096D01*
X11998292Y11457135D01*
X12021391Y11448870D01*
X12043570Y11438380D01*
X12064613Y11425768D01*
X12084319Y11411153D01*
X12102497Y11394677D01*
X12118973Y11376499D01*
X12133588Y11356793D01*
X12146200Y11335750D01*
X12156690Y11313571D01*
X12164955Y11290472D01*
X12170916Y11266673D01*
X12174516Y11242405D01*
X12175720Y11217901D01*
X12175720Y10567899D01*
X12174516Y10543395D01*
X12170916Y10519127D01*
X12164955Y10495328D01*
X12156690Y10472229D01*
X12146200Y10450050D01*
X12133588Y10429007D01*
X12118973Y10409301D01*
X12102497Y10391123D01*
X12084319Y10374647D01*
X12064613Y10360032D01*
X12043570Y10347420D01*
X12021391Y10336930D01*
X11998292Y10328665D01*
X11974493Y10322704D01*
X11950225Y10319104D01*
X11925721Y10317900D01*
X11025719Y10317900D01*
X11001215Y10319104D01*
X10976947Y10322704D01*
X10953148Y10328665D01*
X10930049Y10336930D01*
X10907870Y10347420D01*
X10886827Y10360032D01*
X10867121Y10374647D01*
X10848943Y10391123D01*
X10832467Y10409301D01*
X10817852Y10429007D01*
X10805240Y10450050D01*
X10794750Y10472229D01*
X10786485Y10495328D01*
X10780524Y10519127D01*
X10776924Y10543395D01*
X10775720Y10567899D01*
X10775720Y11217901D01*
X10776924Y11242405D01*
X10780524Y11266673D01*
X10786485Y11290472D01*
X10794750Y11313571D01*
X10805240Y11335750D01*
X10817852Y11356793D01*
X10832467Y11376499D01*
X10848943Y11394677D01*
X10867121Y11411153D01*
X10886827Y11425768D01*
X10907870Y11438380D01*
X10930049Y11448870D01*
X10953148Y11457135D01*
X10976947Y11463096D01*
X11001215Y11466696D01*
X11025719Y11467900D01*
X11925721Y11467900D01*
X11950225Y11466696D01*
X11950225Y11466696D01*
G37*
D13*
X11475720Y10892900D03*
D12*
G36*
X11950225Y9416696D02*
X11974493Y9413096D01*
X11998292Y9407135D01*
X12021391Y9398870D01*
X12043570Y9388380D01*
X12064613Y9375768D01*
X12084319Y9361153D01*
X12102497Y9344677D01*
X12118973Y9326499D01*
X12133588Y9306793D01*
X12146200Y9285750D01*
X12156690Y9263571D01*
X12164955Y9240472D01*
X12170916Y9216673D01*
X12174516Y9192405D01*
X12175720Y9167901D01*
X12175720Y8517899D01*
X12174516Y8493395D01*
X12170916Y8469127D01*
X12164955Y8445328D01*
X12156690Y8422229D01*
X12146200Y8400050D01*
X12133588Y8379007D01*
X12118973Y8359301D01*
X12102497Y8341123D01*
X12084319Y8324647D01*
X12064613Y8310032D01*
X12043570Y8297420D01*
X12021391Y8286930D01*
X11998292Y8278665D01*
X11974493Y8272704D01*
X11950225Y8269104D01*
X11925721Y8267900D01*
X11025719Y8267900D01*
X11001215Y8269104D01*
X10976947Y8272704D01*
X10953148Y8278665D01*
X10930049Y8286930D01*
X10907870Y8297420D01*
X10886827Y8310032D01*
X10867121Y8324647D01*
X10848943Y8341123D01*
X10832467Y8359301D01*
X10817852Y8379007D01*
X10805240Y8400050D01*
X10794750Y8422229D01*
X10786485Y8445328D01*
X10780524Y8469127D01*
X10776924Y8493395D01*
X10775720Y8517899D01*
X10775720Y9167901D01*
X10776924Y9192405D01*
X10780524Y9216673D01*
X10786485Y9240472D01*
X10794750Y9263571D01*
X10805240Y9285750D01*
X10817852Y9306793D01*
X10832467Y9326499D01*
X10848943Y9344677D01*
X10867121Y9361153D01*
X10886827Y9375768D01*
X10907870Y9388380D01*
X10930049Y9398870D01*
X10953148Y9407135D01*
X10976947Y9413096D01*
X11001215Y9416696D01*
X11025719Y9417900D01*
X11925721Y9417900D01*
X11950225Y9416696D01*
X11950225Y9416696D01*
G37*
D13*
X11475720Y8842900D03*
G04 #@! TD*
D12*
G04 #@! TO.C,R3*
G36*
X14649225Y9426696D02*
X14673493Y9423096D01*
X14697292Y9417135D01*
X14720391Y9408870D01*
X14742570Y9398380D01*
X14763613Y9385768D01*
X14783319Y9371153D01*
X14801497Y9354677D01*
X14817973Y9336499D01*
X14832588Y9316793D01*
X14845200Y9295750D01*
X14855690Y9273571D01*
X14863955Y9250472D01*
X14869916Y9226673D01*
X14873516Y9202405D01*
X14874720Y9177901D01*
X14874720Y8527899D01*
X14873516Y8503395D01*
X14869916Y8479127D01*
X14863955Y8455328D01*
X14855690Y8432229D01*
X14845200Y8410050D01*
X14832588Y8389007D01*
X14817973Y8369301D01*
X14801497Y8351123D01*
X14783319Y8334647D01*
X14763613Y8320032D01*
X14742570Y8307420D01*
X14720391Y8296930D01*
X14697292Y8288665D01*
X14673493Y8282704D01*
X14649225Y8279104D01*
X14624721Y8277900D01*
X13724719Y8277900D01*
X13700215Y8279104D01*
X13675947Y8282704D01*
X13652148Y8288665D01*
X13629049Y8296930D01*
X13606870Y8307420D01*
X13585827Y8320032D01*
X13566121Y8334647D01*
X13547943Y8351123D01*
X13531467Y8369301D01*
X13516852Y8389007D01*
X13504240Y8410050D01*
X13493750Y8432229D01*
X13485485Y8455328D01*
X13479524Y8479127D01*
X13475924Y8503395D01*
X13474720Y8527899D01*
X13474720Y9177901D01*
X13475924Y9202405D01*
X13479524Y9226673D01*
X13485485Y9250472D01*
X13493750Y9273571D01*
X13504240Y9295750D01*
X13516852Y9316793D01*
X13531467Y9336499D01*
X13547943Y9354677D01*
X13566121Y9371153D01*
X13585827Y9385768D01*
X13606870Y9398380D01*
X13629049Y9408870D01*
X13652148Y9417135D01*
X13675947Y9423096D01*
X13700215Y9426696D01*
X13724719Y9427900D01*
X14624721Y9427900D01*
X14649225Y9426696D01*
X14649225Y9426696D01*
G37*
D13*
X14174720Y8852900D03*
D12*
G36*
X14649225Y11476696D02*
X14673493Y11473096D01*
X14697292Y11467135D01*
X14720391Y11458870D01*
X14742570Y11448380D01*
X14763613Y11435768D01*
X14783319Y11421153D01*
X14801497Y11404677D01*
X14817973Y11386499D01*
X14832588Y11366793D01*
X14845200Y11345750D01*
X14855690Y11323571D01*
X14863955Y11300472D01*
X14869916Y11276673D01*
X14873516Y11252405D01*
X14874720Y11227901D01*
X14874720Y10577899D01*
X14873516Y10553395D01*
X14869916Y10529127D01*
X14863955Y10505328D01*
X14855690Y10482229D01*
X14845200Y10460050D01*
X14832588Y10439007D01*
X14817973Y10419301D01*
X14801497Y10401123D01*
X14783319Y10384647D01*
X14763613Y10370032D01*
X14742570Y10357420D01*
X14720391Y10346930D01*
X14697292Y10338665D01*
X14673493Y10332704D01*
X14649225Y10329104D01*
X14624721Y10327900D01*
X13724719Y10327900D01*
X13700215Y10329104D01*
X13675947Y10332704D01*
X13652148Y10338665D01*
X13629049Y10346930D01*
X13606870Y10357420D01*
X13585827Y10370032D01*
X13566121Y10384647D01*
X13547943Y10401123D01*
X13531467Y10419301D01*
X13516852Y10439007D01*
X13504240Y10460050D01*
X13493750Y10482229D01*
X13485485Y10505328D01*
X13479524Y10529127D01*
X13475924Y10553395D01*
X13474720Y10577899D01*
X13474720Y11227901D01*
X13475924Y11252405D01*
X13479524Y11276673D01*
X13485485Y11300472D01*
X13493750Y11323571D01*
X13504240Y11345750D01*
X13516852Y11366793D01*
X13531467Y11386499D01*
X13547943Y11404677D01*
X13566121Y11421153D01*
X13585827Y11435768D01*
X13606870Y11448380D01*
X13629049Y11458870D01*
X13652148Y11467135D01*
X13675947Y11473096D01*
X13700215Y11476696D01*
X13724719Y11477900D01*
X14624721Y11477900D01*
X14649225Y11476696D01*
X14649225Y11476696D01*
G37*
D13*
X14174720Y10902900D03*
G04 #@! TD*
D12*
G04 #@! TO.C,R2*
G36*
X18946225Y7010696D02*
X18970493Y7007096D01*
X18994292Y7001135D01*
X19017391Y6992870D01*
X19039570Y6982380D01*
X19060613Y6969768D01*
X19080319Y6955153D01*
X19098497Y6938677D01*
X19114973Y6920499D01*
X19129588Y6900793D01*
X19142200Y6879750D01*
X19152690Y6857571D01*
X19160955Y6834472D01*
X19166916Y6810673D01*
X19170516Y6786405D01*
X19171720Y6761901D01*
X19171720Y5861899D01*
X19170516Y5837395D01*
X19166916Y5813127D01*
X19160955Y5789328D01*
X19152690Y5766229D01*
X19142200Y5744050D01*
X19129588Y5723007D01*
X19114973Y5703301D01*
X19098497Y5685123D01*
X19080319Y5668647D01*
X19060613Y5654032D01*
X19039570Y5641420D01*
X19017391Y5630930D01*
X18994292Y5622665D01*
X18970493Y5616704D01*
X18946225Y5613104D01*
X18921721Y5611900D01*
X18271719Y5611900D01*
X18247215Y5613104D01*
X18222947Y5616704D01*
X18199148Y5622665D01*
X18176049Y5630930D01*
X18153870Y5641420D01*
X18132827Y5654032D01*
X18113121Y5668647D01*
X18094943Y5685123D01*
X18078467Y5703301D01*
X18063852Y5723007D01*
X18051240Y5744050D01*
X18040750Y5766229D01*
X18032485Y5789328D01*
X18026524Y5813127D01*
X18022924Y5837395D01*
X18021720Y5861899D01*
X18021720Y6761901D01*
X18022924Y6786405D01*
X18026524Y6810673D01*
X18032485Y6834472D01*
X18040750Y6857571D01*
X18051240Y6879750D01*
X18063852Y6900793D01*
X18078467Y6920499D01*
X18094943Y6938677D01*
X18113121Y6955153D01*
X18132827Y6969768D01*
X18153870Y6982380D01*
X18176049Y6992870D01*
X18199148Y7001135D01*
X18222947Y7007096D01*
X18247215Y7010696D01*
X18271719Y7011900D01*
X18921721Y7011900D01*
X18946225Y7010696D01*
X18946225Y7010696D01*
G37*
D13*
X18596720Y6311900D03*
D12*
G36*
X16896225Y7010696D02*
X16920493Y7007096D01*
X16944292Y7001135D01*
X16967391Y6992870D01*
X16989570Y6982380D01*
X17010613Y6969768D01*
X17030319Y6955153D01*
X17048497Y6938677D01*
X17064973Y6920499D01*
X17079588Y6900793D01*
X17092200Y6879750D01*
X17102690Y6857571D01*
X17110955Y6834472D01*
X17116916Y6810673D01*
X17120516Y6786405D01*
X17121720Y6761901D01*
X17121720Y5861899D01*
X17120516Y5837395D01*
X17116916Y5813127D01*
X17110955Y5789328D01*
X17102690Y5766229D01*
X17092200Y5744050D01*
X17079588Y5723007D01*
X17064973Y5703301D01*
X17048497Y5685123D01*
X17030319Y5668647D01*
X17010613Y5654032D01*
X16989570Y5641420D01*
X16967391Y5630930D01*
X16944292Y5622665D01*
X16920493Y5616704D01*
X16896225Y5613104D01*
X16871721Y5611900D01*
X16221719Y5611900D01*
X16197215Y5613104D01*
X16172947Y5616704D01*
X16149148Y5622665D01*
X16126049Y5630930D01*
X16103870Y5641420D01*
X16082827Y5654032D01*
X16063121Y5668647D01*
X16044943Y5685123D01*
X16028467Y5703301D01*
X16013852Y5723007D01*
X16001240Y5744050D01*
X15990750Y5766229D01*
X15982485Y5789328D01*
X15976524Y5813127D01*
X15972924Y5837395D01*
X15971720Y5861899D01*
X15971720Y6761901D01*
X15972924Y6786405D01*
X15976524Y6810673D01*
X15982485Y6834472D01*
X15990750Y6857571D01*
X16001240Y6879750D01*
X16013852Y6900793D01*
X16028467Y6920499D01*
X16044943Y6938677D01*
X16063121Y6955153D01*
X16082827Y6969768D01*
X16103870Y6982380D01*
X16126049Y6992870D01*
X16149148Y7001135D01*
X16172947Y7007096D01*
X16197215Y7010696D01*
X16221719Y7011900D01*
X16871721Y7011900D01*
X16896225Y7010696D01*
X16896225Y7010696D01*
G37*
D13*
X16546720Y6311900D03*
G04 #@! TD*
D12*
G04 #@! TO.C,R1*
G36*
X16887225Y9550696D02*
X16911493Y9547096D01*
X16935292Y9541135D01*
X16958391Y9532870D01*
X16980570Y9522380D01*
X17001613Y9509768D01*
X17021319Y9495153D01*
X17039497Y9478677D01*
X17055973Y9460499D01*
X17070588Y9440793D01*
X17083200Y9419750D01*
X17093690Y9397571D01*
X17101955Y9374472D01*
X17107916Y9350673D01*
X17111516Y9326405D01*
X17112720Y9301901D01*
X17112720Y8401899D01*
X17111516Y8377395D01*
X17107916Y8353127D01*
X17101955Y8329328D01*
X17093690Y8306229D01*
X17083200Y8284050D01*
X17070588Y8263007D01*
X17055973Y8243301D01*
X17039497Y8225123D01*
X17021319Y8208647D01*
X17001613Y8194032D01*
X16980570Y8181420D01*
X16958391Y8170930D01*
X16935292Y8162665D01*
X16911493Y8156704D01*
X16887225Y8153104D01*
X16862721Y8151900D01*
X16212719Y8151900D01*
X16188215Y8153104D01*
X16163947Y8156704D01*
X16140148Y8162665D01*
X16117049Y8170930D01*
X16094870Y8181420D01*
X16073827Y8194032D01*
X16054121Y8208647D01*
X16035943Y8225123D01*
X16019467Y8243301D01*
X16004852Y8263007D01*
X15992240Y8284050D01*
X15981750Y8306229D01*
X15973485Y8329328D01*
X15967524Y8353127D01*
X15963924Y8377395D01*
X15962720Y8401899D01*
X15962720Y9301901D01*
X15963924Y9326405D01*
X15967524Y9350673D01*
X15973485Y9374472D01*
X15981750Y9397571D01*
X15992240Y9419750D01*
X16004852Y9440793D01*
X16019467Y9460499D01*
X16035943Y9478677D01*
X16054121Y9495153D01*
X16073827Y9509768D01*
X16094870Y9522380D01*
X16117049Y9532870D01*
X16140148Y9541135D01*
X16163947Y9547096D01*
X16188215Y9550696D01*
X16212719Y9551900D01*
X16862721Y9551900D01*
X16887225Y9550696D01*
X16887225Y9550696D01*
G37*
D13*
X16537720Y8851900D03*
D12*
G36*
X18937225Y9550696D02*
X18961493Y9547096D01*
X18985292Y9541135D01*
X19008391Y9532870D01*
X19030570Y9522380D01*
X19051613Y9509768D01*
X19071319Y9495153D01*
X19089497Y9478677D01*
X19105973Y9460499D01*
X19120588Y9440793D01*
X19133200Y9419750D01*
X19143690Y9397571D01*
X19151955Y9374472D01*
X19157916Y9350673D01*
X19161516Y9326405D01*
X19162720Y9301901D01*
X19162720Y8401899D01*
X19161516Y8377395D01*
X19157916Y8353127D01*
X19151955Y8329328D01*
X19143690Y8306229D01*
X19133200Y8284050D01*
X19120588Y8263007D01*
X19105973Y8243301D01*
X19089497Y8225123D01*
X19071319Y8208647D01*
X19051613Y8194032D01*
X19030570Y8181420D01*
X19008391Y8170930D01*
X18985292Y8162665D01*
X18961493Y8156704D01*
X18937225Y8153104D01*
X18912721Y8151900D01*
X18262719Y8151900D01*
X18238215Y8153104D01*
X18213947Y8156704D01*
X18190148Y8162665D01*
X18167049Y8170930D01*
X18144870Y8181420D01*
X18123827Y8194032D01*
X18104121Y8208647D01*
X18085943Y8225123D01*
X18069467Y8243301D01*
X18054852Y8263007D01*
X18042240Y8284050D01*
X18031750Y8306229D01*
X18023485Y8329328D01*
X18017524Y8353127D01*
X18013924Y8377395D01*
X18012720Y8401899D01*
X18012720Y9301901D01*
X18013924Y9326405D01*
X18017524Y9350673D01*
X18023485Y9374472D01*
X18031750Y9397571D01*
X18042240Y9419750D01*
X18054852Y9440793D01*
X18069467Y9460499D01*
X18085943Y9478677D01*
X18104121Y9495153D01*
X18123827Y9509768D01*
X18144870Y9522380D01*
X18167049Y9532870D01*
X18190148Y9541135D01*
X18213947Y9547096D01*
X18238215Y9550696D01*
X18262719Y9551900D01*
X18912721Y9551900D01*
X18937225Y9550696D01*
X18937225Y9550696D01*
G37*
D13*
X18587720Y8851900D03*
G04 #@! TD*
D12*
G04 #@! TO.C,C1*
G36*
X17872224Y11895696D02*
X17896493Y11892096D01*
X17920291Y11886135D01*
X17943391Y11877870D01*
X17965569Y11867380D01*
X17986613Y11854767D01*
X18006318Y11840153D01*
X18024497Y11823677D01*
X18040973Y11805498D01*
X18055587Y11785793D01*
X18068200Y11764749D01*
X18078690Y11742571D01*
X18086955Y11719471D01*
X18092916Y11695673D01*
X18096516Y11671404D01*
X18097720Y11646900D01*
X18097720Y10721900D01*
X18096516Y10697396D01*
X18092916Y10673127D01*
X18086955Y10649329D01*
X18078690Y10626229D01*
X18068200Y10604051D01*
X18055587Y10583007D01*
X18040973Y10563302D01*
X18024497Y10545123D01*
X18006318Y10528647D01*
X17986613Y10514033D01*
X17965569Y10501420D01*
X17943391Y10490930D01*
X17920291Y10482665D01*
X17896493Y10476704D01*
X17872224Y10473104D01*
X17847720Y10471900D01*
X16597720Y10471900D01*
X16573216Y10473104D01*
X16548947Y10476704D01*
X16525149Y10482665D01*
X16502049Y10490930D01*
X16479871Y10501420D01*
X16458827Y10514033D01*
X16439122Y10528647D01*
X16420943Y10545123D01*
X16404467Y10563302D01*
X16389853Y10583007D01*
X16377240Y10604051D01*
X16366750Y10626229D01*
X16358485Y10649329D01*
X16352524Y10673127D01*
X16348924Y10697396D01*
X16347720Y10721900D01*
X16347720Y11646900D01*
X16348924Y11671404D01*
X16352524Y11695673D01*
X16358485Y11719471D01*
X16366750Y11742571D01*
X16377240Y11764749D01*
X16389853Y11785793D01*
X16404467Y11805498D01*
X16420943Y11823677D01*
X16439122Y11840153D01*
X16458827Y11854767D01*
X16479871Y11867380D01*
X16502049Y11877870D01*
X16525149Y11886135D01*
X16548947Y11892096D01*
X16573216Y11895696D01*
X16597720Y11896900D01*
X17847720Y11896900D01*
X17872224Y11895696D01*
X17872224Y11895696D01*
G37*
D14*
X17222720Y11184400D03*
D12*
G36*
X17872224Y14870696D02*
X17896493Y14867096D01*
X17920291Y14861135D01*
X17943391Y14852870D01*
X17965569Y14842380D01*
X17986613Y14829767D01*
X18006318Y14815153D01*
X18024497Y14798677D01*
X18040973Y14780498D01*
X18055587Y14760793D01*
X18068200Y14739749D01*
X18078690Y14717571D01*
X18086955Y14694471D01*
X18092916Y14670673D01*
X18096516Y14646404D01*
X18097720Y14621900D01*
X18097720Y13696900D01*
X18096516Y13672396D01*
X18092916Y13648127D01*
X18086955Y13624329D01*
X18078690Y13601229D01*
X18068200Y13579051D01*
X18055587Y13558007D01*
X18040973Y13538302D01*
X18024497Y13520123D01*
X18006318Y13503647D01*
X17986613Y13489033D01*
X17965569Y13476420D01*
X17943391Y13465930D01*
X17920291Y13457665D01*
X17896493Y13451704D01*
X17872224Y13448104D01*
X17847720Y13446900D01*
X16597720Y13446900D01*
X16573216Y13448104D01*
X16548947Y13451704D01*
X16525149Y13457665D01*
X16502049Y13465930D01*
X16479871Y13476420D01*
X16458827Y13489033D01*
X16439122Y13503647D01*
X16420943Y13520123D01*
X16404467Y13538302D01*
X16389853Y13558007D01*
X16377240Y13579051D01*
X16366750Y13601229D01*
X16358485Y13624329D01*
X16352524Y13648127D01*
X16348924Y13672396D01*
X16347720Y13696900D01*
X16347720Y14621900D01*
X16348924Y14646404D01*
X16352524Y14670673D01*
X16358485Y14694471D01*
X16366750Y14717571D01*
X16377240Y14739749D01*
X16389853Y14760793D01*
X16404467Y14780498D01*
X16420943Y14798677D01*
X16439122Y14815153D01*
X16458827Y14829767D01*
X16479871Y14842380D01*
X16502049Y14852870D01*
X16525149Y14861135D01*
X16548947Y14867096D01*
X16573216Y14870696D01*
X16597720Y14871900D01*
X17847720Y14871900D01*
X17872224Y14870696D01*
X17872224Y14870696D01*
G37*
D14*
X17222720Y14159400D03*
G04 #@! TD*
D12*
G04 #@! TO.C,C3*
G36*
X17549225Y4470696D02*
X17573493Y4467096D01*
X17597292Y4461135D01*
X17620391Y4452870D01*
X17642570Y4442380D01*
X17663613Y4429768D01*
X17683319Y4415153D01*
X17701497Y4398677D01*
X17717973Y4380499D01*
X17732588Y4360793D01*
X17745200Y4339750D01*
X17755690Y4317571D01*
X17763955Y4294472D01*
X17769916Y4270673D01*
X17773516Y4246405D01*
X17774720Y4221901D01*
X17774720Y3321899D01*
X17773516Y3297395D01*
X17769916Y3273127D01*
X17763955Y3249328D01*
X17755690Y3226229D01*
X17745200Y3204050D01*
X17732588Y3183007D01*
X17717973Y3163301D01*
X17701497Y3145123D01*
X17683319Y3128647D01*
X17663613Y3114032D01*
X17642570Y3101420D01*
X17620391Y3090930D01*
X17597292Y3082665D01*
X17573493Y3076704D01*
X17549225Y3073104D01*
X17524721Y3071900D01*
X16874719Y3071900D01*
X16850215Y3073104D01*
X16825947Y3076704D01*
X16802148Y3082665D01*
X16779049Y3090930D01*
X16756870Y3101420D01*
X16735827Y3114032D01*
X16716121Y3128647D01*
X16697943Y3145123D01*
X16681467Y3163301D01*
X16666852Y3183007D01*
X16654240Y3204050D01*
X16643750Y3226229D01*
X16635485Y3249328D01*
X16629524Y3273127D01*
X16625924Y3297395D01*
X16624720Y3321899D01*
X16624720Y4221901D01*
X16625924Y4246405D01*
X16629524Y4270673D01*
X16635485Y4294472D01*
X16643750Y4317571D01*
X16654240Y4339750D01*
X16666852Y4360793D01*
X16681467Y4380499D01*
X16697943Y4398677D01*
X16716121Y4415153D01*
X16735827Y4429768D01*
X16756870Y4442380D01*
X16779049Y4452870D01*
X16802148Y4461135D01*
X16825947Y4467096D01*
X16850215Y4470696D01*
X16874719Y4471900D01*
X17524721Y4471900D01*
X17549225Y4470696D01*
X17549225Y4470696D01*
G37*
D13*
X17199720Y3771900D03*
D12*
G36*
X15499225Y4470696D02*
X15523493Y4467096D01*
X15547292Y4461135D01*
X15570391Y4452870D01*
X15592570Y4442380D01*
X15613613Y4429768D01*
X15633319Y4415153D01*
X15651497Y4398677D01*
X15667973Y4380499D01*
X15682588Y4360793D01*
X15695200Y4339750D01*
X15705690Y4317571D01*
X15713955Y4294472D01*
X15719916Y4270673D01*
X15723516Y4246405D01*
X15724720Y4221901D01*
X15724720Y3321899D01*
X15723516Y3297395D01*
X15719916Y3273127D01*
X15713955Y3249328D01*
X15705690Y3226229D01*
X15695200Y3204050D01*
X15682588Y3183007D01*
X15667973Y3163301D01*
X15651497Y3145123D01*
X15633319Y3128647D01*
X15613613Y3114032D01*
X15592570Y3101420D01*
X15570391Y3090930D01*
X15547292Y3082665D01*
X15523493Y3076704D01*
X15499225Y3073104D01*
X15474721Y3071900D01*
X14824719Y3071900D01*
X14800215Y3073104D01*
X14775947Y3076704D01*
X14752148Y3082665D01*
X14729049Y3090930D01*
X14706870Y3101420D01*
X14685827Y3114032D01*
X14666121Y3128647D01*
X14647943Y3145123D01*
X14631467Y3163301D01*
X14616852Y3183007D01*
X14604240Y3204050D01*
X14593750Y3226229D01*
X14585485Y3249328D01*
X14579524Y3273127D01*
X14575924Y3297395D01*
X14574720Y3321899D01*
X14574720Y4221901D01*
X14575924Y4246405D01*
X14579524Y4270673D01*
X14585485Y4294472D01*
X14593750Y4317571D01*
X14604240Y4339750D01*
X14616852Y4360793D01*
X14631467Y4380499D01*
X14647943Y4398677D01*
X14666121Y4415153D01*
X14685827Y4429768D01*
X14706870Y4442380D01*
X14729049Y4452870D01*
X14752148Y4461135D01*
X14775947Y4467096D01*
X14800215Y4470696D01*
X14824719Y4471900D01*
X15474721Y4471900D01*
X15499225Y4470696D01*
X15499225Y4470696D01*
G37*
D13*
X15149720Y3771900D03*
G04 #@! TD*
M02*
