%FSLAX45Y45*%
G04 Gerber Fmt 4.5, Leading zero omitted, Abs format (unit mm)*
G04 Created by KiCad (PCBNEW (5.0.2)-1) date 22/03/2019 14:34:31*
%MOMM*%
%LPD*%
G01*
G04 APERTURE LIST*
%ADD10C,0.150000*%
%ADD11C,0.200000*%
%ADD12C,0.300000*%
G04 APERTURE END LIST*
D10*
X6711980Y3799982D02*
G75*
G03X6492000Y3896000I-219980J-203982D01*
G01*
X6711980Y3799982D02*
X6992000Y3520000D01*
X3424795Y3050000D02*
X3424795Y2384809D01*
X3006000Y4196000D02*
X3424795Y3050000D01*
X2606551Y4195990D02*
X3006000Y4196000D01*
X7605000Y6352000D02*
X7188000Y6658000D01*
X7316967Y7135978D02*
X7188000Y6658000D01*
X7605000Y5496000D02*
X7605000Y6352000D01*
X3424795Y2384809D02*
G75*
G03X6992000Y1684000I2267205J2111191D01*
G01*
X6492000Y5096000D02*
G75*
G03X6792000Y5396000I0J300000D01*
G01*
X2606551Y4195990D02*
G75*
G02X2592000Y4496000I3085449J300010D01*
G01*
X7316967Y7135978D02*
G75*
G03X2592000Y4496000I-1624967J-2639978D01*
G01*
X5292000Y5096000D02*
X6492000Y5096000D01*
X6492000Y3896000D02*
X5292000Y3896000D01*
X6992000Y1684000D02*
X6992000Y3520000D01*
X6792000Y5496000D02*
X6792000Y5396000D01*
X5292000Y5096000D02*
X5292000Y3896000D01*
X6792000Y5496000D02*
X7605000Y5496000D01*
D11*
X3303000Y5946000D02*
X3343000Y5906000D01*
X3343000Y5946000D02*
X3303000Y5906000D01*
X3410667Y6053667D02*
X3450667Y6013667D01*
X3450667Y6053667D02*
X3410667Y6013667D01*
X3410667Y5946000D02*
X3450667Y5906000D01*
X3450667Y5946000D02*
X3410667Y5906000D01*
X3518333Y5946000D02*
X3558333Y5906000D01*
X3558333Y5946000D02*
X3518333Y5906000D01*
X3518333Y6161333D02*
X3558333Y6121333D01*
X3558333Y6161333D02*
X3518333Y6121333D01*
X3518333Y6053667D02*
X3558333Y6013667D01*
X3558333Y6053667D02*
X3518333Y6013667D01*
X3626000Y6269000D02*
X3666000Y6229000D01*
X3666000Y6269000D02*
X3626000Y6229000D01*
X3626000Y6161333D02*
X3666000Y6121333D01*
X3666000Y6161333D02*
X3626000Y6121333D01*
X3626000Y6053667D02*
X3666000Y6013667D01*
X3666000Y6053667D02*
X3626000Y6013667D01*
X3626000Y5946000D02*
X3666000Y5906000D01*
X3666000Y5946000D02*
X3626000Y5906000D01*
X3649000Y5794400D02*
X3689000Y5754400D01*
X3689000Y5794400D02*
X3649000Y5754400D01*
X3892000Y2912000D02*
X3932000Y2872000D01*
X3932000Y2912000D02*
X3892000Y2872000D01*
X4343941Y6842400D02*
X4383941Y6802400D01*
X4383941Y6842400D02*
X4343941Y6802400D01*
X4452000Y3731000D02*
X4492000Y3691000D01*
X4492000Y3731000D02*
X4452000Y3691000D01*
X5263000Y2747000D02*
X5303000Y2707000D01*
X5303000Y2747000D02*
X5263000Y2707000D01*
X5536000Y2331000D02*
X5576000Y2291000D01*
X5576000Y2331000D02*
X5536000Y2291000D01*
X5568000Y2629000D02*
X5608000Y2589000D01*
X5608000Y2629000D02*
X5568000Y2589000D01*
X4722000Y2484000D02*
G75*
G03X4722000Y2484000I-25000J0D01*
G01*
X4860000Y5249000D02*
G75*
G03X4860000Y5249000I-25000J0D01*
G01*
X5741000Y2734000D02*
G75*
G03X5741000Y2734000I-25000J0D01*
G01*
X6208000Y2632000D02*
G75*
G03X6208000Y2632000I-25000J0D01*
G01*
X6420000Y2177000D02*
G75*
G03X6420000Y2177000I-25000J0D01*
G01*
X6867000Y2812000D02*
G75*
G03X6867000Y2812000I-25000J0D01*
G01*
X6867000Y2687000D02*
G75*
G03X6867000Y2687000I-25000J0D01*
G01*
X6867000Y2562000D02*
G75*
G03X6867000Y2562000I-25000J0D01*
G01*
X6867000Y2437000D02*
G75*
G03X6867000Y2437000I-25000J0D01*
G01*
X6867000Y2312000D02*
G75*
G03X6867000Y2312000I-25000J0D01*
G01*
X6867000Y2187000D02*
G75*
G03X6867000Y2187000I-25000J0D01*
G01*
X6867000Y2062000D02*
G75*
G03X6867000Y2062000I-25000J0D01*
G01*
X6867000Y1937000D02*
G75*
G03X6867000Y1937000I-25000J0D01*
G01*
X4612000Y4666000D02*
X4612000Y4586000D01*
X4572000Y4626000D02*
X4652000Y4626000D01*
X4612000Y3904000D02*
X4612000Y3824000D01*
X4572000Y3864000D02*
X4652000Y3864000D01*
X5017000Y3626000D02*
X5017000Y3546000D01*
X4977000Y3586000D02*
X5057000Y3586000D01*
X5267000Y3626000D02*
X5267000Y3546000D01*
X5227000Y3586000D02*
X5307000Y3586000D01*
X6206356Y7059644D02*
X6206356Y7130356D01*
X6135644Y7130356D01*
X6135644Y7059644D01*
X6206356Y7059644D01*
X6451701Y6993904D02*
X6451701Y7064616D01*
X6380989Y7064616D01*
X6380989Y6993904D01*
X6451701Y6993904D01*
X6697046Y6928164D02*
X6697046Y6998876D01*
X6626335Y6998876D01*
X6626335Y6928164D01*
X6697046Y6928164D01*
X4643356Y5606644D02*
X4643356Y5677356D01*
X4572644Y5677356D01*
X4572644Y5606644D01*
X4643356Y5606644D01*
X5957155Y6826224D02*
X5957155Y6896936D01*
X5886444Y6896936D01*
X5886444Y6826224D01*
X5957155Y6826224D01*
X6202500Y6760484D02*
X6202500Y6831196D01*
X6131789Y6831196D01*
X6131789Y6760484D01*
X6202500Y6760484D01*
X6447845Y6694744D02*
X6447845Y6765456D01*
X6377134Y6765456D01*
X6377134Y6694744D01*
X6447845Y6694744D01*
X6693190Y6629004D02*
X6693190Y6699716D01*
X6622479Y6699716D01*
X6622479Y6629004D01*
X6693190Y6629004D01*
X6938536Y6563264D02*
X6938536Y6633976D01*
X6867824Y6633976D01*
X6867824Y6563264D01*
X6938536Y6563264D01*
X4647356Y5099644D02*
X4647356Y5170356D01*
X4576644Y5170356D01*
X4576644Y5099644D01*
X4647356Y5099644D01*
X4647356Y4845644D02*
X4647356Y4916356D01*
X4576644Y4916356D01*
X4576644Y4845644D01*
X4647356Y4845644D01*
X3422356Y4136644D02*
X3422356Y4207356D01*
X3351644Y4207356D01*
X3351644Y4136644D01*
X3422356Y4136644D01*
X3959356Y6761644D02*
X3959356Y6832356D01*
X3888644Y6832356D01*
X3888644Y6761644D01*
X3959356Y6761644D01*
X4179326Y6888644D02*
X4179326Y6959356D01*
X4108615Y6959356D01*
X4108615Y6888644D01*
X4179326Y6888644D01*
X4399297Y7015644D02*
X4399297Y7086356D01*
X4328585Y7086356D01*
X4328585Y7015644D01*
X4399297Y7015644D01*
X4619267Y7142644D02*
X4619267Y7213356D01*
X4548556Y7213356D01*
X4548556Y7142644D01*
X4619267Y7142644D01*
X6051356Y6004644D02*
X6051356Y6075356D01*
X5980644Y6075356D01*
X5980644Y6004644D01*
X6051356Y6004644D01*
X6051356Y5750644D02*
X6051356Y5821356D01*
X5980644Y5821356D01*
X5980644Y5750644D01*
X6051356Y5750644D01*
X6051356Y5496644D02*
X6051356Y5567356D01*
X5980644Y5567356D01*
X5980644Y5496644D01*
X6051356Y5496644D01*
X6051356Y5242644D02*
X6051356Y5313356D01*
X5980644Y5313356D01*
X5980644Y5242644D01*
X6051356Y5242644D01*
X4297356Y6160644D02*
X4297356Y6231356D01*
X4226644Y6231356D01*
X4226644Y6160644D01*
X4297356Y6160644D01*
X5127356Y7260644D02*
X5127356Y7331356D01*
X5056644Y7331356D01*
X5056644Y7260644D01*
X5127356Y7260644D01*
X4833156Y2982124D02*
X4833156Y3052836D01*
X4762444Y3052836D01*
X4762444Y2982124D01*
X4833156Y2982124D01*
X4833156Y1712124D02*
X4833156Y1782836D01*
X4762444Y1782836D01*
X4762444Y1712124D01*
X4833156Y1712124D01*
X5087156Y2982124D02*
X5087156Y3052836D01*
X5016444Y3052836D01*
X5016444Y2982124D01*
X5087156Y2982124D01*
X5087156Y1712124D02*
X5087156Y1782836D01*
X5016444Y1782836D01*
X5016444Y1712124D01*
X5087156Y1712124D01*
X5341156Y2982124D02*
X5341156Y3052836D01*
X5270444Y3052836D01*
X5270444Y2982124D01*
X5341156Y2982124D01*
X5341156Y1712124D02*
X5341156Y1782836D01*
X5270444Y1782836D01*
X5270444Y1712124D01*
X5341156Y1712124D01*
X5595156Y2982124D02*
X5595156Y3052836D01*
X5524444Y3052836D01*
X5524444Y2982124D01*
X5595156Y2982124D01*
X5595156Y1712124D02*
X5595156Y1782836D01*
X5524444Y1782836D01*
X5524444Y1712124D01*
X5595156Y1712124D01*
X5849156Y2982124D02*
X5849156Y3052836D01*
X5778444Y3052836D01*
X5778444Y2982124D01*
X5849156Y2982124D01*
X5849156Y1712124D02*
X5849156Y1782836D01*
X5778444Y1782836D01*
X5778444Y1712124D01*
X5849156Y1712124D01*
X6103156Y2982124D02*
X6103156Y3052836D01*
X6032444Y3052836D01*
X6032444Y2982124D01*
X6103156Y2982124D01*
X6103156Y1712124D02*
X6103156Y1782836D01*
X6032444Y1782836D01*
X6032444Y1712124D01*
X6103156Y1712124D01*
X6357156Y2982124D02*
X6357156Y3052836D01*
X6286444Y3052836D01*
X6286444Y2982124D01*
X6357156Y2982124D01*
X6357156Y1712124D02*
X6357156Y1782836D01*
X6286444Y1782836D01*
X6286444Y1712124D01*
X6357156Y1712124D01*
X6611156Y2982124D02*
X6611156Y3052836D01*
X6540444Y3052836D01*
X6540444Y2982124D01*
X6611156Y2982124D01*
X6611156Y1712124D02*
X6611156Y1782836D01*
X6540444Y1782836D01*
X6540444Y1712124D01*
X6611156Y1712124D01*
X4897356Y6370484D02*
X4897356Y6441196D01*
X4826644Y6441196D01*
X4826644Y6370484D01*
X4897356Y6370484D01*
X4897356Y6116484D02*
X4897356Y6187196D01*
X4826644Y6187196D01*
X4826644Y6116484D01*
X4897356Y6116484D01*
X4897356Y5862484D02*
X4897356Y5933196D01*
X4826644Y5933196D01*
X4826644Y5862484D01*
X4897356Y5862484D01*
X4897356Y5608484D02*
X4897356Y5679196D01*
X4826644Y5679196D01*
X4826644Y5608484D01*
X4897356Y5608484D01*
X5151356Y6370484D02*
X5151356Y6441196D01*
X5080644Y6441196D01*
X5080644Y6370484D01*
X5151356Y6370484D01*
X5151356Y6116484D02*
X5151356Y6187196D01*
X5080644Y6187196D01*
X5080644Y6116484D01*
X5151356Y6116484D01*
X5151356Y5862484D02*
X5151356Y5933196D01*
X5080644Y5933196D01*
X5080644Y5862484D01*
X5151356Y5862484D01*
X5151356Y5608484D02*
X5151356Y5679196D01*
X5080644Y5679196D01*
X5080644Y5608484D01*
X5151356Y5608484D01*
X2845751Y4824186D02*
X2845751Y4894897D01*
X2775039Y4894897D01*
X2775039Y4824186D01*
X2845751Y4824186D01*
X2902888Y5071676D02*
X2902888Y5142387D01*
X2832177Y5142387D01*
X2832177Y5071676D01*
X2902888Y5071676D01*
X2960026Y5319166D02*
X2960026Y5389877D01*
X2889314Y5389877D01*
X2889314Y5319166D01*
X2960026Y5319166D01*
X3093241Y4767048D02*
X3093241Y4837760D01*
X3022529Y4837760D01*
X3022529Y4767048D01*
X3093241Y4767048D01*
X3150378Y5014538D02*
X3150378Y5085250D01*
X3079667Y5085250D01*
X3079667Y5014538D01*
X3150378Y5014538D01*
X3207516Y5262028D02*
X3207516Y5332740D01*
X3136804Y5332740D01*
X3136804Y5262028D01*
X3207516Y5262028D01*
X4643356Y5862484D02*
X4643356Y5933196D01*
X4572644Y5933196D01*
X4572644Y5862484D01*
X4643356Y5862484D01*
X2844356Y4390644D02*
X2844356Y4461356D01*
X2773644Y4461356D01*
X2773644Y4390644D01*
X2844356Y4390644D01*
X3422356Y4390644D02*
X3422356Y4461356D01*
X3351644Y4461356D01*
X3351644Y4390644D01*
X3422356Y4390644D01*
X5758356Y6512644D02*
X5758356Y6583356D01*
X5687644Y6583356D01*
X5687644Y6512644D01*
X5758356Y6512644D01*
X5758356Y6258644D02*
X5758356Y6329356D01*
X5687644Y6329356D01*
X5687644Y6258644D01*
X5758356Y6258644D01*
X5758356Y6004644D02*
X5758356Y6075356D01*
X5687644Y6075356D01*
X5687644Y6004644D01*
X5758356Y6004644D01*
X5758356Y5750644D02*
X5758356Y5821356D01*
X5687644Y5821356D01*
X5687644Y5750644D01*
X5758356Y5750644D01*
X5758356Y5496644D02*
X5758356Y5567356D01*
X5687644Y5567356D01*
X5687644Y5496644D01*
X5758356Y5496644D01*
X5758356Y5242644D02*
X5758356Y5313356D01*
X5687644Y5313356D01*
X5687644Y5242644D01*
X5758356Y5242644D01*
X4043356Y5860644D02*
X4043356Y5931356D01*
X3972644Y5931356D01*
X3972644Y5860644D01*
X4043356Y5860644D01*
X4043356Y5606644D02*
X4043356Y5677356D01*
X3972644Y5677356D01*
X3972644Y5606644D01*
X4043356Y5606644D01*
X4043356Y5352644D02*
X4043356Y5423356D01*
X3972644Y5423356D01*
X3972644Y5352644D01*
X4043356Y5352644D01*
X4043356Y5098644D02*
X4043356Y5169356D01*
X3972644Y5169356D01*
X3972644Y5098644D01*
X4043356Y5098644D01*
X4043356Y4844644D02*
X4043356Y4915356D01*
X3972644Y4915356D01*
X3972644Y4844644D01*
X4043356Y4844644D01*
X4043356Y4590644D02*
X4043356Y4661356D01*
X3972644Y4661356D01*
X3972644Y4590644D01*
X4043356Y4590644D01*
X4043356Y4336644D02*
X4043356Y4407356D01*
X3972644Y4407356D01*
X3972644Y4336644D01*
X4043356Y4336644D01*
X4043356Y4082644D02*
X4043356Y4153356D01*
X3972644Y4153356D01*
X3972644Y4082644D01*
X4043356Y4082644D01*
X4043356Y3828644D02*
X4043356Y3899356D01*
X3972644Y3899356D01*
X3972644Y3828644D01*
X4043356Y3828644D01*
X4043356Y3574644D02*
X4043356Y3645356D01*
X3972644Y3645356D01*
X3972644Y3574644D01*
X4043356Y3574644D01*
X4043356Y3320644D02*
X4043356Y3391356D01*
X3972644Y3391356D01*
X3972644Y3320644D01*
X4043356Y3320644D01*
X4043356Y3066644D02*
X4043356Y3137356D01*
X3972644Y3137356D01*
X3972644Y3066644D01*
X4043356Y3066644D01*
X4297356Y5860644D02*
X4297356Y5931356D01*
X4226644Y5931356D01*
X4226644Y5860644D01*
X4297356Y5860644D01*
X4297356Y5606644D02*
X4297356Y5677356D01*
X4226644Y5677356D01*
X4226644Y5606644D01*
X4297356Y5606644D01*
X4297356Y5352644D02*
X4297356Y5423356D01*
X4226644Y5423356D01*
X4226644Y5352644D01*
X4297356Y5352644D01*
X4297356Y5098644D02*
X4297356Y5169356D01*
X4226644Y5169356D01*
X4226644Y5098644D01*
X4297356Y5098644D01*
X4297356Y4844644D02*
X4297356Y4915356D01*
X4226644Y4915356D01*
X4226644Y4844644D01*
X4297356Y4844644D01*
X4297356Y4590644D02*
X4297356Y4661356D01*
X4226644Y4661356D01*
X4226644Y4590644D01*
X4297356Y4590644D01*
X4297356Y4336644D02*
X4297356Y4407356D01*
X4226644Y4407356D01*
X4226644Y4336644D01*
X4297356Y4336644D01*
X4297356Y4082644D02*
X4297356Y4153356D01*
X4226644Y4153356D01*
X4226644Y4082644D01*
X4297356Y4082644D01*
X4297356Y3828644D02*
X4297356Y3899356D01*
X4226644Y3899356D01*
X4226644Y3828644D01*
X4297356Y3828644D01*
X4297356Y3574644D02*
X4297356Y3645356D01*
X4226644Y3645356D01*
X4226644Y3574644D01*
X4297356Y3574644D01*
X4297356Y3320644D02*
X4297356Y3391356D01*
X4226644Y3391356D01*
X4226644Y3320644D01*
X4297356Y3320644D01*
X4297356Y3066644D02*
X4297356Y3137356D01*
X4226644Y3137356D01*
X4226644Y3066644D01*
X4297356Y3066644D01*
X5427356Y7260644D02*
X5427356Y7331356D01*
X5356644Y7331356D01*
X5356644Y7260644D01*
X5427356Y7260644D01*
X3127356Y4390644D02*
X3127356Y4461356D01*
X3056644Y4461356D01*
X3056644Y4390644D01*
X3127356Y4390644D01*
X4647356Y4336644D02*
X4647356Y4407356D01*
X4576644Y4407356D01*
X4576644Y4336644D01*
X4647356Y4336644D01*
X4647356Y4082644D02*
X4647356Y4153356D01*
X4576644Y4153356D01*
X4576644Y4082644D01*
X4647356Y4082644D01*
X4901356Y4336644D02*
X4901356Y4407356D01*
X4830644Y4407356D01*
X4830644Y4336644D01*
X4901356Y4336644D01*
X4901356Y4082644D02*
X4901356Y4153356D01*
X4830644Y4153356D01*
X4830644Y4082644D01*
X4901356Y4082644D01*
X7087000Y6054000D02*
X7172000Y6139000D01*
X7087000Y6224000D01*
X7002000Y6139000D01*
X7087000Y6054000D01*
X7087000Y5658000D02*
X7172000Y5743000D01*
X7087000Y5828000D01*
X7002000Y5743000D01*
X7087000Y5658000D01*
D12*
X2870928Y924828D02*
X2870928Y1224828D01*
X2942357Y1224828D01*
X2985214Y1210542D01*
X3013786Y1181971D01*
X3028071Y1153399D01*
X3042357Y1096256D01*
X3042357Y1053399D01*
X3028071Y996256D01*
X3013786Y967685D01*
X2985214Y939113D01*
X2942357Y924828D01*
X2870928Y924828D01*
X3170928Y924828D02*
X3170928Y1124828D01*
X3170928Y1067685D02*
X3185214Y1096256D01*
X3199500Y1110542D01*
X3228071Y1124828D01*
X3256643Y1124828D01*
X3356643Y924828D02*
X3356643Y1124828D01*
X3356643Y1224828D02*
X3342357Y1210542D01*
X3356643Y1196256D01*
X3370928Y1210542D01*
X3356643Y1224828D01*
X3356643Y1196256D01*
X3542357Y924828D02*
X3513786Y939113D01*
X3499500Y967685D01*
X3499500Y1224828D01*
X3699500Y924828D02*
X3670928Y939113D01*
X3656643Y967685D01*
X3656643Y1224828D01*
X4042357Y924828D02*
X4042357Y1224828D01*
X4142357Y1010542D01*
X4242357Y1224828D01*
X4242357Y924828D01*
X4513786Y924828D02*
X4513786Y1081971D01*
X4499500Y1110542D01*
X4470928Y1124828D01*
X4413786Y1124828D01*
X4385214Y1110542D01*
X4513786Y939113D02*
X4485214Y924828D01*
X4413786Y924828D01*
X4385214Y939113D01*
X4370928Y967685D01*
X4370928Y996256D01*
X4385214Y1024828D01*
X4413786Y1039113D01*
X4485214Y1039113D01*
X4513786Y1053399D01*
X4656643Y1124828D02*
X4656643Y824828D01*
X4656643Y1110542D02*
X4685214Y1124828D01*
X4742357Y1124828D01*
X4770928Y1110542D01*
X4785214Y1096256D01*
X4799500Y1067685D01*
X4799500Y981970D01*
X4785214Y953399D01*
X4770928Y939113D01*
X4742357Y924828D01*
X4685214Y924828D01*
X4656643Y939113D01*
X4928071Y953399D02*
X4942357Y939113D01*
X4928071Y924828D01*
X4913786Y939113D01*
X4928071Y953399D01*
X4928071Y924828D01*
X4928071Y1110542D02*
X4942357Y1096256D01*
X4928071Y1081971D01*
X4913786Y1096256D01*
X4928071Y1110542D01*
X4928071Y1081971D01*
X2544500Y450542D02*
X2584500Y410542D01*
X2584500Y450542D02*
X2544500Y410542D01*
X2928071Y594828D02*
X2956643Y594828D01*
X2985214Y580542D01*
X2999500Y566256D01*
X3013786Y537685D01*
X3028071Y480542D01*
X3028071Y409113D01*
X3013786Y351970D01*
X2999500Y323399D01*
X2985214Y309113D01*
X2956643Y294828D01*
X2928071Y294828D01*
X2899500Y309113D01*
X2885214Y323399D01*
X2870928Y351970D01*
X2856643Y409113D01*
X2856643Y480542D01*
X2870928Y537685D01*
X2885214Y566256D01*
X2899500Y580542D01*
X2928071Y594828D01*
X3156643Y323399D02*
X3170928Y309113D01*
X3156643Y294828D01*
X3142357Y309113D01*
X3156643Y323399D01*
X3156643Y294828D01*
X3428071Y494828D02*
X3428071Y294828D01*
X3356643Y609113D02*
X3285214Y394828D01*
X3470928Y394828D01*
X3642357Y594828D02*
X3670928Y594828D01*
X3699500Y580542D01*
X3713786Y566256D01*
X3728071Y537685D01*
X3742357Y480542D01*
X3742357Y409113D01*
X3728071Y351970D01*
X3713786Y323399D01*
X3699500Y309113D01*
X3670928Y294828D01*
X3642357Y294828D01*
X3613786Y309113D01*
X3599500Y323399D01*
X3585214Y351970D01*
X3570928Y409113D01*
X3570928Y480542D01*
X3585214Y537685D01*
X3599500Y566256D01*
X3613786Y580542D01*
X3642357Y594828D01*
X3870928Y294828D02*
X3870928Y494828D01*
X3870928Y466256D02*
X3885214Y480542D01*
X3913786Y494828D01*
X3956643Y494828D01*
X3985214Y480542D01*
X3999500Y451970D01*
X3999500Y294828D01*
X3999500Y451970D02*
X4013786Y480542D01*
X4042357Y494828D01*
X4085214Y494828D01*
X4113786Y480542D01*
X4128071Y451970D01*
X4128071Y294828D01*
X4270928Y294828D02*
X4270928Y494828D01*
X4270928Y466256D02*
X4285214Y480542D01*
X4313786Y494828D01*
X4356643Y494828D01*
X4385214Y480542D01*
X4399500Y451970D01*
X4399500Y294828D01*
X4399500Y451970D02*
X4413786Y480542D01*
X4442357Y494828D01*
X4485214Y494828D01*
X4513786Y480542D01*
X4528071Y451970D01*
X4528071Y294828D01*
X5113786Y609113D02*
X4856643Y223399D01*
X5499500Y594828D02*
X5528071Y594828D01*
X5556643Y580542D01*
X5570928Y566256D01*
X5585214Y537685D01*
X5599500Y480542D01*
X5599500Y409113D01*
X5585214Y351970D01*
X5570928Y323399D01*
X5556643Y309113D01*
X5528071Y294828D01*
X5499500Y294828D01*
X5470928Y309113D01*
X5456643Y323399D01*
X5442357Y351970D01*
X5428071Y409113D01*
X5428071Y480542D01*
X5442357Y537685D01*
X5456643Y566256D01*
X5470928Y580542D01*
X5499500Y594828D01*
X5728071Y323399D02*
X5742357Y309113D01*
X5728071Y294828D01*
X5713786Y309113D01*
X5728071Y323399D01*
X5728071Y294828D01*
X5928071Y594828D02*
X5956643Y594828D01*
X5985214Y580542D01*
X5999500Y566256D01*
X6013786Y537685D01*
X6028071Y480542D01*
X6028071Y409113D01*
X6013786Y351970D01*
X5999500Y323399D01*
X5985214Y309113D01*
X5956643Y294828D01*
X5928071Y294828D01*
X5899500Y309113D01*
X5885214Y323399D01*
X5870928Y351970D01*
X5856643Y409113D01*
X5856643Y480542D01*
X5870928Y537685D01*
X5885214Y566256D01*
X5899500Y580542D01*
X5928071Y594828D01*
X6313786Y294828D02*
X6142357Y294828D01*
X6228071Y294828D02*
X6228071Y594828D01*
X6199500Y551971D01*
X6170928Y523399D01*
X6142357Y509113D01*
X6570928Y594828D02*
X6513786Y594828D01*
X6485214Y580542D01*
X6470928Y566256D01*
X6442357Y523399D01*
X6428071Y466256D01*
X6428071Y351970D01*
X6442357Y323399D01*
X6456643Y309113D01*
X6485214Y294828D01*
X6542357Y294828D01*
X6570928Y309113D01*
X6585214Y323399D01*
X6599500Y351970D01*
X6599500Y423399D01*
X6585214Y451970D01*
X6570928Y466256D01*
X6542357Y480542D01*
X6485214Y480542D01*
X6456643Y466256D01*
X6442357Y451970D01*
X6428071Y423399D01*
X6713786Y594828D02*
X6713786Y537685D01*
X6828071Y594828D02*
X6828071Y537685D01*
X7270928Y180542D02*
X7256643Y194828D01*
X7228071Y237685D01*
X7213786Y266256D01*
X7199500Y309113D01*
X7185214Y380542D01*
X7185214Y437685D01*
X7199500Y509113D01*
X7213786Y551971D01*
X7228071Y580542D01*
X7256643Y623399D01*
X7270928Y637685D01*
X7542357Y294828D02*
X7370928Y294828D01*
X7456643Y294828D02*
X7456643Y594828D01*
X7428071Y551971D01*
X7399500Y523399D01*
X7370928Y509113D01*
X7642357Y594828D02*
X7842357Y594828D01*
X7713786Y294828D01*
X8185214Y294828D02*
X8185214Y594828D01*
X8313786Y294828D02*
X8313786Y451970D01*
X8299500Y480542D01*
X8270928Y494828D01*
X8228071Y494828D01*
X8199500Y480542D01*
X8185214Y466256D01*
X8499500Y294828D02*
X8470928Y309113D01*
X8456643Y323399D01*
X8442357Y351970D01*
X8442357Y437685D01*
X8456643Y466256D01*
X8470928Y480542D01*
X8499500Y494828D01*
X8542357Y494828D01*
X8570928Y480542D01*
X8585214Y466256D01*
X8599500Y437685D01*
X8599500Y351970D01*
X8585214Y323399D01*
X8570928Y309113D01*
X8542357Y294828D01*
X8499500Y294828D01*
X8770928Y294828D02*
X8742357Y309113D01*
X8728071Y337685D01*
X8728071Y594828D01*
X8999500Y309113D02*
X8970928Y294828D01*
X8913786Y294828D01*
X8885214Y309113D01*
X8870928Y337685D01*
X8870928Y451970D01*
X8885214Y480542D01*
X8913786Y494828D01*
X8970928Y494828D01*
X8999500Y480542D01*
X9013786Y451970D01*
X9013786Y423399D01*
X8870928Y394828D01*
X9128071Y309113D02*
X9156643Y294828D01*
X9213786Y294828D01*
X9242357Y309113D01*
X9256643Y337685D01*
X9256643Y351970D01*
X9242357Y380542D01*
X9213786Y394828D01*
X9170928Y394828D01*
X9142357Y409113D01*
X9128071Y437685D01*
X9128071Y451970D01*
X9142357Y480542D01*
X9170928Y494828D01*
X9213786Y494828D01*
X9242357Y480542D01*
X9356643Y180542D02*
X9370928Y194828D01*
X9399500Y237685D01*
X9413786Y266256D01*
X9428071Y309113D01*
X9442357Y380542D01*
X9442357Y437685D01*
X9428071Y509113D01*
X9413786Y551971D01*
X9399500Y580542D01*
X9370928Y623399D01*
X9356643Y637685D01*
X2584500Y34542D02*
G75*
G03X2584500Y34542I-25000J0D01*
G01*
X2928071Y198828D02*
X2956643Y198828D01*
X2985214Y184542D01*
X2999500Y170256D01*
X3013786Y141685D01*
X3028071Y84542D01*
X3028071Y13113D01*
X3013786Y-44029D01*
X2999500Y-72601D01*
X2985214Y-86887D01*
X2956643Y-101172D01*
X2928071Y-101172D01*
X2899500Y-86887D01*
X2885214Y-72601D01*
X2870928Y-44029D01*
X2856643Y13113D01*
X2856643Y84542D01*
X2870928Y141685D01*
X2885214Y170256D01*
X2899500Y184542D01*
X2928071Y198828D01*
X3156643Y-72601D02*
X3170928Y-86887D01*
X3156643Y-101172D01*
X3142357Y-86887D01*
X3156643Y-72601D01*
X3156643Y-101172D01*
X3442357Y198828D02*
X3299500Y198828D01*
X3285214Y55970D01*
X3299500Y70256D01*
X3328071Y84542D01*
X3399500Y84542D01*
X3428071Y70256D01*
X3442357Y55970D01*
X3456643Y27399D01*
X3456643Y-44029D01*
X3442357Y-72601D01*
X3428071Y-86887D01*
X3399500Y-101172D01*
X3328071Y-101172D01*
X3299500Y-86887D01*
X3285214Y-72601D01*
X3642357Y198828D02*
X3670928Y198828D01*
X3699500Y184542D01*
X3713786Y170256D01*
X3728071Y141685D01*
X3742357Y84542D01*
X3742357Y13113D01*
X3728071Y-44029D01*
X3713786Y-72601D01*
X3699500Y-86887D01*
X3670928Y-101172D01*
X3642357Y-101172D01*
X3613786Y-86887D01*
X3599500Y-72601D01*
X3585214Y-44029D01*
X3570928Y13113D01*
X3570928Y84542D01*
X3585214Y141685D01*
X3599500Y170256D01*
X3613786Y184542D01*
X3642357Y198828D01*
X3870928Y-101172D02*
X3870928Y98828D01*
X3870928Y70256D02*
X3885214Y84542D01*
X3913786Y98828D01*
X3956643Y98828D01*
X3985214Y84542D01*
X3999500Y55970D01*
X3999500Y-101172D01*
X3999500Y55970D02*
X4013786Y84542D01*
X4042357Y98828D01*
X4085214Y98828D01*
X4113786Y84542D01*
X4128071Y55970D01*
X4128071Y-101172D01*
X4270928Y-101172D02*
X4270928Y98828D01*
X4270928Y70256D02*
X4285214Y84542D01*
X4313786Y98828D01*
X4356643Y98828D01*
X4385214Y84542D01*
X4399500Y55970D01*
X4399500Y-101172D01*
X4399500Y55970D02*
X4413786Y84542D01*
X4442357Y98828D01*
X4485214Y98828D01*
X4513786Y84542D01*
X4528071Y55970D01*
X4528071Y-101172D01*
X5113786Y213113D02*
X4856643Y-172601D01*
X5499500Y198828D02*
X5528071Y198828D01*
X5556643Y184542D01*
X5570928Y170256D01*
X5585214Y141685D01*
X5599500Y84542D01*
X5599500Y13113D01*
X5585214Y-44029D01*
X5570928Y-72601D01*
X5556643Y-86887D01*
X5528071Y-101172D01*
X5499500Y-101172D01*
X5470928Y-86887D01*
X5456643Y-72601D01*
X5442357Y-44029D01*
X5428071Y13113D01*
X5428071Y84542D01*
X5442357Y141685D01*
X5456643Y170256D01*
X5470928Y184542D01*
X5499500Y198828D01*
X5728071Y-72601D02*
X5742357Y-86887D01*
X5728071Y-101172D01*
X5713786Y-86887D01*
X5728071Y-72601D01*
X5728071Y-101172D01*
X5928071Y198828D02*
X5956643Y198828D01*
X5985214Y184542D01*
X5999500Y170256D01*
X6013786Y141685D01*
X6028071Y84542D01*
X6028071Y13113D01*
X6013786Y-44029D01*
X5999500Y-72601D01*
X5985214Y-86887D01*
X5956643Y-101172D01*
X5928071Y-101172D01*
X5899500Y-86887D01*
X5885214Y-72601D01*
X5870928Y-44029D01*
X5856643Y13113D01*
X5856643Y84542D01*
X5870928Y141685D01*
X5885214Y170256D01*
X5899500Y184542D01*
X5928071Y198828D01*
X6142357Y170256D02*
X6156643Y184542D01*
X6185214Y198828D01*
X6256643Y198828D01*
X6285214Y184542D01*
X6299500Y170256D01*
X6313786Y141685D01*
X6313786Y113113D01*
X6299500Y70256D01*
X6128071Y-101172D01*
X6313786Y-101172D01*
X6499500Y198828D02*
X6528071Y198828D01*
X6556643Y184542D01*
X6570928Y170256D01*
X6585214Y141685D01*
X6599500Y84542D01*
X6599500Y13113D01*
X6585214Y-44029D01*
X6570928Y-72601D01*
X6556643Y-86887D01*
X6528071Y-101172D01*
X6499500Y-101172D01*
X6470928Y-86887D01*
X6456643Y-72601D01*
X6442357Y-44029D01*
X6428071Y13113D01*
X6428071Y84542D01*
X6442357Y141685D01*
X6456643Y170256D01*
X6470928Y184542D01*
X6499500Y198828D01*
X6713786Y198828D02*
X6713786Y141685D01*
X6828071Y198828D02*
X6828071Y141685D01*
X7270928Y-215458D02*
X7256643Y-201172D01*
X7228071Y-158315D01*
X7213786Y-129744D01*
X7199500Y-86887D01*
X7185214Y-15458D01*
X7185214Y41685D01*
X7199500Y113113D01*
X7213786Y155971D01*
X7228071Y184542D01*
X7256643Y227399D01*
X7270928Y241685D01*
X7542357Y-101172D02*
X7370928Y-101172D01*
X7456643Y-101172D02*
X7456643Y198828D01*
X7428071Y155971D01*
X7399500Y127399D01*
X7370928Y113113D01*
X7642357Y198828D02*
X7828071Y198828D01*
X7728071Y84542D01*
X7770928Y84542D01*
X7799500Y70256D01*
X7813786Y55970D01*
X7828071Y27399D01*
X7828071Y-44029D01*
X7813786Y-72601D01*
X7799500Y-86887D01*
X7770928Y-101172D01*
X7685214Y-101172D01*
X7656643Y-86887D01*
X7642357Y-72601D01*
X8185214Y-101172D02*
X8185214Y198828D01*
X8313786Y-101172D02*
X8313786Y55970D01*
X8299500Y84542D01*
X8270928Y98828D01*
X8228071Y98828D01*
X8199500Y84542D01*
X8185214Y70256D01*
X8499500Y-101172D02*
X8470928Y-86887D01*
X8456643Y-72601D01*
X8442357Y-44029D01*
X8442357Y41685D01*
X8456643Y70256D01*
X8470928Y84542D01*
X8499500Y98828D01*
X8542357Y98828D01*
X8570928Y84542D01*
X8585214Y70256D01*
X8599500Y41685D01*
X8599500Y-44029D01*
X8585214Y-72601D01*
X8570928Y-86887D01*
X8542357Y-101172D01*
X8499500Y-101172D01*
X8770928Y-101172D02*
X8742357Y-86887D01*
X8728071Y-58315D01*
X8728071Y198828D01*
X8999500Y-86887D02*
X8970928Y-101172D01*
X8913786Y-101172D01*
X8885214Y-86887D01*
X8870928Y-58315D01*
X8870928Y55970D01*
X8885214Y84542D01*
X8913786Y98828D01*
X8970928Y98828D01*
X8999500Y84542D01*
X9013786Y55970D01*
X9013786Y27399D01*
X8870928Y-1172D01*
X9128071Y-86887D02*
X9156643Y-101172D01*
X9213786Y-101172D01*
X9242357Y-86887D01*
X9256643Y-58315D01*
X9256643Y-44029D01*
X9242357Y-15458D01*
X9213786Y-1172D01*
X9170928Y-1172D01*
X9142357Y13113D01*
X9128071Y41685D01*
X9128071Y55970D01*
X9142357Y84542D01*
X9170928Y98828D01*
X9213786Y98828D01*
X9242357Y84542D01*
X9356643Y-215458D02*
X9370928Y-201172D01*
X9399500Y-158315D01*
X9413786Y-129744D01*
X9428071Y-86887D01*
X9442357Y-15458D01*
X9442357Y41685D01*
X9428071Y113113D01*
X9413786Y155971D01*
X9399500Y184542D01*
X9370928Y227399D01*
X9356643Y241685D01*
X2544500Y-321458D02*
X2544500Y-401458D01*
X2504500Y-361458D02*
X2584500Y-361458D01*
X2928071Y-197172D02*
X2956643Y-197172D01*
X2985214Y-211458D01*
X2999500Y-225744D01*
X3013786Y-254315D01*
X3028071Y-311458D01*
X3028071Y-382887D01*
X3013786Y-440029D01*
X2999500Y-468601D01*
X2985214Y-482887D01*
X2956643Y-497172D01*
X2928071Y-497172D01*
X2899500Y-482887D01*
X2885214Y-468601D01*
X2870928Y-440029D01*
X2856643Y-382887D01*
X2856643Y-311458D01*
X2870928Y-254315D01*
X2885214Y-225744D01*
X2899500Y-211458D01*
X2928071Y-197172D01*
X3156643Y-468601D02*
X3170928Y-482887D01*
X3156643Y-497172D01*
X3142357Y-482887D01*
X3156643Y-468601D01*
X3156643Y-497172D01*
X3342357Y-325744D02*
X3313786Y-311458D01*
X3299500Y-297172D01*
X3285214Y-268601D01*
X3285214Y-254315D01*
X3299500Y-225744D01*
X3313786Y-211458D01*
X3342357Y-197172D01*
X3399500Y-197172D01*
X3428071Y-211458D01*
X3442357Y-225744D01*
X3456643Y-254315D01*
X3456643Y-268601D01*
X3442357Y-297172D01*
X3428071Y-311458D01*
X3399500Y-325744D01*
X3342357Y-325744D01*
X3313786Y-340030D01*
X3299500Y-354315D01*
X3285214Y-382887D01*
X3285214Y-440029D01*
X3299500Y-468601D01*
X3313786Y-482887D01*
X3342357Y-497172D01*
X3399500Y-497172D01*
X3428071Y-482887D01*
X3442357Y-468601D01*
X3456643Y-440029D01*
X3456643Y-382887D01*
X3442357Y-354315D01*
X3428071Y-340030D01*
X3399500Y-325744D01*
X3642357Y-197172D02*
X3670928Y-197172D01*
X3699500Y-211458D01*
X3713786Y-225744D01*
X3728071Y-254315D01*
X3742357Y-311458D01*
X3742357Y-382887D01*
X3728071Y-440029D01*
X3713786Y-468601D01*
X3699500Y-482887D01*
X3670928Y-497172D01*
X3642357Y-497172D01*
X3613786Y-482887D01*
X3599500Y-468601D01*
X3585214Y-440029D01*
X3570928Y-382887D01*
X3570928Y-311458D01*
X3585214Y-254315D01*
X3599500Y-225744D01*
X3613786Y-211458D01*
X3642357Y-197172D01*
X3870928Y-497172D02*
X3870928Y-297172D01*
X3870928Y-325744D02*
X3885214Y-311458D01*
X3913786Y-297172D01*
X3956643Y-297172D01*
X3985214Y-311458D01*
X3999500Y-340030D01*
X3999500Y-497172D01*
X3999500Y-340030D02*
X4013786Y-311458D01*
X4042357Y-297172D01*
X4085214Y-297172D01*
X4113786Y-311458D01*
X4128071Y-340030D01*
X4128071Y-497172D01*
X4270928Y-497172D02*
X4270928Y-297172D01*
X4270928Y-325744D02*
X4285214Y-311458D01*
X4313786Y-297172D01*
X4356643Y-297172D01*
X4385214Y-311458D01*
X4399500Y-340030D01*
X4399500Y-497172D01*
X4399500Y-340030D02*
X4413786Y-311458D01*
X4442357Y-297172D01*
X4485214Y-297172D01*
X4513786Y-311458D01*
X4528071Y-340030D01*
X4528071Y-497172D01*
X5113786Y-182887D02*
X4856643Y-568601D01*
X5499500Y-197172D02*
X5528071Y-197172D01*
X5556643Y-211458D01*
X5570928Y-225744D01*
X5585214Y-254315D01*
X5599500Y-311458D01*
X5599500Y-382887D01*
X5585214Y-440029D01*
X5570928Y-468601D01*
X5556643Y-482887D01*
X5528071Y-497172D01*
X5499500Y-497172D01*
X5470928Y-482887D01*
X5456643Y-468601D01*
X5442357Y-440029D01*
X5428071Y-382887D01*
X5428071Y-311458D01*
X5442357Y-254315D01*
X5456643Y-225744D01*
X5470928Y-211458D01*
X5499500Y-197172D01*
X5728071Y-468601D02*
X5742357Y-482887D01*
X5728071Y-497172D01*
X5713786Y-482887D01*
X5728071Y-468601D01*
X5728071Y-497172D01*
X5928071Y-197172D02*
X5956643Y-197172D01*
X5985214Y-211458D01*
X5999500Y-225744D01*
X6013786Y-254315D01*
X6028071Y-311458D01*
X6028071Y-382887D01*
X6013786Y-440029D01*
X5999500Y-468601D01*
X5985214Y-482887D01*
X5956643Y-497172D01*
X5928071Y-497172D01*
X5899500Y-482887D01*
X5885214Y-468601D01*
X5870928Y-440029D01*
X5856643Y-382887D01*
X5856643Y-311458D01*
X5870928Y-254315D01*
X5885214Y-225744D01*
X5899500Y-211458D01*
X5928071Y-197172D01*
X6128071Y-197172D02*
X6313786Y-197172D01*
X6213786Y-311458D01*
X6256643Y-311458D01*
X6285214Y-325744D01*
X6299500Y-340030D01*
X6313786Y-368601D01*
X6313786Y-440029D01*
X6299500Y-468601D01*
X6285214Y-482887D01*
X6256643Y-497172D01*
X6170928Y-497172D01*
X6142357Y-482887D01*
X6128071Y-468601D01*
X6599500Y-497172D02*
X6428071Y-497172D01*
X6513786Y-497172D02*
X6513786Y-197172D01*
X6485214Y-240029D01*
X6456643Y-268601D01*
X6428071Y-282887D01*
X6713786Y-197172D02*
X6713786Y-254315D01*
X6828071Y-197172D02*
X6828071Y-254315D01*
X7270928Y-611458D02*
X7256643Y-597172D01*
X7228071Y-554315D01*
X7213786Y-525744D01*
X7199500Y-482887D01*
X7185214Y-411458D01*
X7185214Y-354315D01*
X7199500Y-282887D01*
X7213786Y-240029D01*
X7228071Y-211458D01*
X7256643Y-168601D01*
X7270928Y-154315D01*
X7513786Y-297172D02*
X7513786Y-497172D01*
X7442357Y-182887D02*
X7370928Y-397172D01*
X7556643Y-397172D01*
X7899500Y-497172D02*
X7899500Y-197172D01*
X8028071Y-497172D02*
X8028071Y-340030D01*
X8013786Y-311458D01*
X7985214Y-297172D01*
X7942357Y-297172D01*
X7913786Y-311458D01*
X7899500Y-325744D01*
X8213786Y-497172D02*
X8185214Y-482887D01*
X8170928Y-468601D01*
X8156643Y-440029D01*
X8156643Y-354315D01*
X8170928Y-325744D01*
X8185214Y-311458D01*
X8213786Y-297172D01*
X8256643Y-297172D01*
X8285214Y-311458D01*
X8299500Y-325744D01*
X8313786Y-354315D01*
X8313786Y-440029D01*
X8299500Y-468601D01*
X8285214Y-482887D01*
X8256643Y-497172D01*
X8213786Y-497172D01*
X8485214Y-497172D02*
X8456643Y-482887D01*
X8442357Y-454315D01*
X8442357Y-197172D01*
X8713786Y-482887D02*
X8685214Y-497172D01*
X8628071Y-497172D01*
X8599500Y-482887D01*
X8585214Y-454315D01*
X8585214Y-340030D01*
X8599500Y-311458D01*
X8628071Y-297172D01*
X8685214Y-297172D01*
X8713786Y-311458D01*
X8728071Y-340030D01*
X8728071Y-368601D01*
X8585214Y-397172D01*
X8842357Y-482887D02*
X8870928Y-497172D01*
X8928071Y-497172D01*
X8956643Y-482887D01*
X8970928Y-454315D01*
X8970928Y-440029D01*
X8956643Y-411458D01*
X8928071Y-397172D01*
X8885214Y-397172D01*
X8856643Y-382887D01*
X8842357Y-354315D01*
X8842357Y-340030D01*
X8856643Y-311458D01*
X8885214Y-297172D01*
X8928071Y-297172D01*
X8956643Y-311458D01*
X9070928Y-611458D02*
X9085214Y-597172D01*
X9113786Y-554315D01*
X9128071Y-525744D01*
X9142357Y-482887D01*
X9156643Y-411458D01*
X9156643Y-354315D01*
X9142357Y-282887D01*
X9128071Y-240029D01*
X9113786Y-211458D01*
X9085214Y-168601D01*
X9070928Y-154315D01*
X2569856Y-792814D02*
X2569856Y-722102D01*
X2499144Y-722102D01*
X2499144Y-792814D01*
X2569856Y-792814D01*
X3028071Y-893172D02*
X2856643Y-893172D01*
X2942357Y-893172D02*
X2942357Y-593172D01*
X2913786Y-636030D01*
X2885214Y-664601D01*
X2856643Y-678887D01*
X3156643Y-864601D02*
X3170928Y-878887D01*
X3156643Y-893172D01*
X3142357Y-878887D01*
X3156643Y-864601D01*
X3156643Y-893172D01*
X3356643Y-593172D02*
X3385214Y-593172D01*
X3413786Y-607458D01*
X3428071Y-621744D01*
X3442357Y-650315D01*
X3456643Y-707458D01*
X3456643Y-778887D01*
X3442357Y-836029D01*
X3428071Y-864601D01*
X3413786Y-878887D01*
X3385214Y-893172D01*
X3356643Y-893172D01*
X3328071Y-878887D01*
X3313786Y-864601D01*
X3299500Y-836029D01*
X3285214Y-778887D01*
X3285214Y-707458D01*
X3299500Y-650315D01*
X3313786Y-621744D01*
X3328071Y-607458D01*
X3356643Y-593172D01*
X3642357Y-593172D02*
X3670928Y-593172D01*
X3699500Y-607458D01*
X3713786Y-621744D01*
X3728071Y-650315D01*
X3742357Y-707458D01*
X3742357Y-778887D01*
X3728071Y-836029D01*
X3713786Y-864601D01*
X3699500Y-878887D01*
X3670928Y-893172D01*
X3642357Y-893172D01*
X3613786Y-878887D01*
X3599500Y-864601D01*
X3585214Y-836029D01*
X3570928Y-778887D01*
X3570928Y-707458D01*
X3585214Y-650315D01*
X3599500Y-621744D01*
X3613786Y-607458D01*
X3642357Y-593172D01*
X3870928Y-893172D02*
X3870928Y-693172D01*
X3870928Y-721744D02*
X3885214Y-707458D01*
X3913786Y-693172D01*
X3956643Y-693172D01*
X3985214Y-707458D01*
X3999500Y-736029D01*
X3999500Y-893172D01*
X3999500Y-736029D02*
X4013786Y-707458D01*
X4042357Y-693172D01*
X4085214Y-693172D01*
X4113786Y-707458D01*
X4128071Y-736029D01*
X4128071Y-893172D01*
X4270928Y-893172D02*
X4270928Y-693172D01*
X4270928Y-721744D02*
X4285214Y-707458D01*
X4313786Y-693172D01*
X4356643Y-693172D01*
X4385214Y-707458D01*
X4399500Y-736029D01*
X4399500Y-893172D01*
X4399500Y-736029D02*
X4413786Y-707458D01*
X4442357Y-693172D01*
X4485214Y-693172D01*
X4513786Y-707458D01*
X4528071Y-736029D01*
X4528071Y-893172D01*
X5113786Y-578887D02*
X4856643Y-964601D01*
X5499500Y-593172D02*
X5528071Y-593172D01*
X5556643Y-607458D01*
X5570928Y-621744D01*
X5585214Y-650315D01*
X5599500Y-707458D01*
X5599500Y-778887D01*
X5585214Y-836029D01*
X5570928Y-864601D01*
X5556643Y-878887D01*
X5528071Y-893172D01*
X5499500Y-893172D01*
X5470928Y-878887D01*
X5456643Y-864601D01*
X5442357Y-836029D01*
X5428071Y-778887D01*
X5428071Y-707458D01*
X5442357Y-650315D01*
X5456643Y-621744D01*
X5470928Y-607458D01*
X5499500Y-593172D01*
X5728071Y-864601D02*
X5742357Y-878887D01*
X5728071Y-893172D01*
X5713786Y-878887D01*
X5728071Y-864601D01*
X5728071Y-893172D01*
X5928071Y-593172D02*
X5956643Y-593172D01*
X5985214Y-607458D01*
X5999500Y-621744D01*
X6013786Y-650315D01*
X6028071Y-707458D01*
X6028071Y-778887D01*
X6013786Y-836029D01*
X5999500Y-864601D01*
X5985214Y-878887D01*
X5956643Y-893172D01*
X5928071Y-893172D01*
X5899500Y-878887D01*
X5885214Y-864601D01*
X5870928Y-836029D01*
X5856643Y-778887D01*
X5856643Y-707458D01*
X5870928Y-650315D01*
X5885214Y-621744D01*
X5899500Y-607458D01*
X5928071Y-593172D01*
X6128071Y-593172D02*
X6313786Y-593172D01*
X6213786Y-707458D01*
X6256643Y-707458D01*
X6285214Y-721744D01*
X6299500Y-736029D01*
X6313786Y-764601D01*
X6313786Y-836029D01*
X6299500Y-864601D01*
X6285214Y-878887D01*
X6256643Y-893172D01*
X6170928Y-893172D01*
X6142357Y-878887D01*
X6128071Y-864601D01*
X6456643Y-893172D02*
X6513786Y-893172D01*
X6542357Y-878887D01*
X6556643Y-864601D01*
X6585214Y-821744D01*
X6599500Y-764601D01*
X6599500Y-650315D01*
X6585214Y-621744D01*
X6570928Y-607458D01*
X6542357Y-593172D01*
X6485214Y-593172D01*
X6456643Y-607458D01*
X6442357Y-621744D01*
X6428071Y-650315D01*
X6428071Y-721744D01*
X6442357Y-750315D01*
X6456643Y-764601D01*
X6485214Y-778887D01*
X6542357Y-778887D01*
X6570928Y-764601D01*
X6585214Y-750315D01*
X6599500Y-721744D01*
X6713786Y-593172D02*
X6713786Y-650315D01*
X6828071Y-593172D02*
X6828071Y-650315D01*
X7270928Y-1007458D02*
X7256643Y-993172D01*
X7228071Y-950315D01*
X7213786Y-921744D01*
X7199500Y-878887D01*
X7185214Y-807458D01*
X7185214Y-750315D01*
X7199500Y-678887D01*
X7213786Y-636030D01*
X7228071Y-607458D01*
X7256643Y-564601D01*
X7270928Y-550315D01*
X7399500Y-893172D02*
X7456643Y-893172D01*
X7485214Y-878887D01*
X7499500Y-864601D01*
X7528071Y-821744D01*
X7542357Y-764601D01*
X7542357Y-650315D01*
X7528071Y-621744D01*
X7513786Y-607458D01*
X7485214Y-593172D01*
X7428071Y-593172D01*
X7399500Y-607458D01*
X7385214Y-621744D01*
X7370928Y-650315D01*
X7370928Y-721744D01*
X7385214Y-750315D01*
X7399500Y-764601D01*
X7428071Y-778887D01*
X7485214Y-778887D01*
X7513786Y-764601D01*
X7528071Y-750315D01*
X7542357Y-721744D01*
X7828071Y-893172D02*
X7656643Y-893172D01*
X7742357Y-893172D02*
X7742357Y-593172D01*
X7713786Y-636030D01*
X7685214Y-664601D01*
X7656643Y-678887D01*
X8185214Y-893172D02*
X8185214Y-593172D01*
X8313786Y-893172D02*
X8313786Y-736029D01*
X8299500Y-707458D01*
X8270928Y-693172D01*
X8228071Y-693172D01*
X8199500Y-707458D01*
X8185214Y-721744D01*
X8499500Y-893172D02*
X8470928Y-878887D01*
X8456643Y-864601D01*
X8442357Y-836029D01*
X8442357Y-750315D01*
X8456643Y-721744D01*
X8470928Y-707458D01*
X8499500Y-693172D01*
X8542357Y-693172D01*
X8570928Y-707458D01*
X8585214Y-721744D01*
X8599500Y-750315D01*
X8599500Y-836029D01*
X8585214Y-864601D01*
X8570928Y-878887D01*
X8542357Y-893172D01*
X8499500Y-893172D01*
X8770928Y-893172D02*
X8742357Y-878887D01*
X8728071Y-850315D01*
X8728071Y-593172D01*
X8999500Y-878887D02*
X8970928Y-893172D01*
X8913786Y-893172D01*
X8885214Y-878887D01*
X8870928Y-850315D01*
X8870928Y-736029D01*
X8885214Y-707458D01*
X8913786Y-693172D01*
X8970928Y-693172D01*
X8999500Y-707458D01*
X9013786Y-736029D01*
X9013786Y-764601D01*
X8870928Y-793172D01*
X9128071Y-878887D02*
X9156643Y-893172D01*
X9213786Y-893172D01*
X9242357Y-878887D01*
X9256643Y-850315D01*
X9256643Y-836029D01*
X9242357Y-807458D01*
X9213786Y-793172D01*
X9170928Y-793172D01*
X9142357Y-778887D01*
X9128071Y-750315D01*
X9128071Y-736029D01*
X9142357Y-707458D01*
X9170928Y-693172D01*
X9213786Y-693172D01*
X9242357Y-707458D01*
X9356643Y-1007458D02*
X9370928Y-993172D01*
X9399500Y-950315D01*
X9413786Y-921744D01*
X9428071Y-878887D01*
X9442357Y-807458D01*
X9442357Y-750315D01*
X9428071Y-678887D01*
X9413786Y-636030D01*
X9399500Y-607458D01*
X9370928Y-564601D01*
X9356643Y-550315D01*
X2499500Y-1238458D02*
X2584500Y-1153458D01*
X2499500Y-1068458D01*
X2414500Y-1153458D01*
X2499500Y-1238458D01*
X3028071Y-1289172D02*
X2856643Y-1289172D01*
X2942357Y-1289172D02*
X2942357Y-989172D01*
X2913786Y-1032029D01*
X2885214Y-1060601D01*
X2856643Y-1074887D01*
X3156643Y-1260601D02*
X3170928Y-1274887D01*
X3156643Y-1289172D01*
X3142357Y-1274887D01*
X3156643Y-1260601D01*
X3156643Y-1289172D01*
X3270928Y-989172D02*
X3470928Y-989172D01*
X3342357Y-1289172D01*
X3642357Y-989172D02*
X3670928Y-989172D01*
X3699500Y-1003458D01*
X3713786Y-1017744D01*
X3728071Y-1046315D01*
X3742357Y-1103458D01*
X3742357Y-1174887D01*
X3728071Y-1232030D01*
X3713786Y-1260601D01*
X3699500Y-1274887D01*
X3670928Y-1289172D01*
X3642357Y-1289172D01*
X3613786Y-1274887D01*
X3599500Y-1260601D01*
X3585214Y-1232030D01*
X3570928Y-1174887D01*
X3570928Y-1103458D01*
X3585214Y-1046315D01*
X3599500Y-1017744D01*
X3613786Y-1003458D01*
X3642357Y-989172D01*
X3870928Y-1289172D02*
X3870928Y-1089172D01*
X3870928Y-1117744D02*
X3885214Y-1103458D01*
X3913786Y-1089172D01*
X3956643Y-1089172D01*
X3985214Y-1103458D01*
X3999500Y-1132030D01*
X3999500Y-1289172D01*
X3999500Y-1132030D02*
X4013786Y-1103458D01*
X4042357Y-1089172D01*
X4085214Y-1089172D01*
X4113786Y-1103458D01*
X4128071Y-1132030D01*
X4128071Y-1289172D01*
X4270928Y-1289172D02*
X4270928Y-1089172D01*
X4270928Y-1117744D02*
X4285214Y-1103458D01*
X4313786Y-1089172D01*
X4356643Y-1089172D01*
X4385214Y-1103458D01*
X4399500Y-1132030D01*
X4399500Y-1289172D01*
X4399500Y-1132030D02*
X4413786Y-1103458D01*
X4442357Y-1089172D01*
X4485214Y-1089172D01*
X4513786Y-1103458D01*
X4528071Y-1132030D01*
X4528071Y-1289172D01*
X5113786Y-974887D02*
X4856643Y-1360601D01*
X5499500Y-989172D02*
X5528071Y-989172D01*
X5556643Y-1003458D01*
X5570928Y-1017744D01*
X5585214Y-1046315D01*
X5599500Y-1103458D01*
X5599500Y-1174887D01*
X5585214Y-1232030D01*
X5570928Y-1260601D01*
X5556643Y-1274887D01*
X5528071Y-1289172D01*
X5499500Y-1289172D01*
X5470928Y-1274887D01*
X5456643Y-1260601D01*
X5442357Y-1232030D01*
X5428071Y-1174887D01*
X5428071Y-1103458D01*
X5442357Y-1046315D01*
X5456643Y-1017744D01*
X5470928Y-1003458D01*
X5499500Y-989172D01*
X5728071Y-1260601D02*
X5742357Y-1274887D01*
X5728071Y-1289172D01*
X5713786Y-1274887D01*
X5728071Y-1260601D01*
X5728071Y-1289172D01*
X5928071Y-989172D02*
X5956643Y-989172D01*
X5985214Y-1003458D01*
X5999500Y-1017744D01*
X6013786Y-1046315D01*
X6028071Y-1103458D01*
X6028071Y-1174887D01*
X6013786Y-1232030D01*
X5999500Y-1260601D01*
X5985214Y-1274887D01*
X5956643Y-1289172D01*
X5928071Y-1289172D01*
X5899500Y-1274887D01*
X5885214Y-1260601D01*
X5870928Y-1232030D01*
X5856643Y-1174887D01*
X5856643Y-1103458D01*
X5870928Y-1046315D01*
X5885214Y-1017744D01*
X5899500Y-1003458D01*
X5928071Y-989172D01*
X6285214Y-989172D02*
X6228071Y-989172D01*
X6199500Y-1003458D01*
X6185214Y-1017744D01*
X6156643Y-1060601D01*
X6142357Y-1117744D01*
X6142357Y-1232030D01*
X6156643Y-1260601D01*
X6170928Y-1274887D01*
X6199500Y-1289172D01*
X6256643Y-1289172D01*
X6285214Y-1274887D01*
X6299500Y-1260601D01*
X6313786Y-1232030D01*
X6313786Y-1160601D01*
X6299500Y-1132030D01*
X6285214Y-1117744D01*
X6256643Y-1103458D01*
X6199500Y-1103458D01*
X6170928Y-1117744D01*
X6156643Y-1132030D01*
X6142357Y-1160601D01*
X6413786Y-989172D02*
X6613786Y-989172D01*
X6485214Y-1289172D01*
X6713786Y-989172D02*
X6713786Y-1046315D01*
X6828071Y-989172D02*
X6828071Y-1046315D01*
X7270928Y-1403458D02*
X7256643Y-1389172D01*
X7228071Y-1346315D01*
X7213786Y-1317744D01*
X7199500Y-1274887D01*
X7185214Y-1203458D01*
X7185214Y-1146315D01*
X7199500Y-1074887D01*
X7213786Y-1032029D01*
X7228071Y-1003458D01*
X7256643Y-960601D01*
X7270928Y-946315D01*
X7370928Y-1017744D02*
X7385214Y-1003458D01*
X7413786Y-989172D01*
X7485214Y-989172D01*
X7513786Y-1003458D01*
X7528071Y-1017744D01*
X7542357Y-1046315D01*
X7542357Y-1074887D01*
X7528071Y-1117744D01*
X7356643Y-1289172D01*
X7542357Y-1289172D01*
X7899500Y-1289172D02*
X7899500Y-989172D01*
X8028071Y-1289172D02*
X8028071Y-1132030D01*
X8013786Y-1103458D01*
X7985214Y-1089172D01*
X7942357Y-1089172D01*
X7913786Y-1103458D01*
X7899500Y-1117744D01*
X8213786Y-1289172D02*
X8185214Y-1274887D01*
X8170928Y-1260601D01*
X8156643Y-1232030D01*
X8156643Y-1146315D01*
X8170928Y-1117744D01*
X8185214Y-1103458D01*
X8213786Y-1089172D01*
X8256643Y-1089172D01*
X8285214Y-1103458D01*
X8299500Y-1117744D01*
X8313786Y-1146315D01*
X8313786Y-1232030D01*
X8299500Y-1260601D01*
X8285214Y-1274887D01*
X8256643Y-1289172D01*
X8213786Y-1289172D01*
X8485214Y-1289172D02*
X8456643Y-1274887D01*
X8442357Y-1246315D01*
X8442357Y-989172D01*
X8713786Y-1274887D02*
X8685214Y-1289172D01*
X8628071Y-1289172D01*
X8599500Y-1274887D01*
X8585214Y-1246315D01*
X8585214Y-1132030D01*
X8599500Y-1103458D01*
X8628071Y-1089172D01*
X8685214Y-1089172D01*
X8713786Y-1103458D01*
X8728071Y-1132030D01*
X8728071Y-1160601D01*
X8585214Y-1189172D01*
X8842357Y-1274887D02*
X8870928Y-1289172D01*
X8928071Y-1289172D01*
X8956643Y-1274887D01*
X8970928Y-1246315D01*
X8970928Y-1232030D01*
X8956643Y-1203458D01*
X8928071Y-1189172D01*
X8885214Y-1189172D01*
X8856643Y-1174887D01*
X8842357Y-1146315D01*
X8842357Y-1132030D01*
X8856643Y-1103458D01*
X8885214Y-1089172D01*
X8928071Y-1089172D01*
X8956643Y-1103458D01*
X9070928Y-1403458D02*
X9085214Y-1389172D01*
X9113786Y-1346315D01*
X9128071Y-1317744D01*
X9142357Y-1274887D01*
X9156643Y-1203458D01*
X9156643Y-1146315D01*
X9142357Y-1074887D01*
X9128071Y-1032029D01*
X9113786Y-1003458D01*
X9085214Y-960601D01*
X9070928Y-946315D01*
M02*
