M48
;DRILL file {KiCad (5.0.2)-1} date 22/03/2019 14:34:30
;FORMAT={-:-/ absolute / metric / decimal}
FMAT,2
METRIC,TZ
T1C0.400
T2C0.500
T3C0.800
T4C1.000
T5C1.700
%
G90
G05
T1
X33.23Y59.26
X34.307Y60.337
X34.307Y59.26
X35.383Y59.26
X35.383Y61.413
X35.383Y60.337
X36.46Y62.49
X36.46Y61.413
X36.46Y60.337
X36.46Y59.26
X36.69Y57.744
X39.12Y28.92
X43.639Y68.224
X44.72Y37.11
X52.83Y27.27
X55.56Y23.11
X55.88Y26.09
T2
X46.97Y24.84
X48.35Y52.49
X57.16Y27.34
X61.83Y26.32
X63.95Y21.77
X68.42Y28.12
X68.42Y26.87
X68.42Y25.62
X68.42Y24.37
X68.42Y23.12
X68.42Y21.87
X68.42Y20.62
X68.42Y19.37
T3
X46.12Y46.26
X46.12Y38.64
X50.17Y35.86
X52.67Y35.86
T4
X61.71Y70.95
X64.163Y70.293
X66.617Y69.635
X46.08Y56.42
X59.218Y68.616
X61.671Y67.958
X64.125Y67.301
X66.578Y66.644
X69.032Y65.986
X46.12Y51.35
X46.12Y48.81
X33.87Y41.72
X39.24Y67.97
X41.44Y69.24
X43.639Y70.51
X45.839Y71.78
X60.16Y60.4
X60.16Y57.86
X60.16Y55.32
X60.16Y52.78
X42.62Y61.96
X50.92Y72.96
X47.978Y30.175
X47.978Y17.475
X50.518Y30.175
X50.518Y17.475
X53.058Y30.175
X53.058Y17.475
X55.598Y30.175
X55.598Y17.475
X58.138Y30.175
X58.138Y17.475
X60.678Y30.175
X60.678Y17.475
X63.218Y30.175
X63.218Y17.475
X65.758Y30.175
X65.758Y17.475
X48.62Y64.058
X48.62Y61.518
X48.62Y58.978
X48.62Y56.438
X51.16Y64.058
X51.16Y61.518
X51.16Y58.978
X51.16Y56.438
X28.104Y48.595
X28.675Y51.07
X29.247Y53.545
X30.579Y48.024
X31.15Y50.499
X31.722Y52.974
X46.08Y58.978
X28.09Y44.26
X33.87Y44.26
X57.23Y65.48
X57.23Y62.94
X57.23Y60.4
X57.23Y57.86
X57.23Y55.32
X57.23Y52.78
X40.08Y58.96
X40.08Y56.42
X40.08Y53.88
X40.08Y51.34
X40.08Y48.8
X40.08Y46.26
X40.08Y43.72
X40.08Y41.18
X40.08Y38.64
X40.08Y36.1
X40.08Y33.56
X40.08Y31.02
X42.62Y58.96
X42.62Y56.42
X42.62Y53.88
X42.62Y51.34
X42.62Y48.8
X42.62Y46.26
X42.62Y43.72
X42.62Y41.18
X42.62Y38.64
X42.62Y36.1
X42.62Y33.56
X42.62Y31.02
X53.92Y72.96
X30.92Y44.26
X46.12Y43.72
X46.12Y41.18
X48.66Y43.72
X48.66Y41.18
T5
X70.87Y61.39
X70.87Y57.43
T0
M30
