%FSLAX45Y45*%
G04 Gerber Fmt 4.5, Leading zero omitted, Abs format (unit mm)*
G04 Created by KiCad (PCBNEW (5.0.2)-1) date 22/03/2019 14:34:31*
%MOMM*%
%LPD*%
G01*
G04 APERTURE LIST*
%ADD10C,0.150000*%
%ADD11C,0.200000*%
%ADD12C,0.300000*%
G04 APERTURE END LIST*
D10*
X6711980Y3799982D02*
G75*
G03X6492000Y3896000I-219980J-203982D01*
G01*
X6711980Y3799982D02*
X6992000Y3520000D01*
X3424795Y3050000D02*
X3424795Y2384809D01*
X3006000Y4196000D02*
X3424795Y3050000D01*
X2606551Y4195990D02*
X3006000Y4196000D01*
X7605000Y6352000D02*
X7188000Y6658000D01*
X7316967Y7135978D02*
X7188000Y6658000D01*
X7605000Y5496000D02*
X7605000Y6352000D01*
X3424795Y2384809D02*
G75*
G03X6992000Y1684000I2267205J2111191D01*
G01*
X6492000Y5096000D02*
G75*
G03X6792000Y5396000I0J300000D01*
G01*
X2606551Y4195990D02*
G75*
G02X2592000Y4496000I3085449J300010D01*
G01*
X7316967Y7135978D02*
G75*
G03X2592000Y4496000I-1624967J-2639978D01*
G01*
X5292000Y5096000D02*
X6492000Y5096000D01*
X6492000Y3896000D02*
X5292000Y3896000D01*
X6992000Y1684000D02*
X6992000Y3520000D01*
X6792000Y5496000D02*
X6792000Y5396000D01*
X5292000Y5096000D02*
X5292000Y3896000D01*
X6792000Y5496000D02*
X7605000Y5496000D01*
D11*
X6282000Y3606000D02*
X6602000Y3286000D01*
X6602000Y3606000D02*
X6282000Y3286000D01*
X6282000Y5706000D02*
X6602000Y5386000D01*
X6602000Y5706000D02*
X6282000Y5386000D01*
D12*
X2870928Y924828D02*
X2870928Y1224828D01*
X2942357Y1224828D01*
X2985214Y1210542D01*
X3013786Y1181971D01*
X3028071Y1153399D01*
X3042357Y1096256D01*
X3042357Y1053399D01*
X3028071Y996256D01*
X3013786Y967685D01*
X2985214Y939113D01*
X2942357Y924828D01*
X2870928Y924828D01*
X3170928Y924828D02*
X3170928Y1124828D01*
X3170928Y1067685D02*
X3185214Y1096256D01*
X3199500Y1110542D01*
X3228071Y1124828D01*
X3256643Y1124828D01*
X3356643Y924828D02*
X3356643Y1124828D01*
X3356643Y1224828D02*
X3342357Y1210542D01*
X3356643Y1196256D01*
X3370928Y1210542D01*
X3356643Y1224828D01*
X3356643Y1196256D01*
X3542357Y924828D02*
X3513786Y939113D01*
X3499500Y967685D01*
X3499500Y1224828D01*
X3699500Y924828D02*
X3670928Y939113D01*
X3656643Y967685D01*
X3656643Y1224828D01*
X4042357Y924828D02*
X4042357Y1224828D01*
X4142357Y1010542D01*
X4242357Y1224828D01*
X4242357Y924828D01*
X4513786Y924828D02*
X4513786Y1081971D01*
X4499500Y1110542D01*
X4470928Y1124828D01*
X4413786Y1124828D01*
X4385214Y1110542D01*
X4513786Y939113D02*
X4485214Y924828D01*
X4413786Y924828D01*
X4385214Y939113D01*
X4370928Y967685D01*
X4370928Y996256D01*
X4385214Y1024828D01*
X4413786Y1039113D01*
X4485214Y1039113D01*
X4513786Y1053399D01*
X4656643Y1124828D02*
X4656643Y824828D01*
X4656643Y1110542D02*
X4685214Y1124828D01*
X4742357Y1124828D01*
X4770928Y1110542D01*
X4785214Y1096256D01*
X4799500Y1067685D01*
X4799500Y981970D01*
X4785214Y953399D01*
X4770928Y939113D01*
X4742357Y924828D01*
X4685214Y924828D01*
X4656643Y939113D01*
X4928071Y953399D02*
X4942357Y939113D01*
X4928071Y924828D01*
X4913786Y939113D01*
X4928071Y953399D01*
X4928071Y924828D01*
X4928071Y1110542D02*
X4942357Y1096256D01*
X4928071Y1081971D01*
X4913786Y1096256D01*
X4928071Y1110542D01*
X4928071Y1081971D01*
X2264500Y590542D02*
X2584500Y270542D01*
X2584500Y590542D02*
X2264500Y270542D01*
X2842357Y594828D02*
X3028071Y594828D01*
X2928071Y480542D01*
X2970928Y480542D01*
X2999500Y466256D01*
X3013786Y451970D01*
X3028071Y423399D01*
X3028071Y351970D01*
X3013786Y323399D01*
X2999500Y309113D01*
X2970928Y294828D01*
X2885214Y294828D01*
X2856643Y309113D01*
X2842357Y323399D01*
X3156643Y323399D02*
X3170928Y309113D01*
X3156643Y294828D01*
X3142357Y309113D01*
X3156643Y323399D01*
X3156643Y294828D01*
X3285214Y566256D02*
X3299500Y580542D01*
X3328071Y594828D01*
X3399500Y594828D01*
X3428071Y580542D01*
X3442357Y566256D01*
X3456643Y537685D01*
X3456643Y509113D01*
X3442357Y466256D01*
X3270928Y294828D01*
X3456643Y294828D01*
X3642357Y594828D02*
X3670928Y594828D01*
X3699500Y580542D01*
X3713786Y566256D01*
X3728071Y537685D01*
X3742357Y480542D01*
X3742357Y409113D01*
X3728071Y351970D01*
X3713786Y323399D01*
X3699500Y309113D01*
X3670928Y294828D01*
X3642357Y294828D01*
X3613786Y309113D01*
X3599500Y323399D01*
X3585214Y351970D01*
X3570928Y409113D01*
X3570928Y480542D01*
X3585214Y537685D01*
X3599500Y566256D01*
X3613786Y580542D01*
X3642357Y594828D01*
X3870928Y294828D02*
X3870928Y494828D01*
X3870928Y466256D02*
X3885214Y480542D01*
X3913786Y494828D01*
X3956643Y494828D01*
X3985214Y480542D01*
X3999500Y451970D01*
X3999500Y294828D01*
X3999500Y451970D02*
X4013786Y480542D01*
X4042357Y494828D01*
X4085214Y494828D01*
X4113786Y480542D01*
X4128071Y451970D01*
X4128071Y294828D01*
X4270928Y294828D02*
X4270928Y494828D01*
X4270928Y466256D02*
X4285214Y480542D01*
X4313786Y494828D01*
X4356643Y494828D01*
X4385214Y480542D01*
X4399500Y451970D01*
X4399500Y294828D01*
X4399500Y451970D02*
X4413786Y480542D01*
X4442357Y494828D01*
X4485214Y494828D01*
X4513786Y480542D01*
X4528071Y451970D01*
X4528071Y294828D01*
X5113786Y609113D02*
X4856643Y223399D01*
X5499500Y594828D02*
X5528071Y594828D01*
X5556643Y580542D01*
X5570928Y566256D01*
X5585214Y537685D01*
X5599500Y480542D01*
X5599500Y409113D01*
X5585214Y351970D01*
X5570928Y323399D01*
X5556643Y309113D01*
X5528071Y294828D01*
X5499500Y294828D01*
X5470928Y309113D01*
X5456643Y323399D01*
X5442357Y351970D01*
X5428071Y409113D01*
X5428071Y480542D01*
X5442357Y537685D01*
X5456643Y566256D01*
X5470928Y580542D01*
X5499500Y594828D01*
X5728071Y323399D02*
X5742357Y309113D01*
X5728071Y294828D01*
X5713786Y309113D01*
X5728071Y323399D01*
X5728071Y294828D01*
X6028071Y294828D02*
X5856643Y294828D01*
X5942357Y294828D02*
X5942357Y594828D01*
X5913786Y551971D01*
X5885214Y523399D01*
X5856643Y509113D01*
X6142357Y566256D02*
X6156643Y580542D01*
X6185214Y594828D01*
X6256643Y594828D01*
X6285214Y580542D01*
X6299500Y566256D01*
X6313786Y537685D01*
X6313786Y509113D01*
X6299500Y466256D01*
X6128071Y294828D01*
X6313786Y294828D01*
X6570928Y594828D02*
X6513786Y594828D01*
X6485214Y580542D01*
X6470928Y566256D01*
X6442357Y523399D01*
X6428071Y466256D01*
X6428071Y351970D01*
X6442357Y323399D01*
X6456643Y309113D01*
X6485214Y294828D01*
X6542357Y294828D01*
X6570928Y309113D01*
X6585214Y323399D01*
X6599500Y351970D01*
X6599500Y423399D01*
X6585214Y451970D01*
X6570928Y466256D01*
X6542357Y480542D01*
X6485214Y480542D01*
X6456643Y466256D01*
X6442357Y451970D01*
X6428071Y423399D01*
X6713786Y594828D02*
X6713786Y537685D01*
X6828071Y594828D02*
X6828071Y537685D01*
X7270928Y180542D02*
X7256643Y194828D01*
X7228071Y237685D01*
X7213786Y266256D01*
X7199500Y309113D01*
X7185214Y380542D01*
X7185214Y437685D01*
X7199500Y509113D01*
X7213786Y551971D01*
X7228071Y580542D01*
X7256643Y623399D01*
X7270928Y637685D01*
X7370928Y566256D02*
X7385214Y580542D01*
X7413786Y594828D01*
X7485214Y594828D01*
X7513786Y580542D01*
X7528071Y566256D01*
X7542357Y537685D01*
X7542357Y509113D01*
X7528071Y466256D01*
X7356643Y294828D01*
X7542357Y294828D01*
X7899500Y294828D02*
X7899500Y594828D01*
X8028071Y294828D02*
X8028071Y451970D01*
X8013786Y480542D01*
X7985214Y494828D01*
X7942357Y494828D01*
X7913786Y480542D01*
X7899500Y466256D01*
X8213786Y294828D02*
X8185214Y309113D01*
X8170928Y323399D01*
X8156643Y351970D01*
X8156643Y437685D01*
X8170928Y466256D01*
X8185214Y480542D01*
X8213786Y494828D01*
X8256643Y494828D01*
X8285214Y480542D01*
X8299500Y466256D01*
X8313786Y437685D01*
X8313786Y351970D01*
X8299500Y323399D01*
X8285214Y309113D01*
X8256643Y294828D01*
X8213786Y294828D01*
X8485214Y294828D02*
X8456643Y309113D01*
X8442357Y337685D01*
X8442357Y594828D01*
X8713786Y309113D02*
X8685214Y294828D01*
X8628071Y294828D01*
X8599500Y309113D01*
X8585214Y337685D01*
X8585214Y451970D01*
X8599500Y480542D01*
X8628071Y494828D01*
X8685214Y494828D01*
X8713786Y480542D01*
X8728071Y451970D01*
X8728071Y423399D01*
X8585214Y394828D01*
X8842357Y309113D02*
X8870928Y294828D01*
X8928071Y294828D01*
X8956643Y309113D01*
X8970928Y337685D01*
X8970928Y351970D01*
X8956643Y380542D01*
X8928071Y394828D01*
X8885214Y394828D01*
X8856643Y409113D01*
X8842357Y437685D01*
X8842357Y451970D01*
X8856643Y480542D01*
X8885214Y494828D01*
X8928071Y494828D01*
X8956643Y480542D01*
X9070928Y180542D02*
X9085214Y194828D01*
X9113786Y237685D01*
X9128071Y266256D01*
X9142357Y309113D01*
X9156643Y380542D01*
X9156643Y437685D01*
X9142357Y509113D01*
X9128071Y551971D01*
X9113786Y580542D01*
X9085214Y623399D01*
X9070928Y637685D01*
X9613786Y180542D02*
X9599500Y194828D01*
X9570928Y237685D01*
X9556643Y266256D01*
X9542357Y309113D01*
X9528071Y380542D01*
X9528071Y437685D01*
X9542357Y509113D01*
X9556643Y551971D01*
X9570928Y580542D01*
X9599500Y623399D01*
X9613786Y637685D01*
X9728071Y494828D02*
X9728071Y294828D01*
X9728071Y466256D02*
X9742357Y480542D01*
X9770928Y494828D01*
X9813786Y494828D01*
X9842357Y480542D01*
X9856643Y451970D01*
X9856643Y294828D01*
X10042357Y294828D02*
X10013786Y309113D01*
X9999500Y323399D01*
X9985214Y351970D01*
X9985214Y437685D01*
X9999500Y466256D01*
X10013786Y480542D01*
X10042357Y494828D01*
X10085214Y494828D01*
X10113786Y480542D01*
X10128071Y466256D01*
X10142357Y437685D01*
X10142357Y351970D01*
X10128071Y323399D01*
X10113786Y309113D01*
X10085214Y294828D01*
X10042357Y294828D01*
X10228071Y494828D02*
X10342357Y494828D01*
X10270928Y594828D02*
X10270928Y337685D01*
X10285214Y309113D01*
X10313786Y294828D01*
X10342357Y294828D01*
X10670928Y494828D02*
X10670928Y194828D01*
X10670928Y480542D02*
X10699500Y494828D01*
X10756643Y494828D01*
X10785214Y480542D01*
X10799500Y466256D01*
X10813786Y437685D01*
X10813786Y351970D01*
X10799500Y323399D01*
X10785214Y309113D01*
X10756643Y294828D01*
X10699500Y294828D01*
X10670928Y309113D01*
X10985214Y294828D02*
X10956643Y309113D01*
X10942357Y337685D01*
X10942357Y594828D01*
X11228071Y294828D02*
X11228071Y451970D01*
X11213786Y480542D01*
X11185214Y494828D01*
X11128071Y494828D01*
X11099500Y480542D01*
X11228071Y309113D02*
X11199500Y294828D01*
X11128071Y294828D01*
X11099500Y309113D01*
X11085214Y337685D01*
X11085214Y366256D01*
X11099500Y394828D01*
X11128071Y409113D01*
X11199500Y409113D01*
X11228071Y423399D01*
X11328071Y494828D02*
X11442357Y494828D01*
X11370928Y594828D02*
X11370928Y337685D01*
X11385214Y309113D01*
X11413786Y294828D01*
X11442357Y294828D01*
X11656643Y309113D02*
X11628071Y294828D01*
X11570928Y294828D01*
X11542357Y309113D01*
X11528071Y337685D01*
X11528071Y451970D01*
X11542357Y480542D01*
X11570928Y494828D01*
X11628071Y494828D01*
X11656643Y480542D01*
X11670928Y451970D01*
X11670928Y423399D01*
X11528071Y394828D01*
X11928071Y294828D02*
X11928071Y594828D01*
X11928071Y309113D02*
X11899500Y294828D01*
X11842357Y294828D01*
X11813786Y309113D01*
X11799500Y323399D01*
X11785214Y351970D01*
X11785214Y437685D01*
X11799500Y466256D01*
X11813786Y480542D01*
X11842357Y494828D01*
X11899500Y494828D01*
X11928071Y480542D01*
X12042357Y180542D02*
X12056643Y194828D01*
X12085214Y237685D01*
X12099500Y266256D01*
X12113786Y309113D01*
X12128071Y380542D01*
X12128071Y437685D01*
X12113786Y509113D01*
X12099500Y551971D01*
X12085214Y580542D01*
X12056643Y623399D01*
X12042357Y637685D01*
M02*
