M48
;DRILL file {KiCad (5.0.2)-1} date 24/03/2019 18:15:22
;FORMAT={-:-/ absolute / metric / decimal}
FMAT,2
METRIC,TZ
T1C0.400
T2C0.500
T3C0.762
T4C1.000
T5C1.200
T6C1.700
%
G90
G05
T1
X25.822Y49.922
X28.742Y48.052
X32.112Y55.732
X32.112Y54.572
X32.112Y53.412
X33.227Y53.412
X34.342Y53.412
X27.892Y52.682
X27.892Y51.582
X27.892Y50.482
X28.442Y52.132
X28.442Y51.032
X28.992Y52.682
X28.992Y51.582
X28.992Y50.482
X29.542Y52.132
X29.542Y51.032
X30.092Y52.682
X30.092Y51.582
X30.092Y50.482
T2
X20.622Y52.002
X20.642Y45.702
X20.662Y48.632
X21.732Y56.112
X23.642Y22.842
X24.772Y58.762
X25.402Y21.442
X26.822Y58.122
X35.852Y54.072
X35.852Y52.442
X46.752Y28.222
T3
X48.522Y47.742
X48.522Y45.202
T4
X21.872Y39.292
X25.802Y26.202
X31.872Y42.462
X31.872Y39.482
X42.152Y48.012
X45.287Y22.267
X34.88Y32.141
X34.88Y19.441
X37.42Y32.141
X37.42Y19.441
X39.96Y32.141
X39.96Y19.441
X42.5Y32.141
X42.5Y19.441
X45.04Y32.141
X45.04Y19.441
X47.58Y32.141
X18.482Y39.223
X18.482Y36.723
X47.6Y19.441
X50.14Y19.441
T5
X56.132Y26.077
X56.132Y22.267
T6
X53.086Y55.626
X53.086Y51.666
T0
M30
