G04 #@! TF.GenerationSoftware,KiCad,Pcbnew,(5.0.2)-1*
G04 #@! TF.CreationDate,2019-03-24T18:15:19+01:00*
G04 #@! TF.ProjectId,DICE-Charging - 2.0,44494345-2d43-4686-9172-67696e67202d,rev?*
G04 #@! TF.SameCoordinates,PX8cfad20PY5dfc8c0*
G04 #@! TF.FileFunction,Paste,Top*
G04 #@! TF.FilePolarity,Positive*
%FSLAX46Y46*%
G04 Gerber Fmt 4.6, Leading zero omitted, Abs format (unit mm)*
G04 Created by KiCad (PCBNEW (5.0.2)-1) date 24/03/2019 18:15:19*
%MOMM*%
%LPD*%
G01*
G04 APERTURE LIST*
%ADD10C,0.100000*%
%ADD11C,0.250000*%
%ADD12C,0.750000*%
%ADD13C,2.700000*%
%ADD14R,2.180000X2.120000*%
%ADD15R,1.400000X1.800000*%
%ADD16C,0.950000*%
%ADD17C,1.425000*%
%ADD18R,0.800000X0.900000*%
%ADD19C,1.150000*%
G04 APERTURE END LIST*
D10*
G04 #@! TO.C,U1*
G36*
X27821901Y54029259D02*
X27826755Y54028539D01*
X27831514Y54027347D01*
X27836134Y54025694D01*
X27840570Y54023596D01*
X27844779Y54021073D01*
X27848720Y54018151D01*
X27852355Y54014855D01*
X27855651Y54011220D01*
X27858573Y54007279D01*
X27861096Y54003070D01*
X27863194Y53998634D01*
X27864847Y53994014D01*
X27866039Y53989255D01*
X27866759Y53984401D01*
X27867000Y53979500D01*
X27867000Y53254500D01*
X27866759Y53249599D01*
X27866039Y53244745D01*
X27864847Y53239986D01*
X27863194Y53235366D01*
X27861096Y53230930D01*
X27858573Y53226721D01*
X27855651Y53222780D01*
X27852355Y53219145D01*
X27848720Y53215849D01*
X27844779Y53212927D01*
X27840570Y53210404D01*
X27836134Y53208306D01*
X27831514Y53206653D01*
X27826755Y53205461D01*
X27821901Y53204741D01*
X27817000Y53204500D01*
X27667000Y53204500D01*
X27662099Y53204741D01*
X27657245Y53205461D01*
X27652486Y53206653D01*
X27647866Y53208306D01*
X27643430Y53210404D01*
X27639221Y53212927D01*
X27635280Y53215849D01*
X27631645Y53219145D01*
X27628349Y53222780D01*
X27625427Y53226721D01*
X27622904Y53230930D01*
X27620806Y53235366D01*
X27619153Y53239986D01*
X27617961Y53244745D01*
X27617241Y53249599D01*
X27617000Y53254500D01*
X27617000Y53979500D01*
X27617241Y53984401D01*
X27617961Y53989255D01*
X27619153Y53994014D01*
X27620806Y53998634D01*
X27622904Y54003070D01*
X27625427Y54007279D01*
X27628349Y54011220D01*
X27631645Y54014855D01*
X27635280Y54018151D01*
X27639221Y54021073D01*
X27643430Y54023596D01*
X27647866Y54025694D01*
X27652486Y54027347D01*
X27657245Y54028539D01*
X27662099Y54029259D01*
X27667000Y54029500D01*
X27817000Y54029500D01*
X27821901Y54029259D01*
X27821901Y54029259D01*
G37*
D11*
X27742000Y53617000D03*
D10*
G36*
X28321901Y54029259D02*
X28326755Y54028539D01*
X28331514Y54027347D01*
X28336134Y54025694D01*
X28340570Y54023596D01*
X28344779Y54021073D01*
X28348720Y54018151D01*
X28352355Y54014855D01*
X28355651Y54011220D01*
X28358573Y54007279D01*
X28361096Y54003070D01*
X28363194Y53998634D01*
X28364847Y53994014D01*
X28366039Y53989255D01*
X28366759Y53984401D01*
X28367000Y53979500D01*
X28367000Y53254500D01*
X28366759Y53249599D01*
X28366039Y53244745D01*
X28364847Y53239986D01*
X28363194Y53235366D01*
X28361096Y53230930D01*
X28358573Y53226721D01*
X28355651Y53222780D01*
X28352355Y53219145D01*
X28348720Y53215849D01*
X28344779Y53212927D01*
X28340570Y53210404D01*
X28336134Y53208306D01*
X28331514Y53206653D01*
X28326755Y53205461D01*
X28321901Y53204741D01*
X28317000Y53204500D01*
X28167000Y53204500D01*
X28162099Y53204741D01*
X28157245Y53205461D01*
X28152486Y53206653D01*
X28147866Y53208306D01*
X28143430Y53210404D01*
X28139221Y53212927D01*
X28135280Y53215849D01*
X28131645Y53219145D01*
X28128349Y53222780D01*
X28125427Y53226721D01*
X28122904Y53230930D01*
X28120806Y53235366D01*
X28119153Y53239986D01*
X28117961Y53244745D01*
X28117241Y53249599D01*
X28117000Y53254500D01*
X28117000Y53979500D01*
X28117241Y53984401D01*
X28117961Y53989255D01*
X28119153Y53994014D01*
X28120806Y53998634D01*
X28122904Y54003070D01*
X28125427Y54007279D01*
X28128349Y54011220D01*
X28131645Y54014855D01*
X28135280Y54018151D01*
X28139221Y54021073D01*
X28143430Y54023596D01*
X28147866Y54025694D01*
X28152486Y54027347D01*
X28157245Y54028539D01*
X28162099Y54029259D01*
X28167000Y54029500D01*
X28317000Y54029500D01*
X28321901Y54029259D01*
X28321901Y54029259D01*
G37*
D11*
X28242000Y53617000D03*
D10*
G36*
X28821901Y54029259D02*
X28826755Y54028539D01*
X28831514Y54027347D01*
X28836134Y54025694D01*
X28840570Y54023596D01*
X28844779Y54021073D01*
X28848720Y54018151D01*
X28852355Y54014855D01*
X28855651Y54011220D01*
X28858573Y54007279D01*
X28861096Y54003070D01*
X28863194Y53998634D01*
X28864847Y53994014D01*
X28866039Y53989255D01*
X28866759Y53984401D01*
X28867000Y53979500D01*
X28867000Y53254500D01*
X28866759Y53249599D01*
X28866039Y53244745D01*
X28864847Y53239986D01*
X28863194Y53235366D01*
X28861096Y53230930D01*
X28858573Y53226721D01*
X28855651Y53222780D01*
X28852355Y53219145D01*
X28848720Y53215849D01*
X28844779Y53212927D01*
X28840570Y53210404D01*
X28836134Y53208306D01*
X28831514Y53206653D01*
X28826755Y53205461D01*
X28821901Y53204741D01*
X28817000Y53204500D01*
X28667000Y53204500D01*
X28662099Y53204741D01*
X28657245Y53205461D01*
X28652486Y53206653D01*
X28647866Y53208306D01*
X28643430Y53210404D01*
X28639221Y53212927D01*
X28635280Y53215849D01*
X28631645Y53219145D01*
X28628349Y53222780D01*
X28625427Y53226721D01*
X28622904Y53230930D01*
X28620806Y53235366D01*
X28619153Y53239986D01*
X28617961Y53244745D01*
X28617241Y53249599D01*
X28617000Y53254500D01*
X28617000Y53979500D01*
X28617241Y53984401D01*
X28617961Y53989255D01*
X28619153Y53994014D01*
X28620806Y53998634D01*
X28622904Y54003070D01*
X28625427Y54007279D01*
X28628349Y54011220D01*
X28631645Y54014855D01*
X28635280Y54018151D01*
X28639221Y54021073D01*
X28643430Y54023596D01*
X28647866Y54025694D01*
X28652486Y54027347D01*
X28657245Y54028539D01*
X28662099Y54029259D01*
X28667000Y54029500D01*
X28817000Y54029500D01*
X28821901Y54029259D01*
X28821901Y54029259D01*
G37*
D11*
X28742000Y53617000D03*
D10*
G36*
X29321901Y54029259D02*
X29326755Y54028539D01*
X29331514Y54027347D01*
X29336134Y54025694D01*
X29340570Y54023596D01*
X29344779Y54021073D01*
X29348720Y54018151D01*
X29352355Y54014855D01*
X29355651Y54011220D01*
X29358573Y54007279D01*
X29361096Y54003070D01*
X29363194Y53998634D01*
X29364847Y53994014D01*
X29366039Y53989255D01*
X29366759Y53984401D01*
X29367000Y53979500D01*
X29367000Y53254500D01*
X29366759Y53249599D01*
X29366039Y53244745D01*
X29364847Y53239986D01*
X29363194Y53235366D01*
X29361096Y53230930D01*
X29358573Y53226721D01*
X29355651Y53222780D01*
X29352355Y53219145D01*
X29348720Y53215849D01*
X29344779Y53212927D01*
X29340570Y53210404D01*
X29336134Y53208306D01*
X29331514Y53206653D01*
X29326755Y53205461D01*
X29321901Y53204741D01*
X29317000Y53204500D01*
X29167000Y53204500D01*
X29162099Y53204741D01*
X29157245Y53205461D01*
X29152486Y53206653D01*
X29147866Y53208306D01*
X29143430Y53210404D01*
X29139221Y53212927D01*
X29135280Y53215849D01*
X29131645Y53219145D01*
X29128349Y53222780D01*
X29125427Y53226721D01*
X29122904Y53230930D01*
X29120806Y53235366D01*
X29119153Y53239986D01*
X29117961Y53244745D01*
X29117241Y53249599D01*
X29117000Y53254500D01*
X29117000Y53979500D01*
X29117241Y53984401D01*
X29117961Y53989255D01*
X29119153Y53994014D01*
X29120806Y53998634D01*
X29122904Y54003070D01*
X29125427Y54007279D01*
X29128349Y54011220D01*
X29131645Y54014855D01*
X29135280Y54018151D01*
X29139221Y54021073D01*
X29143430Y54023596D01*
X29147866Y54025694D01*
X29152486Y54027347D01*
X29157245Y54028539D01*
X29162099Y54029259D01*
X29167000Y54029500D01*
X29317000Y54029500D01*
X29321901Y54029259D01*
X29321901Y54029259D01*
G37*
D11*
X29242000Y53617000D03*
D10*
G36*
X30321675Y54029258D02*
X30326553Y54028534D01*
X30331337Y54027336D01*
X30335980Y54025675D01*
X30340438Y54023567D01*
X30344667Y54021031D01*
X30348628Y54018094D01*
X30352282Y54014782D01*
X30355594Y54011128D01*
X30358531Y54007167D01*
X30361067Y54002938D01*
X30363175Y53998480D01*
X30364836Y53993837D01*
X30366034Y53989053D01*
X30366758Y53984175D01*
X30367000Y53979250D01*
X30367000Y53254750D01*
X30366758Y53249825D01*
X30366034Y53244947D01*
X30364836Y53240163D01*
X30363175Y53235520D01*
X30361067Y53231062D01*
X30358531Y53226833D01*
X30355594Y53222872D01*
X30352282Y53219218D01*
X30348628Y53215906D01*
X30344667Y53212969D01*
X30340438Y53210433D01*
X30335980Y53208325D01*
X30331337Y53206664D01*
X30326553Y53205466D01*
X30321675Y53204742D01*
X30316750Y53204500D01*
X29667250Y53204500D01*
X29662325Y53204742D01*
X29657447Y53205466D01*
X29652663Y53206664D01*
X29648020Y53208325D01*
X29643562Y53210433D01*
X29639333Y53212969D01*
X29635372Y53215906D01*
X29631718Y53219218D01*
X29628406Y53222872D01*
X29625469Y53226833D01*
X29622933Y53231062D01*
X29620825Y53235520D01*
X29619164Y53240163D01*
X29617966Y53244947D01*
X29617242Y53249825D01*
X29617000Y53254750D01*
X29617000Y53979250D01*
X29617242Y53984175D01*
X29617966Y53989053D01*
X29619164Y53993837D01*
X29620825Y53998480D01*
X29622933Y54002938D01*
X29625469Y54007167D01*
X29628406Y54011128D01*
X29631718Y54014782D01*
X29635372Y54018094D01*
X29639333Y54021031D01*
X29643562Y54023567D01*
X29648020Y54025675D01*
X29652663Y54027336D01*
X29657447Y54028534D01*
X29662325Y54029258D01*
X29667250Y54029500D01*
X30316750Y54029500D01*
X30321675Y54029258D01*
X30321675Y54029258D01*
G37*
D12*
X29992000Y53617000D03*
D10*
G36*
X30321675Y54029258D02*
X30326553Y54028534D01*
X30331337Y54027336D01*
X30335980Y54025675D01*
X30340438Y54023567D01*
X30344667Y54021031D01*
X30348628Y54018094D01*
X30352282Y54014782D01*
X30355594Y54011128D01*
X30358531Y54007167D01*
X30361067Y54002938D01*
X30363175Y53998480D01*
X30364836Y53993837D01*
X30366034Y53989053D01*
X30366758Y53984175D01*
X30367000Y53979250D01*
X30367000Y53254750D01*
X30366758Y53249825D01*
X30366034Y53244947D01*
X30364836Y53240163D01*
X30363175Y53235520D01*
X30361067Y53231062D01*
X30358531Y53226833D01*
X30355594Y53222872D01*
X30352282Y53219218D01*
X30348628Y53215906D01*
X30344667Y53212969D01*
X30340438Y53210433D01*
X30335980Y53208325D01*
X30331337Y53206664D01*
X30326553Y53205466D01*
X30321675Y53204742D01*
X30316750Y53204500D01*
X29667250Y53204500D01*
X29662325Y53204742D01*
X29657447Y53205466D01*
X29652663Y53206664D01*
X29648020Y53208325D01*
X29643562Y53210433D01*
X29639333Y53212969D01*
X29635372Y53215906D01*
X29631718Y53219218D01*
X29628406Y53222872D01*
X29625469Y53226833D01*
X29622933Y53231062D01*
X29620825Y53235520D01*
X29619164Y53240163D01*
X29617966Y53244947D01*
X29617242Y53249825D01*
X29617000Y53254750D01*
X29617000Y53979250D01*
X29617242Y53984175D01*
X29617966Y53989053D01*
X29619164Y53993837D01*
X29620825Y53998480D01*
X29622933Y54002938D01*
X29625469Y54007167D01*
X29628406Y54011128D01*
X29631718Y54014782D01*
X29635372Y54018094D01*
X29639333Y54021031D01*
X29643562Y54023567D01*
X29648020Y54025675D01*
X29652663Y54027336D01*
X29657447Y54028534D01*
X29662325Y54029258D01*
X29667250Y54029500D01*
X30316750Y54029500D01*
X30321675Y54029258D01*
X30321675Y54029258D01*
G37*
D12*
X29992000Y53617000D03*
D10*
G36*
X31394175Y52956758D02*
X31399053Y52956034D01*
X31403837Y52954836D01*
X31408480Y52953175D01*
X31412938Y52951067D01*
X31417167Y52948531D01*
X31421128Y52945594D01*
X31424782Y52942282D01*
X31428094Y52938628D01*
X31431031Y52934667D01*
X31433567Y52930438D01*
X31435675Y52925980D01*
X31437336Y52921337D01*
X31438534Y52916553D01*
X31439258Y52911675D01*
X31439500Y52906750D01*
X31439500Y52257250D01*
X31439258Y52252325D01*
X31438534Y52247447D01*
X31437336Y52242663D01*
X31435675Y52238020D01*
X31433567Y52233562D01*
X31431031Y52229333D01*
X31428094Y52225372D01*
X31424782Y52221718D01*
X31421128Y52218406D01*
X31417167Y52215469D01*
X31412938Y52212933D01*
X31408480Y52210825D01*
X31403837Y52209164D01*
X31399053Y52207966D01*
X31394175Y52207242D01*
X31389250Y52207000D01*
X30664750Y52207000D01*
X30659825Y52207242D01*
X30654947Y52207966D01*
X30650163Y52209164D01*
X30645520Y52210825D01*
X30641062Y52212933D01*
X30636833Y52215469D01*
X30632872Y52218406D01*
X30629218Y52221718D01*
X30625906Y52225372D01*
X30622969Y52229333D01*
X30620433Y52233562D01*
X30618325Y52238020D01*
X30616664Y52242663D01*
X30615466Y52247447D01*
X30614742Y52252325D01*
X30614500Y52257250D01*
X30614500Y52906750D01*
X30614742Y52911675D01*
X30615466Y52916553D01*
X30616664Y52921337D01*
X30618325Y52925980D01*
X30620433Y52930438D01*
X30622969Y52934667D01*
X30625906Y52938628D01*
X30629218Y52942282D01*
X30632872Y52945594D01*
X30636833Y52948531D01*
X30641062Y52951067D01*
X30645520Y52953175D01*
X30650163Y52954836D01*
X30654947Y52956034D01*
X30659825Y52956758D01*
X30664750Y52957000D01*
X31389250Y52957000D01*
X31394175Y52956758D01*
X31394175Y52956758D01*
G37*
D12*
X31027000Y52582000D03*
D10*
G36*
X31394175Y52956758D02*
X31399053Y52956034D01*
X31403837Y52954836D01*
X31408480Y52953175D01*
X31412938Y52951067D01*
X31417167Y52948531D01*
X31421128Y52945594D01*
X31424782Y52942282D01*
X31428094Y52938628D01*
X31431031Y52934667D01*
X31433567Y52930438D01*
X31435675Y52925980D01*
X31437336Y52921337D01*
X31438534Y52916553D01*
X31439258Y52911675D01*
X31439500Y52906750D01*
X31439500Y52257250D01*
X31439258Y52252325D01*
X31438534Y52247447D01*
X31437336Y52242663D01*
X31435675Y52238020D01*
X31433567Y52233562D01*
X31431031Y52229333D01*
X31428094Y52225372D01*
X31424782Y52221718D01*
X31421128Y52218406D01*
X31417167Y52215469D01*
X31412938Y52212933D01*
X31408480Y52210825D01*
X31403837Y52209164D01*
X31399053Y52207966D01*
X31394175Y52207242D01*
X31389250Y52207000D01*
X30664750Y52207000D01*
X30659825Y52207242D01*
X30654947Y52207966D01*
X30650163Y52209164D01*
X30645520Y52210825D01*
X30641062Y52212933D01*
X30636833Y52215469D01*
X30632872Y52218406D01*
X30629218Y52221718D01*
X30625906Y52225372D01*
X30622969Y52229333D01*
X30620433Y52233562D01*
X30618325Y52238020D01*
X30616664Y52242663D01*
X30615466Y52247447D01*
X30614742Y52252325D01*
X30614500Y52257250D01*
X30614500Y52906750D01*
X30614742Y52911675D01*
X30615466Y52916553D01*
X30616664Y52921337D01*
X30618325Y52925980D01*
X30620433Y52930438D01*
X30622969Y52934667D01*
X30625906Y52938628D01*
X30629218Y52942282D01*
X30632872Y52945594D01*
X30636833Y52948531D01*
X30641062Y52951067D01*
X30645520Y52953175D01*
X30650163Y52954836D01*
X30654947Y52956034D01*
X30659825Y52956758D01*
X30664750Y52957000D01*
X31389250Y52957000D01*
X31394175Y52956758D01*
X31394175Y52956758D01*
G37*
D12*
X31027000Y52582000D03*
D10*
G36*
X31394175Y51956758D02*
X31399053Y51956034D01*
X31403837Y51954836D01*
X31408480Y51953175D01*
X31412938Y51951067D01*
X31417167Y51948531D01*
X31421128Y51945594D01*
X31424782Y51942282D01*
X31428094Y51938628D01*
X31431031Y51934667D01*
X31433567Y51930438D01*
X31435675Y51925980D01*
X31437336Y51921337D01*
X31438534Y51916553D01*
X31439258Y51911675D01*
X31439500Y51906750D01*
X31439500Y51257250D01*
X31439258Y51252325D01*
X31438534Y51247447D01*
X31437336Y51242663D01*
X31435675Y51238020D01*
X31433567Y51233562D01*
X31431031Y51229333D01*
X31428094Y51225372D01*
X31424782Y51221718D01*
X31421128Y51218406D01*
X31417167Y51215469D01*
X31412938Y51212933D01*
X31408480Y51210825D01*
X31403837Y51209164D01*
X31399053Y51207966D01*
X31394175Y51207242D01*
X31389250Y51207000D01*
X30664750Y51207000D01*
X30659825Y51207242D01*
X30654947Y51207966D01*
X30650163Y51209164D01*
X30645520Y51210825D01*
X30641062Y51212933D01*
X30636833Y51215469D01*
X30632872Y51218406D01*
X30629218Y51221718D01*
X30625906Y51225372D01*
X30622969Y51229333D01*
X30620433Y51233562D01*
X30618325Y51238020D01*
X30616664Y51242663D01*
X30615466Y51247447D01*
X30614742Y51252325D01*
X30614500Y51257250D01*
X30614500Y51906750D01*
X30614742Y51911675D01*
X30615466Y51916553D01*
X30616664Y51921337D01*
X30618325Y51925980D01*
X30620433Y51930438D01*
X30622969Y51934667D01*
X30625906Y51938628D01*
X30629218Y51942282D01*
X30632872Y51945594D01*
X30636833Y51948531D01*
X30641062Y51951067D01*
X30645520Y51953175D01*
X30650163Y51954836D01*
X30654947Y51956034D01*
X30659825Y51956758D01*
X30664750Y51957000D01*
X31389250Y51957000D01*
X31394175Y51956758D01*
X31394175Y51956758D01*
G37*
D12*
X31027000Y51582000D03*
D10*
G36*
X31394175Y51956758D02*
X31399053Y51956034D01*
X31403837Y51954836D01*
X31408480Y51953175D01*
X31412938Y51951067D01*
X31417167Y51948531D01*
X31421128Y51945594D01*
X31424782Y51942282D01*
X31428094Y51938628D01*
X31431031Y51934667D01*
X31433567Y51930438D01*
X31435675Y51925980D01*
X31437336Y51921337D01*
X31438534Y51916553D01*
X31439258Y51911675D01*
X31439500Y51906750D01*
X31439500Y51257250D01*
X31439258Y51252325D01*
X31438534Y51247447D01*
X31437336Y51242663D01*
X31435675Y51238020D01*
X31433567Y51233562D01*
X31431031Y51229333D01*
X31428094Y51225372D01*
X31424782Y51221718D01*
X31421128Y51218406D01*
X31417167Y51215469D01*
X31412938Y51212933D01*
X31408480Y51210825D01*
X31403837Y51209164D01*
X31399053Y51207966D01*
X31394175Y51207242D01*
X31389250Y51207000D01*
X30664750Y51207000D01*
X30659825Y51207242D01*
X30654947Y51207966D01*
X30650163Y51209164D01*
X30645520Y51210825D01*
X30641062Y51212933D01*
X30636833Y51215469D01*
X30632872Y51218406D01*
X30629218Y51221718D01*
X30625906Y51225372D01*
X30622969Y51229333D01*
X30620433Y51233562D01*
X30618325Y51238020D01*
X30616664Y51242663D01*
X30615466Y51247447D01*
X30614742Y51252325D01*
X30614500Y51257250D01*
X30614500Y51906750D01*
X30614742Y51911675D01*
X30615466Y51916553D01*
X30616664Y51921337D01*
X30618325Y51925980D01*
X30620433Y51930438D01*
X30622969Y51934667D01*
X30625906Y51938628D01*
X30629218Y51942282D01*
X30632872Y51945594D01*
X30636833Y51948531D01*
X30641062Y51951067D01*
X30645520Y51953175D01*
X30650163Y51954836D01*
X30654947Y51956034D01*
X30659825Y51956758D01*
X30664750Y51957000D01*
X31389250Y51957000D01*
X31394175Y51956758D01*
X31394175Y51956758D01*
G37*
D12*
X31027000Y51582000D03*
D10*
G36*
X31394175Y50956758D02*
X31399053Y50956034D01*
X31403837Y50954836D01*
X31408480Y50953175D01*
X31412938Y50951067D01*
X31417167Y50948531D01*
X31421128Y50945594D01*
X31424782Y50942282D01*
X31428094Y50938628D01*
X31431031Y50934667D01*
X31433567Y50930438D01*
X31435675Y50925980D01*
X31437336Y50921337D01*
X31438534Y50916553D01*
X31439258Y50911675D01*
X31439500Y50906750D01*
X31439500Y50257250D01*
X31439258Y50252325D01*
X31438534Y50247447D01*
X31437336Y50242663D01*
X31435675Y50238020D01*
X31433567Y50233562D01*
X31431031Y50229333D01*
X31428094Y50225372D01*
X31424782Y50221718D01*
X31421128Y50218406D01*
X31417167Y50215469D01*
X31412938Y50212933D01*
X31408480Y50210825D01*
X31403837Y50209164D01*
X31399053Y50207966D01*
X31394175Y50207242D01*
X31389250Y50207000D01*
X30664750Y50207000D01*
X30659825Y50207242D01*
X30654947Y50207966D01*
X30650163Y50209164D01*
X30645520Y50210825D01*
X30641062Y50212933D01*
X30636833Y50215469D01*
X30632872Y50218406D01*
X30629218Y50221718D01*
X30625906Y50225372D01*
X30622969Y50229333D01*
X30620433Y50233562D01*
X30618325Y50238020D01*
X30616664Y50242663D01*
X30615466Y50247447D01*
X30614742Y50252325D01*
X30614500Y50257250D01*
X30614500Y50906750D01*
X30614742Y50911675D01*
X30615466Y50916553D01*
X30616664Y50921337D01*
X30618325Y50925980D01*
X30620433Y50930438D01*
X30622969Y50934667D01*
X30625906Y50938628D01*
X30629218Y50942282D01*
X30632872Y50945594D01*
X30636833Y50948531D01*
X30641062Y50951067D01*
X30645520Y50953175D01*
X30650163Y50954836D01*
X30654947Y50956034D01*
X30659825Y50956758D01*
X30664750Y50957000D01*
X31389250Y50957000D01*
X31394175Y50956758D01*
X31394175Y50956758D01*
G37*
D12*
X31027000Y50582000D03*
D10*
G36*
X31394175Y50956758D02*
X31399053Y50956034D01*
X31403837Y50954836D01*
X31408480Y50953175D01*
X31412938Y50951067D01*
X31417167Y50948531D01*
X31421128Y50945594D01*
X31424782Y50942282D01*
X31428094Y50938628D01*
X31431031Y50934667D01*
X31433567Y50930438D01*
X31435675Y50925980D01*
X31437336Y50921337D01*
X31438534Y50916553D01*
X31439258Y50911675D01*
X31439500Y50906750D01*
X31439500Y50257250D01*
X31439258Y50252325D01*
X31438534Y50247447D01*
X31437336Y50242663D01*
X31435675Y50238020D01*
X31433567Y50233562D01*
X31431031Y50229333D01*
X31428094Y50225372D01*
X31424782Y50221718D01*
X31421128Y50218406D01*
X31417167Y50215469D01*
X31412938Y50212933D01*
X31408480Y50210825D01*
X31403837Y50209164D01*
X31399053Y50207966D01*
X31394175Y50207242D01*
X31389250Y50207000D01*
X30664750Y50207000D01*
X30659825Y50207242D01*
X30654947Y50207966D01*
X30650163Y50209164D01*
X30645520Y50210825D01*
X30641062Y50212933D01*
X30636833Y50215469D01*
X30632872Y50218406D01*
X30629218Y50221718D01*
X30625906Y50225372D01*
X30622969Y50229333D01*
X30620433Y50233562D01*
X30618325Y50238020D01*
X30616664Y50242663D01*
X30615466Y50247447D01*
X30614742Y50252325D01*
X30614500Y50257250D01*
X30614500Y50906750D01*
X30614742Y50911675D01*
X30615466Y50916553D01*
X30616664Y50921337D01*
X30618325Y50925980D01*
X30620433Y50930438D01*
X30622969Y50934667D01*
X30625906Y50938628D01*
X30629218Y50942282D01*
X30632872Y50945594D01*
X30636833Y50948531D01*
X30641062Y50951067D01*
X30645520Y50953175D01*
X30650163Y50954836D01*
X30654947Y50956034D01*
X30659825Y50956758D01*
X30664750Y50957000D01*
X31389250Y50957000D01*
X31394175Y50956758D01*
X31394175Y50956758D01*
G37*
D12*
X31027000Y50582000D03*
D10*
G36*
X30321901Y49959259D02*
X30326755Y49958539D01*
X30331514Y49957347D01*
X30336134Y49955694D01*
X30340570Y49953596D01*
X30344779Y49951073D01*
X30348720Y49948151D01*
X30352355Y49944855D01*
X30355651Y49941220D01*
X30358573Y49937279D01*
X30361096Y49933070D01*
X30363194Y49928634D01*
X30364847Y49924014D01*
X30366039Y49919255D01*
X30366759Y49914401D01*
X30367000Y49909500D01*
X30367000Y49184500D01*
X30366759Y49179599D01*
X30366039Y49174745D01*
X30364847Y49169986D01*
X30363194Y49165366D01*
X30361096Y49160930D01*
X30358573Y49156721D01*
X30355651Y49152780D01*
X30352355Y49149145D01*
X30348720Y49145849D01*
X30344779Y49142927D01*
X30340570Y49140404D01*
X30336134Y49138306D01*
X30331514Y49136653D01*
X30326755Y49135461D01*
X30321901Y49134741D01*
X30317000Y49134500D01*
X30167000Y49134500D01*
X30162099Y49134741D01*
X30157245Y49135461D01*
X30152486Y49136653D01*
X30147866Y49138306D01*
X30143430Y49140404D01*
X30139221Y49142927D01*
X30135280Y49145849D01*
X30131645Y49149145D01*
X30128349Y49152780D01*
X30125427Y49156721D01*
X30122904Y49160930D01*
X30120806Y49165366D01*
X30119153Y49169986D01*
X30117961Y49174745D01*
X30117241Y49179599D01*
X30117000Y49184500D01*
X30117000Y49909500D01*
X30117241Y49914401D01*
X30117961Y49919255D01*
X30119153Y49924014D01*
X30120806Y49928634D01*
X30122904Y49933070D01*
X30125427Y49937279D01*
X30128349Y49941220D01*
X30131645Y49944855D01*
X30135280Y49948151D01*
X30139221Y49951073D01*
X30143430Y49953596D01*
X30147866Y49955694D01*
X30152486Y49957347D01*
X30157245Y49958539D01*
X30162099Y49959259D01*
X30167000Y49959500D01*
X30317000Y49959500D01*
X30321901Y49959259D01*
X30321901Y49959259D01*
G37*
D11*
X30242000Y49547000D03*
D10*
G36*
X29821901Y49959259D02*
X29826755Y49958539D01*
X29831514Y49957347D01*
X29836134Y49955694D01*
X29840570Y49953596D01*
X29844779Y49951073D01*
X29848720Y49948151D01*
X29852355Y49944855D01*
X29855651Y49941220D01*
X29858573Y49937279D01*
X29861096Y49933070D01*
X29863194Y49928634D01*
X29864847Y49924014D01*
X29866039Y49919255D01*
X29866759Y49914401D01*
X29867000Y49909500D01*
X29867000Y49184500D01*
X29866759Y49179599D01*
X29866039Y49174745D01*
X29864847Y49169986D01*
X29863194Y49165366D01*
X29861096Y49160930D01*
X29858573Y49156721D01*
X29855651Y49152780D01*
X29852355Y49149145D01*
X29848720Y49145849D01*
X29844779Y49142927D01*
X29840570Y49140404D01*
X29836134Y49138306D01*
X29831514Y49136653D01*
X29826755Y49135461D01*
X29821901Y49134741D01*
X29817000Y49134500D01*
X29667000Y49134500D01*
X29662099Y49134741D01*
X29657245Y49135461D01*
X29652486Y49136653D01*
X29647866Y49138306D01*
X29643430Y49140404D01*
X29639221Y49142927D01*
X29635280Y49145849D01*
X29631645Y49149145D01*
X29628349Y49152780D01*
X29625427Y49156721D01*
X29622904Y49160930D01*
X29620806Y49165366D01*
X29619153Y49169986D01*
X29617961Y49174745D01*
X29617241Y49179599D01*
X29617000Y49184500D01*
X29617000Y49909500D01*
X29617241Y49914401D01*
X29617961Y49919255D01*
X29619153Y49924014D01*
X29620806Y49928634D01*
X29622904Y49933070D01*
X29625427Y49937279D01*
X29628349Y49941220D01*
X29631645Y49944855D01*
X29635280Y49948151D01*
X29639221Y49951073D01*
X29643430Y49953596D01*
X29647866Y49955694D01*
X29652486Y49957347D01*
X29657245Y49958539D01*
X29662099Y49959259D01*
X29667000Y49959500D01*
X29817000Y49959500D01*
X29821901Y49959259D01*
X29821901Y49959259D01*
G37*
D11*
X29742000Y49547000D03*
D10*
G36*
X29321901Y49959259D02*
X29326755Y49958539D01*
X29331514Y49957347D01*
X29336134Y49955694D01*
X29340570Y49953596D01*
X29344779Y49951073D01*
X29348720Y49948151D01*
X29352355Y49944855D01*
X29355651Y49941220D01*
X29358573Y49937279D01*
X29361096Y49933070D01*
X29363194Y49928634D01*
X29364847Y49924014D01*
X29366039Y49919255D01*
X29366759Y49914401D01*
X29367000Y49909500D01*
X29367000Y49184500D01*
X29366759Y49179599D01*
X29366039Y49174745D01*
X29364847Y49169986D01*
X29363194Y49165366D01*
X29361096Y49160930D01*
X29358573Y49156721D01*
X29355651Y49152780D01*
X29352355Y49149145D01*
X29348720Y49145849D01*
X29344779Y49142927D01*
X29340570Y49140404D01*
X29336134Y49138306D01*
X29331514Y49136653D01*
X29326755Y49135461D01*
X29321901Y49134741D01*
X29317000Y49134500D01*
X29167000Y49134500D01*
X29162099Y49134741D01*
X29157245Y49135461D01*
X29152486Y49136653D01*
X29147866Y49138306D01*
X29143430Y49140404D01*
X29139221Y49142927D01*
X29135280Y49145849D01*
X29131645Y49149145D01*
X29128349Y49152780D01*
X29125427Y49156721D01*
X29122904Y49160930D01*
X29120806Y49165366D01*
X29119153Y49169986D01*
X29117961Y49174745D01*
X29117241Y49179599D01*
X29117000Y49184500D01*
X29117000Y49909500D01*
X29117241Y49914401D01*
X29117961Y49919255D01*
X29119153Y49924014D01*
X29120806Y49928634D01*
X29122904Y49933070D01*
X29125427Y49937279D01*
X29128349Y49941220D01*
X29131645Y49944855D01*
X29135280Y49948151D01*
X29139221Y49951073D01*
X29143430Y49953596D01*
X29147866Y49955694D01*
X29152486Y49957347D01*
X29157245Y49958539D01*
X29162099Y49959259D01*
X29167000Y49959500D01*
X29317000Y49959500D01*
X29321901Y49959259D01*
X29321901Y49959259D01*
G37*
D11*
X29242000Y49547000D03*
D10*
G36*
X28821901Y49959259D02*
X28826755Y49958539D01*
X28831514Y49957347D01*
X28836134Y49955694D01*
X28840570Y49953596D01*
X28844779Y49951073D01*
X28848720Y49948151D01*
X28852355Y49944855D01*
X28855651Y49941220D01*
X28858573Y49937279D01*
X28861096Y49933070D01*
X28863194Y49928634D01*
X28864847Y49924014D01*
X28866039Y49919255D01*
X28866759Y49914401D01*
X28867000Y49909500D01*
X28867000Y49184500D01*
X28866759Y49179599D01*
X28866039Y49174745D01*
X28864847Y49169986D01*
X28863194Y49165366D01*
X28861096Y49160930D01*
X28858573Y49156721D01*
X28855651Y49152780D01*
X28852355Y49149145D01*
X28848720Y49145849D01*
X28844779Y49142927D01*
X28840570Y49140404D01*
X28836134Y49138306D01*
X28831514Y49136653D01*
X28826755Y49135461D01*
X28821901Y49134741D01*
X28817000Y49134500D01*
X28667000Y49134500D01*
X28662099Y49134741D01*
X28657245Y49135461D01*
X28652486Y49136653D01*
X28647866Y49138306D01*
X28643430Y49140404D01*
X28639221Y49142927D01*
X28635280Y49145849D01*
X28631645Y49149145D01*
X28628349Y49152780D01*
X28625427Y49156721D01*
X28622904Y49160930D01*
X28620806Y49165366D01*
X28619153Y49169986D01*
X28617961Y49174745D01*
X28617241Y49179599D01*
X28617000Y49184500D01*
X28617000Y49909500D01*
X28617241Y49914401D01*
X28617961Y49919255D01*
X28619153Y49924014D01*
X28620806Y49928634D01*
X28622904Y49933070D01*
X28625427Y49937279D01*
X28628349Y49941220D01*
X28631645Y49944855D01*
X28635280Y49948151D01*
X28639221Y49951073D01*
X28643430Y49953596D01*
X28647866Y49955694D01*
X28652486Y49957347D01*
X28657245Y49958539D01*
X28662099Y49959259D01*
X28667000Y49959500D01*
X28817000Y49959500D01*
X28821901Y49959259D01*
X28821901Y49959259D01*
G37*
D11*
X28742000Y49547000D03*
D10*
G36*
X28321901Y49959259D02*
X28326755Y49958539D01*
X28331514Y49957347D01*
X28336134Y49955694D01*
X28340570Y49953596D01*
X28344779Y49951073D01*
X28348720Y49948151D01*
X28352355Y49944855D01*
X28355651Y49941220D01*
X28358573Y49937279D01*
X28361096Y49933070D01*
X28363194Y49928634D01*
X28364847Y49924014D01*
X28366039Y49919255D01*
X28366759Y49914401D01*
X28367000Y49909500D01*
X28367000Y49184500D01*
X28366759Y49179599D01*
X28366039Y49174745D01*
X28364847Y49169986D01*
X28363194Y49165366D01*
X28361096Y49160930D01*
X28358573Y49156721D01*
X28355651Y49152780D01*
X28352355Y49149145D01*
X28348720Y49145849D01*
X28344779Y49142927D01*
X28340570Y49140404D01*
X28336134Y49138306D01*
X28331514Y49136653D01*
X28326755Y49135461D01*
X28321901Y49134741D01*
X28317000Y49134500D01*
X28167000Y49134500D01*
X28162099Y49134741D01*
X28157245Y49135461D01*
X28152486Y49136653D01*
X28147866Y49138306D01*
X28143430Y49140404D01*
X28139221Y49142927D01*
X28135280Y49145849D01*
X28131645Y49149145D01*
X28128349Y49152780D01*
X28125427Y49156721D01*
X28122904Y49160930D01*
X28120806Y49165366D01*
X28119153Y49169986D01*
X28117961Y49174745D01*
X28117241Y49179599D01*
X28117000Y49184500D01*
X28117000Y49909500D01*
X28117241Y49914401D01*
X28117961Y49919255D01*
X28119153Y49924014D01*
X28120806Y49928634D01*
X28122904Y49933070D01*
X28125427Y49937279D01*
X28128349Y49941220D01*
X28131645Y49944855D01*
X28135280Y49948151D01*
X28139221Y49951073D01*
X28143430Y49953596D01*
X28147866Y49955694D01*
X28152486Y49957347D01*
X28157245Y49958539D01*
X28162099Y49959259D01*
X28167000Y49959500D01*
X28317000Y49959500D01*
X28321901Y49959259D01*
X28321901Y49959259D01*
G37*
D11*
X28242000Y49547000D03*
D10*
G36*
X27821901Y49959259D02*
X27826755Y49958539D01*
X27831514Y49957347D01*
X27836134Y49955694D01*
X27840570Y49953596D01*
X27844779Y49951073D01*
X27848720Y49948151D01*
X27852355Y49944855D01*
X27855651Y49941220D01*
X27858573Y49937279D01*
X27861096Y49933070D01*
X27863194Y49928634D01*
X27864847Y49924014D01*
X27866039Y49919255D01*
X27866759Y49914401D01*
X27867000Y49909500D01*
X27867000Y49184500D01*
X27866759Y49179599D01*
X27866039Y49174745D01*
X27864847Y49169986D01*
X27863194Y49165366D01*
X27861096Y49160930D01*
X27858573Y49156721D01*
X27855651Y49152780D01*
X27852355Y49149145D01*
X27848720Y49145849D01*
X27844779Y49142927D01*
X27840570Y49140404D01*
X27836134Y49138306D01*
X27831514Y49136653D01*
X27826755Y49135461D01*
X27821901Y49134741D01*
X27817000Y49134500D01*
X27667000Y49134500D01*
X27662099Y49134741D01*
X27657245Y49135461D01*
X27652486Y49136653D01*
X27647866Y49138306D01*
X27643430Y49140404D01*
X27639221Y49142927D01*
X27635280Y49145849D01*
X27631645Y49149145D01*
X27628349Y49152780D01*
X27625427Y49156721D01*
X27622904Y49160930D01*
X27620806Y49165366D01*
X27619153Y49169986D01*
X27617961Y49174745D01*
X27617241Y49179599D01*
X27617000Y49184500D01*
X27617000Y49909500D01*
X27617241Y49914401D01*
X27617961Y49919255D01*
X27619153Y49924014D01*
X27620806Y49928634D01*
X27622904Y49933070D01*
X27625427Y49937279D01*
X27628349Y49941220D01*
X27631645Y49944855D01*
X27635280Y49948151D01*
X27639221Y49951073D01*
X27643430Y49953596D01*
X27647866Y49955694D01*
X27652486Y49957347D01*
X27657245Y49958539D01*
X27662099Y49959259D01*
X27667000Y49959500D01*
X27817000Y49959500D01*
X27821901Y49959259D01*
X27821901Y49959259D01*
G37*
D11*
X27742000Y49547000D03*
D10*
G36*
X27324401Y50456759D02*
X27329255Y50456039D01*
X27334014Y50454847D01*
X27338634Y50453194D01*
X27343070Y50451096D01*
X27347279Y50448573D01*
X27351220Y50445651D01*
X27354855Y50442355D01*
X27358151Y50438720D01*
X27361073Y50434779D01*
X27363596Y50430570D01*
X27365694Y50426134D01*
X27367347Y50421514D01*
X27368539Y50416755D01*
X27369259Y50411901D01*
X27369500Y50407000D01*
X27369500Y50257000D01*
X27369259Y50252099D01*
X27368539Y50247245D01*
X27367347Y50242486D01*
X27365694Y50237866D01*
X27363596Y50233430D01*
X27361073Y50229221D01*
X27358151Y50225280D01*
X27354855Y50221645D01*
X27351220Y50218349D01*
X27347279Y50215427D01*
X27343070Y50212904D01*
X27338634Y50210806D01*
X27334014Y50209153D01*
X27329255Y50207961D01*
X27324401Y50207241D01*
X27319500Y50207000D01*
X26594500Y50207000D01*
X26589599Y50207241D01*
X26584745Y50207961D01*
X26579986Y50209153D01*
X26575366Y50210806D01*
X26570930Y50212904D01*
X26566721Y50215427D01*
X26562780Y50218349D01*
X26559145Y50221645D01*
X26555849Y50225280D01*
X26552927Y50229221D01*
X26550404Y50233430D01*
X26548306Y50237866D01*
X26546653Y50242486D01*
X26545461Y50247245D01*
X26544741Y50252099D01*
X26544500Y50257000D01*
X26544500Y50407000D01*
X26544741Y50411901D01*
X26545461Y50416755D01*
X26546653Y50421514D01*
X26548306Y50426134D01*
X26550404Y50430570D01*
X26552927Y50434779D01*
X26555849Y50438720D01*
X26559145Y50442355D01*
X26562780Y50445651D01*
X26566721Y50448573D01*
X26570930Y50451096D01*
X26575366Y50453194D01*
X26579986Y50454847D01*
X26584745Y50456039D01*
X26589599Y50456759D01*
X26594500Y50457000D01*
X27319500Y50457000D01*
X27324401Y50456759D01*
X27324401Y50456759D01*
G37*
D11*
X26957000Y50332000D03*
D10*
G36*
X27324401Y50956759D02*
X27329255Y50956039D01*
X27334014Y50954847D01*
X27338634Y50953194D01*
X27343070Y50951096D01*
X27347279Y50948573D01*
X27351220Y50945651D01*
X27354855Y50942355D01*
X27358151Y50938720D01*
X27361073Y50934779D01*
X27363596Y50930570D01*
X27365694Y50926134D01*
X27367347Y50921514D01*
X27368539Y50916755D01*
X27369259Y50911901D01*
X27369500Y50907000D01*
X27369500Y50757000D01*
X27369259Y50752099D01*
X27368539Y50747245D01*
X27367347Y50742486D01*
X27365694Y50737866D01*
X27363596Y50733430D01*
X27361073Y50729221D01*
X27358151Y50725280D01*
X27354855Y50721645D01*
X27351220Y50718349D01*
X27347279Y50715427D01*
X27343070Y50712904D01*
X27338634Y50710806D01*
X27334014Y50709153D01*
X27329255Y50707961D01*
X27324401Y50707241D01*
X27319500Y50707000D01*
X26594500Y50707000D01*
X26589599Y50707241D01*
X26584745Y50707961D01*
X26579986Y50709153D01*
X26575366Y50710806D01*
X26570930Y50712904D01*
X26566721Y50715427D01*
X26562780Y50718349D01*
X26559145Y50721645D01*
X26555849Y50725280D01*
X26552927Y50729221D01*
X26550404Y50733430D01*
X26548306Y50737866D01*
X26546653Y50742486D01*
X26545461Y50747245D01*
X26544741Y50752099D01*
X26544500Y50757000D01*
X26544500Y50907000D01*
X26544741Y50911901D01*
X26545461Y50916755D01*
X26546653Y50921514D01*
X26548306Y50926134D01*
X26550404Y50930570D01*
X26552927Y50934779D01*
X26555849Y50938720D01*
X26559145Y50942355D01*
X26562780Y50945651D01*
X26566721Y50948573D01*
X26570930Y50951096D01*
X26575366Y50953194D01*
X26579986Y50954847D01*
X26584745Y50956039D01*
X26589599Y50956759D01*
X26594500Y50957000D01*
X27319500Y50957000D01*
X27324401Y50956759D01*
X27324401Y50956759D01*
G37*
D11*
X26957000Y50832000D03*
D10*
G36*
X27324401Y51456759D02*
X27329255Y51456039D01*
X27334014Y51454847D01*
X27338634Y51453194D01*
X27343070Y51451096D01*
X27347279Y51448573D01*
X27351220Y51445651D01*
X27354855Y51442355D01*
X27358151Y51438720D01*
X27361073Y51434779D01*
X27363596Y51430570D01*
X27365694Y51426134D01*
X27367347Y51421514D01*
X27368539Y51416755D01*
X27369259Y51411901D01*
X27369500Y51407000D01*
X27369500Y51257000D01*
X27369259Y51252099D01*
X27368539Y51247245D01*
X27367347Y51242486D01*
X27365694Y51237866D01*
X27363596Y51233430D01*
X27361073Y51229221D01*
X27358151Y51225280D01*
X27354855Y51221645D01*
X27351220Y51218349D01*
X27347279Y51215427D01*
X27343070Y51212904D01*
X27338634Y51210806D01*
X27334014Y51209153D01*
X27329255Y51207961D01*
X27324401Y51207241D01*
X27319500Y51207000D01*
X26594500Y51207000D01*
X26589599Y51207241D01*
X26584745Y51207961D01*
X26579986Y51209153D01*
X26575366Y51210806D01*
X26570930Y51212904D01*
X26566721Y51215427D01*
X26562780Y51218349D01*
X26559145Y51221645D01*
X26555849Y51225280D01*
X26552927Y51229221D01*
X26550404Y51233430D01*
X26548306Y51237866D01*
X26546653Y51242486D01*
X26545461Y51247245D01*
X26544741Y51252099D01*
X26544500Y51257000D01*
X26544500Y51407000D01*
X26544741Y51411901D01*
X26545461Y51416755D01*
X26546653Y51421514D01*
X26548306Y51426134D01*
X26550404Y51430570D01*
X26552927Y51434779D01*
X26555849Y51438720D01*
X26559145Y51442355D01*
X26562780Y51445651D01*
X26566721Y51448573D01*
X26570930Y51451096D01*
X26575366Y51453194D01*
X26579986Y51454847D01*
X26584745Y51456039D01*
X26589599Y51456759D01*
X26594500Y51457000D01*
X27319500Y51457000D01*
X27324401Y51456759D01*
X27324401Y51456759D01*
G37*
D11*
X26957000Y51332000D03*
D10*
G36*
X27324401Y51956759D02*
X27329255Y51956039D01*
X27334014Y51954847D01*
X27338634Y51953194D01*
X27343070Y51951096D01*
X27347279Y51948573D01*
X27351220Y51945651D01*
X27354855Y51942355D01*
X27358151Y51938720D01*
X27361073Y51934779D01*
X27363596Y51930570D01*
X27365694Y51926134D01*
X27367347Y51921514D01*
X27368539Y51916755D01*
X27369259Y51911901D01*
X27369500Y51907000D01*
X27369500Y51757000D01*
X27369259Y51752099D01*
X27368539Y51747245D01*
X27367347Y51742486D01*
X27365694Y51737866D01*
X27363596Y51733430D01*
X27361073Y51729221D01*
X27358151Y51725280D01*
X27354855Y51721645D01*
X27351220Y51718349D01*
X27347279Y51715427D01*
X27343070Y51712904D01*
X27338634Y51710806D01*
X27334014Y51709153D01*
X27329255Y51707961D01*
X27324401Y51707241D01*
X27319500Y51707000D01*
X26594500Y51707000D01*
X26589599Y51707241D01*
X26584745Y51707961D01*
X26579986Y51709153D01*
X26575366Y51710806D01*
X26570930Y51712904D01*
X26566721Y51715427D01*
X26562780Y51718349D01*
X26559145Y51721645D01*
X26555849Y51725280D01*
X26552927Y51729221D01*
X26550404Y51733430D01*
X26548306Y51737866D01*
X26546653Y51742486D01*
X26545461Y51747245D01*
X26544741Y51752099D01*
X26544500Y51757000D01*
X26544500Y51907000D01*
X26544741Y51911901D01*
X26545461Y51916755D01*
X26546653Y51921514D01*
X26548306Y51926134D01*
X26550404Y51930570D01*
X26552927Y51934779D01*
X26555849Y51938720D01*
X26559145Y51942355D01*
X26562780Y51945651D01*
X26566721Y51948573D01*
X26570930Y51951096D01*
X26575366Y51953194D01*
X26579986Y51954847D01*
X26584745Y51956039D01*
X26589599Y51956759D01*
X26594500Y51957000D01*
X27319500Y51957000D01*
X27324401Y51956759D01*
X27324401Y51956759D01*
G37*
D11*
X26957000Y51832000D03*
D10*
G36*
X27324401Y52456759D02*
X27329255Y52456039D01*
X27334014Y52454847D01*
X27338634Y52453194D01*
X27343070Y52451096D01*
X27347279Y52448573D01*
X27351220Y52445651D01*
X27354855Y52442355D01*
X27358151Y52438720D01*
X27361073Y52434779D01*
X27363596Y52430570D01*
X27365694Y52426134D01*
X27367347Y52421514D01*
X27368539Y52416755D01*
X27369259Y52411901D01*
X27369500Y52407000D01*
X27369500Y52257000D01*
X27369259Y52252099D01*
X27368539Y52247245D01*
X27367347Y52242486D01*
X27365694Y52237866D01*
X27363596Y52233430D01*
X27361073Y52229221D01*
X27358151Y52225280D01*
X27354855Y52221645D01*
X27351220Y52218349D01*
X27347279Y52215427D01*
X27343070Y52212904D01*
X27338634Y52210806D01*
X27334014Y52209153D01*
X27329255Y52207961D01*
X27324401Y52207241D01*
X27319500Y52207000D01*
X26594500Y52207000D01*
X26589599Y52207241D01*
X26584745Y52207961D01*
X26579986Y52209153D01*
X26575366Y52210806D01*
X26570930Y52212904D01*
X26566721Y52215427D01*
X26562780Y52218349D01*
X26559145Y52221645D01*
X26555849Y52225280D01*
X26552927Y52229221D01*
X26550404Y52233430D01*
X26548306Y52237866D01*
X26546653Y52242486D01*
X26545461Y52247245D01*
X26544741Y52252099D01*
X26544500Y52257000D01*
X26544500Y52407000D01*
X26544741Y52411901D01*
X26545461Y52416755D01*
X26546653Y52421514D01*
X26548306Y52426134D01*
X26550404Y52430570D01*
X26552927Y52434779D01*
X26555849Y52438720D01*
X26559145Y52442355D01*
X26562780Y52445651D01*
X26566721Y52448573D01*
X26570930Y52451096D01*
X26575366Y52453194D01*
X26579986Y52454847D01*
X26584745Y52456039D01*
X26589599Y52456759D01*
X26594500Y52457000D01*
X27319500Y52457000D01*
X27324401Y52456759D01*
X27324401Y52456759D01*
G37*
D11*
X26957000Y52332000D03*
D10*
G36*
X27324401Y52956759D02*
X27329255Y52956039D01*
X27334014Y52954847D01*
X27338634Y52953194D01*
X27343070Y52951096D01*
X27347279Y52948573D01*
X27351220Y52945651D01*
X27354855Y52942355D01*
X27358151Y52938720D01*
X27361073Y52934779D01*
X27363596Y52930570D01*
X27365694Y52926134D01*
X27367347Y52921514D01*
X27368539Y52916755D01*
X27369259Y52911901D01*
X27369500Y52907000D01*
X27369500Y52757000D01*
X27369259Y52752099D01*
X27368539Y52747245D01*
X27367347Y52742486D01*
X27365694Y52737866D01*
X27363596Y52733430D01*
X27361073Y52729221D01*
X27358151Y52725280D01*
X27354855Y52721645D01*
X27351220Y52718349D01*
X27347279Y52715427D01*
X27343070Y52712904D01*
X27338634Y52710806D01*
X27334014Y52709153D01*
X27329255Y52707961D01*
X27324401Y52707241D01*
X27319500Y52707000D01*
X26594500Y52707000D01*
X26589599Y52707241D01*
X26584745Y52707961D01*
X26579986Y52709153D01*
X26575366Y52710806D01*
X26570930Y52712904D01*
X26566721Y52715427D01*
X26562780Y52718349D01*
X26559145Y52721645D01*
X26555849Y52725280D01*
X26552927Y52729221D01*
X26550404Y52733430D01*
X26548306Y52737866D01*
X26546653Y52742486D01*
X26545461Y52747245D01*
X26544741Y52752099D01*
X26544500Y52757000D01*
X26544500Y52907000D01*
X26544741Y52911901D01*
X26545461Y52916755D01*
X26546653Y52921514D01*
X26548306Y52926134D01*
X26550404Y52930570D01*
X26552927Y52934779D01*
X26555849Y52938720D01*
X26559145Y52942355D01*
X26562780Y52945651D01*
X26566721Y52948573D01*
X26570930Y52951096D01*
X26575366Y52953194D01*
X26579986Y52954847D01*
X26584745Y52956039D01*
X26589599Y52956759D01*
X26594500Y52957000D01*
X27319500Y52957000D01*
X27324401Y52956759D01*
X27324401Y52956759D01*
G37*
D11*
X26957000Y52832000D03*
D10*
G36*
X30298165Y52931766D02*
X30302882Y52931066D01*
X30307509Y52929907D01*
X30311999Y52928301D01*
X30316310Y52926261D01*
X30320401Y52923810D01*
X30324232Y52920969D01*
X30327766Y52917766D01*
X30330969Y52914232D01*
X30333810Y52910401D01*
X30336261Y52906310D01*
X30338301Y52901999D01*
X30339907Y52897509D01*
X30341066Y52892882D01*
X30341766Y52888165D01*
X30342000Y52883401D01*
X30342000Y50280599D01*
X30341766Y50275835D01*
X30341066Y50271118D01*
X30339907Y50266491D01*
X30338301Y50262001D01*
X30336261Y50257690D01*
X30333810Y50253599D01*
X30330969Y50249768D01*
X30327766Y50246234D01*
X30324232Y50243031D01*
X30320401Y50240190D01*
X30316310Y50237739D01*
X30311999Y50235699D01*
X30307509Y50234093D01*
X30302882Y50232934D01*
X30298165Y50232234D01*
X30293401Y50232000D01*
X27690599Y50232000D01*
X27685835Y50232234D01*
X27681118Y50232934D01*
X27676491Y50234093D01*
X27672001Y50235699D01*
X27667690Y50237739D01*
X27663599Y50240190D01*
X27659768Y50243031D01*
X27656234Y50246234D01*
X27653031Y50249768D01*
X27650190Y50253599D01*
X27647739Y50257690D01*
X27645699Y50262001D01*
X27644093Y50266491D01*
X27642934Y50271118D01*
X27642234Y50275835D01*
X27642000Y50280599D01*
X27642000Y52883401D01*
X27642234Y52888165D01*
X27642934Y52892882D01*
X27644093Y52897509D01*
X27645699Y52901999D01*
X27647739Y52906310D01*
X27650190Y52910401D01*
X27653031Y52914232D01*
X27656234Y52917766D01*
X27659768Y52920969D01*
X27663599Y52923810D01*
X27667690Y52926261D01*
X27672001Y52928301D01*
X27676491Y52929907D01*
X27681118Y52931066D01*
X27685835Y52931766D01*
X27690599Y52932000D01*
X30293401Y52932000D01*
X30298165Y52931766D01*
X30298165Y52931766D01*
G37*
D13*
X28992000Y51582000D03*
G04 #@! TD*
D14*
G04 #@! TO.C,D4*
X18482000Y47831500D03*
X18482000Y43552500D03*
G04 #@! TD*
D15*
G04 #@! TO.C,D1*
X22302000Y43552000D03*
X22302000Y47252000D03*
G04 #@! TD*
D10*
G04 #@! TO.C,L1*
G36*
X34432045Y58931199D02*
X34448184Y58928806D01*
X34464010Y58924841D01*
X34479371Y58919345D01*
X34494120Y58912369D01*
X34508114Y58903982D01*
X34521218Y58894263D01*
X34533307Y58883307D01*
X34544263Y58871218D01*
X34553982Y58858114D01*
X34562369Y58844120D01*
X34569345Y58829371D01*
X34574841Y58814010D01*
X34578806Y58798184D01*
X34581199Y58782045D01*
X34582000Y58765750D01*
X34582000Y56698250D01*
X34581199Y56681955D01*
X34578806Y56665816D01*
X34574841Y56649990D01*
X34569345Y56634629D01*
X34562369Y56619880D01*
X34553982Y56605886D01*
X34544263Y56592782D01*
X34533307Y56580693D01*
X34521218Y56569737D01*
X34508114Y56560018D01*
X34494120Y56551631D01*
X34479371Y56544655D01*
X34464010Y56539159D01*
X34448184Y56535194D01*
X34432045Y56532801D01*
X34415750Y56532000D01*
X33798250Y56532000D01*
X33781955Y56532801D01*
X33765816Y56535194D01*
X33749990Y56539159D01*
X33734629Y56544655D01*
X33719880Y56551631D01*
X33705886Y56560018D01*
X33692782Y56569737D01*
X33680693Y56580693D01*
X33669737Y56592782D01*
X33660018Y56605886D01*
X33651631Y56619880D01*
X33644655Y56634629D01*
X33639159Y56649990D01*
X33635194Y56665816D01*
X33632801Y56681955D01*
X33632000Y56698250D01*
X33632000Y58765750D01*
X33632801Y58782045D01*
X33635194Y58798184D01*
X33639159Y58814010D01*
X33644655Y58829371D01*
X33651631Y58844120D01*
X33660018Y58858114D01*
X33669737Y58871218D01*
X33680693Y58883307D01*
X33692782Y58894263D01*
X33705886Y58903982D01*
X33719880Y58912369D01*
X33734629Y58919345D01*
X33749990Y58924841D01*
X33765816Y58928806D01*
X33781955Y58931199D01*
X33798250Y58932000D01*
X34415750Y58932000D01*
X34432045Y58931199D01*
X34432045Y58931199D01*
G37*
D16*
X34107000Y57732000D03*
D10*
G36*
X32482045Y58931199D02*
X32498184Y58928806D01*
X32514010Y58924841D01*
X32529371Y58919345D01*
X32544120Y58912369D01*
X32558114Y58903982D01*
X32571218Y58894263D01*
X32583307Y58883307D01*
X32594263Y58871218D01*
X32603982Y58858114D01*
X32612369Y58844120D01*
X32619345Y58829371D01*
X32624841Y58814010D01*
X32628806Y58798184D01*
X32631199Y58782045D01*
X32632000Y58765750D01*
X32632000Y56698250D01*
X32631199Y56681955D01*
X32628806Y56665816D01*
X32624841Y56649990D01*
X32619345Y56634629D01*
X32612369Y56619880D01*
X32603982Y56605886D01*
X32594263Y56592782D01*
X32583307Y56580693D01*
X32571218Y56569737D01*
X32558114Y56560018D01*
X32544120Y56551631D01*
X32529371Y56544655D01*
X32514010Y56539159D01*
X32498184Y56535194D01*
X32482045Y56532801D01*
X32465750Y56532000D01*
X31848250Y56532000D01*
X31831955Y56532801D01*
X31815816Y56535194D01*
X31799990Y56539159D01*
X31784629Y56544655D01*
X31769880Y56551631D01*
X31755886Y56560018D01*
X31742782Y56569737D01*
X31730693Y56580693D01*
X31719737Y56592782D01*
X31710018Y56605886D01*
X31701631Y56619880D01*
X31694655Y56634629D01*
X31689159Y56649990D01*
X31685194Y56665816D01*
X31682801Y56681955D01*
X31682000Y56698250D01*
X31682000Y58765750D01*
X31682801Y58782045D01*
X31685194Y58798184D01*
X31689159Y58814010D01*
X31694655Y58829371D01*
X31701631Y58844120D01*
X31710018Y58858114D01*
X31719737Y58871218D01*
X31730693Y58883307D01*
X31742782Y58894263D01*
X31755886Y58903982D01*
X31769880Y58912369D01*
X31784629Y58919345D01*
X31799990Y58924841D01*
X31815816Y58928806D01*
X31831955Y58931199D01*
X31848250Y58932000D01*
X32465750Y58932000D01*
X32482045Y58931199D01*
X32482045Y58931199D01*
G37*
D16*
X32157000Y57732000D03*
G04 #@! TD*
D10*
G04 #@! TO.C,D2*
G36*
X20316964Y25276451D02*
X20340119Y25273788D01*
X20362901Y25268867D01*
X20385090Y25261738D01*
X20406475Y25252467D01*
X20426847Y25241146D01*
X20446012Y25227881D01*
X20463784Y25212803D01*
X20479993Y25196055D01*
X20494482Y25177798D01*
X20507112Y25158210D01*
X20794612Y24660246D01*
X20805261Y24639514D01*
X20813827Y24617838D01*
X20820227Y24595427D01*
X20824399Y24572496D01*
X20826304Y24549267D01*
X20825923Y24525963D01*
X20823259Y24502808D01*
X20818338Y24480027D01*
X20811209Y24457837D01*
X20801938Y24436453D01*
X20790617Y24416080D01*
X20777352Y24396915D01*
X20762274Y24379143D01*
X20745526Y24362934D01*
X20727270Y24348445D01*
X20707681Y24335815D01*
X20296319Y24098315D01*
X20275587Y24087666D01*
X20253911Y24079100D01*
X20231500Y24072700D01*
X20208569Y24068528D01*
X20185340Y24066623D01*
X20162036Y24067005D01*
X20138881Y24069668D01*
X20116099Y24074589D01*
X20093910Y24081718D01*
X20072525Y24090989D01*
X20052153Y24102310D01*
X20032988Y24115575D01*
X20015216Y24130653D01*
X19999007Y24147401D01*
X19984518Y24165658D01*
X19971888Y24185246D01*
X19684388Y24683210D01*
X19673739Y24703942D01*
X19665173Y24725618D01*
X19658773Y24748029D01*
X19654601Y24770960D01*
X19652696Y24794189D01*
X19653077Y24817493D01*
X19655741Y24840648D01*
X19660662Y24863429D01*
X19667791Y24885619D01*
X19677062Y24907003D01*
X19688383Y24927376D01*
X19701648Y24946541D01*
X19716726Y24964313D01*
X19733474Y24980522D01*
X19751730Y24995011D01*
X19771319Y25007641D01*
X20182681Y25245141D01*
X20203413Y25255790D01*
X20225089Y25264356D01*
X20247500Y25270756D01*
X20270431Y25274928D01*
X20293660Y25276833D01*
X20316964Y25276451D01*
X20316964Y25276451D01*
G37*
D16*
X20239500Y24671728D03*
D10*
G36*
X19441964Y26791995D02*
X19465119Y26789332D01*
X19487901Y26784411D01*
X19510090Y26777282D01*
X19531475Y26768011D01*
X19551847Y26756690D01*
X19571012Y26743425D01*
X19588784Y26728347D01*
X19604993Y26711599D01*
X19619482Y26693342D01*
X19632112Y26673754D01*
X19919612Y26175790D01*
X19930261Y26155058D01*
X19938827Y26133382D01*
X19945227Y26110971D01*
X19949399Y26088040D01*
X19951304Y26064811D01*
X19950923Y26041507D01*
X19948259Y26018352D01*
X19943338Y25995571D01*
X19936209Y25973381D01*
X19926938Y25951997D01*
X19915617Y25931624D01*
X19902352Y25912459D01*
X19887274Y25894687D01*
X19870526Y25878478D01*
X19852270Y25863989D01*
X19832681Y25851359D01*
X19421319Y25613859D01*
X19400587Y25603210D01*
X19378911Y25594644D01*
X19356500Y25588244D01*
X19333569Y25584072D01*
X19310340Y25582167D01*
X19287036Y25582549D01*
X19263881Y25585212D01*
X19241099Y25590133D01*
X19218910Y25597262D01*
X19197525Y25606533D01*
X19177153Y25617854D01*
X19157988Y25631119D01*
X19140216Y25646197D01*
X19124007Y25662945D01*
X19109518Y25681202D01*
X19096888Y25700790D01*
X18809388Y26198754D01*
X18798739Y26219486D01*
X18790173Y26241162D01*
X18783773Y26263573D01*
X18779601Y26286504D01*
X18777696Y26309733D01*
X18778077Y26333037D01*
X18780741Y26356192D01*
X18785662Y26378973D01*
X18792791Y26401163D01*
X18802062Y26422547D01*
X18813383Y26442920D01*
X18826648Y26462085D01*
X18841726Y26479857D01*
X18858474Y26496066D01*
X18876730Y26510555D01*
X18896319Y26523185D01*
X19307681Y26760685D01*
X19328413Y26771334D01*
X19350089Y26779900D01*
X19372500Y26786300D01*
X19395431Y26790472D01*
X19418660Y26792377D01*
X19441964Y26791995D01*
X19441964Y26791995D01*
G37*
D16*
X19364500Y26187272D03*
G04 #@! TD*
D10*
G04 #@! TO.C,D3*
G36*
X22743964Y25276451D02*
X22767119Y25273788D01*
X22789901Y25268867D01*
X22812090Y25261738D01*
X22833475Y25252467D01*
X22853847Y25241146D01*
X22873012Y25227881D01*
X22890784Y25212803D01*
X22906993Y25196055D01*
X22921482Y25177798D01*
X22934112Y25158210D01*
X23221612Y24660246D01*
X23232261Y24639514D01*
X23240827Y24617838D01*
X23247227Y24595427D01*
X23251399Y24572496D01*
X23253304Y24549267D01*
X23252923Y24525963D01*
X23250259Y24502808D01*
X23245338Y24480027D01*
X23238209Y24457837D01*
X23228938Y24436453D01*
X23217617Y24416080D01*
X23204352Y24396915D01*
X23189274Y24379143D01*
X23172526Y24362934D01*
X23154270Y24348445D01*
X23134681Y24335815D01*
X22723319Y24098315D01*
X22702587Y24087666D01*
X22680911Y24079100D01*
X22658500Y24072700D01*
X22635569Y24068528D01*
X22612340Y24066623D01*
X22589036Y24067005D01*
X22565881Y24069668D01*
X22543099Y24074589D01*
X22520910Y24081718D01*
X22499525Y24090989D01*
X22479153Y24102310D01*
X22459988Y24115575D01*
X22442216Y24130653D01*
X22426007Y24147401D01*
X22411518Y24165658D01*
X22398888Y24185246D01*
X22111388Y24683210D01*
X22100739Y24703942D01*
X22092173Y24725618D01*
X22085773Y24748029D01*
X22081601Y24770960D01*
X22079696Y24794189D01*
X22080077Y24817493D01*
X22082741Y24840648D01*
X22087662Y24863429D01*
X22094791Y24885619D01*
X22104062Y24907003D01*
X22115383Y24927376D01*
X22128648Y24946541D01*
X22143726Y24964313D01*
X22160474Y24980522D01*
X22178730Y24995011D01*
X22198319Y25007641D01*
X22609681Y25245141D01*
X22630413Y25255790D01*
X22652089Y25264356D01*
X22674500Y25270756D01*
X22697431Y25274928D01*
X22720660Y25276833D01*
X22743964Y25276451D01*
X22743964Y25276451D01*
G37*
D16*
X22666500Y24671728D03*
D10*
G36*
X21868964Y26791995D02*
X21892119Y26789332D01*
X21914901Y26784411D01*
X21937090Y26777282D01*
X21958475Y26768011D01*
X21978847Y26756690D01*
X21998012Y26743425D01*
X22015784Y26728347D01*
X22031993Y26711599D01*
X22046482Y26693342D01*
X22059112Y26673754D01*
X22346612Y26175790D01*
X22357261Y26155058D01*
X22365827Y26133382D01*
X22372227Y26110971D01*
X22376399Y26088040D01*
X22378304Y26064811D01*
X22377923Y26041507D01*
X22375259Y26018352D01*
X22370338Y25995571D01*
X22363209Y25973381D01*
X22353938Y25951997D01*
X22342617Y25931624D01*
X22329352Y25912459D01*
X22314274Y25894687D01*
X22297526Y25878478D01*
X22279270Y25863989D01*
X22259681Y25851359D01*
X21848319Y25613859D01*
X21827587Y25603210D01*
X21805911Y25594644D01*
X21783500Y25588244D01*
X21760569Y25584072D01*
X21737340Y25582167D01*
X21714036Y25582549D01*
X21690881Y25585212D01*
X21668099Y25590133D01*
X21645910Y25597262D01*
X21624525Y25606533D01*
X21604153Y25617854D01*
X21584988Y25631119D01*
X21567216Y25646197D01*
X21551007Y25662945D01*
X21536518Y25681202D01*
X21523888Y25700790D01*
X21236388Y26198754D01*
X21225739Y26219486D01*
X21217173Y26241162D01*
X21210773Y26263573D01*
X21206601Y26286504D01*
X21204696Y26309733D01*
X21205077Y26333037D01*
X21207741Y26356192D01*
X21212662Y26378973D01*
X21219791Y26401163D01*
X21229062Y26422547D01*
X21240383Y26442920D01*
X21253648Y26462085D01*
X21268726Y26479857D01*
X21285474Y26496066D01*
X21303730Y26510555D01*
X21323319Y26523185D01*
X21734681Y26760685D01*
X21755413Y26771334D01*
X21777089Y26779900D01*
X21799500Y26786300D01*
X21822431Y26790472D01*
X21845660Y26792377D01*
X21868964Y26791995D01*
X21868964Y26791995D01*
G37*
D16*
X21791500Y26187272D03*
G04 #@! TD*
D10*
G04 #@! TO.C,C5*
G36*
X21741504Y54785796D02*
X21765773Y54782196D01*
X21789571Y54776235D01*
X21812671Y54767970D01*
X21834849Y54757480D01*
X21855893Y54744867D01*
X21875598Y54730253D01*
X21893777Y54713777D01*
X21910253Y54695598D01*
X21924867Y54675893D01*
X21937480Y54654849D01*
X21947970Y54632671D01*
X21956235Y54609571D01*
X21962196Y54585773D01*
X21965796Y54561504D01*
X21967000Y54537000D01*
X21967000Y53287000D01*
X21965796Y53262496D01*
X21962196Y53238227D01*
X21956235Y53214429D01*
X21947970Y53191329D01*
X21937480Y53169151D01*
X21924867Y53148107D01*
X21910253Y53128402D01*
X21893777Y53110223D01*
X21875598Y53093747D01*
X21855893Y53079133D01*
X21834849Y53066520D01*
X21812671Y53056030D01*
X21789571Y53047765D01*
X21765773Y53041804D01*
X21741504Y53038204D01*
X21717000Y53037000D01*
X20792000Y53037000D01*
X20767496Y53038204D01*
X20743227Y53041804D01*
X20719429Y53047765D01*
X20696329Y53056030D01*
X20674151Y53066520D01*
X20653107Y53079133D01*
X20633402Y53093747D01*
X20615223Y53110223D01*
X20598747Y53128402D01*
X20584133Y53148107D01*
X20571520Y53169151D01*
X20561030Y53191329D01*
X20552765Y53214429D01*
X20546804Y53238227D01*
X20543204Y53262496D01*
X20542000Y53287000D01*
X20542000Y54537000D01*
X20543204Y54561504D01*
X20546804Y54585773D01*
X20552765Y54609571D01*
X20561030Y54632671D01*
X20571520Y54654849D01*
X20584133Y54675893D01*
X20598747Y54695598D01*
X20615223Y54713777D01*
X20633402Y54730253D01*
X20653107Y54744867D01*
X20674151Y54757480D01*
X20696329Y54767970D01*
X20719429Y54776235D01*
X20743227Y54782196D01*
X20767496Y54785796D01*
X20792000Y54787000D01*
X21717000Y54787000D01*
X21741504Y54785796D01*
X21741504Y54785796D01*
G37*
D17*
X21254500Y53912000D03*
D10*
G36*
X24716504Y54785796D02*
X24740773Y54782196D01*
X24764571Y54776235D01*
X24787671Y54767970D01*
X24809849Y54757480D01*
X24830893Y54744867D01*
X24850598Y54730253D01*
X24868777Y54713777D01*
X24885253Y54695598D01*
X24899867Y54675893D01*
X24912480Y54654849D01*
X24922970Y54632671D01*
X24931235Y54609571D01*
X24937196Y54585773D01*
X24940796Y54561504D01*
X24942000Y54537000D01*
X24942000Y53287000D01*
X24940796Y53262496D01*
X24937196Y53238227D01*
X24931235Y53214429D01*
X24922970Y53191329D01*
X24912480Y53169151D01*
X24899867Y53148107D01*
X24885253Y53128402D01*
X24868777Y53110223D01*
X24850598Y53093747D01*
X24830893Y53079133D01*
X24809849Y53066520D01*
X24787671Y53056030D01*
X24764571Y53047765D01*
X24740773Y53041804D01*
X24716504Y53038204D01*
X24692000Y53037000D01*
X23767000Y53037000D01*
X23742496Y53038204D01*
X23718227Y53041804D01*
X23694429Y53047765D01*
X23671329Y53056030D01*
X23649151Y53066520D01*
X23628107Y53079133D01*
X23608402Y53093747D01*
X23590223Y53110223D01*
X23573747Y53128402D01*
X23559133Y53148107D01*
X23546520Y53169151D01*
X23536030Y53191329D01*
X23527765Y53214429D01*
X23521804Y53238227D01*
X23518204Y53262496D01*
X23517000Y53287000D01*
X23517000Y54537000D01*
X23518204Y54561504D01*
X23521804Y54585773D01*
X23527765Y54609571D01*
X23536030Y54632671D01*
X23546520Y54654849D01*
X23559133Y54675893D01*
X23573747Y54695598D01*
X23590223Y54713777D01*
X23608402Y54730253D01*
X23628107Y54744867D01*
X23649151Y54757480D01*
X23671329Y54767970D01*
X23694429Y54776235D01*
X23718227Y54782196D01*
X23742496Y54785796D01*
X23767000Y54787000D01*
X24692000Y54787000D01*
X24716504Y54785796D01*
X24716504Y54785796D01*
G37*
D17*
X24229500Y53912000D03*
G04 #@! TD*
D10*
G04 #@! TO.C,C2*
G36*
X34451504Y47448296D02*
X34475773Y47444696D01*
X34499571Y47438735D01*
X34522671Y47430470D01*
X34544849Y47419980D01*
X34565893Y47407367D01*
X34585598Y47392753D01*
X34603777Y47376277D01*
X34620253Y47358098D01*
X34634867Y47338393D01*
X34647480Y47317349D01*
X34657970Y47295171D01*
X34666235Y47272071D01*
X34672196Y47248273D01*
X34675796Y47224004D01*
X34677000Y47199500D01*
X34677000Y46274500D01*
X34675796Y46249996D01*
X34672196Y46225727D01*
X34666235Y46201929D01*
X34657970Y46178829D01*
X34647480Y46156651D01*
X34634867Y46135607D01*
X34620253Y46115902D01*
X34603777Y46097723D01*
X34585598Y46081247D01*
X34565893Y46066633D01*
X34544849Y46054020D01*
X34522671Y46043530D01*
X34499571Y46035265D01*
X34475773Y46029304D01*
X34451504Y46025704D01*
X34427000Y46024500D01*
X33177000Y46024500D01*
X33152496Y46025704D01*
X33128227Y46029304D01*
X33104429Y46035265D01*
X33081329Y46043530D01*
X33059151Y46054020D01*
X33038107Y46066633D01*
X33018402Y46081247D01*
X33000223Y46097723D01*
X32983747Y46115902D01*
X32969133Y46135607D01*
X32956520Y46156651D01*
X32946030Y46178829D01*
X32937765Y46201929D01*
X32931804Y46225727D01*
X32928204Y46249996D01*
X32927000Y46274500D01*
X32927000Y47199500D01*
X32928204Y47224004D01*
X32931804Y47248273D01*
X32937765Y47272071D01*
X32946030Y47295171D01*
X32956520Y47317349D01*
X32969133Y47338393D01*
X32983747Y47358098D01*
X33000223Y47376277D01*
X33018402Y47392753D01*
X33038107Y47407367D01*
X33059151Y47419980D01*
X33081329Y47430470D01*
X33104429Y47438735D01*
X33128227Y47444696D01*
X33152496Y47448296D01*
X33177000Y47449500D01*
X34427000Y47449500D01*
X34451504Y47448296D01*
X34451504Y47448296D01*
G37*
D17*
X33802000Y46737000D03*
D10*
G36*
X34451504Y50423296D02*
X34475773Y50419696D01*
X34499571Y50413735D01*
X34522671Y50405470D01*
X34544849Y50394980D01*
X34565893Y50382367D01*
X34585598Y50367753D01*
X34603777Y50351277D01*
X34620253Y50333098D01*
X34634867Y50313393D01*
X34647480Y50292349D01*
X34657970Y50270171D01*
X34666235Y50247071D01*
X34672196Y50223273D01*
X34675796Y50199004D01*
X34677000Y50174500D01*
X34677000Y49249500D01*
X34675796Y49224996D01*
X34672196Y49200727D01*
X34666235Y49176929D01*
X34657970Y49153829D01*
X34647480Y49131651D01*
X34634867Y49110607D01*
X34620253Y49090902D01*
X34603777Y49072723D01*
X34585598Y49056247D01*
X34565893Y49041633D01*
X34544849Y49029020D01*
X34522671Y49018530D01*
X34499571Y49010265D01*
X34475773Y49004304D01*
X34451504Y49000704D01*
X34427000Y48999500D01*
X33177000Y48999500D01*
X33152496Y49000704D01*
X33128227Y49004304D01*
X33104429Y49010265D01*
X33081329Y49018530D01*
X33059151Y49029020D01*
X33038107Y49041633D01*
X33018402Y49056247D01*
X33000223Y49072723D01*
X32983747Y49090902D01*
X32969133Y49110607D01*
X32956520Y49131651D01*
X32946030Y49153829D01*
X32937765Y49176929D01*
X32931804Y49200727D01*
X32928204Y49224996D01*
X32927000Y49249500D01*
X32927000Y50174500D01*
X32928204Y50199004D01*
X32931804Y50223273D01*
X32937765Y50247071D01*
X32946030Y50270171D01*
X32956520Y50292349D01*
X32969133Y50313393D01*
X32983747Y50333098D01*
X33000223Y50351277D01*
X33018402Y50367753D01*
X33038107Y50382367D01*
X33059151Y50394980D01*
X33081329Y50405470D01*
X33104429Y50413735D01*
X33128227Y50419696D01*
X33152496Y50423296D01*
X33177000Y50424500D01*
X34427000Y50424500D01*
X34451504Y50423296D01*
X34451504Y50423296D01*
G37*
D17*
X33802000Y49712000D03*
G04 #@! TD*
D10*
G04 #@! TO.C,C1*
G36*
X34451504Y55550796D02*
X34475773Y55547196D01*
X34499571Y55541235D01*
X34522671Y55532970D01*
X34544849Y55522480D01*
X34565893Y55509867D01*
X34585598Y55495253D01*
X34603777Y55478777D01*
X34620253Y55460598D01*
X34634867Y55440893D01*
X34647480Y55419849D01*
X34657970Y55397671D01*
X34666235Y55374571D01*
X34672196Y55350773D01*
X34675796Y55326504D01*
X34677000Y55302000D01*
X34677000Y54377000D01*
X34675796Y54352496D01*
X34672196Y54328227D01*
X34666235Y54304429D01*
X34657970Y54281329D01*
X34647480Y54259151D01*
X34634867Y54238107D01*
X34620253Y54218402D01*
X34603777Y54200223D01*
X34585598Y54183747D01*
X34565893Y54169133D01*
X34544849Y54156520D01*
X34522671Y54146030D01*
X34499571Y54137765D01*
X34475773Y54131804D01*
X34451504Y54128204D01*
X34427000Y54127000D01*
X33177000Y54127000D01*
X33152496Y54128204D01*
X33128227Y54131804D01*
X33104429Y54137765D01*
X33081329Y54146030D01*
X33059151Y54156520D01*
X33038107Y54169133D01*
X33018402Y54183747D01*
X33000223Y54200223D01*
X32983747Y54218402D01*
X32969133Y54238107D01*
X32956520Y54259151D01*
X32946030Y54281329D01*
X32937765Y54304429D01*
X32931804Y54328227D01*
X32928204Y54352496D01*
X32927000Y54377000D01*
X32927000Y55302000D01*
X32928204Y55326504D01*
X32931804Y55350773D01*
X32937765Y55374571D01*
X32946030Y55397671D01*
X32956520Y55419849D01*
X32969133Y55440893D01*
X32983747Y55460598D01*
X33000223Y55478777D01*
X33018402Y55495253D01*
X33038107Y55509867D01*
X33059151Y55522480D01*
X33081329Y55532970D01*
X33104429Y55541235D01*
X33128227Y55547196D01*
X33152496Y55550796D01*
X33177000Y55552000D01*
X34427000Y55552000D01*
X34451504Y55550796D01*
X34451504Y55550796D01*
G37*
D17*
X33802000Y54839500D03*
D10*
G36*
X34451504Y52575796D02*
X34475773Y52572196D01*
X34499571Y52566235D01*
X34522671Y52557970D01*
X34544849Y52547480D01*
X34565893Y52534867D01*
X34585598Y52520253D01*
X34603777Y52503777D01*
X34620253Y52485598D01*
X34634867Y52465893D01*
X34647480Y52444849D01*
X34657970Y52422671D01*
X34666235Y52399571D01*
X34672196Y52375773D01*
X34675796Y52351504D01*
X34677000Y52327000D01*
X34677000Y51402000D01*
X34675796Y51377496D01*
X34672196Y51353227D01*
X34666235Y51329429D01*
X34657970Y51306329D01*
X34647480Y51284151D01*
X34634867Y51263107D01*
X34620253Y51243402D01*
X34603777Y51225223D01*
X34585598Y51208747D01*
X34565893Y51194133D01*
X34544849Y51181520D01*
X34522671Y51171030D01*
X34499571Y51162765D01*
X34475773Y51156804D01*
X34451504Y51153204D01*
X34427000Y51152000D01*
X33177000Y51152000D01*
X33152496Y51153204D01*
X33128227Y51156804D01*
X33104429Y51162765D01*
X33081329Y51171030D01*
X33059151Y51181520D01*
X33038107Y51194133D01*
X33018402Y51208747D01*
X33000223Y51225223D01*
X32983747Y51243402D01*
X32969133Y51263107D01*
X32956520Y51284151D01*
X32946030Y51306329D01*
X32937765Y51329429D01*
X32931804Y51353227D01*
X32928204Y51377496D01*
X32927000Y51402000D01*
X32927000Y52327000D01*
X32928204Y52351504D01*
X32931804Y52375773D01*
X32937765Y52399571D01*
X32946030Y52422671D01*
X32956520Y52444849D01*
X32969133Y52465893D01*
X32983747Y52485598D01*
X33000223Y52503777D01*
X33018402Y52520253D01*
X33038107Y52534867D01*
X33059151Y52547480D01*
X33081329Y52557970D01*
X33104429Y52566235D01*
X33128227Y52572196D01*
X33152496Y52575796D01*
X33177000Y52577000D01*
X34427000Y52577000D01*
X34451504Y52575796D01*
X34451504Y52575796D01*
G37*
D17*
X33802000Y51864500D03*
G04 #@! TD*
D18*
G04 #@! TO.C,Q1*
X27782000Y21482000D03*
X28732000Y19482000D03*
X26832000Y19482000D03*
G04 #@! TD*
D10*
G04 #@! TO.C,R7*
G36*
X20486505Y50930796D02*
X20510773Y50927196D01*
X20534572Y50921235D01*
X20557671Y50912970D01*
X20579850Y50902480D01*
X20600893Y50889868D01*
X20620599Y50875253D01*
X20638777Y50858777D01*
X20655253Y50840599D01*
X20669868Y50820893D01*
X20682480Y50799850D01*
X20692970Y50777671D01*
X20701235Y50754572D01*
X20707196Y50730773D01*
X20710796Y50706505D01*
X20712000Y50682001D01*
X20712000Y49781999D01*
X20710796Y49757495D01*
X20707196Y49733227D01*
X20701235Y49709428D01*
X20692970Y49686329D01*
X20682480Y49664150D01*
X20669868Y49643107D01*
X20655253Y49623401D01*
X20638777Y49605223D01*
X20620599Y49588747D01*
X20600893Y49574132D01*
X20579850Y49561520D01*
X20557671Y49551030D01*
X20534572Y49542765D01*
X20510773Y49536804D01*
X20486505Y49533204D01*
X20462001Y49532000D01*
X19811999Y49532000D01*
X19787495Y49533204D01*
X19763227Y49536804D01*
X19739428Y49542765D01*
X19716329Y49551030D01*
X19694150Y49561520D01*
X19673107Y49574132D01*
X19653401Y49588747D01*
X19635223Y49605223D01*
X19618747Y49623401D01*
X19604132Y49643107D01*
X19591520Y49664150D01*
X19581030Y49686329D01*
X19572765Y49709428D01*
X19566804Y49733227D01*
X19563204Y49757495D01*
X19562000Y49781999D01*
X19562000Y50682001D01*
X19563204Y50706505D01*
X19566804Y50730773D01*
X19572765Y50754572D01*
X19581030Y50777671D01*
X19591520Y50799850D01*
X19604132Y50820893D01*
X19618747Y50840599D01*
X19635223Y50858777D01*
X19653401Y50875253D01*
X19673107Y50889868D01*
X19694150Y50902480D01*
X19716329Y50912970D01*
X19739428Y50921235D01*
X19763227Y50927196D01*
X19787495Y50930796D01*
X19811999Y50932000D01*
X20462001Y50932000D01*
X20486505Y50930796D01*
X20486505Y50930796D01*
G37*
D19*
X20137000Y50232000D03*
D10*
G36*
X18436505Y50930796D02*
X18460773Y50927196D01*
X18484572Y50921235D01*
X18507671Y50912970D01*
X18529850Y50902480D01*
X18550893Y50889868D01*
X18570599Y50875253D01*
X18588777Y50858777D01*
X18605253Y50840599D01*
X18619868Y50820893D01*
X18632480Y50799850D01*
X18642970Y50777671D01*
X18651235Y50754572D01*
X18657196Y50730773D01*
X18660796Y50706505D01*
X18662000Y50682001D01*
X18662000Y49781999D01*
X18660796Y49757495D01*
X18657196Y49733227D01*
X18651235Y49709428D01*
X18642970Y49686329D01*
X18632480Y49664150D01*
X18619868Y49643107D01*
X18605253Y49623401D01*
X18588777Y49605223D01*
X18570599Y49588747D01*
X18550893Y49574132D01*
X18529850Y49561520D01*
X18507671Y49551030D01*
X18484572Y49542765D01*
X18460773Y49536804D01*
X18436505Y49533204D01*
X18412001Y49532000D01*
X17761999Y49532000D01*
X17737495Y49533204D01*
X17713227Y49536804D01*
X17689428Y49542765D01*
X17666329Y49551030D01*
X17644150Y49561520D01*
X17623107Y49574132D01*
X17603401Y49588747D01*
X17585223Y49605223D01*
X17568747Y49623401D01*
X17554132Y49643107D01*
X17541520Y49664150D01*
X17531030Y49686329D01*
X17522765Y49709428D01*
X17516804Y49733227D01*
X17513204Y49757495D01*
X17512000Y49781999D01*
X17512000Y50682001D01*
X17513204Y50706505D01*
X17516804Y50730773D01*
X17522765Y50754572D01*
X17531030Y50777671D01*
X17541520Y50799850D01*
X17554132Y50820893D01*
X17568747Y50840599D01*
X17585223Y50858777D01*
X17603401Y50875253D01*
X17623107Y50889868D01*
X17644150Y50902480D01*
X17666329Y50912970D01*
X17689428Y50921235D01*
X17713227Y50927196D01*
X17737495Y50930796D01*
X17761999Y50932000D01*
X18412001Y50932000D01*
X18436505Y50930796D01*
X18436505Y50930796D01*
G37*
D19*
X18087000Y50232000D03*
G04 #@! TD*
D10*
G04 #@! TO.C,R6*
G36*
X20243505Y32000796D02*
X20267773Y31997196D01*
X20291572Y31991235D01*
X20314671Y31982970D01*
X20336850Y31972480D01*
X20357893Y31959868D01*
X20377599Y31945253D01*
X20395777Y31928777D01*
X20412253Y31910599D01*
X20426868Y31890893D01*
X20439480Y31869850D01*
X20449970Y31847671D01*
X20458235Y31824572D01*
X20464196Y31800773D01*
X20467796Y31776505D01*
X20469000Y31752001D01*
X20469000Y31101999D01*
X20467796Y31077495D01*
X20464196Y31053227D01*
X20458235Y31029428D01*
X20449970Y31006329D01*
X20439480Y30984150D01*
X20426868Y30963107D01*
X20412253Y30943401D01*
X20395777Y30925223D01*
X20377599Y30908747D01*
X20357893Y30894132D01*
X20336850Y30881520D01*
X20314671Y30871030D01*
X20291572Y30862765D01*
X20267773Y30856804D01*
X20243505Y30853204D01*
X20219001Y30852000D01*
X19318999Y30852000D01*
X19294495Y30853204D01*
X19270227Y30856804D01*
X19246428Y30862765D01*
X19223329Y30871030D01*
X19201150Y30881520D01*
X19180107Y30894132D01*
X19160401Y30908747D01*
X19142223Y30925223D01*
X19125747Y30943401D01*
X19111132Y30963107D01*
X19098520Y30984150D01*
X19088030Y31006329D01*
X19079765Y31029428D01*
X19073804Y31053227D01*
X19070204Y31077495D01*
X19069000Y31101999D01*
X19069000Y31752001D01*
X19070204Y31776505D01*
X19073804Y31800773D01*
X19079765Y31824572D01*
X19088030Y31847671D01*
X19098520Y31869850D01*
X19111132Y31890893D01*
X19125747Y31910599D01*
X19142223Y31928777D01*
X19160401Y31945253D01*
X19180107Y31959868D01*
X19201150Y31972480D01*
X19223329Y31982970D01*
X19246428Y31991235D01*
X19270227Y31997196D01*
X19294495Y32000796D01*
X19318999Y32002000D01*
X20219001Y32002000D01*
X20243505Y32000796D01*
X20243505Y32000796D01*
G37*
D19*
X19769000Y31427000D03*
D10*
G36*
X20243505Y29950796D02*
X20267773Y29947196D01*
X20291572Y29941235D01*
X20314671Y29932970D01*
X20336850Y29922480D01*
X20357893Y29909868D01*
X20377599Y29895253D01*
X20395777Y29878777D01*
X20412253Y29860599D01*
X20426868Y29840893D01*
X20439480Y29819850D01*
X20449970Y29797671D01*
X20458235Y29774572D01*
X20464196Y29750773D01*
X20467796Y29726505D01*
X20469000Y29702001D01*
X20469000Y29051999D01*
X20467796Y29027495D01*
X20464196Y29003227D01*
X20458235Y28979428D01*
X20449970Y28956329D01*
X20439480Y28934150D01*
X20426868Y28913107D01*
X20412253Y28893401D01*
X20395777Y28875223D01*
X20377599Y28858747D01*
X20357893Y28844132D01*
X20336850Y28831520D01*
X20314671Y28821030D01*
X20291572Y28812765D01*
X20267773Y28806804D01*
X20243505Y28803204D01*
X20219001Y28802000D01*
X19318999Y28802000D01*
X19294495Y28803204D01*
X19270227Y28806804D01*
X19246428Y28812765D01*
X19223329Y28821030D01*
X19201150Y28831520D01*
X19180107Y28844132D01*
X19160401Y28858747D01*
X19142223Y28875223D01*
X19125747Y28893401D01*
X19111132Y28913107D01*
X19098520Y28934150D01*
X19088030Y28956329D01*
X19079765Y28979428D01*
X19073804Y29003227D01*
X19070204Y29027495D01*
X19069000Y29051999D01*
X19069000Y29702001D01*
X19070204Y29726505D01*
X19073804Y29750773D01*
X19079765Y29774572D01*
X19088030Y29797671D01*
X19098520Y29819850D01*
X19111132Y29840893D01*
X19125747Y29860599D01*
X19142223Y29878777D01*
X19160401Y29895253D01*
X19180107Y29909868D01*
X19201150Y29922480D01*
X19223329Y29932970D01*
X19246428Y29941235D01*
X19270227Y29947196D01*
X19294495Y29950796D01*
X19318999Y29952000D01*
X20219001Y29952000D01*
X20243505Y29950796D01*
X20243505Y29950796D01*
G37*
D19*
X19769000Y29377000D03*
G04 #@! TD*
D10*
G04 #@! TO.C,R5*
G36*
X17816505Y32000796D02*
X17840773Y31997196D01*
X17864572Y31991235D01*
X17887671Y31982970D01*
X17909850Y31972480D01*
X17930893Y31959868D01*
X17950599Y31945253D01*
X17968777Y31928777D01*
X17985253Y31910599D01*
X17999868Y31890893D01*
X18012480Y31869850D01*
X18022970Y31847671D01*
X18031235Y31824572D01*
X18037196Y31800773D01*
X18040796Y31776505D01*
X18042000Y31752001D01*
X18042000Y31101999D01*
X18040796Y31077495D01*
X18037196Y31053227D01*
X18031235Y31029428D01*
X18022970Y31006329D01*
X18012480Y30984150D01*
X17999868Y30963107D01*
X17985253Y30943401D01*
X17968777Y30925223D01*
X17950599Y30908747D01*
X17930893Y30894132D01*
X17909850Y30881520D01*
X17887671Y30871030D01*
X17864572Y30862765D01*
X17840773Y30856804D01*
X17816505Y30853204D01*
X17792001Y30852000D01*
X16891999Y30852000D01*
X16867495Y30853204D01*
X16843227Y30856804D01*
X16819428Y30862765D01*
X16796329Y30871030D01*
X16774150Y30881520D01*
X16753107Y30894132D01*
X16733401Y30908747D01*
X16715223Y30925223D01*
X16698747Y30943401D01*
X16684132Y30963107D01*
X16671520Y30984150D01*
X16661030Y31006329D01*
X16652765Y31029428D01*
X16646804Y31053227D01*
X16643204Y31077495D01*
X16642000Y31101999D01*
X16642000Y31752001D01*
X16643204Y31776505D01*
X16646804Y31800773D01*
X16652765Y31824572D01*
X16661030Y31847671D01*
X16671520Y31869850D01*
X16684132Y31890893D01*
X16698747Y31910599D01*
X16715223Y31928777D01*
X16733401Y31945253D01*
X16753107Y31959868D01*
X16774150Y31972480D01*
X16796329Y31982970D01*
X16819428Y31991235D01*
X16843227Y31997196D01*
X16867495Y32000796D01*
X16891999Y32002000D01*
X17792001Y32002000D01*
X17816505Y32000796D01*
X17816505Y32000796D01*
G37*
D19*
X17342000Y31427000D03*
D10*
G36*
X17816505Y29950796D02*
X17840773Y29947196D01*
X17864572Y29941235D01*
X17887671Y29932970D01*
X17909850Y29922480D01*
X17930893Y29909868D01*
X17950599Y29895253D01*
X17968777Y29878777D01*
X17985253Y29860599D01*
X17999868Y29840893D01*
X18012480Y29819850D01*
X18022970Y29797671D01*
X18031235Y29774572D01*
X18037196Y29750773D01*
X18040796Y29726505D01*
X18042000Y29702001D01*
X18042000Y29051999D01*
X18040796Y29027495D01*
X18037196Y29003227D01*
X18031235Y28979428D01*
X18022970Y28956329D01*
X18012480Y28934150D01*
X17999868Y28913107D01*
X17985253Y28893401D01*
X17968777Y28875223D01*
X17950599Y28858747D01*
X17930893Y28844132D01*
X17909850Y28831520D01*
X17887671Y28821030D01*
X17864572Y28812765D01*
X17840773Y28806804D01*
X17816505Y28803204D01*
X17792001Y28802000D01*
X16891999Y28802000D01*
X16867495Y28803204D01*
X16843227Y28806804D01*
X16819428Y28812765D01*
X16796329Y28821030D01*
X16774150Y28831520D01*
X16753107Y28844132D01*
X16733401Y28858747D01*
X16715223Y28875223D01*
X16698747Y28893401D01*
X16684132Y28913107D01*
X16671520Y28934150D01*
X16661030Y28956329D01*
X16652765Y28979428D01*
X16646804Y29003227D01*
X16643204Y29027495D01*
X16642000Y29051999D01*
X16642000Y29702001D01*
X16643204Y29726505D01*
X16646804Y29750773D01*
X16652765Y29774572D01*
X16661030Y29797671D01*
X16671520Y29819850D01*
X16684132Y29840893D01*
X16698747Y29860599D01*
X16715223Y29878777D01*
X16733401Y29895253D01*
X16753107Y29909868D01*
X16774150Y29922480D01*
X16796329Y29932970D01*
X16819428Y29941235D01*
X16843227Y29947196D01*
X16867495Y29950796D01*
X16891999Y29952000D01*
X17792001Y29952000D01*
X17816505Y29950796D01*
X17816505Y29950796D01*
G37*
D19*
X17342000Y29377000D03*
G04 #@! TD*
D10*
G04 #@! TO.C,R4*
G36*
X24962505Y29950796D02*
X24986773Y29947196D01*
X25010572Y29941235D01*
X25033671Y29932970D01*
X25055850Y29922480D01*
X25076893Y29909868D01*
X25096599Y29895253D01*
X25114777Y29878777D01*
X25131253Y29860599D01*
X25145868Y29840893D01*
X25158480Y29819850D01*
X25168970Y29797671D01*
X25177235Y29774572D01*
X25183196Y29750773D01*
X25186796Y29726505D01*
X25188000Y29702001D01*
X25188000Y29051999D01*
X25186796Y29027495D01*
X25183196Y29003227D01*
X25177235Y28979428D01*
X25168970Y28956329D01*
X25158480Y28934150D01*
X25145868Y28913107D01*
X25131253Y28893401D01*
X25114777Y28875223D01*
X25096599Y28858747D01*
X25076893Y28844132D01*
X25055850Y28831520D01*
X25033671Y28821030D01*
X25010572Y28812765D01*
X24986773Y28806804D01*
X24962505Y28803204D01*
X24938001Y28802000D01*
X24037999Y28802000D01*
X24013495Y28803204D01*
X23989227Y28806804D01*
X23965428Y28812765D01*
X23942329Y28821030D01*
X23920150Y28831520D01*
X23899107Y28844132D01*
X23879401Y28858747D01*
X23861223Y28875223D01*
X23844747Y28893401D01*
X23830132Y28913107D01*
X23817520Y28934150D01*
X23807030Y28956329D01*
X23798765Y28979428D01*
X23792804Y29003227D01*
X23789204Y29027495D01*
X23788000Y29051999D01*
X23788000Y29702001D01*
X23789204Y29726505D01*
X23792804Y29750773D01*
X23798765Y29774572D01*
X23807030Y29797671D01*
X23817520Y29819850D01*
X23830132Y29840893D01*
X23844747Y29860599D01*
X23861223Y29878777D01*
X23879401Y29895253D01*
X23899107Y29909868D01*
X23920150Y29922480D01*
X23942329Y29932970D01*
X23965428Y29941235D01*
X23989227Y29947196D01*
X24013495Y29950796D01*
X24037999Y29952000D01*
X24938001Y29952000D01*
X24962505Y29950796D01*
X24962505Y29950796D01*
G37*
D19*
X24488000Y29377000D03*
D10*
G36*
X24962505Y32000796D02*
X24986773Y31997196D01*
X25010572Y31991235D01*
X25033671Y31982970D01*
X25055850Y31972480D01*
X25076893Y31959868D01*
X25096599Y31945253D01*
X25114777Y31928777D01*
X25131253Y31910599D01*
X25145868Y31890893D01*
X25158480Y31869850D01*
X25168970Y31847671D01*
X25177235Y31824572D01*
X25183196Y31800773D01*
X25186796Y31776505D01*
X25188000Y31752001D01*
X25188000Y31101999D01*
X25186796Y31077495D01*
X25183196Y31053227D01*
X25177235Y31029428D01*
X25168970Y31006329D01*
X25158480Y30984150D01*
X25145868Y30963107D01*
X25131253Y30943401D01*
X25114777Y30925223D01*
X25096599Y30908747D01*
X25076893Y30894132D01*
X25055850Y30881520D01*
X25033671Y30871030D01*
X25010572Y30862765D01*
X24986773Y30856804D01*
X24962505Y30853204D01*
X24938001Y30852000D01*
X24037999Y30852000D01*
X24013495Y30853204D01*
X23989227Y30856804D01*
X23965428Y30862765D01*
X23942329Y30871030D01*
X23920150Y30881520D01*
X23899107Y30894132D01*
X23879401Y30908747D01*
X23861223Y30925223D01*
X23844747Y30943401D01*
X23830132Y30963107D01*
X23817520Y30984150D01*
X23807030Y31006329D01*
X23798765Y31029428D01*
X23792804Y31053227D01*
X23789204Y31077495D01*
X23788000Y31101999D01*
X23788000Y31752001D01*
X23789204Y31776505D01*
X23792804Y31800773D01*
X23798765Y31824572D01*
X23807030Y31847671D01*
X23817520Y31869850D01*
X23830132Y31890893D01*
X23844747Y31910599D01*
X23861223Y31928777D01*
X23879401Y31945253D01*
X23899107Y31959868D01*
X23920150Y31972480D01*
X23942329Y31982970D01*
X23965428Y31991235D01*
X23989227Y31997196D01*
X24013495Y32000796D01*
X24037999Y32002000D01*
X24938001Y32002000D01*
X24962505Y32000796D01*
X24962505Y32000796D01*
G37*
D19*
X24488000Y31427000D03*
G04 #@! TD*
D10*
G04 #@! TO.C,R3*
G36*
X22625505Y29950796D02*
X22649773Y29947196D01*
X22673572Y29941235D01*
X22696671Y29932970D01*
X22718850Y29922480D01*
X22739893Y29909868D01*
X22759599Y29895253D01*
X22777777Y29878777D01*
X22794253Y29860599D01*
X22808868Y29840893D01*
X22821480Y29819850D01*
X22831970Y29797671D01*
X22840235Y29774572D01*
X22846196Y29750773D01*
X22849796Y29726505D01*
X22851000Y29702001D01*
X22851000Y29051999D01*
X22849796Y29027495D01*
X22846196Y29003227D01*
X22840235Y28979428D01*
X22831970Y28956329D01*
X22821480Y28934150D01*
X22808868Y28913107D01*
X22794253Y28893401D01*
X22777777Y28875223D01*
X22759599Y28858747D01*
X22739893Y28844132D01*
X22718850Y28831520D01*
X22696671Y28821030D01*
X22673572Y28812765D01*
X22649773Y28806804D01*
X22625505Y28803204D01*
X22601001Y28802000D01*
X21700999Y28802000D01*
X21676495Y28803204D01*
X21652227Y28806804D01*
X21628428Y28812765D01*
X21605329Y28821030D01*
X21583150Y28831520D01*
X21562107Y28844132D01*
X21542401Y28858747D01*
X21524223Y28875223D01*
X21507747Y28893401D01*
X21493132Y28913107D01*
X21480520Y28934150D01*
X21470030Y28956329D01*
X21461765Y28979428D01*
X21455804Y29003227D01*
X21452204Y29027495D01*
X21451000Y29051999D01*
X21451000Y29702001D01*
X21452204Y29726505D01*
X21455804Y29750773D01*
X21461765Y29774572D01*
X21470030Y29797671D01*
X21480520Y29819850D01*
X21493132Y29840893D01*
X21507747Y29860599D01*
X21524223Y29878777D01*
X21542401Y29895253D01*
X21562107Y29909868D01*
X21583150Y29922480D01*
X21605329Y29932970D01*
X21628428Y29941235D01*
X21652227Y29947196D01*
X21676495Y29950796D01*
X21700999Y29952000D01*
X22601001Y29952000D01*
X22625505Y29950796D01*
X22625505Y29950796D01*
G37*
D19*
X22151000Y29377000D03*
D10*
G36*
X22625505Y32000796D02*
X22649773Y31997196D01*
X22673572Y31991235D01*
X22696671Y31982970D01*
X22718850Y31972480D01*
X22739893Y31959868D01*
X22759599Y31945253D01*
X22777777Y31928777D01*
X22794253Y31910599D01*
X22808868Y31890893D01*
X22821480Y31869850D01*
X22831970Y31847671D01*
X22840235Y31824572D01*
X22846196Y31800773D01*
X22849796Y31776505D01*
X22851000Y31752001D01*
X22851000Y31101999D01*
X22849796Y31077495D01*
X22846196Y31053227D01*
X22840235Y31029428D01*
X22831970Y31006329D01*
X22821480Y30984150D01*
X22808868Y30963107D01*
X22794253Y30943401D01*
X22777777Y30925223D01*
X22759599Y30908747D01*
X22739893Y30894132D01*
X22718850Y30881520D01*
X22696671Y30871030D01*
X22673572Y30862765D01*
X22649773Y30856804D01*
X22625505Y30853204D01*
X22601001Y30852000D01*
X21700999Y30852000D01*
X21676495Y30853204D01*
X21652227Y30856804D01*
X21628428Y30862765D01*
X21605329Y30871030D01*
X21583150Y30881520D01*
X21562107Y30894132D01*
X21542401Y30908747D01*
X21524223Y30925223D01*
X21507747Y30943401D01*
X21493132Y30963107D01*
X21480520Y30984150D01*
X21470030Y31006329D01*
X21461765Y31029428D01*
X21455804Y31053227D01*
X21452204Y31077495D01*
X21451000Y31101999D01*
X21451000Y31752001D01*
X21452204Y31776505D01*
X21455804Y31800773D01*
X21461765Y31824572D01*
X21470030Y31847671D01*
X21480520Y31869850D01*
X21493132Y31890893D01*
X21507747Y31910599D01*
X21524223Y31928777D01*
X21542401Y31945253D01*
X21562107Y31959868D01*
X21583150Y31972480D01*
X21605329Y31982970D01*
X21628428Y31991235D01*
X21652227Y31997196D01*
X21676495Y32000796D01*
X21700999Y32002000D01*
X22601001Y32002000D01*
X22625505Y32000796D01*
X22625505Y32000796D01*
G37*
D19*
X22151000Y31427000D03*
G04 #@! TD*
D10*
G04 #@! TO.C,R2*
G36*
X27299505Y29950796D02*
X27323773Y29947196D01*
X27347572Y29941235D01*
X27370671Y29932970D01*
X27392850Y29922480D01*
X27413893Y29909868D01*
X27433599Y29895253D01*
X27451777Y29878777D01*
X27468253Y29860599D01*
X27482868Y29840893D01*
X27495480Y29819850D01*
X27505970Y29797671D01*
X27514235Y29774572D01*
X27520196Y29750773D01*
X27523796Y29726505D01*
X27525000Y29702001D01*
X27525000Y29051999D01*
X27523796Y29027495D01*
X27520196Y29003227D01*
X27514235Y28979428D01*
X27505970Y28956329D01*
X27495480Y28934150D01*
X27482868Y28913107D01*
X27468253Y28893401D01*
X27451777Y28875223D01*
X27433599Y28858747D01*
X27413893Y28844132D01*
X27392850Y28831520D01*
X27370671Y28821030D01*
X27347572Y28812765D01*
X27323773Y28806804D01*
X27299505Y28803204D01*
X27275001Y28802000D01*
X26374999Y28802000D01*
X26350495Y28803204D01*
X26326227Y28806804D01*
X26302428Y28812765D01*
X26279329Y28821030D01*
X26257150Y28831520D01*
X26236107Y28844132D01*
X26216401Y28858747D01*
X26198223Y28875223D01*
X26181747Y28893401D01*
X26167132Y28913107D01*
X26154520Y28934150D01*
X26144030Y28956329D01*
X26135765Y28979428D01*
X26129804Y29003227D01*
X26126204Y29027495D01*
X26125000Y29051999D01*
X26125000Y29702001D01*
X26126204Y29726505D01*
X26129804Y29750773D01*
X26135765Y29774572D01*
X26144030Y29797671D01*
X26154520Y29819850D01*
X26167132Y29840893D01*
X26181747Y29860599D01*
X26198223Y29878777D01*
X26216401Y29895253D01*
X26236107Y29909868D01*
X26257150Y29922480D01*
X26279329Y29932970D01*
X26302428Y29941235D01*
X26326227Y29947196D01*
X26350495Y29950796D01*
X26374999Y29952000D01*
X27275001Y29952000D01*
X27299505Y29950796D01*
X27299505Y29950796D01*
G37*
D19*
X26825000Y29377000D03*
D10*
G36*
X27299505Y32000796D02*
X27323773Y31997196D01*
X27347572Y31991235D01*
X27370671Y31982970D01*
X27392850Y31972480D01*
X27413893Y31959868D01*
X27433599Y31945253D01*
X27451777Y31928777D01*
X27468253Y31910599D01*
X27482868Y31890893D01*
X27495480Y31869850D01*
X27505970Y31847671D01*
X27514235Y31824572D01*
X27520196Y31800773D01*
X27523796Y31776505D01*
X27525000Y31752001D01*
X27525000Y31101999D01*
X27523796Y31077495D01*
X27520196Y31053227D01*
X27514235Y31029428D01*
X27505970Y31006329D01*
X27495480Y30984150D01*
X27482868Y30963107D01*
X27468253Y30943401D01*
X27451777Y30925223D01*
X27433599Y30908747D01*
X27413893Y30894132D01*
X27392850Y30881520D01*
X27370671Y30871030D01*
X27347572Y30862765D01*
X27323773Y30856804D01*
X27299505Y30853204D01*
X27275001Y30852000D01*
X26374999Y30852000D01*
X26350495Y30853204D01*
X26326227Y30856804D01*
X26302428Y30862765D01*
X26279329Y30871030D01*
X26257150Y30881520D01*
X26236107Y30894132D01*
X26216401Y30908747D01*
X26198223Y30925223D01*
X26181747Y30943401D01*
X26167132Y30963107D01*
X26154520Y30984150D01*
X26144030Y31006329D01*
X26135765Y31029428D01*
X26129804Y31053227D01*
X26126204Y31077495D01*
X26125000Y31101999D01*
X26125000Y31752001D01*
X26126204Y31776505D01*
X26129804Y31800773D01*
X26135765Y31824572D01*
X26144030Y31847671D01*
X26154520Y31869850D01*
X26167132Y31890893D01*
X26181747Y31910599D01*
X26198223Y31928777D01*
X26216401Y31945253D01*
X26236107Y31959868D01*
X26257150Y31972480D01*
X26279329Y31982970D01*
X26302428Y31991235D01*
X26326227Y31997196D01*
X26350495Y32000796D01*
X26374999Y32002000D01*
X27275001Y32002000D01*
X27299505Y32000796D01*
X27299505Y32000796D01*
G37*
D19*
X26825000Y31427000D03*
G04 #@! TD*
D10*
G04 #@! TO.C,R1*
G36*
X29636505Y32000796D02*
X29660773Y31997196D01*
X29684572Y31991235D01*
X29707671Y31982970D01*
X29729850Y31972480D01*
X29750893Y31959868D01*
X29770599Y31945253D01*
X29788777Y31928777D01*
X29805253Y31910599D01*
X29819868Y31890893D01*
X29832480Y31869850D01*
X29842970Y31847671D01*
X29851235Y31824572D01*
X29857196Y31800773D01*
X29860796Y31776505D01*
X29862000Y31752001D01*
X29862000Y31101999D01*
X29860796Y31077495D01*
X29857196Y31053227D01*
X29851235Y31029428D01*
X29842970Y31006329D01*
X29832480Y30984150D01*
X29819868Y30963107D01*
X29805253Y30943401D01*
X29788777Y30925223D01*
X29770599Y30908747D01*
X29750893Y30894132D01*
X29729850Y30881520D01*
X29707671Y30871030D01*
X29684572Y30862765D01*
X29660773Y30856804D01*
X29636505Y30853204D01*
X29612001Y30852000D01*
X28711999Y30852000D01*
X28687495Y30853204D01*
X28663227Y30856804D01*
X28639428Y30862765D01*
X28616329Y30871030D01*
X28594150Y30881520D01*
X28573107Y30894132D01*
X28553401Y30908747D01*
X28535223Y30925223D01*
X28518747Y30943401D01*
X28504132Y30963107D01*
X28491520Y30984150D01*
X28481030Y31006329D01*
X28472765Y31029428D01*
X28466804Y31053227D01*
X28463204Y31077495D01*
X28462000Y31101999D01*
X28462000Y31752001D01*
X28463204Y31776505D01*
X28466804Y31800773D01*
X28472765Y31824572D01*
X28481030Y31847671D01*
X28491520Y31869850D01*
X28504132Y31890893D01*
X28518747Y31910599D01*
X28535223Y31928777D01*
X28553401Y31945253D01*
X28573107Y31959868D01*
X28594150Y31972480D01*
X28616329Y31982970D01*
X28639428Y31991235D01*
X28663227Y31997196D01*
X28687495Y32000796D01*
X28711999Y32002000D01*
X29612001Y32002000D01*
X29636505Y32000796D01*
X29636505Y32000796D01*
G37*
D19*
X29162000Y31427000D03*
D10*
G36*
X29636505Y29950796D02*
X29660773Y29947196D01*
X29684572Y29941235D01*
X29707671Y29932970D01*
X29729850Y29922480D01*
X29750893Y29909868D01*
X29770599Y29895253D01*
X29788777Y29878777D01*
X29805253Y29860599D01*
X29819868Y29840893D01*
X29832480Y29819850D01*
X29842970Y29797671D01*
X29851235Y29774572D01*
X29857196Y29750773D01*
X29860796Y29726505D01*
X29862000Y29702001D01*
X29862000Y29051999D01*
X29860796Y29027495D01*
X29857196Y29003227D01*
X29851235Y28979428D01*
X29842970Y28956329D01*
X29832480Y28934150D01*
X29819868Y28913107D01*
X29805253Y28893401D01*
X29788777Y28875223D01*
X29770599Y28858747D01*
X29750893Y28844132D01*
X29729850Y28831520D01*
X29707671Y28821030D01*
X29684572Y28812765D01*
X29660773Y28806804D01*
X29636505Y28803204D01*
X29612001Y28802000D01*
X28711999Y28802000D01*
X28687495Y28803204D01*
X28663227Y28806804D01*
X28639428Y28812765D01*
X28616329Y28821030D01*
X28594150Y28831520D01*
X28573107Y28844132D01*
X28553401Y28858747D01*
X28535223Y28875223D01*
X28518747Y28893401D01*
X28504132Y28913107D01*
X28491520Y28934150D01*
X28481030Y28956329D01*
X28472765Y28979428D01*
X28466804Y29003227D01*
X28463204Y29027495D01*
X28462000Y29051999D01*
X28462000Y29702001D01*
X28463204Y29726505D01*
X28466804Y29750773D01*
X28472765Y29774572D01*
X28481030Y29797671D01*
X28491520Y29819850D01*
X28504132Y29840893D01*
X28518747Y29860599D01*
X28535223Y29878777D01*
X28553401Y29895253D01*
X28573107Y29909868D01*
X28594150Y29922480D01*
X28616329Y29932970D01*
X28639428Y29941235D01*
X28663227Y29947196D01*
X28687495Y29950796D01*
X28711999Y29952000D01*
X29612001Y29952000D01*
X29636505Y29950796D01*
X29636505Y29950796D01*
G37*
D19*
X29162000Y29377000D03*
G04 #@! TD*
D10*
G04 #@! TO.C,C6*
G36*
X22876505Y52130796D02*
X22900773Y52127196D01*
X22924572Y52121235D01*
X22947671Y52112970D01*
X22969850Y52102480D01*
X22990893Y52089868D01*
X23010599Y52075253D01*
X23028777Y52058777D01*
X23045253Y52040599D01*
X23059868Y52020893D01*
X23072480Y51999850D01*
X23082970Y51977671D01*
X23091235Y51954572D01*
X23097196Y51930773D01*
X23100796Y51906505D01*
X23102000Y51882001D01*
X23102000Y51231999D01*
X23100796Y51207495D01*
X23097196Y51183227D01*
X23091235Y51159428D01*
X23082970Y51136329D01*
X23072480Y51114150D01*
X23059868Y51093107D01*
X23045253Y51073401D01*
X23028777Y51055223D01*
X23010599Y51038747D01*
X22990893Y51024132D01*
X22969850Y51011520D01*
X22947671Y51001030D01*
X22924572Y50992765D01*
X22900773Y50986804D01*
X22876505Y50983204D01*
X22852001Y50982000D01*
X21951999Y50982000D01*
X21927495Y50983204D01*
X21903227Y50986804D01*
X21879428Y50992765D01*
X21856329Y51001030D01*
X21834150Y51011520D01*
X21813107Y51024132D01*
X21793401Y51038747D01*
X21775223Y51055223D01*
X21758747Y51073401D01*
X21744132Y51093107D01*
X21731520Y51114150D01*
X21721030Y51136329D01*
X21712765Y51159428D01*
X21706804Y51183227D01*
X21703204Y51207495D01*
X21702000Y51231999D01*
X21702000Y51882001D01*
X21703204Y51906505D01*
X21706804Y51930773D01*
X21712765Y51954572D01*
X21721030Y51977671D01*
X21731520Y51999850D01*
X21744132Y52020893D01*
X21758747Y52040599D01*
X21775223Y52058777D01*
X21793401Y52075253D01*
X21813107Y52089868D01*
X21834150Y52102480D01*
X21856329Y52112970D01*
X21879428Y52121235D01*
X21903227Y52127196D01*
X21927495Y52130796D01*
X21951999Y52132000D01*
X22852001Y52132000D01*
X22876505Y52130796D01*
X22876505Y52130796D01*
G37*
D19*
X22402000Y51557000D03*
D10*
G36*
X22876505Y50080796D02*
X22900773Y50077196D01*
X22924572Y50071235D01*
X22947671Y50062970D01*
X22969850Y50052480D01*
X22990893Y50039868D01*
X23010599Y50025253D01*
X23028777Y50008777D01*
X23045253Y49990599D01*
X23059868Y49970893D01*
X23072480Y49949850D01*
X23082970Y49927671D01*
X23091235Y49904572D01*
X23097196Y49880773D01*
X23100796Y49856505D01*
X23102000Y49832001D01*
X23102000Y49181999D01*
X23100796Y49157495D01*
X23097196Y49133227D01*
X23091235Y49109428D01*
X23082970Y49086329D01*
X23072480Y49064150D01*
X23059868Y49043107D01*
X23045253Y49023401D01*
X23028777Y49005223D01*
X23010599Y48988747D01*
X22990893Y48974132D01*
X22969850Y48961520D01*
X22947671Y48951030D01*
X22924572Y48942765D01*
X22900773Y48936804D01*
X22876505Y48933204D01*
X22852001Y48932000D01*
X21951999Y48932000D01*
X21927495Y48933204D01*
X21903227Y48936804D01*
X21879428Y48942765D01*
X21856329Y48951030D01*
X21834150Y48961520D01*
X21813107Y48974132D01*
X21793401Y48988747D01*
X21775223Y49005223D01*
X21758747Y49023401D01*
X21744132Y49043107D01*
X21731520Y49064150D01*
X21721030Y49086329D01*
X21712765Y49109428D01*
X21706804Y49133227D01*
X21703204Y49157495D01*
X21702000Y49181999D01*
X21702000Y49832001D01*
X21703204Y49856505D01*
X21706804Y49880773D01*
X21712765Y49904572D01*
X21721030Y49927671D01*
X21731520Y49949850D01*
X21744132Y49970893D01*
X21758747Y49990599D01*
X21775223Y50008777D01*
X21793401Y50025253D01*
X21813107Y50039868D01*
X21834150Y50052480D01*
X21856329Y50062970D01*
X21879428Y50071235D01*
X21903227Y50077196D01*
X21927495Y50080796D01*
X21951999Y50082000D01*
X22852001Y50082000D01*
X22876505Y50080796D01*
X22876505Y50080796D01*
G37*
D19*
X22402000Y49507000D03*
G04 #@! TD*
D10*
G04 #@! TO.C,C4*
G36*
X29836505Y57100796D02*
X29860773Y57097196D01*
X29884572Y57091235D01*
X29907671Y57082970D01*
X29929850Y57072480D01*
X29950893Y57059868D01*
X29970599Y57045253D01*
X29988777Y57028777D01*
X30005253Y57010599D01*
X30019868Y56990893D01*
X30032480Y56969850D01*
X30042970Y56947671D01*
X30051235Y56924572D01*
X30057196Y56900773D01*
X30060796Y56876505D01*
X30062000Y56852001D01*
X30062000Y56201999D01*
X30060796Y56177495D01*
X30057196Y56153227D01*
X30051235Y56129428D01*
X30042970Y56106329D01*
X30032480Y56084150D01*
X30019868Y56063107D01*
X30005253Y56043401D01*
X29988777Y56025223D01*
X29970599Y56008747D01*
X29950893Y55994132D01*
X29929850Y55981520D01*
X29907671Y55971030D01*
X29884572Y55962765D01*
X29860773Y55956804D01*
X29836505Y55953204D01*
X29812001Y55952000D01*
X28911999Y55952000D01*
X28887495Y55953204D01*
X28863227Y55956804D01*
X28839428Y55962765D01*
X28816329Y55971030D01*
X28794150Y55981520D01*
X28773107Y55994132D01*
X28753401Y56008747D01*
X28735223Y56025223D01*
X28718747Y56043401D01*
X28704132Y56063107D01*
X28691520Y56084150D01*
X28681030Y56106329D01*
X28672765Y56129428D01*
X28666804Y56153227D01*
X28663204Y56177495D01*
X28662000Y56201999D01*
X28662000Y56852001D01*
X28663204Y56876505D01*
X28666804Y56900773D01*
X28672765Y56924572D01*
X28681030Y56947671D01*
X28691520Y56969850D01*
X28704132Y56990893D01*
X28718747Y57010599D01*
X28735223Y57028777D01*
X28753401Y57045253D01*
X28773107Y57059868D01*
X28794150Y57072480D01*
X28816329Y57082970D01*
X28839428Y57091235D01*
X28863227Y57097196D01*
X28887495Y57100796D01*
X28911999Y57102000D01*
X29812001Y57102000D01*
X29836505Y57100796D01*
X29836505Y57100796D01*
G37*
D19*
X29362000Y56527000D03*
D10*
G36*
X29836505Y59150796D02*
X29860773Y59147196D01*
X29884572Y59141235D01*
X29907671Y59132970D01*
X29929850Y59122480D01*
X29950893Y59109868D01*
X29970599Y59095253D01*
X29988777Y59078777D01*
X30005253Y59060599D01*
X30019868Y59040893D01*
X30032480Y59019850D01*
X30042970Y58997671D01*
X30051235Y58974572D01*
X30057196Y58950773D01*
X30060796Y58926505D01*
X30062000Y58902001D01*
X30062000Y58251999D01*
X30060796Y58227495D01*
X30057196Y58203227D01*
X30051235Y58179428D01*
X30042970Y58156329D01*
X30032480Y58134150D01*
X30019868Y58113107D01*
X30005253Y58093401D01*
X29988777Y58075223D01*
X29970599Y58058747D01*
X29950893Y58044132D01*
X29929850Y58031520D01*
X29907671Y58021030D01*
X29884572Y58012765D01*
X29860773Y58006804D01*
X29836505Y58003204D01*
X29812001Y58002000D01*
X28911999Y58002000D01*
X28887495Y58003204D01*
X28863227Y58006804D01*
X28839428Y58012765D01*
X28816329Y58021030D01*
X28794150Y58031520D01*
X28773107Y58044132D01*
X28753401Y58058747D01*
X28735223Y58075223D01*
X28718747Y58093401D01*
X28704132Y58113107D01*
X28691520Y58134150D01*
X28681030Y58156329D01*
X28672765Y58179428D01*
X28666804Y58203227D01*
X28663204Y58227495D01*
X28662000Y58251999D01*
X28662000Y58902001D01*
X28663204Y58926505D01*
X28666804Y58950773D01*
X28672765Y58974572D01*
X28681030Y58997671D01*
X28691520Y59019850D01*
X28704132Y59040893D01*
X28718747Y59060599D01*
X28735223Y59078777D01*
X28753401Y59095253D01*
X28773107Y59109868D01*
X28794150Y59122480D01*
X28816329Y59132970D01*
X28839428Y59141235D01*
X28863227Y59147196D01*
X28887495Y59150796D01*
X28911999Y59152000D01*
X29812001Y59152000D01*
X29836505Y59150796D01*
X29836505Y59150796D01*
G37*
D19*
X29362000Y58577000D03*
G04 #@! TD*
D10*
G04 #@! TO.C,C3*
G36*
X24341504Y57355796D02*
X24365773Y57352196D01*
X24389571Y57346235D01*
X24412671Y57337970D01*
X24434849Y57327480D01*
X24455893Y57314867D01*
X24475598Y57300253D01*
X24493777Y57283777D01*
X24510253Y57265598D01*
X24524867Y57245893D01*
X24537480Y57224849D01*
X24547970Y57202671D01*
X24556235Y57179571D01*
X24562196Y57155773D01*
X24565796Y57131504D01*
X24567000Y57107000D01*
X24567000Y55857000D01*
X24565796Y55832496D01*
X24562196Y55808227D01*
X24556235Y55784429D01*
X24547970Y55761329D01*
X24537480Y55739151D01*
X24524867Y55718107D01*
X24510253Y55698402D01*
X24493777Y55680223D01*
X24475598Y55663747D01*
X24455893Y55649133D01*
X24434849Y55636520D01*
X24412671Y55626030D01*
X24389571Y55617765D01*
X24365773Y55611804D01*
X24341504Y55608204D01*
X24317000Y55607000D01*
X23392000Y55607000D01*
X23367496Y55608204D01*
X23343227Y55611804D01*
X23319429Y55617765D01*
X23296329Y55626030D01*
X23274151Y55636520D01*
X23253107Y55649133D01*
X23233402Y55663747D01*
X23215223Y55680223D01*
X23198747Y55698402D01*
X23184133Y55718107D01*
X23171520Y55739151D01*
X23161030Y55761329D01*
X23152765Y55784429D01*
X23146804Y55808227D01*
X23143204Y55832496D01*
X23142000Y55857000D01*
X23142000Y57107000D01*
X23143204Y57131504D01*
X23146804Y57155773D01*
X23152765Y57179571D01*
X23161030Y57202671D01*
X23171520Y57224849D01*
X23184133Y57245893D01*
X23198747Y57265598D01*
X23215223Y57283777D01*
X23233402Y57300253D01*
X23253107Y57314867D01*
X23274151Y57327480D01*
X23296329Y57337970D01*
X23319429Y57346235D01*
X23343227Y57352196D01*
X23367496Y57355796D01*
X23392000Y57357000D01*
X24317000Y57357000D01*
X24341504Y57355796D01*
X24341504Y57355796D01*
G37*
D17*
X23854500Y56482000D03*
D10*
G36*
X27316504Y57355796D02*
X27340773Y57352196D01*
X27364571Y57346235D01*
X27387671Y57337970D01*
X27409849Y57327480D01*
X27430893Y57314867D01*
X27450598Y57300253D01*
X27468777Y57283777D01*
X27485253Y57265598D01*
X27499867Y57245893D01*
X27512480Y57224849D01*
X27522970Y57202671D01*
X27531235Y57179571D01*
X27537196Y57155773D01*
X27540796Y57131504D01*
X27542000Y57107000D01*
X27542000Y55857000D01*
X27540796Y55832496D01*
X27537196Y55808227D01*
X27531235Y55784429D01*
X27522970Y55761329D01*
X27512480Y55739151D01*
X27499867Y55718107D01*
X27485253Y55698402D01*
X27468777Y55680223D01*
X27450598Y55663747D01*
X27430893Y55649133D01*
X27409849Y55636520D01*
X27387671Y55626030D01*
X27364571Y55617765D01*
X27340773Y55611804D01*
X27316504Y55608204D01*
X27292000Y55607000D01*
X26367000Y55607000D01*
X26342496Y55608204D01*
X26318227Y55611804D01*
X26294429Y55617765D01*
X26271329Y55626030D01*
X26249151Y55636520D01*
X26228107Y55649133D01*
X26208402Y55663747D01*
X26190223Y55680223D01*
X26173747Y55698402D01*
X26159133Y55718107D01*
X26146520Y55739151D01*
X26136030Y55761329D01*
X26127765Y55784429D01*
X26121804Y55808227D01*
X26118204Y55832496D01*
X26117000Y55857000D01*
X26117000Y57107000D01*
X26118204Y57131504D01*
X26121804Y57155773D01*
X26127765Y57179571D01*
X26136030Y57202671D01*
X26146520Y57224849D01*
X26159133Y57245893D01*
X26173747Y57265598D01*
X26190223Y57283777D01*
X26208402Y57300253D01*
X26228107Y57314867D01*
X26249151Y57327480D01*
X26271329Y57337970D01*
X26294429Y57346235D01*
X26318227Y57352196D01*
X26342496Y57355796D01*
X26367000Y57357000D01*
X27292000Y57357000D01*
X27316504Y57355796D01*
X27316504Y57355796D01*
G37*
D17*
X26829500Y56482000D03*
G04 #@! TD*
M02*
