%FSLAX45Y45*%
G04 Gerber Fmt 4.5, Leading zero omitted, Abs format (unit mm)*
G04 Created by KiCad (PCBNEW (5.0.2)-1) date 24/03/2019 18:15:22*
%MOMM*%
%LPD*%
G01*
G04 APERTURE LIST*
%ADD10C,0.150000*%
%ADD11C,0.200000*%
%ADD12C,0.300000*%
G04 APERTURE END LIST*
D10*
X5067200Y4355200D02*
X5067200Y4855245D01*
X3367200Y4355200D02*
X5067200Y4355200D01*
X5067200Y3375200D02*
X5067200Y2875155D01*
X3367200Y3375200D02*
X5067200Y3375200D01*
X6425311Y4855245D02*
G75*
G03X1317200Y3865200I-2458111J-990045D01*
G01*
X5067200Y2875155D02*
X6425311Y2875155D01*
X6425311Y2875155D02*
G75*
G02X1317200Y3865200I-2458111J990045D01*
G01*
X5067200Y4855245D02*
X6425311Y4855245D01*
X3367200Y4355200D02*
X3367200Y3375200D01*
D11*
X2562200Y5012200D02*
X2602200Y4972200D01*
X2602200Y5012200D02*
X2562200Y4972200D01*
X2854200Y4825200D02*
X2894200Y4785200D01*
X2894200Y4825200D02*
X2854200Y4785200D01*
X3191200Y5593200D02*
X3231200Y5553200D01*
X3231200Y5593200D02*
X3191200Y5553200D01*
X3191200Y5477200D02*
X3231200Y5437200D01*
X3231200Y5477200D02*
X3191200Y5437200D01*
X3191200Y5361200D02*
X3231200Y5321200D01*
X3231200Y5361200D02*
X3191200Y5321200D01*
X3302700Y5361200D02*
X3342700Y5321200D01*
X3342700Y5361200D02*
X3302700Y5321200D01*
X3414200Y5361200D02*
X3454200Y5321200D01*
X3454200Y5361200D02*
X3414200Y5321200D01*
X2769200Y5288200D02*
X2809200Y5248200D01*
X2809200Y5288200D02*
X2769200Y5248200D01*
X2769200Y5178200D02*
X2809200Y5138200D01*
X2809200Y5178200D02*
X2769200Y5138200D01*
X2769200Y5068200D02*
X2809200Y5028200D01*
X2809200Y5068200D02*
X2769200Y5028200D01*
X2824200Y5233200D02*
X2864200Y5193200D01*
X2864200Y5233200D02*
X2824200Y5193200D01*
X2824200Y5123200D02*
X2864200Y5083200D01*
X2864200Y5123200D02*
X2824200Y5083200D01*
X2879200Y5288200D02*
X2919200Y5248200D01*
X2919200Y5288200D02*
X2879200Y5248200D01*
X2879200Y5178200D02*
X2919200Y5138200D01*
X2919200Y5178200D02*
X2879200Y5138200D01*
X2879200Y5068200D02*
X2919200Y5028200D01*
X2919200Y5068200D02*
X2879200Y5028200D01*
X2934200Y5233200D02*
X2974200Y5193200D01*
X2974200Y5233200D02*
X2934200Y5193200D01*
X2934200Y5123200D02*
X2974200Y5083200D01*
X2974200Y5123200D02*
X2934200Y5083200D01*
X2989200Y5288200D02*
X3029200Y5248200D01*
X3029200Y5288200D02*
X2989200Y5248200D01*
X2989200Y5178200D02*
X3029200Y5138200D01*
X3029200Y5178200D02*
X2989200Y5138200D01*
X2989200Y5068200D02*
X3029200Y5028200D01*
X3029200Y5068200D02*
X2989200Y5028200D01*
X2087200Y5200200D02*
G75*
G03X2087200Y5200200I-25000J0D01*
G01*
X2089200Y4570200D02*
G75*
G03X2089200Y4570200I-25000J0D01*
G01*
X2091200Y4863200D02*
G75*
G03X2091200Y4863200I-25000J0D01*
G01*
X2198200Y5611200D02*
G75*
G03X2198200Y5611200I-25000J0D01*
G01*
X2389200Y2284200D02*
G75*
G03X2389200Y2284200I-25000J0D01*
G01*
X2502200Y5876200D02*
G75*
G03X2502200Y5876200I-25000J0D01*
G01*
X2565200Y2144200D02*
G75*
G03X2565200Y2144200I-25000J0D01*
G01*
X2707200Y5812200D02*
G75*
G03X2707200Y5812200I-25000J0D01*
G01*
X3610200Y5407200D02*
G75*
G03X3610200Y5407200I-25000J0D01*
G01*
X3610200Y5244200D02*
G75*
G03X3610200Y5244200I-25000J0D01*
G01*
X4700200Y2822200D02*
G75*
G03X4700200Y2822200I-25000J0D01*
G01*
X4852200Y4812300D02*
X4852200Y4736100D01*
X4814100Y4774200D02*
X4890300Y4774200D01*
X4852200Y4558300D02*
X4852200Y4482100D01*
X4814100Y4520200D02*
X4890300Y4520200D01*
X2222556Y3893844D02*
X2222556Y3964556D01*
X2151844Y3964556D01*
X2151844Y3893844D01*
X2222556Y3893844D01*
X2615556Y2584844D02*
X2615556Y2655556D01*
X2544844Y2655556D01*
X2544844Y2584844D01*
X2615556Y2584844D01*
X3222556Y4210844D02*
X3222556Y4281556D01*
X3151844Y4281556D01*
X3151844Y4210844D01*
X3222556Y4210844D01*
X3222556Y3912844D02*
X3222556Y3983556D01*
X3151844Y3983556D01*
X3151844Y3912844D01*
X3222556Y3912844D01*
X4250556Y4765844D02*
X4250556Y4836556D01*
X4179844Y4836556D01*
X4179844Y4765844D01*
X4250556Y4765844D01*
X4564056Y2191344D02*
X4564056Y2262056D01*
X4493344Y2262056D01*
X4493344Y2191344D01*
X4564056Y2191344D01*
X3523356Y3178744D02*
X3523356Y3249456D01*
X3452644Y3249456D01*
X3452644Y3178744D01*
X3523356Y3178744D01*
X3523356Y1908744D02*
X3523356Y1979456D01*
X3452644Y1979456D01*
X3452644Y1908744D01*
X3523356Y1908744D01*
X3777356Y3178744D02*
X3777356Y3249456D01*
X3706644Y3249456D01*
X3706644Y3178744D01*
X3777356Y3178744D01*
X3777356Y1908744D02*
X3777356Y1979456D01*
X3706644Y1979456D01*
X3706644Y1908744D01*
X3777356Y1908744D01*
X4031356Y3178744D02*
X4031356Y3249456D01*
X3960644Y3249456D01*
X3960644Y3178744D01*
X4031356Y3178744D01*
X4031356Y1908744D02*
X4031356Y1979456D01*
X3960644Y1979456D01*
X3960644Y1908744D01*
X4031356Y1908744D01*
X4285356Y3178744D02*
X4285356Y3249456D01*
X4214644Y3249456D01*
X4214644Y3178744D01*
X4285356Y3178744D01*
X4285356Y1908744D02*
X4285356Y1979456D01*
X4214644Y1979456D01*
X4214644Y1908744D01*
X4285356Y1908744D01*
X4539356Y3178744D02*
X4539356Y3249456D01*
X4468644Y3249456D01*
X4468644Y3178744D01*
X4539356Y3178744D01*
X4539356Y1908744D02*
X4539356Y1979456D01*
X4468644Y1979456D01*
X4468644Y1908744D01*
X4539356Y1908744D01*
X4793356Y3178744D02*
X4793356Y3249456D01*
X4722644Y3249456D01*
X4722644Y3178744D01*
X4793356Y3178744D01*
X1883556Y3886913D02*
X1883556Y3957624D01*
X1812844Y3957624D01*
X1812844Y3886913D01*
X1883556Y3886913D01*
X1883556Y3636913D02*
X1883556Y3707624D01*
X1812844Y3707624D01*
X1812844Y3636913D01*
X1883556Y3636913D01*
X4795356Y1908744D02*
X4795356Y1979456D01*
X4724644Y1979456D01*
X4724644Y1908744D01*
X4795356Y1908744D01*
X5049356Y1908744D02*
X5049356Y1979456D01*
X4978644Y1979456D01*
X4978644Y1908744D01*
X5049356Y1908744D01*
X5613200Y2547700D02*
X5673200Y2607700D01*
X5613200Y2667700D01*
X5553200Y2607700D01*
X5613200Y2547700D01*
X5613200Y2166700D02*
X5673200Y2226700D01*
X5613200Y2286700D01*
X5553200Y2226700D01*
X5613200Y2166700D01*
X5223600Y5647600D02*
X5393600Y5477600D01*
X5393600Y5647600D02*
X5223600Y5477600D01*
X5393600Y5562600D02*
G75*
G03X5393600Y5562600I-85000J0D01*
G01*
X5223600Y5251600D02*
X5393600Y5081600D01*
X5393600Y5251600D02*
X5223600Y5081600D01*
X5393600Y5166600D02*
G75*
G03X5393600Y5166600I-85000J0D01*
G01*
D12*
X1596128Y741986D02*
X1596128Y1041986D01*
X1667557Y1041986D01*
X1710414Y1027700D01*
X1738986Y999128D01*
X1753271Y970557D01*
X1767557Y913414D01*
X1767557Y870557D01*
X1753271Y813414D01*
X1738986Y784843D01*
X1710414Y756271D01*
X1667557Y741986D01*
X1596128Y741986D01*
X1896128Y741986D02*
X1896128Y941986D01*
X1896128Y884843D02*
X1910414Y913414D01*
X1924700Y927700D01*
X1953271Y941986D01*
X1981843Y941986D01*
X2081843Y741986D02*
X2081843Y941986D01*
X2081843Y1041986D02*
X2067557Y1027700D01*
X2081843Y1013414D01*
X2096128Y1027700D01*
X2081843Y1041986D01*
X2081843Y1013414D01*
X2267557Y741986D02*
X2238986Y756271D01*
X2224700Y784843D01*
X2224700Y1041986D01*
X2424700Y741986D02*
X2396128Y756271D01*
X2381843Y784843D01*
X2381843Y1041986D01*
X2767557Y741986D02*
X2767557Y1041986D01*
X2867557Y827700D01*
X2967557Y1041986D01*
X2967557Y741986D01*
X3238986Y741986D02*
X3238986Y899128D01*
X3224700Y927700D01*
X3196128Y941986D01*
X3138986Y941986D01*
X3110414Y927700D01*
X3238986Y756271D02*
X3210414Y741986D01*
X3138986Y741986D01*
X3110414Y756271D01*
X3096128Y784843D01*
X3096128Y813414D01*
X3110414Y841986D01*
X3138986Y856271D01*
X3210414Y856271D01*
X3238986Y870557D01*
X3381843Y941986D02*
X3381843Y641986D01*
X3381843Y927700D02*
X3410414Y941986D01*
X3467557Y941986D01*
X3496128Y927700D01*
X3510414Y913414D01*
X3524700Y884843D01*
X3524700Y799128D01*
X3510414Y770557D01*
X3496128Y756271D01*
X3467557Y741986D01*
X3410414Y741986D01*
X3381843Y756271D01*
X3653271Y770557D02*
X3667557Y756271D01*
X3653271Y741986D01*
X3638986Y756271D01*
X3653271Y770557D01*
X3653271Y741986D01*
X3653271Y927700D02*
X3667557Y913414D01*
X3653271Y899128D01*
X3638986Y913414D01*
X3653271Y927700D01*
X3653271Y899128D01*
X1269700Y267700D02*
X1309700Y227700D01*
X1309700Y267700D02*
X1269700Y227700D01*
X1653271Y411986D02*
X1681843Y411986D01*
X1710414Y397700D01*
X1724700Y383414D01*
X1738986Y354843D01*
X1753271Y297700D01*
X1753271Y226271D01*
X1738986Y169129D01*
X1724700Y140557D01*
X1710414Y126271D01*
X1681843Y111986D01*
X1653271Y111986D01*
X1624700Y126271D01*
X1610414Y140557D01*
X1596128Y169129D01*
X1581843Y226271D01*
X1581843Y297700D01*
X1596128Y354843D01*
X1610414Y383414D01*
X1624700Y397700D01*
X1653271Y411986D01*
X1881843Y140557D02*
X1896128Y126271D01*
X1881843Y111986D01*
X1867557Y126271D01*
X1881843Y140557D01*
X1881843Y111986D01*
X2153271Y311986D02*
X2153271Y111986D01*
X2081843Y426271D02*
X2010414Y211986D01*
X2196128Y211986D01*
X2367557Y411986D02*
X2396128Y411986D01*
X2424700Y397700D01*
X2438986Y383414D01*
X2453271Y354843D01*
X2467557Y297700D01*
X2467557Y226271D01*
X2453271Y169129D01*
X2438986Y140557D01*
X2424700Y126271D01*
X2396128Y111986D01*
X2367557Y111986D01*
X2338986Y126271D01*
X2324700Y140557D01*
X2310414Y169129D01*
X2296128Y226271D01*
X2296128Y297700D01*
X2310414Y354843D01*
X2324700Y383414D01*
X2338986Y397700D01*
X2367557Y411986D01*
X2596128Y111986D02*
X2596128Y311986D01*
X2596128Y283414D02*
X2610414Y297700D01*
X2638986Y311986D01*
X2681843Y311986D01*
X2710414Y297700D01*
X2724700Y269129D01*
X2724700Y111986D01*
X2724700Y269129D02*
X2738986Y297700D01*
X2767557Y311986D01*
X2810414Y311986D01*
X2838986Y297700D01*
X2853271Y269129D01*
X2853271Y111986D01*
X2996128Y111986D02*
X2996128Y311986D01*
X2996128Y283414D02*
X3010414Y297700D01*
X3038986Y311986D01*
X3081843Y311986D01*
X3110414Y297700D01*
X3124700Y269129D01*
X3124700Y111986D01*
X3124700Y269129D02*
X3138986Y297700D01*
X3167557Y311986D01*
X3210414Y311986D01*
X3238986Y297700D01*
X3253271Y269129D01*
X3253271Y111986D01*
X3838986Y426271D02*
X3581843Y40557D01*
X4224700Y411986D02*
X4253271Y411986D01*
X4281843Y397700D01*
X4296128Y383414D01*
X4310414Y354843D01*
X4324700Y297700D01*
X4324700Y226271D01*
X4310414Y169129D01*
X4296128Y140557D01*
X4281843Y126271D01*
X4253271Y111986D01*
X4224700Y111986D01*
X4196128Y126271D01*
X4181843Y140557D01*
X4167557Y169129D01*
X4153271Y226271D01*
X4153271Y297700D01*
X4167557Y354843D01*
X4181843Y383414D01*
X4196128Y397700D01*
X4224700Y411986D01*
X4453271Y140557D02*
X4467557Y126271D01*
X4453271Y111986D01*
X4438986Y126271D01*
X4453271Y140557D01*
X4453271Y111986D01*
X4653271Y411986D02*
X4681843Y411986D01*
X4710414Y397700D01*
X4724700Y383414D01*
X4738986Y354843D01*
X4753271Y297700D01*
X4753271Y226271D01*
X4738986Y169129D01*
X4724700Y140557D01*
X4710414Y126271D01*
X4681843Y111986D01*
X4653271Y111986D01*
X4624700Y126271D01*
X4610414Y140557D01*
X4596128Y169129D01*
X4581843Y226271D01*
X4581843Y297700D01*
X4596128Y354843D01*
X4610414Y383414D01*
X4624700Y397700D01*
X4653271Y411986D01*
X5038986Y111986D02*
X4867557Y111986D01*
X4953271Y111986D02*
X4953271Y411986D01*
X4924700Y369128D01*
X4896128Y340557D01*
X4867557Y326271D01*
X5296128Y411986D02*
X5238986Y411986D01*
X5210414Y397700D01*
X5196128Y383414D01*
X5167557Y340557D01*
X5153271Y283414D01*
X5153271Y169129D01*
X5167557Y140557D01*
X5181843Y126271D01*
X5210414Y111986D01*
X5267557Y111986D01*
X5296128Y126271D01*
X5310414Y140557D01*
X5324700Y169129D01*
X5324700Y240557D01*
X5310414Y269129D01*
X5296128Y283414D01*
X5267557Y297700D01*
X5210414Y297700D01*
X5181843Y283414D01*
X5167557Y269129D01*
X5153271Y240557D01*
X5438986Y411986D02*
X5438986Y354843D01*
X5553271Y411986D02*
X5553271Y354843D01*
X5996128Y-2300D02*
X5981843Y11986D01*
X5953271Y54843D01*
X5938986Y83414D01*
X5924700Y126271D01*
X5910414Y197700D01*
X5910414Y254843D01*
X5924700Y326271D01*
X5938986Y369128D01*
X5953271Y397700D01*
X5981843Y440557D01*
X5996128Y454843D01*
X6096128Y383414D02*
X6110414Y397700D01*
X6138986Y411986D01*
X6210414Y411986D01*
X6238986Y397700D01*
X6253271Y383414D01*
X6267557Y354843D01*
X6267557Y326271D01*
X6253271Y283414D01*
X6081843Y111986D01*
X6267557Y111986D01*
X6453271Y411986D02*
X6481843Y411986D01*
X6510414Y397700D01*
X6524700Y383414D01*
X6538986Y354843D01*
X6553271Y297700D01*
X6553271Y226271D01*
X6538986Y169129D01*
X6524700Y140557D01*
X6510414Y126271D01*
X6481843Y111986D01*
X6453271Y111986D01*
X6424700Y126271D01*
X6410414Y140557D01*
X6396128Y169129D01*
X6381843Y226271D01*
X6381843Y297700D01*
X6396128Y354843D01*
X6410414Y383414D01*
X6424700Y397700D01*
X6453271Y411986D01*
X6910414Y111986D02*
X6910414Y411986D01*
X7038986Y111986D02*
X7038986Y269129D01*
X7024700Y297700D01*
X6996128Y311986D01*
X6953271Y311986D01*
X6924700Y297700D01*
X6910414Y283414D01*
X7224700Y111986D02*
X7196128Y126271D01*
X7181843Y140557D01*
X7167557Y169129D01*
X7167557Y254843D01*
X7181843Y283414D01*
X7196128Y297700D01*
X7224700Y311986D01*
X7267557Y311986D01*
X7296128Y297700D01*
X7310414Y283414D01*
X7324700Y254843D01*
X7324700Y169129D01*
X7310414Y140557D01*
X7296128Y126271D01*
X7267557Y111986D01*
X7224700Y111986D01*
X7496128Y111986D02*
X7467557Y126271D01*
X7453271Y154843D01*
X7453271Y411986D01*
X7724700Y126271D02*
X7696128Y111986D01*
X7638986Y111986D01*
X7610414Y126271D01*
X7596128Y154843D01*
X7596128Y269129D01*
X7610414Y297700D01*
X7638986Y311986D01*
X7696128Y311986D01*
X7724700Y297700D01*
X7738986Y269129D01*
X7738986Y240557D01*
X7596128Y211986D01*
X7853271Y126271D02*
X7881843Y111986D01*
X7938986Y111986D01*
X7967557Y126271D01*
X7981843Y154843D01*
X7981843Y169129D01*
X7967557Y197700D01*
X7938986Y211986D01*
X7896128Y211986D01*
X7867557Y226271D01*
X7853271Y254843D01*
X7853271Y269129D01*
X7867557Y297700D01*
X7896128Y311986D01*
X7938986Y311986D01*
X7967557Y297700D01*
X8081843Y-2300D02*
X8096128Y11986D01*
X8124700Y54843D01*
X8138986Y83414D01*
X8153271Y126271D01*
X8167557Y197700D01*
X8167557Y254843D01*
X8153271Y326271D01*
X8138986Y369128D01*
X8124700Y397700D01*
X8096128Y440557D01*
X8081843Y454843D01*
X1309700Y-148300D02*
G75*
G03X1309700Y-148300I-25000J0D01*
G01*
X1653271Y15986D02*
X1681843Y15986D01*
X1710414Y1700D01*
X1724700Y-12586D01*
X1738986Y-41157D01*
X1753271Y-98300D01*
X1753271Y-169729D01*
X1738986Y-226871D01*
X1724700Y-255443D01*
X1710414Y-269729D01*
X1681843Y-284014D01*
X1653271Y-284014D01*
X1624700Y-269729D01*
X1610414Y-255443D01*
X1596128Y-226871D01*
X1581843Y-169729D01*
X1581843Y-98300D01*
X1596128Y-41157D01*
X1610414Y-12586D01*
X1624700Y1700D01*
X1653271Y15986D01*
X1881843Y-255443D02*
X1896128Y-269729D01*
X1881843Y-284014D01*
X1867557Y-269729D01*
X1881843Y-255443D01*
X1881843Y-284014D01*
X2167557Y15986D02*
X2024700Y15986D01*
X2010414Y-126871D01*
X2024700Y-112586D01*
X2053271Y-98300D01*
X2124700Y-98300D01*
X2153271Y-112586D01*
X2167557Y-126871D01*
X2181843Y-155443D01*
X2181843Y-226871D01*
X2167557Y-255443D01*
X2153271Y-269729D01*
X2124700Y-284014D01*
X2053271Y-284014D01*
X2024700Y-269729D01*
X2010414Y-255443D01*
X2367557Y15986D02*
X2396128Y15986D01*
X2424700Y1700D01*
X2438986Y-12586D01*
X2453271Y-41157D01*
X2467557Y-98300D01*
X2467557Y-169729D01*
X2453271Y-226871D01*
X2438986Y-255443D01*
X2424700Y-269729D01*
X2396128Y-284014D01*
X2367557Y-284014D01*
X2338986Y-269729D01*
X2324700Y-255443D01*
X2310414Y-226871D01*
X2296128Y-169729D01*
X2296128Y-98300D01*
X2310414Y-41157D01*
X2324700Y-12586D01*
X2338986Y1700D01*
X2367557Y15986D01*
X2596128Y-284014D02*
X2596128Y-84014D01*
X2596128Y-112586D02*
X2610414Y-98300D01*
X2638986Y-84014D01*
X2681843Y-84014D01*
X2710414Y-98300D01*
X2724700Y-126871D01*
X2724700Y-284014D01*
X2724700Y-126871D02*
X2738986Y-98300D01*
X2767557Y-84014D01*
X2810414Y-84014D01*
X2838986Y-98300D01*
X2853271Y-126871D01*
X2853271Y-284014D01*
X2996128Y-284014D02*
X2996128Y-84014D01*
X2996128Y-112586D02*
X3010414Y-98300D01*
X3038986Y-84014D01*
X3081843Y-84014D01*
X3110414Y-98300D01*
X3124700Y-126871D01*
X3124700Y-284014D01*
X3124700Y-126871D02*
X3138986Y-98300D01*
X3167557Y-84014D01*
X3210414Y-84014D01*
X3238986Y-98300D01*
X3253271Y-126871D01*
X3253271Y-284014D01*
X3838986Y30271D02*
X3581843Y-355443D01*
X4224700Y15986D02*
X4253271Y15986D01*
X4281843Y1700D01*
X4296128Y-12586D01*
X4310414Y-41157D01*
X4324700Y-98300D01*
X4324700Y-169729D01*
X4310414Y-226871D01*
X4296128Y-255443D01*
X4281843Y-269729D01*
X4253271Y-284014D01*
X4224700Y-284014D01*
X4196128Y-269729D01*
X4181843Y-255443D01*
X4167557Y-226871D01*
X4153271Y-169729D01*
X4153271Y-98300D01*
X4167557Y-41157D01*
X4181843Y-12586D01*
X4196128Y1700D01*
X4224700Y15986D01*
X4453271Y-255443D02*
X4467557Y-269729D01*
X4453271Y-284014D01*
X4438986Y-269729D01*
X4453271Y-255443D01*
X4453271Y-284014D01*
X4653271Y15986D02*
X4681843Y15986D01*
X4710414Y1700D01*
X4724700Y-12586D01*
X4738986Y-41157D01*
X4753271Y-98300D01*
X4753271Y-169729D01*
X4738986Y-226871D01*
X4724700Y-255443D01*
X4710414Y-269729D01*
X4681843Y-284014D01*
X4653271Y-284014D01*
X4624700Y-269729D01*
X4610414Y-255443D01*
X4596128Y-226871D01*
X4581843Y-169729D01*
X4581843Y-98300D01*
X4596128Y-41157D01*
X4610414Y-12586D01*
X4624700Y1700D01*
X4653271Y15986D01*
X4867557Y-12586D02*
X4881843Y1700D01*
X4910414Y15986D01*
X4981843Y15986D01*
X5010414Y1700D01*
X5024700Y-12586D01*
X5038986Y-41157D01*
X5038986Y-69729D01*
X5024700Y-112586D01*
X4853271Y-284014D01*
X5038986Y-284014D01*
X5224700Y15986D02*
X5253271Y15986D01*
X5281843Y1700D01*
X5296128Y-12586D01*
X5310414Y-41157D01*
X5324700Y-98300D01*
X5324700Y-169729D01*
X5310414Y-226871D01*
X5296128Y-255443D01*
X5281843Y-269729D01*
X5253271Y-284014D01*
X5224700Y-284014D01*
X5196128Y-269729D01*
X5181843Y-255443D01*
X5167557Y-226871D01*
X5153271Y-169729D01*
X5153271Y-98300D01*
X5167557Y-41157D01*
X5181843Y-12586D01*
X5196128Y1700D01*
X5224700Y15986D01*
X5438986Y15986D02*
X5438986Y-41157D01*
X5553271Y15986D02*
X5553271Y-41157D01*
X5996128Y-398300D02*
X5981843Y-384014D01*
X5953271Y-341157D01*
X5938986Y-312586D01*
X5924700Y-269729D01*
X5910414Y-198300D01*
X5910414Y-141157D01*
X5924700Y-69729D01*
X5938986Y-26871D01*
X5953271Y1700D01*
X5981843Y44557D01*
X5996128Y58843D01*
X6267557Y-284014D02*
X6096128Y-284014D01*
X6181843Y-284014D02*
X6181843Y15986D01*
X6153271Y-26871D01*
X6124700Y-55443D01*
X6096128Y-69729D01*
X6553271Y-284014D02*
X6381843Y-284014D01*
X6467557Y-284014D02*
X6467557Y15986D01*
X6438986Y-26871D01*
X6410414Y-55443D01*
X6381843Y-69729D01*
X6910414Y-284014D02*
X6910414Y15986D01*
X7038986Y-284014D02*
X7038986Y-126871D01*
X7024700Y-98300D01*
X6996128Y-84014D01*
X6953271Y-84014D01*
X6924700Y-98300D01*
X6910414Y-112586D01*
X7224700Y-284014D02*
X7196128Y-269729D01*
X7181843Y-255443D01*
X7167557Y-226871D01*
X7167557Y-141157D01*
X7181843Y-112586D01*
X7196128Y-98300D01*
X7224700Y-84014D01*
X7267557Y-84014D01*
X7296128Y-98300D01*
X7310414Y-112586D01*
X7324700Y-141157D01*
X7324700Y-226871D01*
X7310414Y-255443D01*
X7296128Y-269729D01*
X7267557Y-284014D01*
X7224700Y-284014D01*
X7496128Y-284014D02*
X7467557Y-269729D01*
X7453271Y-241157D01*
X7453271Y15986D01*
X7724700Y-269729D02*
X7696128Y-284014D01*
X7638986Y-284014D01*
X7610414Y-269729D01*
X7596128Y-241157D01*
X7596128Y-126871D01*
X7610414Y-98300D01*
X7638986Y-84014D01*
X7696128Y-84014D01*
X7724700Y-98300D01*
X7738986Y-126871D01*
X7738986Y-155443D01*
X7596128Y-184014D01*
X7853271Y-269729D02*
X7881843Y-284014D01*
X7938986Y-284014D01*
X7967557Y-269729D01*
X7981843Y-241157D01*
X7981843Y-226871D01*
X7967557Y-198300D01*
X7938986Y-184014D01*
X7896128Y-184014D01*
X7867557Y-169729D01*
X7853271Y-141157D01*
X7853271Y-126871D01*
X7867557Y-98300D01*
X7896128Y-84014D01*
X7938986Y-84014D01*
X7967557Y-98300D01*
X8081843Y-398300D02*
X8096128Y-384014D01*
X8124700Y-341157D01*
X8138986Y-312586D01*
X8153271Y-269729D01*
X8167557Y-198300D01*
X8167557Y-141157D01*
X8153271Y-69729D01*
X8138986Y-26871D01*
X8124700Y1700D01*
X8096128Y44557D01*
X8081843Y58843D01*
X1271600Y-506200D02*
X1271600Y-582400D01*
X1233500Y-544300D02*
X1309700Y-544300D01*
X1653271Y-380014D02*
X1681843Y-380014D01*
X1710414Y-394300D01*
X1724700Y-408586D01*
X1738986Y-437157D01*
X1753271Y-494300D01*
X1753271Y-565729D01*
X1738986Y-622872D01*
X1724700Y-651443D01*
X1710414Y-665729D01*
X1681843Y-680014D01*
X1653271Y-680014D01*
X1624700Y-665729D01*
X1610414Y-651443D01*
X1596128Y-622872D01*
X1581843Y-565729D01*
X1581843Y-494300D01*
X1596128Y-437157D01*
X1610414Y-408586D01*
X1624700Y-394300D01*
X1653271Y-380014D01*
X1881843Y-651443D02*
X1896128Y-665729D01*
X1881843Y-680014D01*
X1867557Y-665729D01*
X1881843Y-651443D01*
X1881843Y-680014D01*
X1996128Y-380014D02*
X2196128Y-380014D01*
X2067557Y-680014D01*
X2438986Y-380014D02*
X2381843Y-380014D01*
X2353271Y-394300D01*
X2338986Y-408586D01*
X2310414Y-451443D01*
X2296128Y-508586D01*
X2296128Y-622872D01*
X2310414Y-651443D01*
X2324700Y-665729D01*
X2353271Y-680014D01*
X2410414Y-680014D01*
X2438986Y-665729D01*
X2453271Y-651443D01*
X2467557Y-622872D01*
X2467557Y-551443D01*
X2453271Y-522871D01*
X2438986Y-508586D01*
X2410414Y-494300D01*
X2353271Y-494300D01*
X2324700Y-508586D01*
X2310414Y-522871D01*
X2296128Y-551443D01*
X2596128Y-680014D02*
X2596128Y-480014D01*
X2596128Y-508586D02*
X2610414Y-494300D01*
X2638986Y-480014D01*
X2681843Y-480014D01*
X2710414Y-494300D01*
X2724700Y-522871D01*
X2724700Y-680014D01*
X2724700Y-522871D02*
X2738986Y-494300D01*
X2767557Y-480014D01*
X2810414Y-480014D01*
X2838986Y-494300D01*
X2853271Y-522871D01*
X2853271Y-680014D01*
X2996128Y-680014D02*
X2996128Y-480014D01*
X2996128Y-508586D02*
X3010414Y-494300D01*
X3038986Y-480014D01*
X3081843Y-480014D01*
X3110414Y-494300D01*
X3124700Y-522871D01*
X3124700Y-680014D01*
X3124700Y-522871D02*
X3138986Y-494300D01*
X3167557Y-480014D01*
X3210414Y-480014D01*
X3238986Y-494300D01*
X3253271Y-522871D01*
X3253271Y-680014D01*
X3838986Y-365729D02*
X3581843Y-751443D01*
X4224700Y-380014D02*
X4253271Y-380014D01*
X4281843Y-394300D01*
X4296128Y-408586D01*
X4310414Y-437157D01*
X4324700Y-494300D01*
X4324700Y-565729D01*
X4310414Y-622872D01*
X4296128Y-651443D01*
X4281843Y-665729D01*
X4253271Y-680014D01*
X4224700Y-680014D01*
X4196128Y-665729D01*
X4181843Y-651443D01*
X4167557Y-622872D01*
X4153271Y-565729D01*
X4153271Y-494300D01*
X4167557Y-437157D01*
X4181843Y-408586D01*
X4196128Y-394300D01*
X4224700Y-380014D01*
X4453271Y-651443D02*
X4467557Y-665729D01*
X4453271Y-680014D01*
X4438986Y-665729D01*
X4453271Y-651443D01*
X4453271Y-680014D01*
X4653271Y-380014D02*
X4681843Y-380014D01*
X4710414Y-394300D01*
X4724700Y-408586D01*
X4738986Y-437157D01*
X4753271Y-494300D01*
X4753271Y-565729D01*
X4738986Y-622872D01*
X4724700Y-651443D01*
X4710414Y-665729D01*
X4681843Y-680014D01*
X4653271Y-680014D01*
X4624700Y-665729D01*
X4610414Y-651443D01*
X4596128Y-622872D01*
X4581843Y-565729D01*
X4581843Y-494300D01*
X4596128Y-437157D01*
X4610414Y-408586D01*
X4624700Y-394300D01*
X4653271Y-380014D01*
X4853271Y-380014D02*
X5038986Y-380014D01*
X4938986Y-494300D01*
X4981843Y-494300D01*
X5010414Y-508586D01*
X5024700Y-522871D01*
X5038986Y-551443D01*
X5038986Y-622872D01*
X5024700Y-651443D01*
X5010414Y-665729D01*
X4981843Y-680014D01*
X4896128Y-680014D01*
X4867557Y-665729D01*
X4853271Y-651443D01*
X5224700Y-380014D02*
X5253271Y-380014D01*
X5281843Y-394300D01*
X5296128Y-408586D01*
X5310414Y-437157D01*
X5324700Y-494300D01*
X5324700Y-565729D01*
X5310414Y-622872D01*
X5296128Y-651443D01*
X5281843Y-665729D01*
X5253271Y-680014D01*
X5224700Y-680014D01*
X5196128Y-665729D01*
X5181843Y-651443D01*
X5167557Y-622872D01*
X5153271Y-565729D01*
X5153271Y-494300D01*
X5167557Y-437157D01*
X5181843Y-408586D01*
X5196128Y-394300D01*
X5224700Y-380014D01*
X5438986Y-380014D02*
X5438986Y-437157D01*
X5553271Y-380014D02*
X5553271Y-437157D01*
X5996128Y-794300D02*
X5981843Y-780014D01*
X5953271Y-737157D01*
X5938986Y-708586D01*
X5924700Y-665729D01*
X5910414Y-594300D01*
X5910414Y-537157D01*
X5924700Y-465729D01*
X5938986Y-422871D01*
X5953271Y-394300D01*
X5981843Y-351443D01*
X5996128Y-337157D01*
X6096128Y-408586D02*
X6110414Y-394300D01*
X6138986Y-380014D01*
X6210414Y-380014D01*
X6238986Y-394300D01*
X6253271Y-408586D01*
X6267557Y-437157D01*
X6267557Y-465729D01*
X6253271Y-508586D01*
X6081843Y-680014D01*
X6267557Y-680014D01*
X6624700Y-680014D02*
X6624700Y-380014D01*
X6753271Y-680014D02*
X6753271Y-522871D01*
X6738986Y-494300D01*
X6710414Y-480014D01*
X6667557Y-480014D01*
X6638986Y-494300D01*
X6624700Y-508586D01*
X6938986Y-680014D02*
X6910414Y-665729D01*
X6896128Y-651443D01*
X6881843Y-622872D01*
X6881843Y-537157D01*
X6896128Y-508586D01*
X6910414Y-494300D01*
X6938986Y-480014D01*
X6981843Y-480014D01*
X7010414Y-494300D01*
X7024700Y-508586D01*
X7038986Y-537157D01*
X7038986Y-622872D01*
X7024700Y-651443D01*
X7010414Y-665729D01*
X6981843Y-680014D01*
X6938986Y-680014D01*
X7210414Y-680014D02*
X7181843Y-665729D01*
X7167557Y-637157D01*
X7167557Y-380014D01*
X7438986Y-665729D02*
X7410414Y-680014D01*
X7353271Y-680014D01*
X7324700Y-665729D01*
X7310414Y-637157D01*
X7310414Y-522871D01*
X7324700Y-494300D01*
X7353271Y-480014D01*
X7410414Y-480014D01*
X7438986Y-494300D01*
X7453271Y-522871D01*
X7453271Y-551443D01*
X7310414Y-580014D01*
X7567557Y-665729D02*
X7596128Y-680014D01*
X7653271Y-680014D01*
X7681843Y-665729D01*
X7696128Y-637157D01*
X7696128Y-622872D01*
X7681843Y-594300D01*
X7653271Y-580014D01*
X7610414Y-580014D01*
X7581843Y-565729D01*
X7567557Y-537157D01*
X7567557Y-522871D01*
X7581843Y-494300D01*
X7610414Y-480014D01*
X7653271Y-480014D01*
X7681843Y-494300D01*
X7796128Y-794300D02*
X7810414Y-780014D01*
X7838986Y-737157D01*
X7853271Y-708586D01*
X7867557Y-665729D01*
X7881843Y-594300D01*
X7881843Y-537157D01*
X7867557Y-465729D01*
X7853271Y-422871D01*
X7838986Y-394300D01*
X7810414Y-351443D01*
X7796128Y-337157D01*
X1295056Y-975656D02*
X1295056Y-904944D01*
X1224344Y-904944D01*
X1224344Y-975656D01*
X1295056Y-975656D01*
X1753271Y-1076014D02*
X1581843Y-1076014D01*
X1667557Y-1076014D02*
X1667557Y-776014D01*
X1638986Y-818871D01*
X1610414Y-847443D01*
X1581843Y-861729D01*
X1881843Y-1047443D02*
X1896128Y-1061729D01*
X1881843Y-1076014D01*
X1867557Y-1061729D01*
X1881843Y-1047443D01*
X1881843Y-1076014D01*
X2081843Y-776014D02*
X2110414Y-776014D01*
X2138986Y-790300D01*
X2153271Y-804586D01*
X2167557Y-833157D01*
X2181843Y-890300D01*
X2181843Y-961729D01*
X2167557Y-1018871D01*
X2153271Y-1047443D01*
X2138986Y-1061729D01*
X2110414Y-1076014D01*
X2081843Y-1076014D01*
X2053271Y-1061729D01*
X2038986Y-1047443D01*
X2024700Y-1018871D01*
X2010414Y-961729D01*
X2010414Y-890300D01*
X2024700Y-833157D01*
X2038986Y-804586D01*
X2053271Y-790300D01*
X2081843Y-776014D01*
X2367557Y-776014D02*
X2396128Y-776014D01*
X2424700Y-790300D01*
X2438986Y-804586D01*
X2453271Y-833157D01*
X2467557Y-890300D01*
X2467557Y-961729D01*
X2453271Y-1018871D01*
X2438986Y-1047443D01*
X2424700Y-1061729D01*
X2396128Y-1076014D01*
X2367557Y-1076014D01*
X2338986Y-1061729D01*
X2324700Y-1047443D01*
X2310414Y-1018871D01*
X2296128Y-961729D01*
X2296128Y-890300D01*
X2310414Y-833157D01*
X2324700Y-804586D01*
X2338986Y-790300D01*
X2367557Y-776014D01*
X2596128Y-1076014D02*
X2596128Y-876014D01*
X2596128Y-904586D02*
X2610414Y-890300D01*
X2638986Y-876014D01*
X2681843Y-876014D01*
X2710414Y-890300D01*
X2724700Y-918871D01*
X2724700Y-1076014D01*
X2724700Y-918871D02*
X2738986Y-890300D01*
X2767557Y-876014D01*
X2810414Y-876014D01*
X2838986Y-890300D01*
X2853271Y-918871D01*
X2853271Y-1076014D01*
X2996128Y-1076014D02*
X2996128Y-876014D01*
X2996128Y-904586D02*
X3010414Y-890300D01*
X3038986Y-876014D01*
X3081843Y-876014D01*
X3110414Y-890300D01*
X3124700Y-918871D01*
X3124700Y-1076014D01*
X3124700Y-918871D02*
X3138986Y-890300D01*
X3167557Y-876014D01*
X3210414Y-876014D01*
X3238986Y-890300D01*
X3253271Y-918871D01*
X3253271Y-1076014D01*
X3838986Y-761729D02*
X3581843Y-1147443D01*
X4224700Y-776014D02*
X4253271Y-776014D01*
X4281843Y-790300D01*
X4296128Y-804586D01*
X4310414Y-833157D01*
X4324700Y-890300D01*
X4324700Y-961729D01*
X4310414Y-1018871D01*
X4296128Y-1047443D01*
X4281843Y-1061729D01*
X4253271Y-1076014D01*
X4224700Y-1076014D01*
X4196128Y-1061729D01*
X4181843Y-1047443D01*
X4167557Y-1018871D01*
X4153271Y-961729D01*
X4153271Y-890300D01*
X4167557Y-833157D01*
X4181843Y-804586D01*
X4196128Y-790300D01*
X4224700Y-776014D01*
X4453271Y-1047443D02*
X4467557Y-1061729D01*
X4453271Y-1076014D01*
X4438986Y-1061729D01*
X4453271Y-1047443D01*
X4453271Y-1076014D01*
X4653271Y-776014D02*
X4681843Y-776014D01*
X4710414Y-790300D01*
X4724700Y-804586D01*
X4738986Y-833157D01*
X4753271Y-890300D01*
X4753271Y-961729D01*
X4738986Y-1018871D01*
X4724700Y-1047443D01*
X4710414Y-1061729D01*
X4681843Y-1076014D01*
X4653271Y-1076014D01*
X4624700Y-1061729D01*
X4610414Y-1047443D01*
X4596128Y-1018871D01*
X4581843Y-961729D01*
X4581843Y-890300D01*
X4596128Y-833157D01*
X4610414Y-804586D01*
X4624700Y-790300D01*
X4653271Y-776014D01*
X4853271Y-776014D02*
X5038986Y-776014D01*
X4938986Y-890300D01*
X4981843Y-890300D01*
X5010414Y-904586D01*
X5024700Y-918871D01*
X5038986Y-947443D01*
X5038986Y-1018871D01*
X5024700Y-1047443D01*
X5010414Y-1061729D01*
X4981843Y-1076014D01*
X4896128Y-1076014D01*
X4867557Y-1061729D01*
X4853271Y-1047443D01*
X5181843Y-1076014D02*
X5238986Y-1076014D01*
X5267557Y-1061729D01*
X5281843Y-1047443D01*
X5310414Y-1004586D01*
X5324700Y-947443D01*
X5324700Y-833157D01*
X5310414Y-804586D01*
X5296128Y-790300D01*
X5267557Y-776014D01*
X5210414Y-776014D01*
X5181843Y-790300D01*
X5167557Y-804586D01*
X5153271Y-833157D01*
X5153271Y-904586D01*
X5167557Y-933157D01*
X5181843Y-947443D01*
X5210414Y-961729D01*
X5267557Y-961729D01*
X5296128Y-947443D01*
X5310414Y-933157D01*
X5324700Y-904586D01*
X5438986Y-776014D02*
X5438986Y-833157D01*
X5553271Y-776014D02*
X5553271Y-833157D01*
X5996128Y-1190300D02*
X5981843Y-1176014D01*
X5953271Y-1133157D01*
X5938986Y-1104586D01*
X5924700Y-1061729D01*
X5910414Y-990300D01*
X5910414Y-933157D01*
X5924700Y-861729D01*
X5938986Y-818871D01*
X5953271Y-790300D01*
X5981843Y-747443D01*
X5996128Y-733157D01*
X6096128Y-804586D02*
X6110414Y-790300D01*
X6138986Y-776014D01*
X6210414Y-776014D01*
X6238986Y-790300D01*
X6253271Y-804586D01*
X6267557Y-833157D01*
X6267557Y-861729D01*
X6253271Y-904586D01*
X6081843Y-1076014D01*
X6267557Y-1076014D01*
X6553271Y-1076014D02*
X6381843Y-1076014D01*
X6467557Y-1076014D02*
X6467557Y-776014D01*
X6438986Y-818871D01*
X6410414Y-847443D01*
X6381843Y-861729D01*
X6910414Y-1076014D02*
X6910414Y-776014D01*
X7038986Y-1076014D02*
X7038986Y-918871D01*
X7024700Y-890300D01*
X6996128Y-876014D01*
X6953271Y-876014D01*
X6924700Y-890300D01*
X6910414Y-904586D01*
X7224700Y-1076014D02*
X7196128Y-1061729D01*
X7181843Y-1047443D01*
X7167557Y-1018871D01*
X7167557Y-933157D01*
X7181843Y-904586D01*
X7196128Y-890300D01*
X7224700Y-876014D01*
X7267557Y-876014D01*
X7296128Y-890300D01*
X7310414Y-904586D01*
X7324700Y-933157D01*
X7324700Y-1018871D01*
X7310414Y-1047443D01*
X7296128Y-1061729D01*
X7267557Y-1076014D01*
X7224700Y-1076014D01*
X7496128Y-1076014D02*
X7467557Y-1061729D01*
X7453271Y-1033157D01*
X7453271Y-776014D01*
X7724700Y-1061729D02*
X7696128Y-1076014D01*
X7638986Y-1076014D01*
X7610414Y-1061729D01*
X7596128Y-1033157D01*
X7596128Y-918871D01*
X7610414Y-890300D01*
X7638986Y-876014D01*
X7696128Y-876014D01*
X7724700Y-890300D01*
X7738986Y-918871D01*
X7738986Y-947443D01*
X7596128Y-976014D01*
X7853271Y-1061729D02*
X7881843Y-1076014D01*
X7938986Y-1076014D01*
X7967557Y-1061729D01*
X7981843Y-1033157D01*
X7981843Y-1018871D01*
X7967557Y-990300D01*
X7938986Y-976014D01*
X7896128Y-976014D01*
X7867557Y-961729D01*
X7853271Y-933157D01*
X7853271Y-918871D01*
X7867557Y-890300D01*
X7896128Y-876014D01*
X7938986Y-876014D01*
X7967557Y-890300D01*
X8081843Y-1190300D02*
X8096128Y-1176014D01*
X8124700Y-1133157D01*
X8138986Y-1104586D01*
X8153271Y-1061729D01*
X8167557Y-990300D01*
X8167557Y-933157D01*
X8153271Y-861729D01*
X8138986Y-818871D01*
X8124700Y-790300D01*
X8096128Y-747443D01*
X8081843Y-733157D01*
X1249700Y-1396300D02*
X1309700Y-1336300D01*
X1249700Y-1276300D01*
X1189700Y-1336300D01*
X1249700Y-1396300D01*
X1753271Y-1472014D02*
X1581843Y-1472014D01*
X1667557Y-1472014D02*
X1667557Y-1172014D01*
X1638986Y-1214872D01*
X1610414Y-1243443D01*
X1581843Y-1257729D01*
X1881843Y-1443443D02*
X1896128Y-1457729D01*
X1881843Y-1472014D01*
X1867557Y-1457729D01*
X1881843Y-1443443D01*
X1881843Y-1472014D01*
X2010414Y-1200586D02*
X2024700Y-1186300D01*
X2053271Y-1172014D01*
X2124700Y-1172014D01*
X2153271Y-1186300D01*
X2167557Y-1200586D01*
X2181843Y-1229157D01*
X2181843Y-1257729D01*
X2167557Y-1300586D01*
X1996128Y-1472014D01*
X2181843Y-1472014D01*
X2367557Y-1172014D02*
X2396128Y-1172014D01*
X2424700Y-1186300D01*
X2438986Y-1200586D01*
X2453271Y-1229157D01*
X2467557Y-1286300D01*
X2467557Y-1357729D01*
X2453271Y-1414871D01*
X2438986Y-1443443D01*
X2424700Y-1457729D01*
X2396128Y-1472014D01*
X2367557Y-1472014D01*
X2338986Y-1457729D01*
X2324700Y-1443443D01*
X2310414Y-1414871D01*
X2296128Y-1357729D01*
X2296128Y-1286300D01*
X2310414Y-1229157D01*
X2324700Y-1200586D01*
X2338986Y-1186300D01*
X2367557Y-1172014D01*
X2596128Y-1472014D02*
X2596128Y-1272014D01*
X2596128Y-1300586D02*
X2610414Y-1286300D01*
X2638986Y-1272014D01*
X2681843Y-1272014D01*
X2710414Y-1286300D01*
X2724700Y-1314872D01*
X2724700Y-1472014D01*
X2724700Y-1314872D02*
X2738986Y-1286300D01*
X2767557Y-1272014D01*
X2810414Y-1272014D01*
X2838986Y-1286300D01*
X2853271Y-1314872D01*
X2853271Y-1472014D01*
X2996128Y-1472014D02*
X2996128Y-1272014D01*
X2996128Y-1300586D02*
X3010414Y-1286300D01*
X3038986Y-1272014D01*
X3081843Y-1272014D01*
X3110414Y-1286300D01*
X3124700Y-1314872D01*
X3124700Y-1472014D01*
X3124700Y-1314872D02*
X3138986Y-1286300D01*
X3167557Y-1272014D01*
X3210414Y-1272014D01*
X3238986Y-1286300D01*
X3253271Y-1314872D01*
X3253271Y-1472014D01*
X3838986Y-1157729D02*
X3581843Y-1543443D01*
X4224700Y-1172014D02*
X4253271Y-1172014D01*
X4281843Y-1186300D01*
X4296128Y-1200586D01*
X4310414Y-1229157D01*
X4324700Y-1286300D01*
X4324700Y-1357729D01*
X4310414Y-1414871D01*
X4296128Y-1443443D01*
X4281843Y-1457729D01*
X4253271Y-1472014D01*
X4224700Y-1472014D01*
X4196128Y-1457729D01*
X4181843Y-1443443D01*
X4167557Y-1414871D01*
X4153271Y-1357729D01*
X4153271Y-1286300D01*
X4167557Y-1229157D01*
X4181843Y-1200586D01*
X4196128Y-1186300D01*
X4224700Y-1172014D01*
X4453271Y-1443443D02*
X4467557Y-1457729D01*
X4453271Y-1472014D01*
X4438986Y-1457729D01*
X4453271Y-1443443D01*
X4453271Y-1472014D01*
X4653271Y-1172014D02*
X4681843Y-1172014D01*
X4710414Y-1186300D01*
X4724700Y-1200586D01*
X4738986Y-1229157D01*
X4753271Y-1286300D01*
X4753271Y-1357729D01*
X4738986Y-1414871D01*
X4724700Y-1443443D01*
X4710414Y-1457729D01*
X4681843Y-1472014D01*
X4653271Y-1472014D01*
X4624700Y-1457729D01*
X4610414Y-1443443D01*
X4596128Y-1414871D01*
X4581843Y-1357729D01*
X4581843Y-1286300D01*
X4596128Y-1229157D01*
X4610414Y-1200586D01*
X4624700Y-1186300D01*
X4653271Y-1172014D01*
X5010414Y-1272014D02*
X5010414Y-1472014D01*
X4938986Y-1157729D02*
X4867557Y-1372014D01*
X5053271Y-1372014D01*
X5138986Y-1172014D02*
X5338986Y-1172014D01*
X5210414Y-1472014D01*
X5438986Y-1172014D02*
X5438986Y-1229157D01*
X5553271Y-1172014D02*
X5553271Y-1229157D01*
X5996128Y-1586300D02*
X5981843Y-1572014D01*
X5953271Y-1529157D01*
X5938986Y-1500586D01*
X5924700Y-1457729D01*
X5910414Y-1386300D01*
X5910414Y-1329157D01*
X5924700Y-1257729D01*
X5938986Y-1214872D01*
X5953271Y-1186300D01*
X5981843Y-1143443D01*
X5996128Y-1129157D01*
X6096128Y-1200586D02*
X6110414Y-1186300D01*
X6138986Y-1172014D01*
X6210414Y-1172014D01*
X6238986Y-1186300D01*
X6253271Y-1200586D01*
X6267557Y-1229157D01*
X6267557Y-1257729D01*
X6253271Y-1300586D01*
X6081843Y-1472014D01*
X6267557Y-1472014D01*
X6624700Y-1472014D02*
X6624700Y-1172014D01*
X6753271Y-1472014D02*
X6753271Y-1314872D01*
X6738986Y-1286300D01*
X6710414Y-1272014D01*
X6667557Y-1272014D01*
X6638986Y-1286300D01*
X6624700Y-1300586D01*
X6938986Y-1472014D02*
X6910414Y-1457729D01*
X6896128Y-1443443D01*
X6881843Y-1414871D01*
X6881843Y-1329157D01*
X6896128Y-1300586D01*
X6910414Y-1286300D01*
X6938986Y-1272014D01*
X6981843Y-1272014D01*
X7010414Y-1286300D01*
X7024700Y-1300586D01*
X7038986Y-1329157D01*
X7038986Y-1414871D01*
X7024700Y-1443443D01*
X7010414Y-1457729D01*
X6981843Y-1472014D01*
X6938986Y-1472014D01*
X7210414Y-1472014D02*
X7181843Y-1457729D01*
X7167557Y-1429157D01*
X7167557Y-1172014D01*
X7438986Y-1457729D02*
X7410414Y-1472014D01*
X7353271Y-1472014D01*
X7324700Y-1457729D01*
X7310414Y-1429157D01*
X7310414Y-1314872D01*
X7324700Y-1286300D01*
X7353271Y-1272014D01*
X7410414Y-1272014D01*
X7438986Y-1286300D01*
X7453271Y-1314872D01*
X7453271Y-1343443D01*
X7310414Y-1372014D01*
X7567557Y-1457729D02*
X7596128Y-1472014D01*
X7653271Y-1472014D01*
X7681843Y-1457729D01*
X7696128Y-1429157D01*
X7696128Y-1414871D01*
X7681843Y-1386300D01*
X7653271Y-1372014D01*
X7610414Y-1372014D01*
X7581843Y-1357729D01*
X7567557Y-1329157D01*
X7567557Y-1314872D01*
X7581843Y-1286300D01*
X7610414Y-1272014D01*
X7653271Y-1272014D01*
X7681843Y-1286300D01*
X7796128Y-1586300D02*
X7810414Y-1572014D01*
X7838986Y-1529157D01*
X7853271Y-1500586D01*
X7867557Y-1457729D01*
X7881843Y-1386300D01*
X7881843Y-1329157D01*
X7867557Y-1257729D01*
X7853271Y-1214872D01*
X7838986Y-1186300D01*
X7810414Y-1143443D01*
X7796128Y-1129157D01*
X1139700Y-1647300D02*
X1309700Y-1817300D01*
X1309700Y-1647300D02*
X1139700Y-1817300D01*
X1309700Y-1732300D02*
G75*
G03X1309700Y-1732300I-85000J0D01*
G01*
X1753271Y-1868014D02*
X1581843Y-1868014D01*
X1667557Y-1868014D02*
X1667557Y-1568014D01*
X1638986Y-1610871D01*
X1610414Y-1639443D01*
X1581843Y-1653729D01*
X1881843Y-1839443D02*
X1896128Y-1853729D01*
X1881843Y-1868014D01*
X1867557Y-1853729D01*
X1881843Y-1839443D01*
X1881843Y-1868014D01*
X1996128Y-1568014D02*
X2196128Y-1568014D01*
X2067557Y-1868014D01*
X2367557Y-1568014D02*
X2396128Y-1568014D01*
X2424700Y-1582300D01*
X2438986Y-1596586D01*
X2453271Y-1625157D01*
X2467557Y-1682300D01*
X2467557Y-1753729D01*
X2453271Y-1810871D01*
X2438986Y-1839443D01*
X2424700Y-1853729D01*
X2396128Y-1868014D01*
X2367557Y-1868014D01*
X2338986Y-1853729D01*
X2324700Y-1839443D01*
X2310414Y-1810871D01*
X2296128Y-1753729D01*
X2296128Y-1682300D01*
X2310414Y-1625157D01*
X2324700Y-1596586D01*
X2338986Y-1582300D01*
X2367557Y-1568014D01*
X2596128Y-1868014D02*
X2596128Y-1668014D01*
X2596128Y-1696586D02*
X2610414Y-1682300D01*
X2638986Y-1668014D01*
X2681843Y-1668014D01*
X2710414Y-1682300D01*
X2724700Y-1710871D01*
X2724700Y-1868014D01*
X2724700Y-1710871D02*
X2738986Y-1682300D01*
X2767557Y-1668014D01*
X2810414Y-1668014D01*
X2838986Y-1682300D01*
X2853271Y-1710871D01*
X2853271Y-1868014D01*
X2996128Y-1868014D02*
X2996128Y-1668014D01*
X2996128Y-1696586D02*
X3010414Y-1682300D01*
X3038986Y-1668014D01*
X3081843Y-1668014D01*
X3110414Y-1682300D01*
X3124700Y-1710871D01*
X3124700Y-1868014D01*
X3124700Y-1710871D02*
X3138986Y-1682300D01*
X3167557Y-1668014D01*
X3210414Y-1668014D01*
X3238986Y-1682300D01*
X3253271Y-1710871D01*
X3253271Y-1868014D01*
X3838986Y-1553729D02*
X3581843Y-1939443D01*
X4224700Y-1568014D02*
X4253271Y-1568014D01*
X4281843Y-1582300D01*
X4296128Y-1596586D01*
X4310414Y-1625157D01*
X4324700Y-1682300D01*
X4324700Y-1753729D01*
X4310414Y-1810871D01*
X4296128Y-1839443D01*
X4281843Y-1853729D01*
X4253271Y-1868014D01*
X4224700Y-1868014D01*
X4196128Y-1853729D01*
X4181843Y-1839443D01*
X4167557Y-1810871D01*
X4153271Y-1753729D01*
X4153271Y-1682300D01*
X4167557Y-1625157D01*
X4181843Y-1596586D01*
X4196128Y-1582300D01*
X4224700Y-1568014D01*
X4453271Y-1839443D02*
X4467557Y-1853729D01*
X4453271Y-1868014D01*
X4438986Y-1853729D01*
X4453271Y-1839443D01*
X4453271Y-1868014D01*
X4653271Y-1568014D02*
X4681843Y-1568014D01*
X4710414Y-1582300D01*
X4724700Y-1596586D01*
X4738986Y-1625157D01*
X4753271Y-1682300D01*
X4753271Y-1753729D01*
X4738986Y-1810871D01*
X4724700Y-1839443D01*
X4710414Y-1853729D01*
X4681843Y-1868014D01*
X4653271Y-1868014D01*
X4624700Y-1853729D01*
X4610414Y-1839443D01*
X4596128Y-1810871D01*
X4581843Y-1753729D01*
X4581843Y-1682300D01*
X4596128Y-1625157D01*
X4610414Y-1596586D01*
X4624700Y-1582300D01*
X4653271Y-1568014D01*
X5010414Y-1568014D02*
X4953271Y-1568014D01*
X4924700Y-1582300D01*
X4910414Y-1596586D01*
X4881843Y-1639443D01*
X4867557Y-1696586D01*
X4867557Y-1810871D01*
X4881843Y-1839443D01*
X4896128Y-1853729D01*
X4924700Y-1868014D01*
X4981843Y-1868014D01*
X5010414Y-1853729D01*
X5024700Y-1839443D01*
X5038986Y-1810871D01*
X5038986Y-1739443D01*
X5024700Y-1710871D01*
X5010414Y-1696586D01*
X4981843Y-1682300D01*
X4924700Y-1682300D01*
X4896128Y-1696586D01*
X4881843Y-1710871D01*
X4867557Y-1739443D01*
X5138986Y-1568014D02*
X5338986Y-1568014D01*
X5210414Y-1868014D01*
X5438986Y-1568014D02*
X5438986Y-1625157D01*
X5553271Y-1568014D02*
X5553271Y-1625157D01*
X5996128Y-1982300D02*
X5981843Y-1968014D01*
X5953271Y-1925157D01*
X5938986Y-1896586D01*
X5924700Y-1853729D01*
X5910414Y-1782300D01*
X5910414Y-1725157D01*
X5924700Y-1653729D01*
X5938986Y-1610871D01*
X5953271Y-1582300D01*
X5981843Y-1539443D01*
X5996128Y-1525157D01*
X6096128Y-1596586D02*
X6110414Y-1582300D01*
X6138986Y-1568014D01*
X6210414Y-1568014D01*
X6238986Y-1582300D01*
X6253271Y-1596586D01*
X6267557Y-1625157D01*
X6267557Y-1653729D01*
X6253271Y-1696586D01*
X6081843Y-1868014D01*
X6267557Y-1868014D01*
X6624700Y-1868014D02*
X6624700Y-1568014D01*
X6753271Y-1868014D02*
X6753271Y-1710871D01*
X6738986Y-1682300D01*
X6710414Y-1668014D01*
X6667557Y-1668014D01*
X6638986Y-1682300D01*
X6624700Y-1696586D01*
X6938986Y-1868014D02*
X6910414Y-1853729D01*
X6896128Y-1839443D01*
X6881843Y-1810871D01*
X6881843Y-1725157D01*
X6896128Y-1696586D01*
X6910414Y-1682300D01*
X6938986Y-1668014D01*
X6981843Y-1668014D01*
X7010414Y-1682300D01*
X7024700Y-1696586D01*
X7038986Y-1725157D01*
X7038986Y-1810871D01*
X7024700Y-1839443D01*
X7010414Y-1853729D01*
X6981843Y-1868014D01*
X6938986Y-1868014D01*
X7210414Y-1868014D02*
X7181843Y-1853729D01*
X7167557Y-1825157D01*
X7167557Y-1568014D01*
X7438986Y-1853729D02*
X7410414Y-1868014D01*
X7353271Y-1868014D01*
X7324700Y-1853729D01*
X7310414Y-1825157D01*
X7310414Y-1710871D01*
X7324700Y-1682300D01*
X7353271Y-1668014D01*
X7410414Y-1668014D01*
X7438986Y-1682300D01*
X7453271Y-1710871D01*
X7453271Y-1739443D01*
X7310414Y-1768014D01*
X7567557Y-1853729D02*
X7596128Y-1868014D01*
X7653271Y-1868014D01*
X7681843Y-1853729D01*
X7696128Y-1825157D01*
X7696128Y-1810871D01*
X7681843Y-1782300D01*
X7653271Y-1768014D01*
X7610414Y-1768014D01*
X7581843Y-1753729D01*
X7567557Y-1725157D01*
X7567557Y-1710871D01*
X7581843Y-1682300D01*
X7610414Y-1668014D01*
X7653271Y-1668014D01*
X7681843Y-1682300D01*
X7796128Y-1982300D02*
X7810414Y-1968014D01*
X7838986Y-1925157D01*
X7853271Y-1896586D01*
X7867557Y-1853729D01*
X7881843Y-1782300D01*
X7881843Y-1725157D01*
X7867557Y-1653729D01*
X7853271Y-1610871D01*
X7838986Y-1582300D01*
X7810414Y-1539443D01*
X7796128Y-1525157D01*
M02*
