G04 #@! TF.GenerationSoftware,KiCad,Pcbnew,(5.0.2)-1*
G04 #@! TF.CreationDate,2019-03-24T18:15:19+01:00*
G04 #@! TF.ProjectId,DICE-Charging - 2.0,44494345-2d43-4686-9172-67696e67202d,rev?*
G04 #@! TF.SameCoordinates,PX8cfad20PY5dfc8c0*
G04 #@! TF.FileFunction,Copper,L2,Bot*
G04 #@! TF.FilePolarity,Positive*
%FSLAX46Y46*%
G04 Gerber Fmt 4.6, Leading zero omitted, Abs format (unit mm)*
G04 Created by KiCad (PCBNEW (5.0.2)-1) date 24/03/2019 18:15:19*
%MOMM*%
%LPD*%
G01*
G04 APERTURE LIST*
G04 #@! TA.AperFunction,NonConductor*
%ADD10C,0.180000*%
G04 #@! TD*
G04 #@! TA.AperFunction,ViaPad*
%ADD11C,0.500000*%
G04 #@! TD*
G04 #@! TA.AperFunction,Conductor*
%ADD12C,0.100000*%
G04 #@! TD*
G04 #@! TA.AperFunction,Conductor*
%ADD13C,2.700000*%
G04 #@! TD*
G04 #@! TA.AperFunction,ComponentPad*
%ADD14C,3.000000*%
G04 #@! TD*
G04 #@! TA.AperFunction,ComponentPad*
%ADD15R,3.000000X3.000000*%
G04 #@! TD*
G04 #@! TA.AperFunction,ComponentPad*
%ADD16O,1.700000X1.700000*%
G04 #@! TD*
G04 #@! TA.AperFunction,ComponentPad*
%ADD17R,1.700000X1.700000*%
G04 #@! TD*
G04 #@! TA.AperFunction,ComponentPad*
%ADD18O,2.000000X1.700000*%
G04 #@! TD*
G04 #@! TA.AperFunction,ComponentPad*
%ADD19C,1.700000*%
G04 #@! TD*
G04 #@! TA.AperFunction,ComponentPad*
%ADD20C,1.524000*%
G04 #@! TD*
G04 #@! TA.AperFunction,ComponentPad*
%ADD21C,2.700000*%
G04 #@! TD*
G04 #@! TA.AperFunction,ViaPad*
%ADD22C,0.800000*%
G04 #@! TD*
G04 #@! TA.AperFunction,ViaPad*
%ADD23C,1.800000*%
G04 #@! TD*
G04 #@! TA.AperFunction,ViaPad*
%ADD24C,1.000000*%
G04 #@! TD*
G04 #@! TA.AperFunction,Conductor*
%ADD25C,2.000000*%
G04 #@! TD*
G04 #@! TA.AperFunction,Conductor*
%ADD26C,1.000000*%
G04 #@! TD*
G04 #@! TA.AperFunction,Conductor*
%ADD27C,1.700000*%
G04 #@! TD*
G04 #@! TA.AperFunction,Conductor*
%ADD28C,2.500000*%
G04 #@! TD*
G04 #@! TA.AperFunction,Conductor*
%ADD29C,0.500000*%
G04 #@! TD*
G04 #@! TA.AperFunction,Conductor*
%ADD30C,0.254000*%
G04 #@! TD*
G04 APERTURE END LIST*
D10*
X46904542Y16976572D02*
X46797400Y16940858D01*
X46761685Y16905143D01*
X46725971Y16833715D01*
X46725971Y16726572D01*
X46761685Y16655143D01*
X46797400Y16619429D01*
X46868828Y16583715D01*
X47154542Y16583715D01*
X47154542Y17333715D01*
X46904542Y17333715D01*
X46833114Y17298000D01*
X46797400Y17262286D01*
X46761685Y17190858D01*
X46761685Y17119429D01*
X46797400Y17048000D01*
X46833114Y17012286D01*
X46904542Y16976572D01*
X47154542Y16976572D01*
X46261685Y17333715D02*
X46118828Y17333715D01*
X46047400Y17298000D01*
X45975971Y17226572D01*
X45940257Y17083715D01*
X45940257Y16833715D01*
X45975971Y16690858D01*
X46047400Y16619429D01*
X46118828Y16583715D01*
X46261685Y16583715D01*
X46333114Y16619429D01*
X46404542Y16690858D01*
X46440257Y16833715D01*
X46440257Y17083715D01*
X46404542Y17226572D01*
X46333114Y17298000D01*
X46261685Y17333715D01*
X45725971Y17333715D02*
X45297400Y17333715D01*
X45511685Y16583715D02*
X45511685Y17333715D01*
X45154542Y17333715D02*
X44725971Y17333715D01*
X44940257Y16583715D02*
X44940257Y17333715D01*
X44333114Y17333715D02*
X44190257Y17333715D01*
X44118828Y17298000D01*
X44047400Y17226572D01*
X44011685Y17083715D01*
X44011685Y16833715D01*
X44047400Y16690858D01*
X44118828Y16619429D01*
X44190257Y16583715D01*
X44333114Y16583715D01*
X44404542Y16619429D01*
X44475971Y16690858D01*
X44511685Y16833715D01*
X44511685Y17083715D01*
X44475971Y17226572D01*
X44404542Y17298000D01*
X44333114Y17333715D01*
X43690257Y16583715D02*
X43690257Y17333715D01*
X43440257Y16798000D01*
X43190257Y17333715D01*
X43190257Y16583715D01*
X46600971Y15278715D02*
X46600971Y16028715D01*
X46350971Y15493000D01*
X46100971Y16028715D01*
X46100971Y15278715D01*
X45743828Y15564429D02*
X45172400Y15564429D01*
X44422400Y15278715D02*
X44850971Y15278715D01*
X44636685Y15278715D02*
X44636685Y16028715D01*
X44708114Y15921572D01*
X44779542Y15850143D01*
X44850971Y15814429D01*
X44172400Y16028715D02*
X43708114Y16028715D01*
X43958114Y15743000D01*
X43850971Y15743000D01*
X43779542Y15707286D01*
X43743828Y15671572D01*
X43708114Y15600143D01*
X43708114Y15421572D01*
X43743828Y15350143D01*
X43779542Y15314429D01*
X43850971Y15278715D01*
X44065257Y15278715D01*
X44136685Y15314429D01*
X44172400Y15350143D01*
X46065257Y14723715D02*
X46422400Y14723715D01*
X46458114Y14366572D01*
X46422400Y14402286D01*
X46350971Y14438000D01*
X46172400Y14438000D01*
X46100971Y14402286D01*
X46065257Y14366572D01*
X46029542Y14295143D01*
X46029542Y14116572D01*
X46065257Y14045143D01*
X46100971Y14009429D01*
X46172400Y13973715D01*
X46350971Y13973715D01*
X46422400Y14009429D01*
X46458114Y14045143D01*
X45386685Y14473715D02*
X45386685Y13973715D01*
X45565257Y14759429D02*
X45743828Y14223715D01*
X45279542Y14223715D01*
X45065257Y14723715D02*
X44565257Y14723715D01*
X44886685Y13973715D01*
X44350971Y14723715D02*
X43850971Y14723715D01*
X44172400Y13973715D01*
D11*
G04 #@! TO.N,Net-(BP1-Pad1)*
G04 #@! TO.C,U1*
X29542000Y52132000D03*
X29542000Y51032000D03*
X28442000Y51032000D03*
X28442000Y52132000D03*
X30092000Y50482000D03*
X27892000Y50482000D03*
X30092000Y52682000D03*
X27892000Y52682000D03*
D12*
G36*
X30295728Y52931753D02*
X30300708Y52931014D01*
X30305592Y52929791D01*
X30310332Y52928095D01*
X30314883Y52925943D01*
X30319201Y52923354D01*
X30323244Y52920355D01*
X30326975Y52916975D01*
X30330355Y52913244D01*
X30333354Y52909201D01*
X30335943Y52904883D01*
X30338095Y52900332D01*
X30339791Y52895592D01*
X30341014Y52890708D01*
X30341753Y52885728D01*
X30342000Y52880700D01*
X30342000Y50283300D01*
X30341753Y50278272D01*
X30341014Y50273292D01*
X30339791Y50268408D01*
X30338095Y50263668D01*
X30335943Y50259117D01*
X30333354Y50254799D01*
X30330355Y50250756D01*
X30326975Y50247025D01*
X30323244Y50243645D01*
X30319201Y50240646D01*
X30314883Y50238057D01*
X30310332Y50235905D01*
X30305592Y50234209D01*
X30300708Y50232986D01*
X30295728Y50232247D01*
X30290700Y50232000D01*
X27693300Y50232000D01*
X27688272Y50232247D01*
X27683292Y50232986D01*
X27678408Y50234209D01*
X27673668Y50235905D01*
X27669117Y50238057D01*
X27664799Y50240646D01*
X27660756Y50243645D01*
X27657025Y50247025D01*
X27653645Y50250756D01*
X27650646Y50254799D01*
X27648057Y50259117D01*
X27645905Y50263668D01*
X27644209Y50268408D01*
X27642986Y50273292D01*
X27642247Y50278272D01*
X27642000Y50283300D01*
X27642000Y52880700D01*
X27642247Y52885728D01*
X27642986Y52890708D01*
X27644209Y52895592D01*
X27645905Y52900332D01*
X27648057Y52904883D01*
X27650646Y52909201D01*
X27653645Y52913244D01*
X27657025Y52916975D01*
X27660756Y52920355D01*
X27664799Y52923354D01*
X27669117Y52925943D01*
X27673668Y52928095D01*
X27678408Y52929791D01*
X27683292Y52931014D01*
X27688272Y52931753D01*
X27693300Y52932000D01*
X30290700Y52932000D01*
X30295728Y52931753D01*
X30295728Y52931753D01*
G37*
D13*
X28992000Y51582000D03*
D11*
X28992000Y50482000D03*
X30092000Y51582000D03*
X28992000Y51582000D03*
X27892000Y51582000D03*
X28992000Y52682000D03*
G04 #@! TD*
D14*
G04 #@! TO.P,BP1,2*
G04 #@! TO.N,Net-(BP1-Pad2)*
X56132000Y22267000D03*
D15*
G04 #@! TO.P,BP1,1*
G04 #@! TO.N,Net-(BP1-Pad1)*
X56132000Y26077000D03*
G04 #@! TD*
D16*
G04 #@! TO.P,SW2,2*
G04 #@! TO.N,Net-(SW1-Pad11)*
X47600000Y19441000D03*
D17*
G04 #@! TO.P,SW2,1*
G04 #@! TO.N,Net-(SW1-Pad10)*
X50140000Y19441000D03*
G04 #@! TD*
D18*
G04 #@! TO.P,Ch1,2*
G04 #@! TO.N,Net-(Ch1-Pad2)*
X18482000Y39222683D03*
D12*
G04 #@! TD*
G04 #@! TO.N,Net-(BP1-Pad1)*
G04 #@! TO.C,Ch1*
G36*
X19256504Y37571479D02*
X19280773Y37567879D01*
X19304571Y37561918D01*
X19327671Y37553653D01*
X19349849Y37543163D01*
X19370893Y37530550D01*
X19390598Y37515936D01*
X19408777Y37499460D01*
X19425253Y37481281D01*
X19439867Y37461576D01*
X19452480Y37440532D01*
X19462970Y37418354D01*
X19471235Y37395254D01*
X19477196Y37371456D01*
X19480796Y37347187D01*
X19482000Y37322683D01*
X19482000Y36122683D01*
X19480796Y36098179D01*
X19477196Y36073910D01*
X19471235Y36050112D01*
X19462970Y36027012D01*
X19452480Y36004834D01*
X19439867Y35983790D01*
X19425253Y35964085D01*
X19408777Y35945906D01*
X19390598Y35929430D01*
X19370893Y35914816D01*
X19349849Y35902203D01*
X19327671Y35891713D01*
X19304571Y35883448D01*
X19280773Y35877487D01*
X19256504Y35873887D01*
X19232000Y35872683D01*
X17732000Y35872683D01*
X17707496Y35873887D01*
X17683227Y35877487D01*
X17659429Y35883448D01*
X17636329Y35891713D01*
X17614151Y35902203D01*
X17593107Y35914816D01*
X17573402Y35929430D01*
X17555223Y35945906D01*
X17538747Y35964085D01*
X17524133Y35983790D01*
X17511520Y36004834D01*
X17501030Y36027012D01*
X17492765Y36050112D01*
X17486804Y36073910D01*
X17483204Y36098179D01*
X17482000Y36122683D01*
X17482000Y37322683D01*
X17483204Y37347187D01*
X17486804Y37371456D01*
X17492765Y37395254D01*
X17501030Y37418354D01*
X17511520Y37440532D01*
X17524133Y37461576D01*
X17538747Y37481281D01*
X17555223Y37499460D01*
X17573402Y37515936D01*
X17593107Y37530550D01*
X17614151Y37543163D01*
X17636329Y37553653D01*
X17659429Y37561918D01*
X17683227Y37567879D01*
X17707496Y37571479D01*
X17732000Y37572683D01*
X19232000Y37572683D01*
X19256504Y37571479D01*
X19256504Y37571479D01*
G37*
D19*
G04 #@! TO.P,Ch1,1*
G04 #@! TO.N,Net-(BP1-Pad1)*
X18482000Y36722683D03*
G04 #@! TD*
D16*
G04 #@! TO.P,SW1,11*
G04 #@! TO.N,Net-(SW1-Pad11)*
X47580000Y32141000D03*
D17*
G04 #@! TO.P,SW1,10*
G04 #@! TO.N,Net-(SW1-Pad10)*
X45040000Y32141000D03*
D16*
G04 #@! TO.P,SW1,9*
G04 #@! TO.N,Net-(SW1-Pad9)*
X45040000Y19441000D03*
D17*
G04 #@! TO.P,SW1,8*
G04 #@! TO.N,Net-(BP1-Pad1)*
X42500000Y32141000D03*
G04 #@! TO.P,SW1,7*
X42500000Y19441000D03*
G04 #@! TO.P,SW1,6*
X39960000Y32141000D03*
G04 #@! TO.P,SW1,5*
X39960000Y19441000D03*
D16*
G04 #@! TO.P,SW1,4*
G04 #@! TO.N,Net-(BP1-Pad2)*
X37420000Y32141000D03*
G04 #@! TO.P,SW1,3*
G04 #@! TO.N,Net-(C1-Pad1)*
X37420000Y19441000D03*
G04 #@! TO.P,SW1,2*
G04 #@! TO.N,Net-(BP1-Pad2)*
X34880000Y32141000D03*
G04 #@! TO.P,SW1,1*
G04 #@! TO.N,Net-(C1-Pad1)*
X34880000Y19441000D03*
G04 #@! TD*
D20*
G04 #@! TO.P,TH1,2*
G04 #@! TO.N,Net-(R1-Pad2)*
X48522000Y45202000D03*
G04 #@! TO.P,TH1,1*
G04 #@! TO.N,Net-(BP1-Pad1)*
X48522000Y47742000D03*
G04 #@! TD*
D21*
G04 #@! TO.P,BT1,2*
G04 #@! TO.N,Net-(BT1-Pad2)*
X53086000Y51666000D03*
D12*
G04 #@! TD*
G04 #@! TO.N,Net-(BP1-Pad1)*
G04 #@! TO.C,BT1*
G36*
X54210503Y56974796D02*
X54234772Y56971196D01*
X54258570Y56965235D01*
X54281670Y56956970D01*
X54303849Y56946480D01*
X54324892Y56933867D01*
X54344598Y56919252D01*
X54362776Y56902776D01*
X54379252Y56884598D01*
X54393867Y56864892D01*
X54406480Y56843849D01*
X54416970Y56821670D01*
X54425235Y56798570D01*
X54431196Y56774772D01*
X54434796Y56750503D01*
X54436000Y56725999D01*
X54436000Y54526001D01*
X54434796Y54501497D01*
X54431196Y54477228D01*
X54425235Y54453430D01*
X54416970Y54430330D01*
X54406480Y54408151D01*
X54393867Y54387108D01*
X54379252Y54367402D01*
X54362776Y54349224D01*
X54344598Y54332748D01*
X54324892Y54318133D01*
X54303849Y54305520D01*
X54281670Y54295030D01*
X54258570Y54286765D01*
X54234772Y54280804D01*
X54210503Y54277204D01*
X54185999Y54276000D01*
X51986001Y54276000D01*
X51961497Y54277204D01*
X51937228Y54280804D01*
X51913430Y54286765D01*
X51890330Y54295030D01*
X51868151Y54305520D01*
X51847108Y54318133D01*
X51827402Y54332748D01*
X51809224Y54349224D01*
X51792748Y54367402D01*
X51778133Y54387108D01*
X51765520Y54408151D01*
X51755030Y54430330D01*
X51746765Y54453430D01*
X51740804Y54477228D01*
X51737204Y54501497D01*
X51736000Y54526001D01*
X51736000Y56725999D01*
X51737204Y56750503D01*
X51740804Y56774772D01*
X51746765Y56798570D01*
X51755030Y56821670D01*
X51765520Y56843849D01*
X51778133Y56864892D01*
X51792748Y56884598D01*
X51809224Y56902776D01*
X51827402Y56919252D01*
X51847108Y56933867D01*
X51868151Y56946480D01*
X51890330Y56956970D01*
X51913430Y56965235D01*
X51937228Y56971196D01*
X51961497Y56974796D01*
X51986001Y56976000D01*
X54185999Y56976000D01*
X54210503Y56974796D01*
X54210503Y56974796D01*
G37*
D21*
G04 #@! TO.P,BT1,1*
G04 #@! TO.N,Net-(BP1-Pad1)*
X53086000Y55626000D03*
G04 #@! TD*
D22*
G04 #@! TO.N,Net-(BP1-Pad1)*
X33227000Y53412000D03*
D23*
X25802000Y26202000D03*
D24*
X24772000Y58762000D03*
X21732000Y56112000D03*
D23*
X21872000Y39292000D03*
D22*
X32112000Y53412000D03*
X28742000Y48052000D03*
X25822000Y49922000D03*
X32112000Y55732000D03*
X32112000Y54572000D03*
X34342000Y53412000D03*
D23*
X42152000Y48012000D03*
D24*
X20622000Y52002000D03*
X20662000Y48632000D03*
D23*
G04 #@! TO.N,Net-(BP1-Pad2)*
X45287000Y22267000D03*
D24*
G04 #@! TO.N,Net-(SW1-Pad11)*
X46752000Y28222000D03*
D23*
G04 #@! TO.N,Net-(C1-Pad1)*
X31872000Y42462000D03*
X31872000Y39482000D03*
D24*
X35852000Y52442000D03*
X35852000Y54072000D03*
G04 #@! TO.N,Net-(C3-Pad1)*
X26822000Y58122000D03*
X23642000Y22842000D03*
G04 #@! TO.N,Net-(C6-Pad1)*
X25402000Y21442000D03*
X20642000Y45702000D03*
G04 #@! TD*
D25*
G04 #@! TO.N,Net-(BP1-Pad1)*
X53086000Y55626000D02*
X51636000Y55626000D01*
X53086000Y55626000D02*
X53086000Y57076000D01*
X53086000Y55626000D02*
X54536000Y55626000D01*
D26*
X28992000Y51582000D02*
X31322000Y51582000D01*
X28992000Y51582000D02*
X28992000Y49352000D01*
X30092000Y50482000D02*
X31292000Y50482000D01*
X30092000Y50482000D02*
X30092000Y49542000D01*
X30092000Y52682000D02*
X31592000Y52682000D01*
X28992000Y51582000D02*
X28992000Y53792000D01*
X27892000Y50482000D02*
X27062000Y50482000D01*
X27892000Y50482000D02*
X27892000Y49462000D01*
X30092000Y50482000D02*
X28992000Y50482000D01*
X27892000Y50482000D02*
X28992000Y50482000D01*
X28992000Y51582000D02*
X30092000Y51582000D01*
X30092000Y52682000D02*
X30092000Y51582000D01*
X30092000Y52682000D02*
X28992000Y52682000D01*
X27892000Y52682000D02*
X30092000Y52682000D01*
X27892000Y52682000D02*
X28992000Y51582000D01*
X27892000Y52682000D02*
X27892000Y50482000D01*
X30092000Y50482000D02*
X30092000Y52682000D01*
X28992000Y51582000D02*
X26917000Y51582000D01*
D25*
X18489952Y36722683D02*
X20831317Y36722683D01*
X18489952Y36722683D02*
X18489952Y34864048D01*
X39960000Y19441000D02*
X39960000Y21291000D01*
X42500000Y19441000D02*
X42500000Y21291000D01*
X39960000Y32141000D02*
X39960000Y29964000D01*
X42500000Y32141000D02*
X42500000Y30291000D01*
D27*
X39960000Y19441000D02*
X39960000Y18280000D01*
D26*
X30092000Y52682000D02*
X30092000Y53892000D01*
D28*
X56132000Y26077000D02*
X51997000Y26077000D01*
D26*
X27892000Y52682000D02*
X27892000Y53792000D01*
X27892000Y52682000D02*
X26812000Y52682000D01*
X48522000Y47742000D02*
X46782000Y47742000D01*
X48522000Y47742000D02*
X48522000Y49742000D01*
D27*
X39960000Y19441000D02*
X42500000Y19441000D01*
X39960000Y32141000D02*
X42500000Y32141000D01*
D26*
G04 #@! TO.N,Net-(BP1-Pad2)*
X56124000Y22267000D02*
X56134000Y22257000D01*
D25*
X45287000Y22267000D02*
X56124000Y22267000D01*
D26*
G04 #@! TO.N,Net-(SW1-Pad11)*
X47580000Y29050000D02*
X46752000Y28222000D01*
X47580000Y32141000D02*
X47580000Y29050000D01*
D25*
G04 #@! TO.N,Net-(C1-Pad1)*
X31872000Y39482000D02*
X31872000Y42462000D01*
X31872000Y44022000D02*
X31872000Y42462000D01*
D26*
X31872000Y44022000D02*
X31872000Y44032000D01*
D25*
X35852000Y48012000D02*
X31872000Y44032000D01*
X35852000Y52442000D02*
X35852000Y48012000D01*
D26*
X35852000Y54072000D02*
X35852000Y52442000D01*
D29*
G04 #@! TO.N,Net-(C3-Pad1)*
X26832000Y57892000D02*
X26822000Y57902000D01*
D26*
X15612000Y30872000D02*
X23642000Y22842000D01*
X14372000Y37352000D02*
X15612000Y30872000D01*
X15622000Y46682000D02*
X14372000Y37352000D01*
X18172000Y51552000D02*
X15622000Y46682000D01*
X18172000Y51552000D02*
X18172000Y51582000D01*
X26822000Y58122000D02*
X26822000Y56522000D01*
X24282000Y53982000D02*
X20572000Y53982000D01*
X26822000Y56522000D02*
X24282000Y53982000D01*
X18172000Y51582000D02*
X20572000Y53982000D01*
G04 #@! TO.N,Net-(C6-Pad1)*
X18105567Y44282000D02*
X16322785Y42499218D01*
X15642000Y37366061D02*
X15659658Y37383719D01*
X16767530Y31484250D02*
X15642000Y37366061D01*
X25402000Y21442000D02*
X25402000Y22849780D01*
X25402000Y22849780D02*
X16767530Y31484250D01*
X15659658Y37549639D02*
X16322785Y42499218D01*
X15659658Y37383719D02*
X15659658Y37549639D01*
X19525567Y45702000D02*
X18105567Y44282000D01*
X20642000Y45702000D02*
X19525567Y45702000D01*
G04 #@! TD*
D30*
G04 #@! TO.N,Net-(BP1-Pad1)*
G36*
X40751956Y64418854D02*
X42725573Y64260061D01*
X44681203Y63950320D01*
X46607300Y63491458D01*
X48492524Y62886179D01*
X50325740Y62138057D01*
X52096178Y61251488D01*
X53793372Y60231711D01*
X55407325Y59084735D01*
X56928532Y57817313D01*
X58348010Y56436930D01*
X59657416Y54951700D01*
X60849011Y53370401D01*
X61915776Y51702345D01*
X62851922Y49956438D01*
X63160456Y49262448D01*
X50741926Y49262448D01*
X50672000Y49276357D01*
X50602075Y49262448D01*
X50602074Y49262448D01*
X50394972Y49221253D01*
X50160119Y49064329D01*
X50003195Y48829476D01*
X49948091Y48552448D01*
X49962001Y48482517D01*
X49962000Y44262000D01*
X49557657Y44262000D01*
X49706320Y44410663D01*
X49919000Y44924119D01*
X49919000Y45479881D01*
X49706320Y45993337D01*
X49313337Y46386320D01*
X49122353Y46465428D01*
X49253143Y46519603D01*
X49322608Y46761787D01*
X48522000Y47562395D01*
X47721392Y46761787D01*
X47790857Y46519603D01*
X47931393Y46469465D01*
X47730663Y46386320D01*
X47337680Y45993337D01*
X47125000Y45479881D01*
X47125000Y44924119D01*
X47337680Y44410663D01*
X47486343Y44262000D01*
X34414238Y44262000D01*
X36894253Y46742014D01*
X37030769Y46833231D01*
X37392136Y47374055D01*
X37487000Y47850969D01*
X37487000Y47850970D01*
X37506638Y47949698D01*
X47112856Y47949698D01*
X47140638Y47394632D01*
X47299603Y47010857D01*
X47541787Y46941392D01*
X48342395Y47742000D01*
X48701605Y47742000D01*
X49502213Y46941392D01*
X49744397Y47010857D01*
X49931144Y47534302D01*
X49903362Y48089368D01*
X49744397Y48473143D01*
X49502213Y48542608D01*
X48701605Y47742000D01*
X48342395Y47742000D01*
X47541787Y48542608D01*
X47299603Y48473143D01*
X47112856Y47949698D01*
X37506638Y47949698D01*
X37519031Y48012000D01*
X37487000Y48173030D01*
X37487000Y48722213D01*
X47721392Y48722213D01*
X48522000Y47921605D01*
X49322608Y48722213D01*
X49253143Y48964397D01*
X48729698Y49151144D01*
X48174632Y49123362D01*
X47790857Y48964397D01*
X47721392Y48722213D01*
X37487000Y48722213D01*
X37487000Y52603031D01*
X37392136Y53079945D01*
X37030769Y53620769D01*
X36987000Y53650014D01*
X36987000Y54297766D01*
X36943381Y54403072D01*
X36921146Y54514855D01*
X36857826Y54609620D01*
X36814207Y54714926D01*
X36733609Y54795524D01*
X36670289Y54890289D01*
X36575525Y54953608D01*
X36494926Y55034207D01*
X36389618Y55077827D01*
X36294854Y55141146D01*
X36183073Y55163381D01*
X36077766Y55207000D01*
X35963783Y55207000D01*
X35852000Y55229235D01*
X35740217Y55207000D01*
X35626234Y55207000D01*
X35520928Y55163381D01*
X35409145Y55141146D01*
X35314380Y55077826D01*
X35209074Y55034207D01*
X35128476Y54953609D01*
X35033711Y54890289D01*
X34970392Y54795525D01*
X34889793Y54714926D01*
X34846173Y54609618D01*
X34782854Y54514854D01*
X34760619Y54403073D01*
X34717000Y54297766D01*
X34717000Y53650015D01*
X34673231Y53620769D01*
X34311864Y53079944D01*
X34217000Y52603030D01*
X34217001Y48689240D01*
X30799613Y45271851D01*
X30693231Y45200769D01*
X30622149Y45094387D01*
X30602015Y45074253D01*
X30331865Y44669945D01*
X30204969Y44032000D01*
X30237000Y43870970D01*
X30237000Y42300969D01*
X30237001Y42300964D01*
X30237000Y39320970D01*
X30331864Y38844056D01*
X30693231Y38303231D01*
X31234055Y37941864D01*
X31872000Y37814969D01*
X32509944Y37941864D01*
X32962001Y38243918D01*
X32962001Y33821931D01*
X32948091Y33752000D01*
X33003195Y33474972D01*
X33160119Y33240119D01*
X33394972Y33083195D01*
X33602074Y33042000D01*
X33602075Y33042000D01*
X33672000Y33028091D01*
X33689001Y33031473D01*
X33481161Y32720418D01*
X33365908Y32141000D01*
X33481161Y31561582D01*
X33809375Y31070375D01*
X34300582Y30742161D01*
X34733744Y30656000D01*
X35026256Y30656000D01*
X35459418Y30742161D01*
X35950625Y31070375D01*
X36150000Y31368761D01*
X36349375Y31070375D01*
X36840582Y30742161D01*
X37273744Y30656000D01*
X37566256Y30656000D01*
X37999418Y30742161D01*
X38490625Y31070375D01*
X38505096Y31092033D01*
X38571673Y30931302D01*
X38750301Y30752673D01*
X38983690Y30656000D01*
X39674250Y30656000D01*
X39833000Y30814750D01*
X39833000Y32014000D01*
X40087000Y32014000D01*
X40087000Y30814750D01*
X40245750Y30656000D01*
X40936310Y30656000D01*
X41169699Y30752673D01*
X41230000Y30812974D01*
X41290301Y30752673D01*
X41523690Y30656000D01*
X42214250Y30656000D01*
X42373000Y30814750D01*
X42373000Y32014000D01*
X40087000Y32014000D01*
X39833000Y32014000D01*
X39813000Y32014000D01*
X39813000Y32268000D01*
X39833000Y32268000D01*
X39833000Y32288000D01*
X40087000Y32288000D01*
X40087000Y32268000D01*
X42373000Y32268000D01*
X42373000Y32288000D01*
X42627000Y32288000D01*
X42627000Y32268000D01*
X42647000Y32268000D01*
X42647000Y32014000D01*
X42627000Y32014000D01*
X42627000Y30814750D01*
X42785750Y30656000D01*
X43476310Y30656000D01*
X43709699Y30752673D01*
X43766975Y30809949D01*
X43942235Y30692843D01*
X44190000Y30643560D01*
X45890000Y30643560D01*
X46137765Y30692843D01*
X46347809Y30833191D01*
X46445000Y30978647D01*
X46445001Y29520132D01*
X46109077Y29184208D01*
X46109074Y29184207D01*
X45789793Y28864926D01*
X45746172Y28759616D01*
X45682854Y28664854D01*
X45660619Y28553073D01*
X45617000Y28447766D01*
X45617000Y28333783D01*
X45594765Y28222000D01*
X45617000Y28110217D01*
X45617000Y27996234D01*
X45660619Y27890927D01*
X45682854Y27779146D01*
X45746172Y27684384D01*
X45789793Y27579074D01*
X45870395Y27498472D01*
X45933712Y27403712D01*
X46028472Y27340395D01*
X46109074Y27259793D01*
X46214384Y27216172D01*
X46309146Y27152854D01*
X46420927Y27130619D01*
X46526234Y27087000D01*
X46640217Y27087000D01*
X46752000Y27064765D01*
X46863783Y27087000D01*
X46977766Y27087000D01*
X47083073Y27130619D01*
X47194854Y27152854D01*
X47289616Y27216172D01*
X47394926Y27259793D01*
X47714207Y27579074D01*
X47714208Y27579077D01*
X48303521Y28168389D01*
X48398289Y28231711D01*
X48649146Y28607145D01*
X48663961Y28681626D01*
X48737235Y29050000D01*
X48715000Y29161783D01*
X48715000Y31166719D01*
X48978839Y31561582D01*
X49094092Y32141000D01*
X48978839Y32720418D01*
X48763965Y33042000D01*
X49962000Y33042000D01*
X49962001Y28821483D01*
X49948091Y28751552D01*
X50003195Y28474524D01*
X50160119Y28239671D01*
X50394972Y28082747D01*
X50602074Y28041552D01*
X50602075Y28041552D01*
X50672000Y28027643D01*
X50741926Y28041552D01*
X54198526Y28041552D01*
X54093673Y27936698D01*
X53997000Y27703309D01*
X53997000Y26362750D01*
X54155750Y26204000D01*
X56005000Y26204000D01*
X56005000Y26224000D01*
X56259000Y26224000D01*
X56259000Y26204000D01*
X58108250Y26204000D01*
X58267000Y26362750D01*
X58267000Y27703309D01*
X58170327Y27936698D01*
X58065474Y28041552D01*
X63156923Y28041552D01*
X62784350Y27210130D01*
X61838418Y25470688D01*
X60761833Y23808954D01*
X59560933Y22234710D01*
X58242802Y20757241D01*
X56815191Y19385239D01*
X55286539Y18126814D01*
X53665853Y16989379D01*
X51962666Y15979625D01*
X50187051Y15103523D01*
X48349435Y14366219D01*
X48058115Y14274578D01*
X48058115Y18018032D01*
X48179418Y18042161D01*
X48670625Y18370375D01*
X48682816Y18388619D01*
X48691843Y18343235D01*
X48832191Y18133191D01*
X49042235Y17992843D01*
X49290000Y17943560D01*
X50990000Y17943560D01*
X51237765Y17992843D01*
X51447809Y18133191D01*
X51588157Y18343235D01*
X51637440Y18591000D01*
X51637440Y20291000D01*
X51588157Y20538765D01*
X51525859Y20632000D01*
X54747654Y20632000D01*
X54922620Y20457034D01*
X55707322Y20132000D01*
X56556678Y20132000D01*
X57341380Y20457034D01*
X57941966Y21057620D01*
X58267000Y21842322D01*
X58267000Y22691678D01*
X57941966Y23476380D01*
X57476346Y23942000D01*
X57758310Y23942000D01*
X57991699Y24038673D01*
X58170327Y24217302D01*
X58267000Y24450691D01*
X58267000Y25791250D01*
X58108250Y25950000D01*
X56259000Y25950000D01*
X56259000Y25930000D01*
X56005000Y25930000D01*
X56005000Y25950000D01*
X54155750Y25950000D01*
X53997000Y25791250D01*
X53997000Y24450691D01*
X54093673Y24217302D01*
X54272301Y24038673D01*
X54505690Y23942000D01*
X54787654Y23942000D01*
X54747654Y23902000D01*
X45125969Y23902000D01*
X44649055Y23807136D01*
X44108231Y23445769D01*
X43746864Y22904945D01*
X43619969Y22267000D01*
X43746864Y21629055D01*
X44108231Y21088231D01*
X44475527Y20842812D01*
X44460582Y20839839D01*
X43969375Y20511625D01*
X43954904Y20489967D01*
X43888327Y20650698D01*
X43709699Y20829327D01*
X43476310Y20926000D01*
X42785750Y20926000D01*
X42627000Y20767250D01*
X42627000Y19568000D01*
X42647000Y19568000D01*
X42647000Y19314000D01*
X42627000Y19314000D01*
X42627000Y19294000D01*
X42373000Y19294000D01*
X42373000Y19314000D01*
X40087000Y19314000D01*
X40087000Y18114750D01*
X40245750Y17956000D01*
X40936310Y17956000D01*
X41169699Y18052673D01*
X41230000Y18112974D01*
X41290301Y18052673D01*
X41523690Y17956000D01*
X42214250Y17956000D01*
X42286686Y18028436D01*
X42286686Y13004927D01*
X40599959Y12879225D01*
X38619963Y12883990D01*
X36646179Y13040645D01*
X34690206Y13348269D01*
X32763615Y13805043D01*
X30877736Y14408279D01*
X29043713Y15154414D01*
X28158354Y15596569D01*
X37437000Y15596569D01*
X37437000Y14707431D01*
X37777259Y13885974D01*
X38405974Y13257259D01*
X39227431Y12917000D01*
X40116569Y12917000D01*
X40938026Y13257259D01*
X41566741Y13885974D01*
X41907000Y14707431D01*
X41907000Y15596569D01*
X41566741Y16418026D01*
X40938026Y17046741D01*
X40116569Y17387000D01*
X39227431Y17387000D01*
X38405974Y17046741D01*
X37777259Y16418026D01*
X37437000Y15596569D01*
X28158354Y15596569D01*
X27272310Y16039066D01*
X25574012Y17057006D01*
X23958826Y18202227D01*
X22468724Y19441000D01*
X33365908Y19441000D01*
X33481161Y18861582D01*
X33809375Y18370375D01*
X34300582Y18042161D01*
X34733744Y17956000D01*
X35026256Y17956000D01*
X35459418Y18042161D01*
X35950625Y18370375D01*
X36150000Y18668761D01*
X36349375Y18370375D01*
X36840582Y18042161D01*
X37273744Y17956000D01*
X37566256Y17956000D01*
X37999418Y18042161D01*
X38490625Y18370375D01*
X38505096Y18392033D01*
X38571673Y18231302D01*
X38750301Y18052673D01*
X38983690Y17956000D01*
X39674250Y17956000D01*
X39833000Y18114750D01*
X39833000Y19314000D01*
X39813000Y19314000D01*
X39813000Y19568000D01*
X39833000Y19568000D01*
X39833000Y20767250D01*
X40087000Y20767250D01*
X40087000Y19568000D01*
X42373000Y19568000D01*
X42373000Y20767250D01*
X42214250Y20926000D01*
X41523690Y20926000D01*
X41290301Y20829327D01*
X41230000Y20769026D01*
X41169699Y20829327D01*
X40936310Y20926000D01*
X40245750Y20926000D01*
X40087000Y20767250D01*
X39833000Y20767250D01*
X39674250Y20926000D01*
X38983690Y20926000D01*
X38750301Y20829327D01*
X38571673Y20650698D01*
X38505096Y20489967D01*
X38490625Y20511625D01*
X37999418Y20839839D01*
X37566256Y20926000D01*
X37273744Y20926000D01*
X36840582Y20839839D01*
X36349375Y20511625D01*
X36150000Y20213239D01*
X35950625Y20511625D01*
X35459418Y20839839D01*
X35026256Y20926000D01*
X34733744Y20926000D01*
X34300582Y20839839D01*
X33809375Y20511625D01*
X33481161Y20020418D01*
X33365908Y19441000D01*
X22468724Y19441000D01*
X22436246Y19468000D01*
X21015267Y20846849D01*
X19704261Y22330650D01*
X18510947Y23910667D01*
X17442382Y25577552D01*
X16504835Y27321531D01*
X15703847Y29132298D01*
X15680499Y29198370D01*
X22679792Y22199076D01*
X22679793Y22199074D01*
X22999074Y21879793D01*
X23104381Y21836173D01*
X23199145Y21772854D01*
X23310928Y21750619D01*
X23416234Y21707000D01*
X23530217Y21707000D01*
X23642000Y21684765D01*
X23753783Y21707000D01*
X23867766Y21707000D01*
X23973073Y21750619D01*
X24084854Y21772854D01*
X24179616Y21836172D01*
X24267000Y21872368D01*
X24267000Y21216234D01*
X24310619Y21110927D01*
X24332854Y20999146D01*
X24396173Y20904382D01*
X24439793Y20799074D01*
X24520392Y20718475D01*
X24583711Y20623711D01*
X24678476Y20560391D01*
X24759074Y20479793D01*
X24864380Y20436174D01*
X24959145Y20372854D01*
X25070928Y20350619D01*
X25176234Y20307000D01*
X25290217Y20307000D01*
X25402000Y20284765D01*
X25513783Y20307000D01*
X25627766Y20307000D01*
X25733073Y20350619D01*
X25844854Y20372854D01*
X25939618Y20436173D01*
X26044926Y20479793D01*
X26125525Y20560392D01*
X26220289Y20623711D01*
X26283609Y20718476D01*
X26364207Y20799074D01*
X26407826Y20904380D01*
X26471146Y20999145D01*
X26493381Y21110928D01*
X26537000Y21216234D01*
X26537000Y22737997D01*
X26559235Y22849780D01*
X26471146Y23292635D01*
X26283609Y23573304D01*
X26220289Y23668069D01*
X26125524Y23731389D01*
X17816744Y32040167D01*
X17191891Y35305531D01*
X17355690Y35237683D01*
X18196250Y35237683D01*
X18355000Y35396433D01*
X18355000Y36595683D01*
X18609000Y36595683D01*
X18609000Y35396433D01*
X18767750Y35237683D01*
X19608310Y35237683D01*
X19841699Y35334356D01*
X20020327Y35512985D01*
X20117000Y35746374D01*
X20117000Y36436933D01*
X19958250Y36595683D01*
X18609000Y36595683D01*
X18355000Y36595683D01*
X18335000Y36595683D01*
X18335000Y36849683D01*
X18355000Y36849683D01*
X18355000Y36869683D01*
X18609000Y36869683D01*
X18609000Y36849683D01*
X19958250Y36849683D01*
X20117000Y37008433D01*
X20117000Y37698992D01*
X20020327Y37932381D01*
X19841699Y38111010D01*
X19711291Y38165027D01*
X20030839Y38643265D01*
X20146092Y39222683D01*
X20030839Y39802101D01*
X19702625Y40293308D01*
X19211418Y40621522D01*
X18778256Y40707683D01*
X18185744Y40707683D01*
X17752582Y40621522D01*
X17261375Y40293308D01*
X17150068Y40126725D01*
X17396764Y41968066D01*
X18987175Y43558475D01*
X18987179Y43558481D01*
X19995699Y44567000D01*
X20867766Y44567000D01*
X20973072Y44610619D01*
X21084855Y44632854D01*
X21179620Y44696174D01*
X21284926Y44739793D01*
X21365524Y44820391D01*
X21460289Y44883711D01*
X21523609Y44978476D01*
X21604207Y45059074D01*
X21647826Y45164380D01*
X21711146Y45259145D01*
X21733381Y45370928D01*
X21777000Y45476234D01*
X21777000Y45590217D01*
X21799235Y45702000D01*
X21777000Y45813783D01*
X21777000Y45927766D01*
X21733381Y46033072D01*
X21711146Y46144855D01*
X21647826Y46239620D01*
X21604207Y46344926D01*
X21523609Y46425524D01*
X21460289Y46520289D01*
X21365524Y46583609D01*
X21284926Y46664207D01*
X21179620Y46707826D01*
X21084855Y46771146D01*
X20973072Y46793381D01*
X20867766Y46837000D01*
X19637348Y46837000D01*
X19525566Y46859235D01*
X19413784Y46837000D01*
X19082712Y46771146D01*
X18707278Y46520289D01*
X18643956Y46425521D01*
X17382048Y45163612D01*
X17382042Y45163608D01*
X16437114Y44218679D01*
X16720365Y46332862D01*
X19130085Y50934954D01*
X20964202Y52769070D01*
X26993872Y52769070D01*
X27007000Y52637836D01*
X27007000Y51867750D01*
X27042961Y51831789D01*
X26993872Y51669070D01*
X27007000Y51537836D01*
X27007000Y51454998D01*
X27015287Y51454998D01*
X27028917Y51318743D01*
X27029086Y51318336D01*
X27007000Y51296250D01*
X27007000Y50612587D01*
X26993872Y50569070D01*
X27007000Y50437836D01*
X27007000Y50105690D01*
X27103673Y49872301D01*
X27282302Y49693673D01*
X27515691Y49597000D01*
X27761413Y49597000D01*
X27804930Y49583872D01*
X27936164Y49597000D01*
X28706250Y49597000D01*
X28742211Y49632961D01*
X28904930Y49583872D01*
X29036164Y49597000D01*
X29119002Y49597000D01*
X29119002Y49605287D01*
X29255257Y49618917D01*
X29255664Y49619086D01*
X29277750Y49597000D01*
X29961413Y49597000D01*
X30004930Y49583872D01*
X30136164Y49597000D01*
X30468309Y49597000D01*
X30701698Y49693673D01*
X30880327Y49872301D01*
X30977000Y50105690D01*
X30977000Y50351413D01*
X30990128Y50394930D01*
X30977000Y50526164D01*
X30977000Y51296250D01*
X30941039Y51332211D01*
X30990128Y51494930D01*
X30977000Y51626164D01*
X30977000Y51709002D01*
X30968713Y51709002D01*
X30955083Y51845257D01*
X30954914Y51845664D01*
X30977000Y51867750D01*
X30977000Y52551413D01*
X30990128Y52594930D01*
X30977000Y52726164D01*
X30977000Y53058310D01*
X30880327Y53291699D01*
X30701698Y53470327D01*
X30468309Y53567000D01*
X30222587Y53567000D01*
X30179070Y53580128D01*
X30047836Y53567000D01*
X29277750Y53567000D01*
X29241789Y53531039D01*
X29079070Y53580128D01*
X28947836Y53567000D01*
X28864998Y53567000D01*
X28864998Y53558713D01*
X28728743Y53545083D01*
X28728336Y53544914D01*
X28706250Y53567000D01*
X28022587Y53567000D01*
X27979070Y53580128D01*
X27847836Y53567000D01*
X27515691Y53567000D01*
X27282302Y53470327D01*
X27103673Y53291699D01*
X27007000Y53058310D01*
X27007000Y52812587D01*
X26993872Y52769070D01*
X20964202Y52769070D01*
X21042133Y52847000D01*
X24170217Y52847000D01*
X24282000Y52824765D01*
X24393783Y52847000D01*
X24724855Y52912854D01*
X25100289Y53163711D01*
X25163613Y53258482D01*
X27245381Y55340250D01*
X51101000Y55340250D01*
X51101000Y54149691D01*
X51197673Y53916302D01*
X51376301Y53737673D01*
X51609690Y53641000D01*
X52667017Y53641000D01*
X51961588Y53348801D01*
X51403199Y52790412D01*
X51101000Y52060841D01*
X51101000Y51271159D01*
X51403199Y50541588D01*
X51961588Y49983199D01*
X52691159Y49681000D01*
X53480841Y49681000D01*
X54210412Y49983199D01*
X54768801Y50541588D01*
X55071000Y51271159D01*
X55071000Y52060841D01*
X54768801Y52790412D01*
X54210412Y53348801D01*
X53504983Y53641000D01*
X54562310Y53641000D01*
X54795699Y53737673D01*
X54974327Y53916302D01*
X55071000Y54149691D01*
X55071000Y55340250D01*
X54912250Y55499000D01*
X53213000Y55499000D01*
X53213000Y55479000D01*
X52959000Y55479000D01*
X52959000Y55499000D01*
X51259750Y55499000D01*
X51101000Y55340250D01*
X27245381Y55340250D01*
X27545521Y55640389D01*
X27640289Y55703711D01*
X27891146Y56079145D01*
X27957000Y56410217D01*
X27979235Y56521999D01*
X27957000Y56633781D01*
X27957000Y57102309D01*
X51101000Y57102309D01*
X51101000Y55911750D01*
X51259750Y55753000D01*
X52959000Y55753000D01*
X52959000Y57452250D01*
X53213000Y57452250D01*
X53213000Y55753000D01*
X54912250Y55753000D01*
X55071000Y55911750D01*
X55071000Y57102309D01*
X54974327Y57335698D01*
X54795699Y57514327D01*
X54562310Y57611000D01*
X53371750Y57611000D01*
X53213000Y57452250D01*
X52959000Y57452250D01*
X52800250Y57611000D01*
X51609690Y57611000D01*
X51376301Y57514327D01*
X51197673Y57335698D01*
X51101000Y57102309D01*
X27957000Y57102309D01*
X27957000Y58347766D01*
X27913381Y58453072D01*
X27891146Y58564855D01*
X27827826Y58659620D01*
X27784207Y58764926D01*
X27703609Y58845524D01*
X27640289Y58940289D01*
X27545525Y59003608D01*
X27464926Y59084207D01*
X27359618Y59127827D01*
X27264854Y59191146D01*
X27153073Y59213381D01*
X27047766Y59257000D01*
X26933783Y59257000D01*
X26822000Y59279235D01*
X26710217Y59257000D01*
X26596234Y59257000D01*
X26490928Y59213381D01*
X26379145Y59191146D01*
X26284380Y59127826D01*
X26179074Y59084207D01*
X26098476Y59003609D01*
X26003711Y58940289D01*
X25940392Y58845525D01*
X25859793Y58764926D01*
X25816173Y58659618D01*
X25752854Y58564854D01*
X25730619Y58453073D01*
X25687000Y58347766D01*
X25687000Y56992132D01*
X23811869Y55117000D01*
X20683783Y55117000D01*
X20572000Y55139235D01*
X20129145Y55051146D01*
X19888406Y54890289D01*
X19753711Y54800289D01*
X19690391Y54705524D01*
X18908398Y53923530D01*
X19800865Y55090829D01*
X21120599Y56566872D01*
X22549684Y57937315D01*
X24079710Y59194093D01*
X25701628Y60329772D01*
X27405911Y61337681D01*
X29182475Y62211859D01*
X30144319Y62596569D01*
X37437000Y62596569D01*
X37437000Y61707431D01*
X37777259Y60885974D01*
X38405974Y60257259D01*
X39227431Y59917000D01*
X40116569Y59917000D01*
X40938026Y60257259D01*
X41566741Y60885974D01*
X41907000Y61707431D01*
X41907000Y62596569D01*
X41566741Y63418026D01*
X40938026Y64046741D01*
X40116569Y64387000D01*
X39227431Y64387000D01*
X38405974Y64046741D01*
X37777259Y63418026D01*
X37437000Y62596569D01*
X30144319Y62596569D01*
X31020875Y62947166D01*
X32910269Y63539267D01*
X34839537Y63984674D01*
X36797277Y64280755D01*
X38771952Y64425766D01*
X40751956Y64418854D01*
X40751956Y64418854D01*
G37*
X40751956Y64418854D02*
X42725573Y64260061D01*
X44681203Y63950320D01*
X46607300Y63491458D01*
X48492524Y62886179D01*
X50325740Y62138057D01*
X52096178Y61251488D01*
X53793372Y60231711D01*
X55407325Y59084735D01*
X56928532Y57817313D01*
X58348010Y56436930D01*
X59657416Y54951700D01*
X60849011Y53370401D01*
X61915776Y51702345D01*
X62851922Y49956438D01*
X63160456Y49262448D01*
X50741926Y49262448D01*
X50672000Y49276357D01*
X50602075Y49262448D01*
X50602074Y49262448D01*
X50394972Y49221253D01*
X50160119Y49064329D01*
X50003195Y48829476D01*
X49948091Y48552448D01*
X49962001Y48482517D01*
X49962000Y44262000D01*
X49557657Y44262000D01*
X49706320Y44410663D01*
X49919000Y44924119D01*
X49919000Y45479881D01*
X49706320Y45993337D01*
X49313337Y46386320D01*
X49122353Y46465428D01*
X49253143Y46519603D01*
X49322608Y46761787D01*
X48522000Y47562395D01*
X47721392Y46761787D01*
X47790857Y46519603D01*
X47931393Y46469465D01*
X47730663Y46386320D01*
X47337680Y45993337D01*
X47125000Y45479881D01*
X47125000Y44924119D01*
X47337680Y44410663D01*
X47486343Y44262000D01*
X34414238Y44262000D01*
X36894253Y46742014D01*
X37030769Y46833231D01*
X37392136Y47374055D01*
X37487000Y47850969D01*
X37487000Y47850970D01*
X37506638Y47949698D01*
X47112856Y47949698D01*
X47140638Y47394632D01*
X47299603Y47010857D01*
X47541787Y46941392D01*
X48342395Y47742000D01*
X48701605Y47742000D01*
X49502213Y46941392D01*
X49744397Y47010857D01*
X49931144Y47534302D01*
X49903362Y48089368D01*
X49744397Y48473143D01*
X49502213Y48542608D01*
X48701605Y47742000D01*
X48342395Y47742000D01*
X47541787Y48542608D01*
X47299603Y48473143D01*
X47112856Y47949698D01*
X37506638Y47949698D01*
X37519031Y48012000D01*
X37487000Y48173030D01*
X37487000Y48722213D01*
X47721392Y48722213D01*
X48522000Y47921605D01*
X49322608Y48722213D01*
X49253143Y48964397D01*
X48729698Y49151144D01*
X48174632Y49123362D01*
X47790857Y48964397D01*
X47721392Y48722213D01*
X37487000Y48722213D01*
X37487000Y52603031D01*
X37392136Y53079945D01*
X37030769Y53620769D01*
X36987000Y53650014D01*
X36987000Y54297766D01*
X36943381Y54403072D01*
X36921146Y54514855D01*
X36857826Y54609620D01*
X36814207Y54714926D01*
X36733609Y54795524D01*
X36670289Y54890289D01*
X36575525Y54953608D01*
X36494926Y55034207D01*
X36389618Y55077827D01*
X36294854Y55141146D01*
X36183073Y55163381D01*
X36077766Y55207000D01*
X35963783Y55207000D01*
X35852000Y55229235D01*
X35740217Y55207000D01*
X35626234Y55207000D01*
X35520928Y55163381D01*
X35409145Y55141146D01*
X35314380Y55077826D01*
X35209074Y55034207D01*
X35128476Y54953609D01*
X35033711Y54890289D01*
X34970392Y54795525D01*
X34889793Y54714926D01*
X34846173Y54609618D01*
X34782854Y54514854D01*
X34760619Y54403073D01*
X34717000Y54297766D01*
X34717000Y53650015D01*
X34673231Y53620769D01*
X34311864Y53079944D01*
X34217000Y52603030D01*
X34217001Y48689240D01*
X30799613Y45271851D01*
X30693231Y45200769D01*
X30622149Y45094387D01*
X30602015Y45074253D01*
X30331865Y44669945D01*
X30204969Y44032000D01*
X30237000Y43870970D01*
X30237000Y42300969D01*
X30237001Y42300964D01*
X30237000Y39320970D01*
X30331864Y38844056D01*
X30693231Y38303231D01*
X31234055Y37941864D01*
X31872000Y37814969D01*
X32509944Y37941864D01*
X32962001Y38243918D01*
X32962001Y33821931D01*
X32948091Y33752000D01*
X33003195Y33474972D01*
X33160119Y33240119D01*
X33394972Y33083195D01*
X33602074Y33042000D01*
X33602075Y33042000D01*
X33672000Y33028091D01*
X33689001Y33031473D01*
X33481161Y32720418D01*
X33365908Y32141000D01*
X33481161Y31561582D01*
X33809375Y31070375D01*
X34300582Y30742161D01*
X34733744Y30656000D01*
X35026256Y30656000D01*
X35459418Y30742161D01*
X35950625Y31070375D01*
X36150000Y31368761D01*
X36349375Y31070375D01*
X36840582Y30742161D01*
X37273744Y30656000D01*
X37566256Y30656000D01*
X37999418Y30742161D01*
X38490625Y31070375D01*
X38505096Y31092033D01*
X38571673Y30931302D01*
X38750301Y30752673D01*
X38983690Y30656000D01*
X39674250Y30656000D01*
X39833000Y30814750D01*
X39833000Y32014000D01*
X40087000Y32014000D01*
X40087000Y30814750D01*
X40245750Y30656000D01*
X40936310Y30656000D01*
X41169699Y30752673D01*
X41230000Y30812974D01*
X41290301Y30752673D01*
X41523690Y30656000D01*
X42214250Y30656000D01*
X42373000Y30814750D01*
X42373000Y32014000D01*
X40087000Y32014000D01*
X39833000Y32014000D01*
X39813000Y32014000D01*
X39813000Y32268000D01*
X39833000Y32268000D01*
X39833000Y32288000D01*
X40087000Y32288000D01*
X40087000Y32268000D01*
X42373000Y32268000D01*
X42373000Y32288000D01*
X42627000Y32288000D01*
X42627000Y32268000D01*
X42647000Y32268000D01*
X42647000Y32014000D01*
X42627000Y32014000D01*
X42627000Y30814750D01*
X42785750Y30656000D01*
X43476310Y30656000D01*
X43709699Y30752673D01*
X43766975Y30809949D01*
X43942235Y30692843D01*
X44190000Y30643560D01*
X45890000Y30643560D01*
X46137765Y30692843D01*
X46347809Y30833191D01*
X46445000Y30978647D01*
X46445001Y29520132D01*
X46109077Y29184208D01*
X46109074Y29184207D01*
X45789793Y28864926D01*
X45746172Y28759616D01*
X45682854Y28664854D01*
X45660619Y28553073D01*
X45617000Y28447766D01*
X45617000Y28333783D01*
X45594765Y28222000D01*
X45617000Y28110217D01*
X45617000Y27996234D01*
X45660619Y27890927D01*
X45682854Y27779146D01*
X45746172Y27684384D01*
X45789793Y27579074D01*
X45870395Y27498472D01*
X45933712Y27403712D01*
X46028472Y27340395D01*
X46109074Y27259793D01*
X46214384Y27216172D01*
X46309146Y27152854D01*
X46420927Y27130619D01*
X46526234Y27087000D01*
X46640217Y27087000D01*
X46752000Y27064765D01*
X46863783Y27087000D01*
X46977766Y27087000D01*
X47083073Y27130619D01*
X47194854Y27152854D01*
X47289616Y27216172D01*
X47394926Y27259793D01*
X47714207Y27579074D01*
X47714208Y27579077D01*
X48303521Y28168389D01*
X48398289Y28231711D01*
X48649146Y28607145D01*
X48663961Y28681626D01*
X48737235Y29050000D01*
X48715000Y29161783D01*
X48715000Y31166719D01*
X48978839Y31561582D01*
X49094092Y32141000D01*
X48978839Y32720418D01*
X48763965Y33042000D01*
X49962000Y33042000D01*
X49962001Y28821483D01*
X49948091Y28751552D01*
X50003195Y28474524D01*
X50160119Y28239671D01*
X50394972Y28082747D01*
X50602074Y28041552D01*
X50602075Y28041552D01*
X50672000Y28027643D01*
X50741926Y28041552D01*
X54198526Y28041552D01*
X54093673Y27936698D01*
X53997000Y27703309D01*
X53997000Y26362750D01*
X54155750Y26204000D01*
X56005000Y26204000D01*
X56005000Y26224000D01*
X56259000Y26224000D01*
X56259000Y26204000D01*
X58108250Y26204000D01*
X58267000Y26362750D01*
X58267000Y27703309D01*
X58170327Y27936698D01*
X58065474Y28041552D01*
X63156923Y28041552D01*
X62784350Y27210130D01*
X61838418Y25470688D01*
X60761833Y23808954D01*
X59560933Y22234710D01*
X58242802Y20757241D01*
X56815191Y19385239D01*
X55286539Y18126814D01*
X53665853Y16989379D01*
X51962666Y15979625D01*
X50187051Y15103523D01*
X48349435Y14366219D01*
X48058115Y14274578D01*
X48058115Y18018032D01*
X48179418Y18042161D01*
X48670625Y18370375D01*
X48682816Y18388619D01*
X48691843Y18343235D01*
X48832191Y18133191D01*
X49042235Y17992843D01*
X49290000Y17943560D01*
X50990000Y17943560D01*
X51237765Y17992843D01*
X51447809Y18133191D01*
X51588157Y18343235D01*
X51637440Y18591000D01*
X51637440Y20291000D01*
X51588157Y20538765D01*
X51525859Y20632000D01*
X54747654Y20632000D01*
X54922620Y20457034D01*
X55707322Y20132000D01*
X56556678Y20132000D01*
X57341380Y20457034D01*
X57941966Y21057620D01*
X58267000Y21842322D01*
X58267000Y22691678D01*
X57941966Y23476380D01*
X57476346Y23942000D01*
X57758310Y23942000D01*
X57991699Y24038673D01*
X58170327Y24217302D01*
X58267000Y24450691D01*
X58267000Y25791250D01*
X58108250Y25950000D01*
X56259000Y25950000D01*
X56259000Y25930000D01*
X56005000Y25930000D01*
X56005000Y25950000D01*
X54155750Y25950000D01*
X53997000Y25791250D01*
X53997000Y24450691D01*
X54093673Y24217302D01*
X54272301Y24038673D01*
X54505690Y23942000D01*
X54787654Y23942000D01*
X54747654Y23902000D01*
X45125969Y23902000D01*
X44649055Y23807136D01*
X44108231Y23445769D01*
X43746864Y22904945D01*
X43619969Y22267000D01*
X43746864Y21629055D01*
X44108231Y21088231D01*
X44475527Y20842812D01*
X44460582Y20839839D01*
X43969375Y20511625D01*
X43954904Y20489967D01*
X43888327Y20650698D01*
X43709699Y20829327D01*
X43476310Y20926000D01*
X42785750Y20926000D01*
X42627000Y20767250D01*
X42627000Y19568000D01*
X42647000Y19568000D01*
X42647000Y19314000D01*
X42627000Y19314000D01*
X42627000Y19294000D01*
X42373000Y19294000D01*
X42373000Y19314000D01*
X40087000Y19314000D01*
X40087000Y18114750D01*
X40245750Y17956000D01*
X40936310Y17956000D01*
X41169699Y18052673D01*
X41230000Y18112974D01*
X41290301Y18052673D01*
X41523690Y17956000D01*
X42214250Y17956000D01*
X42286686Y18028436D01*
X42286686Y13004927D01*
X40599959Y12879225D01*
X38619963Y12883990D01*
X36646179Y13040645D01*
X34690206Y13348269D01*
X32763615Y13805043D01*
X30877736Y14408279D01*
X29043713Y15154414D01*
X28158354Y15596569D01*
X37437000Y15596569D01*
X37437000Y14707431D01*
X37777259Y13885974D01*
X38405974Y13257259D01*
X39227431Y12917000D01*
X40116569Y12917000D01*
X40938026Y13257259D01*
X41566741Y13885974D01*
X41907000Y14707431D01*
X41907000Y15596569D01*
X41566741Y16418026D01*
X40938026Y17046741D01*
X40116569Y17387000D01*
X39227431Y17387000D01*
X38405974Y17046741D01*
X37777259Y16418026D01*
X37437000Y15596569D01*
X28158354Y15596569D01*
X27272310Y16039066D01*
X25574012Y17057006D01*
X23958826Y18202227D01*
X22468724Y19441000D01*
X33365908Y19441000D01*
X33481161Y18861582D01*
X33809375Y18370375D01*
X34300582Y18042161D01*
X34733744Y17956000D01*
X35026256Y17956000D01*
X35459418Y18042161D01*
X35950625Y18370375D01*
X36150000Y18668761D01*
X36349375Y18370375D01*
X36840582Y18042161D01*
X37273744Y17956000D01*
X37566256Y17956000D01*
X37999418Y18042161D01*
X38490625Y18370375D01*
X38505096Y18392033D01*
X38571673Y18231302D01*
X38750301Y18052673D01*
X38983690Y17956000D01*
X39674250Y17956000D01*
X39833000Y18114750D01*
X39833000Y19314000D01*
X39813000Y19314000D01*
X39813000Y19568000D01*
X39833000Y19568000D01*
X39833000Y20767250D01*
X40087000Y20767250D01*
X40087000Y19568000D01*
X42373000Y19568000D01*
X42373000Y20767250D01*
X42214250Y20926000D01*
X41523690Y20926000D01*
X41290301Y20829327D01*
X41230000Y20769026D01*
X41169699Y20829327D01*
X40936310Y20926000D01*
X40245750Y20926000D01*
X40087000Y20767250D01*
X39833000Y20767250D01*
X39674250Y20926000D01*
X38983690Y20926000D01*
X38750301Y20829327D01*
X38571673Y20650698D01*
X38505096Y20489967D01*
X38490625Y20511625D01*
X37999418Y20839839D01*
X37566256Y20926000D01*
X37273744Y20926000D01*
X36840582Y20839839D01*
X36349375Y20511625D01*
X36150000Y20213239D01*
X35950625Y20511625D01*
X35459418Y20839839D01*
X35026256Y20926000D01*
X34733744Y20926000D01*
X34300582Y20839839D01*
X33809375Y20511625D01*
X33481161Y20020418D01*
X33365908Y19441000D01*
X22468724Y19441000D01*
X22436246Y19468000D01*
X21015267Y20846849D01*
X19704261Y22330650D01*
X18510947Y23910667D01*
X17442382Y25577552D01*
X16504835Y27321531D01*
X15703847Y29132298D01*
X15680499Y29198370D01*
X22679792Y22199076D01*
X22679793Y22199074D01*
X22999074Y21879793D01*
X23104381Y21836173D01*
X23199145Y21772854D01*
X23310928Y21750619D01*
X23416234Y21707000D01*
X23530217Y21707000D01*
X23642000Y21684765D01*
X23753783Y21707000D01*
X23867766Y21707000D01*
X23973073Y21750619D01*
X24084854Y21772854D01*
X24179616Y21836172D01*
X24267000Y21872368D01*
X24267000Y21216234D01*
X24310619Y21110927D01*
X24332854Y20999146D01*
X24396173Y20904382D01*
X24439793Y20799074D01*
X24520392Y20718475D01*
X24583711Y20623711D01*
X24678476Y20560391D01*
X24759074Y20479793D01*
X24864380Y20436174D01*
X24959145Y20372854D01*
X25070928Y20350619D01*
X25176234Y20307000D01*
X25290217Y20307000D01*
X25402000Y20284765D01*
X25513783Y20307000D01*
X25627766Y20307000D01*
X25733073Y20350619D01*
X25844854Y20372854D01*
X25939618Y20436173D01*
X26044926Y20479793D01*
X26125525Y20560392D01*
X26220289Y20623711D01*
X26283609Y20718476D01*
X26364207Y20799074D01*
X26407826Y20904380D01*
X26471146Y20999145D01*
X26493381Y21110928D01*
X26537000Y21216234D01*
X26537000Y22737997D01*
X26559235Y22849780D01*
X26471146Y23292635D01*
X26283609Y23573304D01*
X26220289Y23668069D01*
X26125524Y23731389D01*
X17816744Y32040167D01*
X17191891Y35305531D01*
X17355690Y35237683D01*
X18196250Y35237683D01*
X18355000Y35396433D01*
X18355000Y36595683D01*
X18609000Y36595683D01*
X18609000Y35396433D01*
X18767750Y35237683D01*
X19608310Y35237683D01*
X19841699Y35334356D01*
X20020327Y35512985D01*
X20117000Y35746374D01*
X20117000Y36436933D01*
X19958250Y36595683D01*
X18609000Y36595683D01*
X18355000Y36595683D01*
X18335000Y36595683D01*
X18335000Y36849683D01*
X18355000Y36849683D01*
X18355000Y36869683D01*
X18609000Y36869683D01*
X18609000Y36849683D01*
X19958250Y36849683D01*
X20117000Y37008433D01*
X20117000Y37698992D01*
X20020327Y37932381D01*
X19841699Y38111010D01*
X19711291Y38165027D01*
X20030839Y38643265D01*
X20146092Y39222683D01*
X20030839Y39802101D01*
X19702625Y40293308D01*
X19211418Y40621522D01*
X18778256Y40707683D01*
X18185744Y40707683D01*
X17752582Y40621522D01*
X17261375Y40293308D01*
X17150068Y40126725D01*
X17396764Y41968066D01*
X18987175Y43558475D01*
X18987179Y43558481D01*
X19995699Y44567000D01*
X20867766Y44567000D01*
X20973072Y44610619D01*
X21084855Y44632854D01*
X21179620Y44696174D01*
X21284926Y44739793D01*
X21365524Y44820391D01*
X21460289Y44883711D01*
X21523609Y44978476D01*
X21604207Y45059074D01*
X21647826Y45164380D01*
X21711146Y45259145D01*
X21733381Y45370928D01*
X21777000Y45476234D01*
X21777000Y45590217D01*
X21799235Y45702000D01*
X21777000Y45813783D01*
X21777000Y45927766D01*
X21733381Y46033072D01*
X21711146Y46144855D01*
X21647826Y46239620D01*
X21604207Y46344926D01*
X21523609Y46425524D01*
X21460289Y46520289D01*
X21365524Y46583609D01*
X21284926Y46664207D01*
X21179620Y46707826D01*
X21084855Y46771146D01*
X20973072Y46793381D01*
X20867766Y46837000D01*
X19637348Y46837000D01*
X19525566Y46859235D01*
X19413784Y46837000D01*
X19082712Y46771146D01*
X18707278Y46520289D01*
X18643956Y46425521D01*
X17382048Y45163612D01*
X17382042Y45163608D01*
X16437114Y44218679D01*
X16720365Y46332862D01*
X19130085Y50934954D01*
X20964202Y52769070D01*
X26993872Y52769070D01*
X27007000Y52637836D01*
X27007000Y51867750D01*
X27042961Y51831789D01*
X26993872Y51669070D01*
X27007000Y51537836D01*
X27007000Y51454998D01*
X27015287Y51454998D01*
X27028917Y51318743D01*
X27029086Y51318336D01*
X27007000Y51296250D01*
X27007000Y50612587D01*
X26993872Y50569070D01*
X27007000Y50437836D01*
X27007000Y50105690D01*
X27103673Y49872301D01*
X27282302Y49693673D01*
X27515691Y49597000D01*
X27761413Y49597000D01*
X27804930Y49583872D01*
X27936164Y49597000D01*
X28706250Y49597000D01*
X28742211Y49632961D01*
X28904930Y49583872D01*
X29036164Y49597000D01*
X29119002Y49597000D01*
X29119002Y49605287D01*
X29255257Y49618917D01*
X29255664Y49619086D01*
X29277750Y49597000D01*
X29961413Y49597000D01*
X30004930Y49583872D01*
X30136164Y49597000D01*
X30468309Y49597000D01*
X30701698Y49693673D01*
X30880327Y49872301D01*
X30977000Y50105690D01*
X30977000Y50351413D01*
X30990128Y50394930D01*
X30977000Y50526164D01*
X30977000Y51296250D01*
X30941039Y51332211D01*
X30990128Y51494930D01*
X30977000Y51626164D01*
X30977000Y51709002D01*
X30968713Y51709002D01*
X30955083Y51845257D01*
X30954914Y51845664D01*
X30977000Y51867750D01*
X30977000Y52551413D01*
X30990128Y52594930D01*
X30977000Y52726164D01*
X30977000Y53058310D01*
X30880327Y53291699D01*
X30701698Y53470327D01*
X30468309Y53567000D01*
X30222587Y53567000D01*
X30179070Y53580128D01*
X30047836Y53567000D01*
X29277750Y53567000D01*
X29241789Y53531039D01*
X29079070Y53580128D01*
X28947836Y53567000D01*
X28864998Y53567000D01*
X28864998Y53558713D01*
X28728743Y53545083D01*
X28728336Y53544914D01*
X28706250Y53567000D01*
X28022587Y53567000D01*
X27979070Y53580128D01*
X27847836Y53567000D01*
X27515691Y53567000D01*
X27282302Y53470327D01*
X27103673Y53291699D01*
X27007000Y53058310D01*
X27007000Y52812587D01*
X26993872Y52769070D01*
X20964202Y52769070D01*
X21042133Y52847000D01*
X24170217Y52847000D01*
X24282000Y52824765D01*
X24393783Y52847000D01*
X24724855Y52912854D01*
X25100289Y53163711D01*
X25163613Y53258482D01*
X27245381Y55340250D01*
X51101000Y55340250D01*
X51101000Y54149691D01*
X51197673Y53916302D01*
X51376301Y53737673D01*
X51609690Y53641000D01*
X52667017Y53641000D01*
X51961588Y53348801D01*
X51403199Y52790412D01*
X51101000Y52060841D01*
X51101000Y51271159D01*
X51403199Y50541588D01*
X51961588Y49983199D01*
X52691159Y49681000D01*
X53480841Y49681000D01*
X54210412Y49983199D01*
X54768801Y50541588D01*
X55071000Y51271159D01*
X55071000Y52060841D01*
X54768801Y52790412D01*
X54210412Y53348801D01*
X53504983Y53641000D01*
X54562310Y53641000D01*
X54795699Y53737673D01*
X54974327Y53916302D01*
X55071000Y54149691D01*
X55071000Y55340250D01*
X54912250Y55499000D01*
X53213000Y55499000D01*
X53213000Y55479000D01*
X52959000Y55479000D01*
X52959000Y55499000D01*
X51259750Y55499000D01*
X51101000Y55340250D01*
X27245381Y55340250D01*
X27545521Y55640389D01*
X27640289Y55703711D01*
X27891146Y56079145D01*
X27957000Y56410217D01*
X27979235Y56521999D01*
X27957000Y56633781D01*
X27957000Y57102309D01*
X51101000Y57102309D01*
X51101000Y55911750D01*
X51259750Y55753000D01*
X52959000Y55753000D01*
X52959000Y57452250D01*
X53213000Y57452250D01*
X53213000Y55753000D01*
X54912250Y55753000D01*
X55071000Y55911750D01*
X55071000Y57102309D01*
X54974327Y57335698D01*
X54795699Y57514327D01*
X54562310Y57611000D01*
X53371750Y57611000D01*
X53213000Y57452250D01*
X52959000Y57452250D01*
X52800250Y57611000D01*
X51609690Y57611000D01*
X51376301Y57514327D01*
X51197673Y57335698D01*
X51101000Y57102309D01*
X27957000Y57102309D01*
X27957000Y58347766D01*
X27913381Y58453072D01*
X27891146Y58564855D01*
X27827826Y58659620D01*
X27784207Y58764926D01*
X27703609Y58845524D01*
X27640289Y58940289D01*
X27545525Y59003608D01*
X27464926Y59084207D01*
X27359618Y59127827D01*
X27264854Y59191146D01*
X27153073Y59213381D01*
X27047766Y59257000D01*
X26933783Y59257000D01*
X26822000Y59279235D01*
X26710217Y59257000D01*
X26596234Y59257000D01*
X26490928Y59213381D01*
X26379145Y59191146D01*
X26284380Y59127826D01*
X26179074Y59084207D01*
X26098476Y59003609D01*
X26003711Y58940289D01*
X25940392Y58845525D01*
X25859793Y58764926D01*
X25816173Y58659618D01*
X25752854Y58564854D01*
X25730619Y58453073D01*
X25687000Y58347766D01*
X25687000Y56992132D01*
X23811869Y55117000D01*
X20683783Y55117000D01*
X20572000Y55139235D01*
X20129145Y55051146D01*
X19888406Y54890289D01*
X19753711Y54800289D01*
X19690391Y54705524D01*
X18908398Y53923530D01*
X19800865Y55090829D01*
X21120599Y56566872D01*
X22549684Y57937315D01*
X24079710Y59194093D01*
X25701628Y60329772D01*
X27405911Y61337681D01*
X29182475Y62211859D01*
X30144319Y62596569D01*
X37437000Y62596569D01*
X37437000Y61707431D01*
X37777259Y60885974D01*
X38405974Y60257259D01*
X39227431Y59917000D01*
X40116569Y59917000D01*
X40938026Y60257259D01*
X41566741Y60885974D01*
X41907000Y61707431D01*
X41907000Y62596569D01*
X41566741Y63418026D01*
X40938026Y64046741D01*
X40116569Y64387000D01*
X39227431Y64387000D01*
X38405974Y64046741D01*
X37777259Y63418026D01*
X37437000Y62596569D01*
X30144319Y62596569D01*
X31020875Y62947166D01*
X32910269Y63539267D01*
X34839537Y63984674D01*
X36797277Y64280755D01*
X38771952Y64425766D01*
X40751956Y64418854D01*
G36*
X29048702Y51702075D02*
X29078894Y51702996D01*
X29112996Y51668894D01*
X29112075Y51638702D01*
X29139000Y51611777D01*
X29139000Y51552223D01*
X29112075Y51525298D01*
X29112996Y51495106D01*
X29078894Y51461004D01*
X29048702Y51461925D01*
X29021777Y51435000D01*
X28962223Y51435000D01*
X28935298Y51461925D01*
X28905106Y51461004D01*
X28871004Y51495106D01*
X28871925Y51525298D01*
X28845000Y51552223D01*
X28845000Y51611777D01*
X28871925Y51638702D01*
X28871004Y51668894D01*
X28905106Y51702996D01*
X28935298Y51702075D01*
X28962223Y51729000D01*
X29021777Y51729000D01*
X29048702Y51702075D01*
X29048702Y51702075D01*
G37*
X29048702Y51702075D02*
X29078894Y51702996D01*
X29112996Y51668894D01*
X29112075Y51638702D01*
X29139000Y51611777D01*
X29139000Y51552223D01*
X29112075Y51525298D01*
X29112996Y51495106D01*
X29078894Y51461004D01*
X29048702Y51461925D01*
X29021777Y51435000D01*
X28962223Y51435000D01*
X28935298Y51461925D01*
X28905106Y51461004D01*
X28871004Y51495106D01*
X28871925Y51525298D01*
X28845000Y51552223D01*
X28845000Y51611777D01*
X28871925Y51638702D01*
X28871004Y51668894D01*
X28905106Y51702996D01*
X28935298Y51702075D01*
X28962223Y51729000D01*
X29021777Y51729000D01*
X29048702Y51702075D01*
G04 #@! TD*
M02*
