G04 #@! TF.GenerationSoftware,KiCad,Pcbnew,(5.0.2)-1*
G04 #@! TF.CreationDate,2019-03-24T18:15:19+01:00*
G04 #@! TF.ProjectId,DICE-Charging - 2.0,44494345-2d43-4686-9172-67696e67202d,rev?*
G04 #@! TF.SameCoordinates,PX8cfad20PY5dfc8c0*
G04 #@! TF.FileFunction,Soldermask,Top*
G04 #@! TF.FilePolarity,Negative*
%FSLAX46Y46*%
G04 Gerber Fmt 4.6, Leading zero omitted, Abs format (unit mm)*
G04 Created by KiCad (PCBNEW (5.0.2)-1) date 24/03/2019 18:15:19*
%MOMM*%
%LPD*%
G01*
G04 APERTURE LIST*
%ADD10C,0.100000*%
G04 APERTURE END LIST*
D10*
G36*
X40047256Y16760702D02*
X40153579Y16739553D01*
X40454042Y16615097D01*
X40720852Y16436820D01*
X40724454Y16434413D01*
X40954413Y16204454D01*
X41135098Y15934040D01*
X41259553Y15633578D01*
X41323000Y15314611D01*
X41323000Y14989389D01*
X41259553Y14670422D01*
X41135098Y14369960D01*
X40954413Y14099546D01*
X40724454Y13869587D01*
X40724451Y13869585D01*
X40454042Y13688903D01*
X40153579Y13564447D01*
X40047256Y13543298D01*
X39834611Y13501000D01*
X39509389Y13501000D01*
X39296744Y13543298D01*
X39190421Y13564447D01*
X38889958Y13688903D01*
X38619549Y13869585D01*
X38619546Y13869587D01*
X38389587Y14099546D01*
X38208902Y14369960D01*
X38084447Y14670422D01*
X38021000Y14989389D01*
X38021000Y15314611D01*
X38084447Y15633578D01*
X38208902Y15934040D01*
X38389587Y16204454D01*
X38619546Y16434413D01*
X38623148Y16436820D01*
X38889958Y16615097D01*
X39190421Y16739553D01*
X39296744Y16760702D01*
X39509389Y16803000D01*
X39834611Y16803000D01*
X40047256Y16760702D01*
X40047256Y16760702D01*
G37*
G36*
X51041000Y18540000D02*
X49239000Y18540000D01*
X49239000Y20342000D01*
X51041000Y20342000D01*
X51041000Y18540000D01*
X51041000Y18540000D01*
G37*
G36*
X47710443Y20335481D02*
X47776627Y20328963D01*
X47889853Y20294616D01*
X47946467Y20277443D01*
X48085087Y20203348D01*
X48102991Y20193778D01*
X48138729Y20164448D01*
X48240186Y20081186D01*
X48320764Y19983000D01*
X48352778Y19943991D01*
X48352779Y19943989D01*
X48436443Y19787467D01*
X48436443Y19787466D01*
X48487963Y19617627D01*
X48505359Y19441000D01*
X48487963Y19264373D01*
X48453616Y19151147D01*
X48436443Y19094533D01*
X48375757Y18981000D01*
X48352778Y18938009D01*
X48323448Y18902271D01*
X48240186Y18800814D01*
X48138729Y18717552D01*
X48102991Y18688222D01*
X48102989Y18688221D01*
X47946467Y18604557D01*
X47889853Y18587384D01*
X47776627Y18553037D01*
X47710442Y18546518D01*
X47644260Y18540000D01*
X47555740Y18540000D01*
X47489558Y18546518D01*
X47423373Y18553037D01*
X47310147Y18587384D01*
X47253533Y18604557D01*
X47097011Y18688221D01*
X47097009Y18688222D01*
X47061271Y18717552D01*
X46959814Y18800814D01*
X46876552Y18902271D01*
X46847222Y18938009D01*
X46824243Y18981000D01*
X46763557Y19094533D01*
X46746384Y19151147D01*
X46712037Y19264373D01*
X46694641Y19441000D01*
X46712037Y19617627D01*
X46763557Y19787466D01*
X46763557Y19787467D01*
X46847221Y19943989D01*
X46847222Y19943991D01*
X46879236Y19983000D01*
X46959814Y20081186D01*
X47061271Y20164448D01*
X47097009Y20193778D01*
X47114913Y20203348D01*
X47253533Y20277443D01*
X47310147Y20294616D01*
X47423373Y20328963D01*
X47489557Y20335481D01*
X47555740Y20342000D01*
X47644260Y20342000D01*
X47710443Y20335481D01*
X47710443Y20335481D01*
G37*
G36*
X45150443Y20335481D02*
X45216627Y20328963D01*
X45329853Y20294616D01*
X45386467Y20277443D01*
X45525087Y20203348D01*
X45542991Y20193778D01*
X45578729Y20164448D01*
X45680186Y20081186D01*
X45760764Y19983000D01*
X45792778Y19943991D01*
X45792779Y19943989D01*
X45876443Y19787467D01*
X45876443Y19787466D01*
X45927963Y19617627D01*
X45945359Y19441000D01*
X45927963Y19264373D01*
X45893616Y19151147D01*
X45876443Y19094533D01*
X45815757Y18981000D01*
X45792778Y18938009D01*
X45763448Y18902271D01*
X45680186Y18800814D01*
X45578729Y18717552D01*
X45542991Y18688222D01*
X45542989Y18688221D01*
X45386467Y18604557D01*
X45329853Y18587384D01*
X45216627Y18553037D01*
X45150442Y18546518D01*
X45084260Y18540000D01*
X44995740Y18540000D01*
X44929558Y18546518D01*
X44863373Y18553037D01*
X44750147Y18587384D01*
X44693533Y18604557D01*
X44537011Y18688221D01*
X44537009Y18688222D01*
X44501271Y18717552D01*
X44399814Y18800814D01*
X44316552Y18902271D01*
X44287222Y18938009D01*
X44264243Y18981000D01*
X44203557Y19094533D01*
X44186384Y19151147D01*
X44152037Y19264373D01*
X44134641Y19441000D01*
X44152037Y19617627D01*
X44203557Y19787466D01*
X44203557Y19787467D01*
X44287221Y19943989D01*
X44287222Y19943991D01*
X44319236Y19983000D01*
X44399814Y20081186D01*
X44501271Y20164448D01*
X44537009Y20193778D01*
X44554913Y20203348D01*
X44693533Y20277443D01*
X44750147Y20294616D01*
X44863373Y20328963D01*
X44929557Y20335481D01*
X44995740Y20342000D01*
X45084260Y20342000D01*
X45150443Y20335481D01*
X45150443Y20335481D01*
G37*
G36*
X43401000Y18540000D02*
X41599000Y18540000D01*
X41599000Y20342000D01*
X43401000Y20342000D01*
X43401000Y18540000D01*
X43401000Y18540000D01*
G37*
G36*
X37530443Y20335481D02*
X37596627Y20328963D01*
X37709853Y20294616D01*
X37766467Y20277443D01*
X37905087Y20203348D01*
X37922991Y20193778D01*
X37958729Y20164448D01*
X38060186Y20081186D01*
X38140764Y19983000D01*
X38172778Y19943991D01*
X38172779Y19943989D01*
X38256443Y19787467D01*
X38256443Y19787466D01*
X38307963Y19617627D01*
X38325359Y19441000D01*
X38307963Y19264373D01*
X38273616Y19151147D01*
X38256443Y19094533D01*
X38195757Y18981000D01*
X38172778Y18938009D01*
X38143448Y18902271D01*
X38060186Y18800814D01*
X37958729Y18717552D01*
X37922991Y18688222D01*
X37922989Y18688221D01*
X37766467Y18604557D01*
X37709853Y18587384D01*
X37596627Y18553037D01*
X37530442Y18546518D01*
X37464260Y18540000D01*
X37375740Y18540000D01*
X37309558Y18546518D01*
X37243373Y18553037D01*
X37130147Y18587384D01*
X37073533Y18604557D01*
X36917011Y18688221D01*
X36917009Y18688222D01*
X36881271Y18717552D01*
X36779814Y18800814D01*
X36696552Y18902271D01*
X36667222Y18938009D01*
X36644243Y18981000D01*
X36583557Y19094533D01*
X36566384Y19151147D01*
X36532037Y19264373D01*
X36514641Y19441000D01*
X36532037Y19617627D01*
X36583557Y19787466D01*
X36583557Y19787467D01*
X36667221Y19943989D01*
X36667222Y19943991D01*
X36699236Y19983000D01*
X36779814Y20081186D01*
X36881271Y20164448D01*
X36917009Y20193778D01*
X36934913Y20203348D01*
X37073533Y20277443D01*
X37130147Y20294616D01*
X37243373Y20328963D01*
X37309557Y20335481D01*
X37375740Y20342000D01*
X37464260Y20342000D01*
X37530443Y20335481D01*
X37530443Y20335481D01*
G37*
G36*
X34990443Y20335481D02*
X35056627Y20328963D01*
X35169853Y20294616D01*
X35226467Y20277443D01*
X35365087Y20203348D01*
X35382991Y20193778D01*
X35418729Y20164448D01*
X35520186Y20081186D01*
X35600764Y19983000D01*
X35632778Y19943991D01*
X35632779Y19943989D01*
X35716443Y19787467D01*
X35716443Y19787466D01*
X35767963Y19617627D01*
X35785359Y19441000D01*
X35767963Y19264373D01*
X35733616Y19151147D01*
X35716443Y19094533D01*
X35655757Y18981000D01*
X35632778Y18938009D01*
X35603448Y18902271D01*
X35520186Y18800814D01*
X35418729Y18717552D01*
X35382991Y18688222D01*
X35382989Y18688221D01*
X35226467Y18604557D01*
X35169853Y18587384D01*
X35056627Y18553037D01*
X34990442Y18546518D01*
X34924260Y18540000D01*
X34835740Y18540000D01*
X34769558Y18546518D01*
X34703373Y18553037D01*
X34590147Y18587384D01*
X34533533Y18604557D01*
X34377011Y18688221D01*
X34377009Y18688222D01*
X34341271Y18717552D01*
X34239814Y18800814D01*
X34156552Y18902271D01*
X34127222Y18938009D01*
X34104243Y18981000D01*
X34043557Y19094533D01*
X34026384Y19151147D01*
X33992037Y19264373D01*
X33974641Y19441000D01*
X33992037Y19617627D01*
X34043557Y19787466D01*
X34043557Y19787467D01*
X34127221Y19943989D01*
X34127222Y19943991D01*
X34159236Y19983000D01*
X34239814Y20081186D01*
X34341271Y20164448D01*
X34377009Y20193778D01*
X34394913Y20203348D01*
X34533533Y20277443D01*
X34590147Y20294616D01*
X34703373Y20328963D01*
X34769557Y20335481D01*
X34835740Y20342000D01*
X34924260Y20342000D01*
X34990443Y20335481D01*
X34990443Y20335481D01*
G37*
G36*
X40861000Y18540000D02*
X39059000Y18540000D01*
X39059000Y20342000D01*
X40861000Y20342000D01*
X40861000Y18540000D01*
X40861000Y18540000D01*
G37*
G36*
X29183000Y18981000D02*
X28281000Y18981000D01*
X28281000Y19983000D01*
X29183000Y19983000D01*
X29183000Y18981000D01*
X29183000Y18981000D01*
G37*
G36*
X27283000Y18981000D02*
X26381000Y18981000D01*
X26381000Y19983000D01*
X27283000Y19983000D01*
X27283000Y18981000D01*
X27283000Y18981000D01*
G37*
G36*
X56484527Y23778264D02*
X56584410Y23758396D01*
X56866674Y23641479D01*
X57120705Y23471741D01*
X57336741Y23255705D01*
X57506479Y23001674D01*
X57623396Y22719410D01*
X57683000Y22419760D01*
X57683000Y22114240D01*
X57623396Y21814590D01*
X57506479Y21532326D01*
X57336741Y21278295D01*
X57120705Y21062259D01*
X56866674Y20892521D01*
X56584410Y20775604D01*
X56484527Y20755736D01*
X56284762Y20716000D01*
X55979238Y20716000D01*
X55779473Y20755736D01*
X55679590Y20775604D01*
X55397326Y20892521D01*
X55143295Y21062259D01*
X54927259Y21278295D01*
X54757521Y21532326D01*
X54640604Y21814590D01*
X54581000Y22114240D01*
X54581000Y22419760D01*
X54640604Y22719410D01*
X54757521Y23001674D01*
X54927259Y23255705D01*
X55143295Y23471741D01*
X55397326Y23641479D01*
X55679590Y23758396D01*
X55779473Y23778264D01*
X55979238Y23818000D01*
X56284762Y23818000D01*
X56484527Y23778264D01*
X56484527Y23778264D01*
G37*
G36*
X28233000Y20981000D02*
X27331000Y20981000D01*
X27331000Y21983000D01*
X28233000Y21983000D01*
X28233000Y20981000D01*
X28233000Y20981000D01*
G37*
G36*
X20385377Y25352755D02*
X20422050Y25338953D01*
X20455331Y25318257D01*
X20483931Y25291471D01*
X20510349Y25254604D01*
X20538527Y25205798D01*
X20538530Y25205794D01*
X20851530Y24663662D01*
X20851535Y24663650D01*
X20879706Y24614857D01*
X20898428Y24573539D01*
X20907326Y24535375D01*
X20908608Y24496208D01*
X20902226Y24457551D01*
X20888422Y24420874D01*
X20867728Y24387596D01*
X20840940Y24358995D01*
X20804074Y24332577D01*
X20250926Y24013217D01*
X20209615Y23994498D01*
X20171450Y23985600D01*
X20132283Y23984318D01*
X20093623Y23990701D01*
X20056950Y24004503D01*
X20023669Y24025199D01*
X19995069Y24051985D01*
X19968651Y24088852D01*
X19940473Y24137658D01*
X19940470Y24137662D01*
X19627470Y24679794D01*
X19627465Y24679806D01*
X19599294Y24728599D01*
X19580572Y24769917D01*
X19571674Y24808081D01*
X19570392Y24847248D01*
X19576774Y24885905D01*
X19590578Y24922582D01*
X19611272Y24955860D01*
X19638060Y24984461D01*
X19674926Y25010879D01*
X20228074Y25330239D01*
X20269385Y25348958D01*
X20307550Y25357856D01*
X20346717Y25359138D01*
X20385377Y25352755D01*
X20385377Y25352755D01*
G37*
G36*
X22812377Y25352755D02*
X22849050Y25338953D01*
X22882331Y25318257D01*
X22910931Y25291471D01*
X22937349Y25254604D01*
X22965527Y25205798D01*
X22965530Y25205794D01*
X23278530Y24663662D01*
X23278535Y24663650D01*
X23306706Y24614857D01*
X23325428Y24573539D01*
X23334326Y24535375D01*
X23335608Y24496208D01*
X23329226Y24457551D01*
X23315422Y24420874D01*
X23294728Y24387596D01*
X23267940Y24358995D01*
X23231074Y24332577D01*
X22677926Y24013217D01*
X22636615Y23994498D01*
X22598450Y23985600D01*
X22559283Y23984318D01*
X22520623Y23990701D01*
X22483950Y24004503D01*
X22450669Y24025199D01*
X22422069Y24051985D01*
X22395651Y24088852D01*
X22367473Y24137658D01*
X22367470Y24137662D01*
X22054470Y24679794D01*
X22054465Y24679806D01*
X22026294Y24728599D01*
X22007572Y24769917D01*
X21998674Y24808081D01*
X21997392Y24847248D01*
X22003774Y24885905D01*
X22017578Y24922582D01*
X22038272Y24955860D01*
X22065060Y24984461D01*
X22101926Y25010879D01*
X22655074Y25330239D01*
X22696385Y25348958D01*
X22734550Y25357856D01*
X22773717Y25359138D01*
X22812377Y25352755D01*
X22812377Y25352755D01*
G37*
G36*
X57683000Y24526000D02*
X54581000Y24526000D01*
X54581000Y27628000D01*
X57683000Y27628000D01*
X57683000Y24526000D01*
X57683000Y24526000D01*
G37*
G36*
X19510377Y26868299D02*
X19547050Y26854497D01*
X19580331Y26833801D01*
X19608931Y26807015D01*
X19635349Y26770148D01*
X19663527Y26721342D01*
X19663530Y26721338D01*
X19976530Y26179206D01*
X19976535Y26179194D01*
X20004706Y26130401D01*
X20023428Y26089083D01*
X20032326Y26050919D01*
X20033608Y26011752D01*
X20027226Y25973095D01*
X20013422Y25936418D01*
X19992728Y25903140D01*
X19965940Y25874539D01*
X19929074Y25848121D01*
X19375926Y25528761D01*
X19334615Y25510042D01*
X19296450Y25501144D01*
X19257283Y25499862D01*
X19218623Y25506245D01*
X19181950Y25520047D01*
X19148669Y25540743D01*
X19120069Y25567529D01*
X19093651Y25604396D01*
X19065473Y25653202D01*
X19065470Y25653206D01*
X18752470Y26195338D01*
X18752465Y26195350D01*
X18724294Y26244143D01*
X18705572Y26285461D01*
X18696674Y26323625D01*
X18695392Y26362792D01*
X18701774Y26401449D01*
X18715578Y26438126D01*
X18736272Y26471404D01*
X18763060Y26500005D01*
X18799926Y26526423D01*
X19353074Y26845783D01*
X19394385Y26864502D01*
X19432550Y26873400D01*
X19471717Y26874682D01*
X19510377Y26868299D01*
X19510377Y26868299D01*
G37*
G36*
X21937377Y26868299D02*
X21974050Y26854497D01*
X22007331Y26833801D01*
X22035931Y26807015D01*
X22062349Y26770148D01*
X22090527Y26721342D01*
X22090530Y26721338D01*
X22403530Y26179206D01*
X22403535Y26179194D01*
X22431706Y26130401D01*
X22450428Y26089083D01*
X22459326Y26050919D01*
X22460608Y26011752D01*
X22454226Y25973095D01*
X22440422Y25936418D01*
X22419728Y25903140D01*
X22392940Y25874539D01*
X22356074Y25848121D01*
X21802926Y25528761D01*
X21761615Y25510042D01*
X21723450Y25501144D01*
X21684283Y25499862D01*
X21645623Y25506245D01*
X21608950Y25520047D01*
X21575669Y25540743D01*
X21547069Y25567529D01*
X21520651Y25604396D01*
X21492473Y25653202D01*
X21492470Y25653206D01*
X21179470Y26195338D01*
X21179465Y26195350D01*
X21151294Y26244143D01*
X21132572Y26285461D01*
X21123674Y26323625D01*
X21122392Y26362792D01*
X21128774Y26401449D01*
X21142578Y26438126D01*
X21163272Y26471404D01*
X21190060Y26500005D01*
X21226926Y26526423D01*
X21780074Y26845783D01*
X21821385Y26864502D01*
X21859550Y26873400D01*
X21898717Y26874682D01*
X21937377Y26868299D01*
X21937377Y26868299D01*
G37*
G36*
X29750677Y29998535D02*
X29788364Y29987102D01*
X29823103Y29968534D01*
X29853548Y29943548D01*
X29878534Y29913103D01*
X29897102Y29878364D01*
X29908535Y29840677D01*
X29913000Y29795339D01*
X29913000Y28958661D01*
X29908535Y28913323D01*
X29897102Y28875636D01*
X29878534Y28840897D01*
X29853548Y28810452D01*
X29823103Y28785466D01*
X29788364Y28766898D01*
X29750677Y28755465D01*
X29705339Y28751000D01*
X28618661Y28751000D01*
X28573323Y28755465D01*
X28535636Y28766898D01*
X28500897Y28785466D01*
X28470452Y28810452D01*
X28445466Y28840897D01*
X28426898Y28875636D01*
X28415465Y28913323D01*
X28411000Y28958661D01*
X28411000Y29795339D01*
X28415465Y29840677D01*
X28426898Y29878364D01*
X28445466Y29913103D01*
X28470452Y29943548D01*
X28500897Y29968534D01*
X28535636Y29987102D01*
X28573323Y29998535D01*
X28618661Y30003000D01*
X29705339Y30003000D01*
X29750677Y29998535D01*
X29750677Y29998535D01*
G37*
G36*
X17930677Y29998535D02*
X17968364Y29987102D01*
X18003103Y29968534D01*
X18033548Y29943548D01*
X18058534Y29913103D01*
X18077102Y29878364D01*
X18088535Y29840677D01*
X18093000Y29795339D01*
X18093000Y28958661D01*
X18088535Y28913323D01*
X18077102Y28875636D01*
X18058534Y28840897D01*
X18033548Y28810452D01*
X18003103Y28785466D01*
X17968364Y28766898D01*
X17930677Y28755465D01*
X17885339Y28751000D01*
X16798661Y28751000D01*
X16753323Y28755465D01*
X16715636Y28766898D01*
X16680897Y28785466D01*
X16650452Y28810452D01*
X16625466Y28840897D01*
X16606898Y28875636D01*
X16595465Y28913323D01*
X16591000Y28958661D01*
X16591000Y29795339D01*
X16595465Y29840677D01*
X16606898Y29878364D01*
X16625466Y29913103D01*
X16650452Y29943548D01*
X16680897Y29968534D01*
X16715636Y29987102D01*
X16753323Y29998535D01*
X16798661Y30003000D01*
X17885339Y30003000D01*
X17930677Y29998535D01*
X17930677Y29998535D01*
G37*
G36*
X20357677Y29998535D02*
X20395364Y29987102D01*
X20430103Y29968534D01*
X20460548Y29943548D01*
X20485534Y29913103D01*
X20504102Y29878364D01*
X20515535Y29840677D01*
X20520000Y29795339D01*
X20520000Y28958661D01*
X20515535Y28913323D01*
X20504102Y28875636D01*
X20485534Y28840897D01*
X20460548Y28810452D01*
X20430103Y28785466D01*
X20395364Y28766898D01*
X20357677Y28755465D01*
X20312339Y28751000D01*
X19225661Y28751000D01*
X19180323Y28755465D01*
X19142636Y28766898D01*
X19107897Y28785466D01*
X19077452Y28810452D01*
X19052466Y28840897D01*
X19033898Y28875636D01*
X19022465Y28913323D01*
X19018000Y28958661D01*
X19018000Y29795339D01*
X19022465Y29840677D01*
X19033898Y29878364D01*
X19052466Y29913103D01*
X19077452Y29943548D01*
X19107897Y29968534D01*
X19142636Y29987102D01*
X19180323Y29998535D01*
X19225661Y30003000D01*
X20312339Y30003000D01*
X20357677Y29998535D01*
X20357677Y29998535D01*
G37*
G36*
X22739677Y29998535D02*
X22777364Y29987102D01*
X22812103Y29968534D01*
X22842548Y29943548D01*
X22867534Y29913103D01*
X22886102Y29878364D01*
X22897535Y29840677D01*
X22902000Y29795339D01*
X22902000Y28958661D01*
X22897535Y28913323D01*
X22886102Y28875636D01*
X22867534Y28840897D01*
X22842548Y28810452D01*
X22812103Y28785466D01*
X22777364Y28766898D01*
X22739677Y28755465D01*
X22694339Y28751000D01*
X21607661Y28751000D01*
X21562323Y28755465D01*
X21524636Y28766898D01*
X21489897Y28785466D01*
X21459452Y28810452D01*
X21434466Y28840897D01*
X21415898Y28875636D01*
X21404465Y28913323D01*
X21400000Y28958661D01*
X21400000Y29795339D01*
X21404465Y29840677D01*
X21415898Y29878364D01*
X21434466Y29913103D01*
X21459452Y29943548D01*
X21489897Y29968534D01*
X21524636Y29987102D01*
X21562323Y29998535D01*
X21607661Y30003000D01*
X22694339Y30003000D01*
X22739677Y29998535D01*
X22739677Y29998535D01*
G37*
G36*
X27413677Y29998535D02*
X27451364Y29987102D01*
X27486103Y29968534D01*
X27516548Y29943548D01*
X27541534Y29913103D01*
X27560102Y29878364D01*
X27571535Y29840677D01*
X27576000Y29795339D01*
X27576000Y28958661D01*
X27571535Y28913323D01*
X27560102Y28875636D01*
X27541534Y28840897D01*
X27516548Y28810452D01*
X27486103Y28785466D01*
X27451364Y28766898D01*
X27413677Y28755465D01*
X27368339Y28751000D01*
X26281661Y28751000D01*
X26236323Y28755465D01*
X26198636Y28766898D01*
X26163897Y28785466D01*
X26133452Y28810452D01*
X26108466Y28840897D01*
X26089898Y28875636D01*
X26078465Y28913323D01*
X26074000Y28958661D01*
X26074000Y29795339D01*
X26078465Y29840677D01*
X26089898Y29878364D01*
X26108466Y29913103D01*
X26133452Y29943548D01*
X26163897Y29968534D01*
X26198636Y29987102D01*
X26236323Y29998535D01*
X26281661Y30003000D01*
X27368339Y30003000D01*
X27413677Y29998535D01*
X27413677Y29998535D01*
G37*
G36*
X25076677Y29998535D02*
X25114364Y29987102D01*
X25149103Y29968534D01*
X25179548Y29943548D01*
X25204534Y29913103D01*
X25223102Y29878364D01*
X25234535Y29840677D01*
X25239000Y29795339D01*
X25239000Y28958661D01*
X25234535Y28913323D01*
X25223102Y28875636D01*
X25204534Y28840897D01*
X25179548Y28810452D01*
X25149103Y28785466D01*
X25114364Y28766898D01*
X25076677Y28755465D01*
X25031339Y28751000D01*
X23944661Y28751000D01*
X23899323Y28755465D01*
X23861636Y28766898D01*
X23826897Y28785466D01*
X23796452Y28810452D01*
X23771466Y28840897D01*
X23752898Y28875636D01*
X23741465Y28913323D01*
X23737000Y28958661D01*
X23737000Y29795339D01*
X23741465Y29840677D01*
X23752898Y29878364D01*
X23771466Y29913103D01*
X23796452Y29943548D01*
X23826897Y29968534D01*
X23861636Y29987102D01*
X23899323Y29998535D01*
X23944661Y30003000D01*
X25031339Y30003000D01*
X25076677Y29998535D01*
X25076677Y29998535D01*
G37*
G36*
X29750677Y32048535D02*
X29788364Y32037102D01*
X29823103Y32018534D01*
X29853548Y31993548D01*
X29878534Y31963103D01*
X29897102Y31928364D01*
X29908535Y31890677D01*
X29913000Y31845339D01*
X29913000Y31008661D01*
X29908535Y30963323D01*
X29897102Y30925636D01*
X29878534Y30890897D01*
X29853548Y30860452D01*
X29823103Y30835466D01*
X29788364Y30816898D01*
X29750677Y30805465D01*
X29705339Y30801000D01*
X28618661Y30801000D01*
X28573323Y30805465D01*
X28535636Y30816898D01*
X28500897Y30835466D01*
X28470452Y30860452D01*
X28445466Y30890897D01*
X28426898Y30925636D01*
X28415465Y30963323D01*
X28411000Y31008661D01*
X28411000Y31845339D01*
X28415465Y31890677D01*
X28426898Y31928364D01*
X28445466Y31963103D01*
X28470452Y31993548D01*
X28500897Y32018534D01*
X28535636Y32037102D01*
X28573323Y32048535D01*
X28618661Y32053000D01*
X29705339Y32053000D01*
X29750677Y32048535D01*
X29750677Y32048535D01*
G37*
G36*
X27413677Y32048535D02*
X27451364Y32037102D01*
X27486103Y32018534D01*
X27516548Y31993548D01*
X27541534Y31963103D01*
X27560102Y31928364D01*
X27571535Y31890677D01*
X27576000Y31845339D01*
X27576000Y31008661D01*
X27571535Y30963323D01*
X27560102Y30925636D01*
X27541534Y30890897D01*
X27516548Y30860452D01*
X27486103Y30835466D01*
X27451364Y30816898D01*
X27413677Y30805465D01*
X27368339Y30801000D01*
X26281661Y30801000D01*
X26236323Y30805465D01*
X26198636Y30816898D01*
X26163897Y30835466D01*
X26133452Y30860452D01*
X26108466Y30890897D01*
X26089898Y30925636D01*
X26078465Y30963323D01*
X26074000Y31008661D01*
X26074000Y31845339D01*
X26078465Y31890677D01*
X26089898Y31928364D01*
X26108466Y31963103D01*
X26133452Y31993548D01*
X26163897Y32018534D01*
X26198636Y32037102D01*
X26236323Y32048535D01*
X26281661Y32053000D01*
X27368339Y32053000D01*
X27413677Y32048535D01*
X27413677Y32048535D01*
G37*
G36*
X20357677Y32048535D02*
X20395364Y32037102D01*
X20430103Y32018534D01*
X20460548Y31993548D01*
X20485534Y31963103D01*
X20504102Y31928364D01*
X20515535Y31890677D01*
X20520000Y31845339D01*
X20520000Y31008661D01*
X20515535Y30963323D01*
X20504102Y30925636D01*
X20485534Y30890897D01*
X20460548Y30860452D01*
X20430103Y30835466D01*
X20395364Y30816898D01*
X20357677Y30805465D01*
X20312339Y30801000D01*
X19225661Y30801000D01*
X19180323Y30805465D01*
X19142636Y30816898D01*
X19107897Y30835466D01*
X19077452Y30860452D01*
X19052466Y30890897D01*
X19033898Y30925636D01*
X19022465Y30963323D01*
X19018000Y31008661D01*
X19018000Y31845339D01*
X19022465Y31890677D01*
X19033898Y31928364D01*
X19052466Y31963103D01*
X19077452Y31993548D01*
X19107897Y32018534D01*
X19142636Y32037102D01*
X19180323Y32048535D01*
X19225661Y32053000D01*
X20312339Y32053000D01*
X20357677Y32048535D01*
X20357677Y32048535D01*
G37*
G36*
X17930677Y32048535D02*
X17968364Y32037102D01*
X18003103Y32018534D01*
X18033548Y31993548D01*
X18058534Y31963103D01*
X18077102Y31928364D01*
X18088535Y31890677D01*
X18093000Y31845339D01*
X18093000Y31008661D01*
X18088535Y30963323D01*
X18077102Y30925636D01*
X18058534Y30890897D01*
X18033548Y30860452D01*
X18003103Y30835466D01*
X17968364Y30816898D01*
X17930677Y30805465D01*
X17885339Y30801000D01*
X16798661Y30801000D01*
X16753323Y30805465D01*
X16715636Y30816898D01*
X16680897Y30835466D01*
X16650452Y30860452D01*
X16625466Y30890897D01*
X16606898Y30925636D01*
X16595465Y30963323D01*
X16591000Y31008661D01*
X16591000Y31845339D01*
X16595465Y31890677D01*
X16606898Y31928364D01*
X16625466Y31963103D01*
X16650452Y31993548D01*
X16680897Y32018534D01*
X16715636Y32037102D01*
X16753323Y32048535D01*
X16798661Y32053000D01*
X17885339Y32053000D01*
X17930677Y32048535D01*
X17930677Y32048535D01*
G37*
G36*
X25076677Y32048535D02*
X25114364Y32037102D01*
X25149103Y32018534D01*
X25179548Y31993548D01*
X25204534Y31963103D01*
X25223102Y31928364D01*
X25234535Y31890677D01*
X25239000Y31845339D01*
X25239000Y31008661D01*
X25234535Y30963323D01*
X25223102Y30925636D01*
X25204534Y30890897D01*
X25179548Y30860452D01*
X25149103Y30835466D01*
X25114364Y30816898D01*
X25076677Y30805465D01*
X25031339Y30801000D01*
X23944661Y30801000D01*
X23899323Y30805465D01*
X23861636Y30816898D01*
X23826897Y30835466D01*
X23796452Y30860452D01*
X23771466Y30890897D01*
X23752898Y30925636D01*
X23741465Y30963323D01*
X23737000Y31008661D01*
X23737000Y31845339D01*
X23741465Y31890677D01*
X23752898Y31928364D01*
X23771466Y31963103D01*
X23796452Y31993548D01*
X23826897Y32018534D01*
X23861636Y32037102D01*
X23899323Y32048535D01*
X23944661Y32053000D01*
X25031339Y32053000D01*
X25076677Y32048535D01*
X25076677Y32048535D01*
G37*
G36*
X22739677Y32048535D02*
X22777364Y32037102D01*
X22812103Y32018534D01*
X22842548Y31993548D01*
X22867534Y31963103D01*
X22886102Y31928364D01*
X22897535Y31890677D01*
X22902000Y31845339D01*
X22902000Y31008661D01*
X22897535Y30963323D01*
X22886102Y30925636D01*
X22867534Y30890897D01*
X22842548Y30860452D01*
X22812103Y30835466D01*
X22777364Y30816898D01*
X22739677Y30805465D01*
X22694339Y30801000D01*
X21607661Y30801000D01*
X21562323Y30805465D01*
X21524636Y30816898D01*
X21489897Y30835466D01*
X21459452Y30860452D01*
X21434466Y30890897D01*
X21415898Y30925636D01*
X21404465Y30963323D01*
X21400000Y31008661D01*
X21400000Y31845339D01*
X21404465Y31890677D01*
X21415898Y31928364D01*
X21434466Y31963103D01*
X21459452Y31993548D01*
X21489897Y32018534D01*
X21524636Y32037102D01*
X21562323Y32048535D01*
X21607661Y32053000D01*
X22694339Y32053000D01*
X22739677Y32048535D01*
X22739677Y32048535D01*
G37*
G36*
X40861000Y31240000D02*
X39059000Y31240000D01*
X39059000Y33042000D01*
X40861000Y33042000D01*
X40861000Y31240000D01*
X40861000Y31240000D01*
G37*
G36*
X43401000Y31240000D02*
X41599000Y31240000D01*
X41599000Y33042000D01*
X43401000Y33042000D01*
X43401000Y31240000D01*
X43401000Y31240000D01*
G37*
G36*
X34990442Y33035482D02*
X35056627Y33028963D01*
X35169853Y32994616D01*
X35226467Y32977443D01*
X35365087Y32903348D01*
X35382991Y32893778D01*
X35418729Y32864448D01*
X35520186Y32781186D01*
X35603448Y32679729D01*
X35632778Y32643991D01*
X35632779Y32643989D01*
X35716443Y32487467D01*
X35716443Y32487466D01*
X35767963Y32317627D01*
X35785359Y32141000D01*
X35767963Y31964373D01*
X35743880Y31884983D01*
X35716443Y31794533D01*
X35642348Y31655913D01*
X35632778Y31638009D01*
X35603448Y31602271D01*
X35520186Y31500814D01*
X35418729Y31417552D01*
X35382991Y31388222D01*
X35382989Y31388221D01*
X35226467Y31304557D01*
X35169853Y31287384D01*
X35056627Y31253037D01*
X34990442Y31246518D01*
X34924260Y31240000D01*
X34835740Y31240000D01*
X34769558Y31246518D01*
X34703373Y31253037D01*
X34590147Y31287384D01*
X34533533Y31304557D01*
X34377011Y31388221D01*
X34377009Y31388222D01*
X34341271Y31417552D01*
X34239814Y31500814D01*
X34156552Y31602271D01*
X34127222Y31638009D01*
X34117652Y31655913D01*
X34043557Y31794533D01*
X34016120Y31884983D01*
X33992037Y31964373D01*
X33974641Y32141000D01*
X33992037Y32317627D01*
X34043557Y32487466D01*
X34043557Y32487467D01*
X34127221Y32643989D01*
X34127222Y32643991D01*
X34156552Y32679729D01*
X34239814Y32781186D01*
X34341271Y32864448D01*
X34377009Y32893778D01*
X34394913Y32903348D01*
X34533533Y32977443D01*
X34590147Y32994616D01*
X34703373Y33028963D01*
X34769558Y33035482D01*
X34835740Y33042000D01*
X34924260Y33042000D01*
X34990442Y33035482D01*
X34990442Y33035482D01*
G37*
G36*
X37530442Y33035482D02*
X37596627Y33028963D01*
X37709853Y32994616D01*
X37766467Y32977443D01*
X37905087Y32903348D01*
X37922991Y32893778D01*
X37958729Y32864448D01*
X38060186Y32781186D01*
X38143448Y32679729D01*
X38172778Y32643991D01*
X38172779Y32643989D01*
X38256443Y32487467D01*
X38256443Y32487466D01*
X38307963Y32317627D01*
X38325359Y32141000D01*
X38307963Y31964373D01*
X38283880Y31884983D01*
X38256443Y31794533D01*
X38182348Y31655913D01*
X38172778Y31638009D01*
X38143448Y31602271D01*
X38060186Y31500814D01*
X37958729Y31417552D01*
X37922991Y31388222D01*
X37922989Y31388221D01*
X37766467Y31304557D01*
X37709853Y31287384D01*
X37596627Y31253037D01*
X37530442Y31246518D01*
X37464260Y31240000D01*
X37375740Y31240000D01*
X37309558Y31246518D01*
X37243373Y31253037D01*
X37130147Y31287384D01*
X37073533Y31304557D01*
X36917011Y31388221D01*
X36917009Y31388222D01*
X36881271Y31417552D01*
X36779814Y31500814D01*
X36696552Y31602271D01*
X36667222Y31638009D01*
X36657652Y31655913D01*
X36583557Y31794533D01*
X36556120Y31884983D01*
X36532037Y31964373D01*
X36514641Y32141000D01*
X36532037Y32317627D01*
X36583557Y32487466D01*
X36583557Y32487467D01*
X36667221Y32643989D01*
X36667222Y32643991D01*
X36696552Y32679729D01*
X36779814Y32781186D01*
X36881271Y32864448D01*
X36917009Y32893778D01*
X36934913Y32903348D01*
X37073533Y32977443D01*
X37130147Y32994616D01*
X37243373Y33028963D01*
X37309558Y33035482D01*
X37375740Y33042000D01*
X37464260Y33042000D01*
X37530442Y33035482D01*
X37530442Y33035482D01*
G37*
G36*
X47690442Y33035482D02*
X47756627Y33028963D01*
X47869853Y32994616D01*
X47926467Y32977443D01*
X48065087Y32903348D01*
X48082991Y32893778D01*
X48118729Y32864448D01*
X48220186Y32781186D01*
X48303448Y32679729D01*
X48332778Y32643991D01*
X48332779Y32643989D01*
X48416443Y32487467D01*
X48416443Y32487466D01*
X48467963Y32317627D01*
X48485359Y32141000D01*
X48467963Y31964373D01*
X48443880Y31884983D01*
X48416443Y31794533D01*
X48342348Y31655913D01*
X48332778Y31638009D01*
X48303448Y31602271D01*
X48220186Y31500814D01*
X48118729Y31417552D01*
X48082991Y31388222D01*
X48082989Y31388221D01*
X47926467Y31304557D01*
X47869853Y31287384D01*
X47756627Y31253037D01*
X47690442Y31246518D01*
X47624260Y31240000D01*
X47535740Y31240000D01*
X47469558Y31246518D01*
X47403373Y31253037D01*
X47290147Y31287384D01*
X47233533Y31304557D01*
X47077011Y31388221D01*
X47077009Y31388222D01*
X47041271Y31417552D01*
X46939814Y31500814D01*
X46856552Y31602271D01*
X46827222Y31638009D01*
X46817652Y31655913D01*
X46743557Y31794533D01*
X46716120Y31884983D01*
X46692037Y31964373D01*
X46674641Y32141000D01*
X46692037Y32317627D01*
X46743557Y32487466D01*
X46743557Y32487467D01*
X46827221Y32643989D01*
X46827222Y32643991D01*
X46856552Y32679729D01*
X46939814Y32781186D01*
X47041271Y32864448D01*
X47077009Y32893778D01*
X47094913Y32903348D01*
X47233533Y32977443D01*
X47290147Y32994616D01*
X47403373Y33028963D01*
X47469558Y33035482D01*
X47535740Y33042000D01*
X47624260Y33042000D01*
X47690442Y33035482D01*
X47690442Y33035482D01*
G37*
G36*
X45941000Y31240000D02*
X44139000Y31240000D01*
X44139000Y33042000D01*
X45941000Y33042000D01*
X45941000Y31240000D01*
X45941000Y31240000D01*
G37*
G36*
X19390600Y37619694D02*
X19423649Y37609669D01*
X19454106Y37593389D01*
X19480799Y37571482D01*
X19502706Y37544789D01*
X19518986Y37514332D01*
X19529011Y37481283D01*
X19533000Y37440779D01*
X19533000Y36004587D01*
X19529011Y35964083D01*
X19518986Y35931034D01*
X19502706Y35900577D01*
X19480799Y35873884D01*
X19454106Y35851977D01*
X19423649Y35835697D01*
X19390600Y35825672D01*
X19350096Y35821683D01*
X17613904Y35821683D01*
X17573400Y35825672D01*
X17540351Y35835697D01*
X17509894Y35851977D01*
X17483201Y35873884D01*
X17461294Y35900577D01*
X17445014Y35931034D01*
X17434989Y35964083D01*
X17431000Y36004587D01*
X17431000Y37440779D01*
X17434989Y37481283D01*
X17445014Y37514332D01*
X17461294Y37544789D01*
X17483201Y37571482D01*
X17509894Y37593389D01*
X17540351Y37609669D01*
X17573400Y37619694D01*
X17613904Y37623683D01*
X19350096Y37623683D01*
X19390600Y37619694D01*
X19390600Y37619694D01*
G37*
G36*
X18742442Y40117165D02*
X18808627Y40110646D01*
X18921853Y40076299D01*
X18978467Y40059126D01*
X19117087Y39985031D01*
X19134991Y39975461D01*
X19170729Y39946131D01*
X19272186Y39862869D01*
X19355448Y39761412D01*
X19384778Y39725674D01*
X19384779Y39725672D01*
X19468443Y39569150D01*
X19468443Y39569149D01*
X19519963Y39399310D01*
X19537359Y39222683D01*
X19519963Y39046056D01*
X19485616Y38932830D01*
X19468443Y38876216D01*
X19394348Y38737596D01*
X19384778Y38719692D01*
X19355448Y38683954D01*
X19272186Y38582497D01*
X19170729Y38499235D01*
X19134991Y38469905D01*
X19134989Y38469904D01*
X18978467Y38386240D01*
X18921853Y38369067D01*
X18808627Y38334720D01*
X18742443Y38328202D01*
X18676260Y38321683D01*
X18287740Y38321683D01*
X18221557Y38328202D01*
X18155373Y38334720D01*
X18042147Y38369067D01*
X17985533Y38386240D01*
X17829011Y38469904D01*
X17829009Y38469905D01*
X17793271Y38499235D01*
X17691814Y38582497D01*
X17608552Y38683954D01*
X17579222Y38719692D01*
X17569652Y38737596D01*
X17495557Y38876216D01*
X17478384Y38932830D01*
X17444037Y39046056D01*
X17426641Y39222683D01*
X17444037Y39399310D01*
X17495557Y39569149D01*
X17495557Y39569150D01*
X17579221Y39725672D01*
X17579222Y39725674D01*
X17608552Y39761412D01*
X17691814Y39862869D01*
X17793271Y39946131D01*
X17829009Y39975461D01*
X17846913Y39985031D01*
X17985533Y40059126D01*
X18042147Y40076299D01*
X18155373Y40110646D01*
X18221558Y40117165D01*
X18287740Y40123683D01*
X18676260Y40123683D01*
X18742442Y40117165D01*
X18742442Y40117165D01*
G37*
G36*
X19623000Y42441500D02*
X17341000Y42441500D01*
X17341000Y44663500D01*
X19623000Y44663500D01*
X19623000Y42441500D01*
X19623000Y42441500D01*
G37*
G36*
X23053000Y42601000D02*
X21551000Y42601000D01*
X21551000Y44503000D01*
X23053000Y44503000D01*
X23053000Y42601000D01*
X23053000Y42601000D01*
G37*
G36*
X48759142Y45983758D02*
X48907102Y45922470D01*
X49040258Y45833498D01*
X49153498Y45720258D01*
X49242470Y45587102D01*
X49303758Y45439142D01*
X49335000Y45282075D01*
X49335000Y45121925D01*
X49303758Y44964858D01*
X49242470Y44816898D01*
X49153498Y44683742D01*
X49040258Y44570502D01*
X48907102Y44481530D01*
X48759142Y44420242D01*
X48602075Y44389000D01*
X48441925Y44389000D01*
X48284858Y44420242D01*
X48136898Y44481530D01*
X48003742Y44570502D01*
X47890502Y44683742D01*
X47801530Y44816898D01*
X47740242Y44964858D01*
X47709000Y45121925D01*
X47709000Y45282075D01*
X47740242Y45439142D01*
X47801530Y45587102D01*
X47890502Y45720258D01*
X48003742Y45833498D01*
X48136898Y45922470D01*
X48284858Y45983758D01*
X48441925Y46015000D01*
X48602075Y46015000D01*
X48759142Y45983758D01*
X48759142Y45983758D01*
G37*
G36*
X34577562Y47496319D02*
X34612477Y47485727D01*
X34644665Y47468522D01*
X34672873Y47445373D01*
X34696022Y47417165D01*
X34713227Y47384977D01*
X34723819Y47350062D01*
X34728000Y47307605D01*
X34728000Y46166395D01*
X34723819Y46123938D01*
X34713227Y46089023D01*
X34696022Y46056835D01*
X34672873Y46028627D01*
X34644665Y46005478D01*
X34612477Y45988273D01*
X34577562Y45977681D01*
X34535105Y45973500D01*
X33068895Y45973500D01*
X33026438Y45977681D01*
X32991523Y45988273D01*
X32959335Y46005478D01*
X32931127Y46028627D01*
X32907978Y46056835D01*
X32890773Y46089023D01*
X32880181Y46123938D01*
X32876000Y46166395D01*
X32876000Y47307605D01*
X32880181Y47350062D01*
X32890773Y47384977D01*
X32907978Y47417165D01*
X32931127Y47445373D01*
X32959335Y47468522D01*
X32991523Y47485727D01*
X33026438Y47496319D01*
X33068895Y47500500D01*
X34535105Y47500500D01*
X34577562Y47496319D01*
X34577562Y47496319D01*
G37*
G36*
X23053000Y46301000D02*
X21551000Y46301000D01*
X21551000Y48203000D01*
X23053000Y48203000D01*
X23053000Y46301000D01*
X23053000Y46301000D01*
G37*
G36*
X19623000Y46720500D02*
X17341000Y46720500D01*
X17341000Y48942500D01*
X19623000Y48942500D01*
X19623000Y46720500D01*
X19623000Y46720500D01*
G37*
G36*
X48759142Y48523758D02*
X48907102Y48462470D01*
X49040258Y48373498D01*
X49153498Y48260258D01*
X49242470Y48127102D01*
X49303758Y47979142D01*
X49335000Y47822075D01*
X49335000Y47661925D01*
X49303758Y47504858D01*
X49242470Y47356898D01*
X49153498Y47223742D01*
X49040258Y47110502D01*
X48907102Y47021530D01*
X48759142Y46960242D01*
X48602075Y46929000D01*
X48441925Y46929000D01*
X48284858Y46960242D01*
X48136898Y47021530D01*
X48003742Y47110502D01*
X47890502Y47223742D01*
X47801530Y47356898D01*
X47740242Y47504858D01*
X47709000Y47661925D01*
X47709000Y47822075D01*
X47740242Y47979142D01*
X47801530Y48127102D01*
X47890502Y48260258D01*
X48003742Y48373498D01*
X48136898Y48462470D01*
X48284858Y48523758D01*
X48441925Y48555000D01*
X48602075Y48555000D01*
X48759142Y48523758D01*
X48759142Y48523758D01*
G37*
G36*
X22990677Y50128535D02*
X23028364Y50117102D01*
X23063103Y50098534D01*
X23093548Y50073548D01*
X23118534Y50043103D01*
X23137102Y50008364D01*
X23148535Y49970677D01*
X23153000Y49925339D01*
X23153000Y49088661D01*
X23148535Y49043323D01*
X23137102Y49005636D01*
X23118534Y48970897D01*
X23093548Y48940452D01*
X23063103Y48915466D01*
X23028364Y48896898D01*
X22990677Y48885465D01*
X22945339Y48881000D01*
X21858661Y48881000D01*
X21813323Y48885465D01*
X21775636Y48896898D01*
X21740897Y48915466D01*
X21710452Y48940452D01*
X21685466Y48970897D01*
X21666898Y49005636D01*
X21655465Y49043323D01*
X21651000Y49088661D01*
X21651000Y49925339D01*
X21655465Y49970677D01*
X21666898Y50008364D01*
X21685466Y50043103D01*
X21710452Y50073548D01*
X21740897Y50098534D01*
X21775636Y50117102D01*
X21813323Y50128535D01*
X21858661Y50133000D01*
X22945339Y50133000D01*
X22990677Y50128535D01*
X22990677Y50128535D01*
G37*
G36*
X34577562Y50471319D02*
X34612477Y50460727D01*
X34644665Y50443522D01*
X34672873Y50420373D01*
X34696022Y50392165D01*
X34713227Y50359977D01*
X34723819Y50325062D01*
X34728000Y50282605D01*
X34728000Y49141395D01*
X34723819Y49098938D01*
X34713227Y49064023D01*
X34696022Y49031835D01*
X34672873Y49003627D01*
X34644665Y48980478D01*
X34612477Y48963273D01*
X34577562Y48952681D01*
X34535105Y48948500D01*
X33068895Y48948500D01*
X33026438Y48952681D01*
X32991523Y48963273D01*
X32959335Y48980478D01*
X32931127Y49003627D01*
X32907978Y49031835D01*
X32890773Y49064023D01*
X32880181Y49098938D01*
X32876000Y49141395D01*
X32876000Y50282605D01*
X32880181Y50325062D01*
X32890773Y50359977D01*
X32907978Y50392165D01*
X32931127Y50420373D01*
X32959335Y50443522D01*
X32991523Y50460727D01*
X33026438Y50471319D01*
X33068895Y50475500D01*
X34535105Y50475500D01*
X34577562Y50471319D01*
X34577562Y50471319D01*
G37*
G36*
X30392000Y53107000D02*
X30394402Y53082614D01*
X30401515Y53059165D01*
X30413066Y53037554D01*
X30428612Y53018612D01*
X30447554Y53003066D01*
X30469165Y52991515D01*
X30492614Y52984402D01*
X30517000Y52982000D01*
X31464500Y52982000D01*
X31464500Y50182000D01*
X30517000Y50182000D01*
X30492614Y50179598D01*
X30469165Y50172485D01*
X30447554Y50160934D01*
X30428612Y50145388D01*
X30413066Y50126446D01*
X30401515Y50104835D01*
X30394402Y50081386D01*
X30392000Y50057000D01*
X30392000Y49109500D01*
X27592000Y49109500D01*
X27592000Y50057000D01*
X27589598Y50081386D01*
X27582485Y50104835D01*
X27570934Y50126446D01*
X27555388Y50145388D01*
X27536446Y50160934D01*
X27514835Y50172485D01*
X27491386Y50179598D01*
X27467000Y50182000D01*
X26519500Y50182000D01*
X26519500Y52982000D01*
X27467000Y52982000D01*
X27491386Y52984402D01*
X27514835Y52991515D01*
X27536446Y53003066D01*
X27555388Y53018612D01*
X27570934Y53037554D01*
X27582485Y53059165D01*
X27589598Y53082614D01*
X27592000Y53107000D01*
X27592000Y54054500D01*
X30392000Y54054500D01*
X30392000Y53107000D01*
X30392000Y53107000D01*
G37*
G36*
X20600677Y50978535D02*
X20638364Y50967102D01*
X20673103Y50948534D01*
X20703548Y50923548D01*
X20728534Y50893103D01*
X20747102Y50858364D01*
X20758535Y50820677D01*
X20763000Y50775339D01*
X20763000Y49688661D01*
X20758535Y49643323D01*
X20747102Y49605636D01*
X20728534Y49570897D01*
X20703548Y49540452D01*
X20673103Y49515466D01*
X20638364Y49496898D01*
X20600677Y49485465D01*
X20555339Y49481000D01*
X19718661Y49481000D01*
X19673323Y49485465D01*
X19635636Y49496898D01*
X19600897Y49515466D01*
X19570452Y49540452D01*
X19545466Y49570897D01*
X19526898Y49605636D01*
X19515465Y49643323D01*
X19511000Y49688661D01*
X19511000Y50775339D01*
X19515465Y50820677D01*
X19526898Y50858364D01*
X19545466Y50893103D01*
X19570452Y50923548D01*
X19600897Y50948534D01*
X19635636Y50967102D01*
X19673323Y50978535D01*
X19718661Y50983000D01*
X20555339Y50983000D01*
X20600677Y50978535D01*
X20600677Y50978535D01*
G37*
G36*
X18550677Y50978535D02*
X18588364Y50967102D01*
X18623103Y50948534D01*
X18653548Y50923548D01*
X18678534Y50893103D01*
X18697102Y50858364D01*
X18708535Y50820677D01*
X18713000Y50775339D01*
X18713000Y49688661D01*
X18708535Y49643323D01*
X18697102Y49605636D01*
X18678534Y49570897D01*
X18653548Y49540452D01*
X18623103Y49515466D01*
X18588364Y49496898D01*
X18550677Y49485465D01*
X18505339Y49481000D01*
X17668661Y49481000D01*
X17623323Y49485465D01*
X17585636Y49496898D01*
X17550897Y49515466D01*
X17520452Y49540452D01*
X17495466Y49570897D01*
X17476898Y49605636D01*
X17465465Y49643323D01*
X17461000Y49688661D01*
X17461000Y50775339D01*
X17465465Y50820677D01*
X17476898Y50858364D01*
X17495466Y50893103D01*
X17520452Y50923548D01*
X17550897Y50948534D01*
X17585636Y50967102D01*
X17623323Y50978535D01*
X17668661Y50983000D01*
X18505339Y50983000D01*
X18550677Y50978535D01*
X18550677Y50978535D01*
G37*
G36*
X53404229Y53031148D02*
X53494657Y53013161D01*
X53572483Y52980924D01*
X53749621Y52907551D01*
X53979089Y52754226D01*
X54174226Y52559089D01*
X54327551Y52329621D01*
X54388283Y52183000D01*
X54433161Y52074657D01*
X54487000Y51803986D01*
X54487000Y51528014D01*
X54433161Y51257343D01*
X54391236Y51156127D01*
X54327551Y51002379D01*
X54174226Y50772911D01*
X53979089Y50577774D01*
X53749621Y50424449D01*
X53600267Y50362585D01*
X53494657Y50318839D01*
X53450843Y50310124D01*
X53223988Y50265000D01*
X52948012Y50265000D01*
X52721157Y50310124D01*
X52677343Y50318839D01*
X52571733Y50362585D01*
X52422379Y50424449D01*
X52192911Y50577774D01*
X51997774Y50772911D01*
X51844449Y51002379D01*
X51780764Y51156127D01*
X51738839Y51257343D01*
X51685000Y51528014D01*
X51685000Y51803986D01*
X51738839Y52074657D01*
X51783717Y52183000D01*
X51844449Y52329621D01*
X51997774Y52559089D01*
X52192911Y52754226D01*
X52422379Y52907551D01*
X52599517Y52980924D01*
X52677343Y53013161D01*
X52767771Y53031148D01*
X52948012Y53067000D01*
X53223988Y53067000D01*
X53404229Y53031148D01*
X53404229Y53031148D01*
G37*
G36*
X22990677Y52178535D02*
X23028364Y52167102D01*
X23063103Y52148534D01*
X23093548Y52123548D01*
X23118534Y52093103D01*
X23137102Y52058364D01*
X23148535Y52020677D01*
X23153000Y51975339D01*
X23153000Y51138661D01*
X23148535Y51093323D01*
X23137102Y51055636D01*
X23118534Y51020897D01*
X23093548Y50990452D01*
X23063103Y50965466D01*
X23028364Y50946898D01*
X22990677Y50935465D01*
X22945339Y50931000D01*
X21858661Y50931000D01*
X21813323Y50935465D01*
X21775636Y50946898D01*
X21740897Y50965466D01*
X21710452Y50990452D01*
X21685466Y51020897D01*
X21666898Y51055636D01*
X21655465Y51093323D01*
X21651000Y51138661D01*
X21651000Y51975339D01*
X21655465Y52020677D01*
X21666898Y52058364D01*
X21685466Y52093103D01*
X21710452Y52123548D01*
X21740897Y52148534D01*
X21775636Y52167102D01*
X21813323Y52178535D01*
X21858661Y52183000D01*
X22945339Y52183000D01*
X22990677Y52178535D01*
X22990677Y52178535D01*
G37*
G36*
X34577562Y52623819D02*
X34612477Y52613227D01*
X34644665Y52596022D01*
X34672873Y52572873D01*
X34696022Y52544665D01*
X34713227Y52512477D01*
X34723819Y52477562D01*
X34728000Y52435105D01*
X34728000Y51293895D01*
X34723819Y51251438D01*
X34713227Y51216523D01*
X34696022Y51184335D01*
X34672873Y51156127D01*
X34644665Y51132978D01*
X34612477Y51115773D01*
X34577562Y51105181D01*
X34535105Y51101000D01*
X33068895Y51101000D01*
X33026438Y51105181D01*
X32991523Y51115773D01*
X32959335Y51132978D01*
X32931127Y51156127D01*
X32907978Y51184335D01*
X32890773Y51216523D01*
X32880181Y51251438D01*
X32876000Y51293895D01*
X32876000Y52435105D01*
X32880181Y52477562D01*
X32890773Y52512477D01*
X32907978Y52544665D01*
X32931127Y52572873D01*
X32959335Y52596022D01*
X32991523Y52613227D01*
X33026438Y52623819D01*
X33068895Y52628000D01*
X34535105Y52628000D01*
X34577562Y52623819D01*
X34577562Y52623819D01*
G37*
G36*
X24842562Y54833819D02*
X24877477Y54823227D01*
X24909665Y54806022D01*
X24937873Y54782873D01*
X24961022Y54754665D01*
X24978227Y54722477D01*
X24988819Y54687562D01*
X24993000Y54645105D01*
X24993000Y53178895D01*
X24988819Y53136438D01*
X24978227Y53101523D01*
X24961022Y53069335D01*
X24937873Y53041127D01*
X24909665Y53017978D01*
X24877477Y53000773D01*
X24842562Y52990181D01*
X24800105Y52986000D01*
X23658895Y52986000D01*
X23616438Y52990181D01*
X23581523Y53000773D01*
X23549335Y53017978D01*
X23521127Y53041127D01*
X23497978Y53069335D01*
X23480773Y53101523D01*
X23470181Y53136438D01*
X23466000Y53178895D01*
X23466000Y54645105D01*
X23470181Y54687562D01*
X23480773Y54722477D01*
X23497978Y54754665D01*
X23521127Y54782873D01*
X23549335Y54806022D01*
X23581523Y54823227D01*
X23616438Y54833819D01*
X23658895Y54838000D01*
X24800105Y54838000D01*
X24842562Y54833819D01*
X24842562Y54833819D01*
G37*
G36*
X21867562Y54833819D02*
X21902477Y54823227D01*
X21934665Y54806022D01*
X21962873Y54782873D01*
X21986022Y54754665D01*
X22003227Y54722477D01*
X22013819Y54687562D01*
X22018000Y54645105D01*
X22018000Y53178895D01*
X22013819Y53136438D01*
X22003227Y53101523D01*
X21986022Y53069335D01*
X21962873Y53041127D01*
X21934665Y53017978D01*
X21902477Y53000773D01*
X21867562Y52990181D01*
X21825105Y52986000D01*
X20683895Y52986000D01*
X20641438Y52990181D01*
X20606523Y53000773D01*
X20574335Y53017978D01*
X20546127Y53041127D01*
X20522978Y53069335D01*
X20505773Y53101523D01*
X20495181Y53136438D01*
X20491000Y53178895D01*
X20491000Y54645105D01*
X20495181Y54687562D01*
X20505773Y54722477D01*
X20522978Y54754665D01*
X20546127Y54782873D01*
X20574335Y54806022D01*
X20606523Y54823227D01*
X20641438Y54833819D01*
X20683895Y54838000D01*
X21825105Y54838000D01*
X21867562Y54833819D01*
X21867562Y54833819D01*
G37*
G36*
X34577562Y55598819D02*
X34612477Y55588227D01*
X34644665Y55571022D01*
X34672873Y55547873D01*
X34696022Y55519665D01*
X34713227Y55487477D01*
X34723819Y55452562D01*
X34728000Y55410105D01*
X34728000Y54268895D01*
X34723819Y54226438D01*
X34713227Y54191523D01*
X34696022Y54159335D01*
X34672873Y54131127D01*
X34644665Y54107978D01*
X34612477Y54090773D01*
X34577562Y54080181D01*
X34535105Y54076000D01*
X33068895Y54076000D01*
X33026438Y54080181D01*
X32991523Y54090773D01*
X32959335Y54107978D01*
X32931127Y54131127D01*
X32907978Y54159335D01*
X32890773Y54191523D01*
X32880181Y54226438D01*
X32876000Y54268895D01*
X32876000Y55410105D01*
X32880181Y55452562D01*
X32890773Y55487477D01*
X32907978Y55519665D01*
X32931127Y55547873D01*
X32959335Y55571022D01*
X32991523Y55588227D01*
X33026438Y55598819D01*
X33068895Y55603000D01*
X34535105Y55603000D01*
X34577562Y55598819D01*
X34577562Y55598819D01*
G37*
G36*
X54360032Y57023379D02*
X54389487Y57014444D01*
X54416624Y56999938D01*
X54440414Y56980414D01*
X54459938Y56956624D01*
X54474444Y56929487D01*
X54483379Y56900032D01*
X54487000Y56863267D01*
X54487000Y54388733D01*
X54483379Y54351968D01*
X54474444Y54322513D01*
X54459938Y54295376D01*
X54440414Y54271586D01*
X54416624Y54252062D01*
X54389487Y54237556D01*
X54360032Y54228621D01*
X54323267Y54225000D01*
X51848733Y54225000D01*
X51811968Y54228621D01*
X51782513Y54237556D01*
X51755376Y54252062D01*
X51731586Y54271586D01*
X51712062Y54295376D01*
X51697556Y54322513D01*
X51688621Y54351968D01*
X51685000Y54388733D01*
X51685000Y56863267D01*
X51688621Y56900032D01*
X51697556Y56929487D01*
X51712062Y56956624D01*
X51731586Y56980414D01*
X51755376Y56999938D01*
X51782513Y57014444D01*
X51811968Y57023379D01*
X51848733Y57027000D01*
X54323267Y57027000D01*
X54360032Y57023379D01*
X54360032Y57023379D01*
G37*
G36*
X24467562Y57403819D02*
X24502477Y57393227D01*
X24534665Y57376022D01*
X24562873Y57352873D01*
X24586022Y57324665D01*
X24603227Y57292477D01*
X24613819Y57257562D01*
X24618000Y57215105D01*
X24618000Y55748895D01*
X24613819Y55706438D01*
X24603227Y55671523D01*
X24586022Y55639335D01*
X24562873Y55611127D01*
X24534665Y55587978D01*
X24502477Y55570773D01*
X24467562Y55560181D01*
X24425105Y55556000D01*
X23283895Y55556000D01*
X23241438Y55560181D01*
X23206523Y55570773D01*
X23174335Y55587978D01*
X23146127Y55611127D01*
X23122978Y55639335D01*
X23105773Y55671523D01*
X23095181Y55706438D01*
X23091000Y55748895D01*
X23091000Y57215105D01*
X23095181Y57257562D01*
X23105773Y57292477D01*
X23122978Y57324665D01*
X23146127Y57352873D01*
X23174335Y57376022D01*
X23206523Y57393227D01*
X23241438Y57403819D01*
X23283895Y57408000D01*
X24425105Y57408000D01*
X24467562Y57403819D01*
X24467562Y57403819D01*
G37*
G36*
X27442562Y57403819D02*
X27477477Y57393227D01*
X27509665Y57376022D01*
X27537873Y57352873D01*
X27561022Y57324665D01*
X27578227Y57292477D01*
X27588819Y57257562D01*
X27593000Y57215105D01*
X27593000Y55748895D01*
X27588819Y55706438D01*
X27578227Y55671523D01*
X27561022Y55639335D01*
X27537873Y55611127D01*
X27509665Y55587978D01*
X27477477Y55570773D01*
X27442562Y55560181D01*
X27400105Y55556000D01*
X26258895Y55556000D01*
X26216438Y55560181D01*
X26181523Y55570773D01*
X26149335Y55587978D01*
X26121127Y55611127D01*
X26097978Y55639335D01*
X26080773Y55671523D01*
X26070181Y55706438D01*
X26066000Y55748895D01*
X26066000Y57215105D01*
X26070181Y57257562D01*
X26080773Y57292477D01*
X26097978Y57324665D01*
X26121127Y57352873D01*
X26149335Y57376022D01*
X26181523Y57393227D01*
X26216438Y57403819D01*
X26258895Y57408000D01*
X27400105Y57408000D01*
X27442562Y57403819D01*
X27442562Y57403819D01*
G37*
G36*
X29950677Y57148535D02*
X29988364Y57137102D01*
X30023103Y57118534D01*
X30053548Y57093548D01*
X30078534Y57063103D01*
X30097102Y57028364D01*
X30108535Y56990677D01*
X30113000Y56945339D01*
X30113000Y56108661D01*
X30108535Y56063323D01*
X30097102Y56025636D01*
X30078534Y55990897D01*
X30053548Y55960452D01*
X30023103Y55935466D01*
X29988364Y55916898D01*
X29950677Y55905465D01*
X29905339Y55901000D01*
X28818661Y55901000D01*
X28773323Y55905465D01*
X28735636Y55916898D01*
X28700897Y55935466D01*
X28670452Y55960452D01*
X28645466Y55990897D01*
X28626898Y56025636D01*
X28615465Y56063323D01*
X28611000Y56108661D01*
X28611000Y56945339D01*
X28615465Y56990677D01*
X28626898Y57028364D01*
X28645466Y57063103D01*
X28670452Y57093548D01*
X28700897Y57118534D01*
X28735636Y57137102D01*
X28773323Y57148535D01*
X28818661Y57153000D01*
X29905339Y57153000D01*
X29950677Y57148535D01*
X29950677Y57148535D01*
G37*
G36*
X32600093Y58980431D02*
X32619279Y58974611D01*
X32636953Y58965164D01*
X32652448Y58952448D01*
X32665164Y58936953D01*
X32674611Y58919279D01*
X32680431Y58900093D01*
X32683000Y58874010D01*
X32683000Y56589990D01*
X32680431Y56563907D01*
X32674611Y56544721D01*
X32665164Y56527047D01*
X32652448Y56511552D01*
X32636953Y56498836D01*
X32619279Y56489389D01*
X32600093Y56483569D01*
X32574010Y56481000D01*
X31739990Y56481000D01*
X31713907Y56483569D01*
X31694721Y56489389D01*
X31677047Y56498836D01*
X31661552Y56511552D01*
X31648836Y56527047D01*
X31639389Y56544721D01*
X31633569Y56563907D01*
X31631000Y56589990D01*
X31631000Y58874010D01*
X31633569Y58900093D01*
X31639389Y58919279D01*
X31648836Y58936953D01*
X31661552Y58952448D01*
X31677047Y58965164D01*
X31694721Y58974611D01*
X31713907Y58980431D01*
X31739990Y58983000D01*
X32574010Y58983000D01*
X32600093Y58980431D01*
X32600093Y58980431D01*
G37*
G36*
X34550093Y58980431D02*
X34569279Y58974611D01*
X34586953Y58965164D01*
X34602448Y58952448D01*
X34615164Y58936953D01*
X34624611Y58919279D01*
X34630431Y58900093D01*
X34633000Y58874010D01*
X34633000Y56589990D01*
X34630431Y56563907D01*
X34624611Y56544721D01*
X34615164Y56527047D01*
X34602448Y56511552D01*
X34586953Y56498836D01*
X34569279Y56489389D01*
X34550093Y56483569D01*
X34524010Y56481000D01*
X33689990Y56481000D01*
X33663907Y56483569D01*
X33644721Y56489389D01*
X33627047Y56498836D01*
X33611552Y56511552D01*
X33598836Y56527047D01*
X33589389Y56544721D01*
X33583569Y56563907D01*
X33581000Y56589990D01*
X33581000Y58874010D01*
X33583569Y58900093D01*
X33589389Y58919279D01*
X33598836Y58936953D01*
X33611552Y58952448D01*
X33627047Y58965164D01*
X33644721Y58974611D01*
X33663907Y58980431D01*
X33689990Y58983000D01*
X34524010Y58983000D01*
X34550093Y58980431D01*
X34550093Y58980431D01*
G37*
G36*
X29950677Y59198535D02*
X29988364Y59187102D01*
X30023103Y59168534D01*
X30053548Y59143548D01*
X30078534Y59113103D01*
X30097102Y59078364D01*
X30108535Y59040677D01*
X30113000Y58995339D01*
X30113000Y58158661D01*
X30108535Y58113323D01*
X30097102Y58075636D01*
X30078534Y58040897D01*
X30053548Y58010452D01*
X30023103Y57985466D01*
X29988364Y57966898D01*
X29950677Y57955465D01*
X29905339Y57951000D01*
X28818661Y57951000D01*
X28773323Y57955465D01*
X28735636Y57966898D01*
X28700897Y57985466D01*
X28670452Y58010452D01*
X28645466Y58040897D01*
X28626898Y58075636D01*
X28615465Y58113323D01*
X28611000Y58158661D01*
X28611000Y58995339D01*
X28615465Y59040677D01*
X28626898Y59078364D01*
X28645466Y59113103D01*
X28670452Y59143548D01*
X28700897Y59168534D01*
X28735636Y59187102D01*
X28773323Y59198535D01*
X28818661Y59203000D01*
X29905339Y59203000D01*
X29950677Y59198535D01*
X29950677Y59198535D01*
G37*
G36*
X40047256Y63760702D02*
X40153579Y63739553D01*
X40454042Y63615097D01*
X40720852Y63436820D01*
X40724454Y63434413D01*
X40954413Y63204454D01*
X41135098Y62934040D01*
X41259553Y62633578D01*
X41323000Y62314611D01*
X41323000Y61989389D01*
X41259553Y61670422D01*
X41135098Y61369960D01*
X40954413Y61099546D01*
X40724454Y60869587D01*
X40724451Y60869585D01*
X40454042Y60688903D01*
X40153579Y60564447D01*
X40047256Y60543298D01*
X39834611Y60501000D01*
X39509389Y60501000D01*
X39296744Y60543298D01*
X39190421Y60564447D01*
X38889958Y60688903D01*
X38619549Y60869585D01*
X38619546Y60869587D01*
X38389587Y61099546D01*
X38208902Y61369960D01*
X38084447Y61670422D01*
X38021000Y61989389D01*
X38021000Y62314611D01*
X38084447Y62633578D01*
X38208902Y62934040D01*
X38389587Y63204454D01*
X38619546Y63434413D01*
X38623148Y63436820D01*
X38889958Y63615097D01*
X39190421Y63739553D01*
X39296744Y63760702D01*
X39509389Y63803000D01*
X39834611Y63803000D01*
X40047256Y63760702D01*
X40047256Y63760702D01*
G37*
M02*
